G04*
G04 #@! TF.GenerationSoftware,Altium Limited,Altium Designer,25.5.2 (35)*
G04*
G04 Layer_Color=8388736*
%FSLAX43Y43*%
%MOMM*%
G71*
G04*
G04 #@! TF.SameCoordinates,FE7ED0D9-B591-4211-BBA3-B0FFD2393991*
G04*
G04*
G04 #@! TF.FilePolarity,Negative*
G04*
G01*
G75*
%ADD15C,0.500*%
%ADD18R,0.950X0.950*%
%ADD19R,1.100X1.900*%
%ADD20C,5.992*%
%ADD21R,1.674X2.690*%
%ADD22O,1.674X2.690*%
%ADD23C,0.950*%
D15*
X66040Y15240D02*
G03*
X57785Y23495I-8255J0D01*
G01*
X31115D02*
G03*
X22860Y15240I0J-8255D01*
G01*
X0Y0D02*
X88265D01*
Y12065D01*
X66040D02*
X88265D01*
X66040D02*
Y15240D01*
X50800Y23495D02*
X57785D01*
X50800D02*
Y31115D01*
X38100D02*
X50800D01*
X38100Y23495D02*
Y31115D01*
X31115Y23495D02*
X38100D01*
X22860Y12065D02*
Y15240D01*
X0Y12065D02*
X22860D01*
X0Y0D02*
Y12065D01*
D18*
X10630Y3526D02*
D03*
X22936Y3678D02*
D03*
X35405Y3810D02*
D03*
X47777Y3556D02*
D03*
X60050Y3600D02*
D03*
X84794Y3590D02*
D03*
X72319Y3829D02*
D03*
X6750Y9000D02*
D03*
X5250D02*
D03*
X86294Y3590D02*
D03*
X73819Y3829D02*
D03*
X61550Y3600D02*
D03*
X49277Y3556D02*
D03*
X36905Y3810D02*
D03*
X24436Y3678D02*
D03*
X12130Y3526D02*
D03*
X18750Y9000D02*
D03*
X17250D02*
D03*
X30750Y8900D02*
D03*
X29250D02*
D03*
X42750Y9000D02*
D03*
X41250D02*
D03*
X55750D02*
D03*
X54250D02*
D03*
X68750D02*
D03*
X67250D02*
D03*
X80750D02*
D03*
X79250D02*
D03*
D19*
X81890Y5461D02*
D03*
X78740D02*
D03*
X66446D02*
D03*
X69596D02*
D03*
X57277D02*
D03*
X54127D02*
D03*
X41681D02*
D03*
X44831D02*
D03*
X32385D02*
D03*
X29235D02*
D03*
X16916D02*
D03*
X20066D02*
D03*
X7620D02*
D03*
X4470D02*
D03*
D20*
X31115Y15240D02*
D03*
X57785D02*
D03*
D21*
X48260Y26670D02*
D03*
D22*
X40640D02*
D03*
X43180D02*
D03*
X45720D02*
D03*
D23*
X2200Y7800D02*
D03*
X12900Y5800D02*
D03*
X25100Y6000D02*
D03*
X37600Y6300D02*
D03*
X50100Y6100D02*
D03*
X70993Y1524D02*
D03*
X62500Y6600D02*
D03*
X75200Y7600D02*
D03*
X36926Y20863D02*
D03*
X25807Y18948D02*
D03*
X10600Y1600D02*
D03*
X21590Y1651D02*
D03*
X34036D02*
D03*
X46228Y1524D02*
D03*
X58674D02*
D03*
X83312D02*
D03*
X46595Y20955D02*
D03*
X57300Y7800D02*
D03*
X82200Y8100D02*
D03*
X70100Y7800D02*
D03*
X44800Y8000D02*
D03*
X32400Y8200D02*
D03*
X20100Y7900D02*
D03*
X7700Y7700D02*
D03*
M02*
