G04*
G04 #@! TF.GenerationSoftware,Altium Limited,Altium Designer,25.5.2 (35)*
G04*
G04 Layer_Physical_Order=1*
G04 Layer_Color=255*
%FSLAX43Y43*%
%MOMM*%
G71*
G04*
G04 #@! TF.SameCoordinates,FE7ED0D9-B591-4211-BBA3-B0FFD2393991*
G04*
G04*
G04 #@! TF.FilePolarity,Positive*
G04*
G01*
G75*
%ADD15C,0.500*%
%ADD16R,0.800X0.800*%
%ADD17R,0.950X1.750*%
%ADD24C,0.254*%
%ADD25C,5.842*%
%ADD26R,1.524X2.540*%
%ADD27O,1.524X2.540*%
%ADD28C,0.600*%
%ADD29C,0.800*%
G36*
X50494Y23495D02*
X50517Y23378D01*
X50584Y23279D01*
X50683Y23212D01*
X50800Y23189D01*
X58176D01*
X58953Y23113D01*
X59719Y22960D01*
X60466Y22733D01*
X61188Y22435D01*
X61877Y22066D01*
X62526Y21632D01*
X63130Y21137D01*
X63682Y20585D01*
X64177Y19981D01*
X64611Y19332D01*
X64980Y18643D01*
X65278Y17921D01*
X65505Y17174D01*
X65658Y16408D01*
X65734Y15631D01*
Y15240D01*
Y12065D01*
X65757Y11948D01*
X65824Y11849D01*
X65923Y11782D01*
X66040Y11759D01*
X87959D01*
Y306D01*
X306D01*
Y11759D01*
X22860D01*
X22977Y11782D01*
X23076Y11849D01*
X23143Y11948D01*
X23166Y12065D01*
Y15240D01*
Y15631D01*
X23242Y16408D01*
X23395Y17174D01*
X23622Y17921D01*
X23920Y18643D01*
X24289Y19332D01*
X24722Y19981D01*
X25218Y20585D01*
X25770Y21137D01*
X26374Y21632D01*
X27023Y22066D01*
X27712Y22435D01*
X28434Y22733D01*
X29181Y22960D01*
X29947Y23113D01*
X30724Y23189D01*
X38100D01*
X38217Y23212D01*
X38316Y23279D01*
X38383Y23378D01*
X38406Y23495D01*
Y30809D01*
X50494D01*
Y23495D01*
D02*
G37*
%LPC*%
G36*
X40767Y28186D02*
Y26797D01*
X41665D01*
Y27178D01*
X41630Y27443D01*
X41527Y27690D01*
X41365Y27903D01*
X41152Y28065D01*
X40905Y28168D01*
X40767Y28186D01*
D02*
G37*
G36*
X40513D02*
X40375Y28168D01*
X40128Y28065D01*
X39915Y27903D01*
X39753Y27690D01*
X39650Y27443D01*
X39615Y27178D01*
Y26797D01*
X40513D01*
Y28186D01*
D02*
G37*
G36*
X49222Y28140D02*
X47298D01*
Y25200D01*
X49222D01*
Y28140D01*
D02*
G37*
G36*
X41665Y26543D02*
X40767D01*
Y25154D01*
X40905Y25172D01*
X41152Y25275D01*
X41365Y25437D01*
X41527Y25650D01*
X41630Y25897D01*
X41665Y26162D01*
Y26543D01*
D02*
G37*
G36*
X40513D02*
X39615D01*
Y26162D01*
X39650Y25897D01*
X39753Y25650D01*
X39915Y25437D01*
X40128Y25275D01*
X40375Y25172D01*
X40513Y25154D01*
Y26543D01*
D02*
G37*
G36*
X43180Y28148D02*
X42929Y28115D01*
X42695Y28018D01*
X42494Y27864D01*
X42340Y27663D01*
X42243Y27429D01*
X42210Y27178D01*
Y26162D01*
X42243Y25911D01*
X42340Y25677D01*
X42494Y25476D01*
X42695Y25322D01*
X42847Y25259D01*
Y19188D01*
X42577Y18918D01*
X42545Y18925D01*
X42350Y18886D01*
X42185Y18775D01*
X42074Y18610D01*
X42035Y18415D01*
X42074Y18220D01*
X42185Y18055D01*
X42350Y17944D01*
X42545Y17905D01*
X42740Y17944D01*
X42905Y18055D01*
X43016Y18220D01*
X43055Y18415D01*
X43048Y18447D01*
X43416Y18814D01*
X43488Y18922D01*
X43513Y19050D01*
Y25259D01*
X43665Y25322D01*
X43866Y25476D01*
X44020Y25677D01*
X44117Y25911D01*
X44150Y26162D01*
Y27178D01*
X44117Y27429D01*
X44020Y27663D01*
X43866Y27864D01*
X43665Y28018D01*
X43431Y28115D01*
X43180Y28148D01*
D02*
G37*
G36*
X45720D02*
X45469Y28115D01*
X45235Y28018D01*
X45034Y27864D01*
X44880Y27663D01*
X44783Y27429D01*
X44750Y27178D01*
Y26162D01*
X44783Y25911D01*
X44880Y25677D01*
X45034Y25476D01*
X45235Y25322D01*
X45387Y25259D01*
Y18921D01*
X45360Y18902D01*
X45249Y18737D01*
X45210Y18542D01*
X45249Y18347D01*
X45360Y18182D01*
X45525Y18071D01*
X45720Y18032D01*
X45915Y18071D01*
X46080Y18182D01*
X46191Y18347D01*
X46230Y18542D01*
X46191Y18737D01*
X46080Y18902D01*
X46053Y18921D01*
Y25259D01*
X46205Y25322D01*
X46406Y25476D01*
X46560Y25677D01*
X46657Y25911D01*
X46690Y26162D01*
Y27178D01*
X46657Y27429D01*
X46560Y27663D01*
X46406Y27864D01*
X46205Y28018D01*
X45971Y28115D01*
X45720Y28148D01*
D02*
G37*
G36*
X57912Y18415D02*
Y15367D01*
X60960D01*
X60931Y15738D01*
X60814Y16224D01*
X60623Y16686D01*
X60362Y17112D01*
X60037Y17492D01*
X59657Y17817D01*
X59231Y18078D01*
X58769Y18269D01*
X58283Y18386D01*
X57912Y18415D01*
D02*
G37*
G36*
X57658D02*
X57287Y18386D01*
X56801Y18269D01*
X56339Y18078D01*
X55913Y17817D01*
X55533Y17492D01*
X55208Y17112D01*
X54947Y16686D01*
X54756Y16224D01*
X54639Y15738D01*
X54610Y15367D01*
X57658D01*
Y18415D01*
D02*
G37*
G36*
X31242D02*
Y15367D01*
X34290D01*
X34261Y15738D01*
X34144Y16224D01*
X33953Y16686D01*
X33692Y17112D01*
X33367Y17492D01*
X32987Y17817D01*
X32561Y18078D01*
X32099Y18269D01*
X31613Y18386D01*
X31242Y18415D01*
D02*
G37*
G36*
X30988D02*
X30617Y18386D01*
X30131Y18269D01*
X29669Y18078D01*
X29243Y17817D01*
X28863Y17492D01*
X28538Y17112D01*
X28277Y16686D01*
X28086Y16224D01*
X27969Y15738D01*
X27940Y15367D01*
X30988D01*
Y18415D01*
D02*
G37*
G36*
X60960Y15113D02*
X57912D01*
Y12065D01*
X58283Y12094D01*
X58769Y12211D01*
X59231Y12402D01*
X59657Y12663D01*
X60037Y12988D01*
X60362Y13368D01*
X60623Y13794D01*
X60814Y14256D01*
X60931Y14742D01*
X60960Y15113D01*
D02*
G37*
G36*
X57658D02*
X54610D01*
X54639Y14742D01*
X54756Y14256D01*
X54947Y13794D01*
X55208Y13368D01*
X55533Y12988D01*
X55913Y12663D01*
X56339Y12402D01*
X56801Y12211D01*
X57287Y12094D01*
X57658Y12065D01*
Y15113D01*
D02*
G37*
G36*
X34290D02*
X31242D01*
Y12065D01*
X31613Y12094D01*
X32099Y12211D01*
X32561Y12402D01*
X32987Y12663D01*
X33367Y12988D01*
X33692Y13368D01*
X33953Y13794D01*
X34144Y14256D01*
X34261Y14742D01*
X34290Y15113D01*
D02*
G37*
G36*
X30988D02*
X27940D01*
X27969Y14742D01*
X28086Y14256D01*
X28277Y13794D01*
X28538Y13368D01*
X28863Y12988D01*
X29243Y12663D01*
X29669Y12402D01*
X30131Y12211D01*
X30617Y12094D01*
X30988Y12065D01*
Y15113D01*
D02*
G37*
G36*
X41100Y12610D02*
X40905Y12571D01*
X40740Y12460D01*
X40629Y12295D01*
X40590Y12100D01*
X40597Y12068D01*
X39414Y10885D01*
X39341Y10777D01*
X39316Y10649D01*
Y8659D01*
X39289Y8641D01*
X39178Y8475D01*
X39140Y8280D01*
X39178Y8085D01*
X39289Y7920D01*
X39454Y7809D01*
X39649Y7771D01*
X39844Y7809D01*
X40010Y7920D01*
X40120Y8085D01*
X40159Y8280D01*
X40120Y8475D01*
X40010Y8641D01*
X39983Y8659D01*
Y10511D01*
X41068Y11597D01*
X41100Y11590D01*
X41295Y11629D01*
X41460Y11740D01*
X41571Y11905D01*
X41610Y12100D01*
X41571Y12295D01*
X41460Y12460D01*
X41295Y12571D01*
X41100Y12610D01*
D02*
G37*
G36*
X36500Y12110D02*
X36305Y12071D01*
X36140Y11960D01*
X36029Y11795D01*
X35990Y11600D01*
X35997Y11568D01*
X35272Y10843D01*
X28310D01*
X28182Y10818D01*
X28074Y10746D01*
X27530Y10201D01*
X27400Y10251D01*
X27371Y10395D01*
X27260Y10560D01*
X27095Y10671D01*
X26900Y10710D01*
X26705Y10671D01*
X26540Y10560D01*
X26521Y10533D01*
X21840D01*
X21635Y10739D01*
X21526Y10811D01*
X21399Y10837D01*
X16294D01*
X16167Y10811D01*
X16059Y10739D01*
X13925Y8605D01*
X13900Y8610D01*
X13705Y8571D01*
X13540Y8460D01*
X13429Y8295D01*
X13390Y8100D01*
X13429Y7905D01*
X13540Y7740D01*
X13705Y7629D01*
X13900Y7590D01*
X14095Y7629D01*
X14260Y7740D01*
X14371Y7905D01*
X14410Y8100D01*
X14402Y8139D01*
X16433Y10170D01*
X21261D01*
X21466Y9964D01*
X21574Y9892D01*
X21702Y9867D01*
X26521D01*
X26540Y9840D01*
X26705Y9729D01*
X26849Y9700D01*
X26899Y9570D01*
X25232Y7903D01*
X25200Y7910D01*
X25005Y7871D01*
X24840Y7760D01*
X24729Y7595D01*
X24690Y7400D01*
X24729Y7205D01*
X24840Y7040D01*
X25005Y6929D01*
X25200Y6890D01*
X25395Y6929D01*
X25560Y7040D01*
X25671Y7205D01*
X25710Y7400D01*
X25703Y7432D01*
X28448Y10176D01*
X35410D01*
X35537Y10202D01*
X35646Y10274D01*
X36468Y11097D01*
X36500Y11090D01*
X36695Y11129D01*
X36860Y11240D01*
X36971Y11405D01*
X37010Y11600D01*
X36971Y11795D01*
X36860Y11960D01*
X36695Y12071D01*
X36500Y12110D01*
D02*
G37*
G36*
X83200Y9910D02*
X83005Y9871D01*
X82840Y9760D01*
X82737Y9606D01*
X81023D01*
X80991Y9600D01*
X80150D01*
Y8400D01*
X81350D01*
Y8940D01*
X82979D01*
X82987Y8941D01*
X83005Y8929D01*
X83200Y8890D01*
X83395Y8929D01*
X83560Y9040D01*
X83671Y9205D01*
X83710Y9400D01*
X83671Y9595D01*
X83560Y9760D01*
X83395Y9871D01*
X83200Y9910D01*
D02*
G37*
G36*
X19350Y9600D02*
X18150D01*
Y8400D01*
X19350D01*
Y8667D01*
X21421D01*
X21440Y8640D01*
X21605Y8529D01*
X21800Y8490D01*
X21995Y8529D01*
X22160Y8640D01*
X22271Y8805D01*
X22310Y9000D01*
X22271Y9195D01*
X22160Y9360D01*
X21995Y9471D01*
X21800Y9510D01*
X21605Y9471D01*
X21440Y9360D01*
X21421Y9333D01*
X19350D01*
Y9600D01*
D02*
G37*
G36*
X7350D02*
X6150D01*
Y8400D01*
X7350D01*
Y8667D01*
X8821D01*
X8840Y8640D01*
X9005Y8529D01*
X9200Y8490D01*
X9395Y8529D01*
X9560Y8640D01*
X9671Y8805D01*
X9710Y9000D01*
X9671Y9195D01*
X9560Y9360D01*
X9395Y9471D01*
X9200Y9510D01*
X9005Y9471D01*
X8840Y9360D01*
X8821Y9333D01*
X7350D01*
Y9600D01*
D02*
G37*
G36*
X43350D02*
X42150D01*
Y8400D01*
X43350D01*
Y8667D01*
X46062D01*
X46197Y8532D01*
X46190Y8500D01*
X46229Y8305D01*
X46340Y8140D01*
X46505Y8029D01*
X46700Y7990D01*
X46895Y8029D01*
X47060Y8140D01*
X47171Y8305D01*
X47210Y8500D01*
X47171Y8695D01*
X47060Y8860D01*
X46895Y8971D01*
X46700Y9010D01*
X46668Y9003D01*
X46436Y9236D01*
X46328Y9308D01*
X46200Y9333D01*
X43350D01*
Y9600D01*
D02*
G37*
G36*
X69350D02*
X68150D01*
Y8400D01*
X69350D01*
Y8667D01*
X70462D01*
X70697Y8432D01*
X70690Y8400D01*
X70729Y8205D01*
X70840Y8040D01*
X71005Y7929D01*
X71200Y7890D01*
X71395Y7929D01*
X71560Y8040D01*
X71671Y8205D01*
X71710Y8400D01*
X71671Y8595D01*
X71560Y8760D01*
X71395Y8871D01*
X71200Y8910D01*
X71168Y8903D01*
X70836Y9236D01*
X70728Y9308D01*
X70600Y9333D01*
X69350D01*
Y9600D01*
D02*
G37*
G36*
X56350D02*
X55150D01*
Y8400D01*
X56350D01*
Y8667D01*
X57668D01*
X58104Y8231D01*
X58129Y8105D01*
X58240Y7940D01*
X58405Y7829D01*
X58600Y7790D01*
X58795Y7829D01*
X58960Y7940D01*
X59071Y8105D01*
X59110Y8300D01*
X59071Y8495D01*
X58960Y8660D01*
X58795Y8771D01*
X58600Y8810D01*
X58490Y8788D01*
X58042Y9236D01*
X57934Y9308D01*
X57806Y9333D01*
X56350D01*
Y9600D01*
D02*
G37*
G36*
X31350Y9500D02*
X30150D01*
Y8300D01*
X31350D01*
Y8594D01*
X33735D01*
X34197Y8132D01*
X34190Y8100D01*
X34229Y7905D01*
X34340Y7740D01*
X34505Y7629D01*
X34700Y7590D01*
X34895Y7629D01*
X35060Y7740D01*
X35171Y7905D01*
X35210Y8100D01*
X35171Y8295D01*
X35060Y8460D01*
X34895Y8571D01*
X34700Y8610D01*
X34668Y8603D01*
X34109Y9163D01*
X34001Y9235D01*
X33873Y9260D01*
X31350D01*
Y9500D01*
D02*
G37*
G36*
X46228Y13896D02*
X46033Y13857D01*
X45868Y13746D01*
X45757Y13581D01*
X45718Y13386D01*
X45757Y13191D01*
X45868Y13025D01*
X45895Y13007D01*
Y11405D01*
X45920Y11277D01*
X45992Y11169D01*
X46897Y10264D01*
X47005Y10192D01*
X47133Y10167D01*
X48962D01*
X49867Y9262D01*
Y8179D01*
X49840Y8160D01*
X49729Y7995D01*
X49690Y7800D01*
X49729Y7605D01*
X49840Y7440D01*
X50005Y7329D01*
X50200Y7290D01*
X50395Y7329D01*
X50560Y7440D01*
X50671Y7605D01*
X50710Y7800D01*
X50671Y7995D01*
X50560Y8160D01*
X50533Y8179D01*
Y9400D01*
X50508Y9528D01*
X50436Y9636D01*
X49336Y10736D01*
X49228Y10808D01*
X49100Y10833D01*
X47271D01*
X46561Y11543D01*
Y13007D01*
X46588Y13025D01*
X46699Y13191D01*
X46738Y13386D01*
X46699Y13581D01*
X46588Y13746D01*
X46423Y13857D01*
X46228Y13896D01*
D02*
G37*
G36*
X82619Y6590D02*
X82017D01*
Y5588D01*
X82619D01*
Y6590D01*
D02*
G37*
G36*
X70325D02*
X69723D01*
Y5588D01*
X70325D01*
Y6590D01*
D02*
G37*
G36*
X58006D02*
X57404D01*
Y5588D01*
X58006D01*
Y6590D01*
D02*
G37*
G36*
X45560D02*
X44958D01*
Y5588D01*
X45560D01*
Y6590D01*
D02*
G37*
G36*
X33114D02*
X32512D01*
Y5588D01*
X33114D01*
Y6590D01*
D02*
G37*
G36*
X20795D02*
X20193D01*
Y5588D01*
X20795D01*
Y6590D01*
D02*
G37*
G36*
X8349D02*
X7747D01*
Y5588D01*
X8349D01*
Y6590D01*
D02*
G37*
G36*
X44704D02*
X44102D01*
Y5588D01*
X44704D01*
Y6590D01*
D02*
G37*
G36*
X81763D02*
X81161D01*
Y5588D01*
X81763D01*
Y6590D01*
D02*
G37*
G36*
X69469D02*
X68867D01*
Y5588D01*
X69469D01*
Y6590D01*
D02*
G37*
G36*
X57150D02*
X56548D01*
Y5588D01*
X57150D01*
Y6590D01*
D02*
G37*
G36*
X32258D02*
X31656D01*
Y5588D01*
X32258D01*
Y6590D01*
D02*
G37*
G36*
X19939D02*
X19337D01*
Y5588D01*
X19939D01*
Y6590D01*
D02*
G37*
G36*
X7493D02*
X6891D01*
Y5588D01*
X7493D01*
Y6590D01*
D02*
G37*
G36*
X79850Y9600D02*
X78650D01*
Y8872D01*
X78504Y8726D01*
X78432Y8618D01*
X78407Y8490D01*
Y6536D01*
X78065D01*
Y4386D01*
X79415D01*
Y6536D01*
X79073D01*
Y8352D01*
X79122Y8400D01*
X79850D01*
Y9600D01*
D02*
G37*
G36*
X67850D02*
X66650D01*
Y8400D01*
X66917D01*
Y7888D01*
X66210Y7182D01*
X66138Y7074D01*
X66113Y6946D01*
Y6536D01*
X65771D01*
Y4386D01*
X67121D01*
Y6536D01*
X66779D01*
Y6808D01*
X67486Y7514D01*
X67558Y7622D01*
X67583Y7750D01*
Y8400D01*
X67850D01*
Y9600D01*
D02*
G37*
G36*
X54850D02*
X53650D01*
Y8400D01*
X53917D01*
Y6536D01*
X53452D01*
Y4386D01*
X54802D01*
Y6536D01*
X54583D01*
Y8400D01*
X54850D01*
Y9600D01*
D02*
G37*
G36*
X41850D02*
X40650D01*
Y8400D01*
X40917D01*
Y6292D01*
X40942Y6164D01*
X41006Y6069D01*
Y4386D01*
X42356D01*
Y6536D01*
X41583D01*
Y8400D01*
X41850D01*
Y9600D01*
D02*
G37*
G36*
X29850Y9500D02*
X28650D01*
Y8300D01*
X28917D01*
Y6536D01*
X28560D01*
Y4386D01*
X29910D01*
Y6536D01*
X29583D01*
Y8300D01*
X29850D01*
Y9500D01*
D02*
G37*
G36*
X17850Y9600D02*
X16650D01*
Y8856D01*
X16608Y8794D01*
X16583Y8666D01*
Y6536D01*
X16241D01*
Y4386D01*
X17591D01*
Y6536D01*
X17249D01*
Y8400D01*
X17850D01*
Y9600D01*
D02*
G37*
G36*
X5850D02*
X4650D01*
Y8872D01*
X4114Y8336D01*
X4042Y8228D01*
X4017Y8100D01*
Y6536D01*
X3795D01*
Y4386D01*
X5145D01*
Y6536D01*
X4683D01*
Y7962D01*
X5122Y8400D01*
X5850D01*
Y9600D01*
D02*
G37*
G36*
X82619Y5334D02*
X82017D01*
Y4332D01*
X82619D01*
Y5334D01*
D02*
G37*
G36*
X81763D02*
X81161D01*
Y4332D01*
X81763D01*
Y5334D01*
D02*
G37*
G36*
X70325D02*
X69723D01*
Y4332D01*
X70325D01*
Y5334D01*
D02*
G37*
G36*
X69469D02*
X68867D01*
Y4332D01*
X69469D01*
Y5334D01*
D02*
G37*
G36*
X58006D02*
X57404D01*
Y4332D01*
X58006D01*
Y5334D01*
D02*
G37*
G36*
X57150D02*
X56548D01*
Y4332D01*
X57150D01*
Y5334D01*
D02*
G37*
G36*
X45560D02*
X44958D01*
Y4332D01*
X45560D01*
Y5334D01*
D02*
G37*
G36*
X44704D02*
X44102D01*
Y4332D01*
X44704D01*
Y5334D01*
D02*
G37*
G36*
X33114D02*
X32512D01*
Y4332D01*
X33114D01*
Y5334D01*
D02*
G37*
G36*
X32258D02*
X31656D01*
Y4332D01*
X32258D01*
Y5334D01*
D02*
G37*
G36*
X20795D02*
X20193D01*
Y4332D01*
X20795D01*
Y5334D01*
D02*
G37*
G36*
X19939D02*
X19337D01*
Y4332D01*
X19939D01*
Y5334D01*
D02*
G37*
G36*
X8349D02*
X7747D01*
Y4332D01*
X8349D01*
Y5334D01*
D02*
G37*
G36*
X7493D02*
X6891D01*
Y4332D01*
X7493D01*
Y5334D01*
D02*
G37*
G36*
X74473Y4483D02*
X73946D01*
Y3956D01*
X74473D01*
Y4483D01*
D02*
G37*
G36*
X73692D02*
X73165D01*
Y3956D01*
X73692D01*
Y4483D01*
D02*
G37*
G36*
X37559Y4464D02*
X37032D01*
Y3937D01*
X37559D01*
Y4464D01*
D02*
G37*
G36*
X36778D02*
X36251D01*
Y3937D01*
X36778D01*
Y4464D01*
D02*
G37*
G36*
X25090Y4332D02*
X24563D01*
Y3805D01*
X25090D01*
Y4332D01*
D02*
G37*
G36*
X24309D02*
X23782D01*
Y3805D01*
X24309D01*
Y4332D01*
D02*
G37*
G36*
X62204Y4254D02*
X61677D01*
Y3727D01*
X62204D01*
Y4254D01*
D02*
G37*
G36*
X61423D02*
X60896D01*
Y3727D01*
X61423D01*
Y4254D01*
D02*
G37*
G36*
X86948Y4244D02*
X86421D01*
Y3717D01*
X86948D01*
Y4244D01*
D02*
G37*
G36*
X86167D02*
X85640D01*
Y3717D01*
X86167D01*
Y4244D01*
D02*
G37*
G36*
X49931Y4210D02*
X49404D01*
Y3683D01*
X49931D01*
Y4210D01*
D02*
G37*
G36*
X49150D02*
X48623D01*
Y3683D01*
X49150D01*
Y4210D01*
D02*
G37*
G36*
X12784Y4180D02*
X12257D01*
Y3653D01*
X12784D01*
Y4180D01*
D02*
G37*
G36*
X12003D02*
X11476D01*
Y3653D01*
X12003D01*
Y4180D01*
D02*
G37*
G36*
X74473Y3702D02*
X73946D01*
Y3175D01*
X74473D01*
Y3702D01*
D02*
G37*
G36*
X73692D02*
X73165D01*
Y3175D01*
X73692D01*
Y3702D01*
D02*
G37*
G36*
X37559Y3683D02*
X37032D01*
Y3156D01*
X37559D01*
Y3683D01*
D02*
G37*
G36*
X36778D02*
X36251D01*
Y3156D01*
X36778D01*
Y3683D01*
D02*
G37*
G36*
X25090Y3551D02*
X24563D01*
Y3024D01*
X25090D01*
Y3551D01*
D02*
G37*
G36*
X24309D02*
X23782D01*
Y3024D01*
X24309D01*
Y3551D01*
D02*
G37*
G36*
X62204Y3473D02*
X61677D01*
Y2946D01*
X62204D01*
Y3473D01*
D02*
G37*
G36*
X61423D02*
X60896D01*
Y2946D01*
X61423D01*
Y3473D01*
D02*
G37*
G36*
X86948Y3463D02*
X86421D01*
Y2936D01*
X86948D01*
Y3463D01*
D02*
G37*
G36*
X86167D02*
X85640D01*
Y2936D01*
X86167D01*
Y3463D01*
D02*
G37*
G36*
X49931Y3429D02*
X49404D01*
Y2902D01*
X49931D01*
Y3429D01*
D02*
G37*
G36*
X49150D02*
X48623D01*
Y2902D01*
X49150D01*
Y3429D01*
D02*
G37*
G36*
X12784Y3399D02*
X12257D01*
Y2872D01*
X12784D01*
Y3399D01*
D02*
G37*
G36*
X12003D02*
X11476D01*
Y2872D01*
X12003D01*
Y3399D01*
D02*
G37*
G36*
X36926Y21475D02*
X36692Y21429D01*
X36493Y21296D01*
X36360Y21098D01*
X36314Y20863D01*
X36360Y20629D01*
X36467Y20470D01*
Y14874D01*
X36502Y14699D01*
X36601Y14550D01*
X38007Y13144D01*
Y7034D01*
X38042Y6859D01*
X38141Y6710D01*
X38784Y6067D01*
Y2046D01*
X34495D01*
Y2251D01*
X35454Y3210D01*
X36005D01*
Y4410D01*
X34805D01*
Y3859D01*
X33712Y2766D01*
X33612Y2617D01*
X33577Y2441D01*
Y2046D01*
X22149D01*
Y2242D01*
X22985Y3078D01*
X23536D01*
Y4278D01*
X22336D01*
Y3727D01*
X21365Y2756D01*
X21266Y2608D01*
X21231Y2432D01*
Y2133D01*
X21159Y2084D01*
X11059D01*
Y2926D01*
X11230D01*
Y4126D01*
X10030D01*
Y2926D01*
X10141D01*
Y1993D01*
X10035Y1834D01*
X9988Y1600D01*
X10035Y1366D01*
X10167Y1167D01*
X10366Y1035D01*
X10600Y988D01*
X10834Y1035D01*
X11031Y1167D01*
X21235D01*
X21356Y1086D01*
X21590Y1039D01*
X21824Y1086D01*
X21888Y1129D01*
X33738D01*
X33802Y1086D01*
X34036Y1039D01*
X34270Y1086D01*
X34334Y1129D01*
X45771D01*
X45795Y1091D01*
X45994Y959D01*
X46228Y912D01*
X46462Y959D01*
X46621Y1065D01*
X58281D01*
X58440Y959D01*
X58674Y912D01*
X58908Y959D01*
X59067Y1065D01*
X70600D01*
X70759Y959D01*
X70993Y912D01*
X71227Y959D01*
X71352Y1042D01*
X82953D01*
X83078Y959D01*
X83312Y912D01*
X83546Y959D01*
X83745Y1091D01*
X83877Y1290D01*
X83915Y1478D01*
X85070Y2633D01*
X85170Y2782D01*
X85205Y2958D01*
Y2990D01*
X85394D01*
Y4190D01*
X84194D01*
Y3055D01*
X83266Y2127D01*
X83078Y2089D01*
X82884Y1960D01*
X72244D01*
X72195Y2077D01*
X72643Y2525D01*
X72743Y2674D01*
X72778Y2850D01*
Y3229D01*
X72919D01*
Y4429D01*
X71719D01*
Y3229D01*
X71860D01*
Y3040D01*
X70947Y2127D01*
X70759Y2089D01*
X70600Y1983D01*
X66937D01*
X66870Y2087D01*
X66872Y2110D01*
X66910Y2300D01*
X66871Y2495D01*
X66760Y2660D01*
X66595Y2771D01*
X66400Y2810D01*
X66368Y2803D01*
X64733Y4438D01*
Y6900D01*
X64708Y7028D01*
X64636Y7136D01*
X60536Y11236D01*
X60428Y11308D01*
X60300Y11333D01*
X54338D01*
X51937Y13734D01*
X51944Y13766D01*
X51905Y13961D01*
X51794Y14127D01*
X51629Y14237D01*
X51434Y14276D01*
X51239Y14237D01*
X51073Y14127D01*
X50963Y13961D01*
X50924Y13766D01*
X50963Y13571D01*
X51073Y13406D01*
X51239Y13295D01*
X51434Y13256D01*
X51466Y13263D01*
X53964Y10764D01*
X54072Y10692D01*
X54200Y10667D01*
X60162D01*
X64067Y6762D01*
Y4300D01*
X64092Y4172D01*
X64164Y4064D01*
X65897Y2332D01*
X65890Y2300D01*
X65928Y2110D01*
X65930Y2087D01*
X65863Y1983D01*
X59948D01*
X59899Y2100D01*
X60374Y2576D01*
X60474Y2724D01*
X60509Y2900D01*
Y3000D01*
X60650D01*
Y4200D01*
X59450D01*
Y3000D01*
X59450Y3000D01*
X59450D01*
X59396Y2895D01*
X58628Y2127D01*
X58440Y2089D01*
X58281Y1983D01*
X52137D01*
X52070Y2087D01*
X52072Y2110D01*
X52110Y2300D01*
X52071Y2495D01*
X51960Y2660D01*
X51933Y2679D01*
Y11417D01*
X51908Y11545D01*
X51836Y11653D01*
X47632Y15857D01*
X47524Y15929D01*
X47396Y15954D01*
X46581D01*
X46563Y15981D01*
X46398Y16092D01*
X46203Y16131D01*
X46008Y16092D01*
X45842Y15981D01*
X45732Y15816D01*
X45693Y15621D01*
X45732Y15426D01*
X45842Y15261D01*
X46008Y15150D01*
X46203Y15111D01*
X46398Y15150D01*
X46563Y15261D01*
X46581Y15288D01*
X47258D01*
X51267Y11279D01*
Y2679D01*
X51240Y2660D01*
X51129Y2495D01*
X51090Y2300D01*
X51128Y2110D01*
X51130Y2087D01*
X51063Y1983D01*
X47019D01*
X46970Y2100D01*
X47826Y2956D01*
X48377D01*
Y4156D01*
X47177D01*
Y3605D01*
X46008Y2436D01*
X45909Y2287D01*
X45874Y2111D01*
Y2046D01*
X39702D01*
Y6257D01*
X39667Y6433D01*
X39567Y6581D01*
X38925Y7224D01*
Y13334D01*
X38890Y13510D01*
X38790Y13659D01*
X37384Y15064D01*
Y20470D01*
X37491Y20629D01*
X37537Y20863D01*
X37491Y21098D01*
X37358Y21296D01*
X37160Y21429D01*
X36926Y21475D01*
D02*
G37*
%LPD*%
D15*
X58674Y1524D02*
X70993D01*
X71057Y1587D02*
X72319Y2850D01*
X71016Y1501D02*
X83289D01*
X58674Y1524D02*
X60050Y2900D01*
X83289Y1501D02*
X83312Y1524D01*
X72319Y2850D02*
Y3829D01*
X36926Y14874D02*
Y20863D01*
Y14874D02*
X38466Y13334D01*
X46260Y1556D02*
X46292Y1524D01*
X46228Y1587D02*
X46260Y1556D01*
X39243Y1587D02*
X46228D01*
X21653D02*
X39243D01*
X83312Y1524D02*
X84746Y2958D01*
X10600Y1600D02*
X10625Y1625D01*
X21565D01*
X21590Y1651D01*
X21653Y1587D01*
X21690Y1751D02*
Y2432D01*
X21590Y1651D02*
X21690Y1751D01*
X10600Y1600D02*
Y3496D01*
X10630Y3526D01*
X21690Y2432D02*
X22936Y3678D01*
X34036Y1651D02*
Y2441D01*
X35405Y3810D01*
X39243Y1587D02*
Y6257D01*
X38466Y7034D02*
Y13334D01*
Y7034D02*
X39243Y6257D01*
X46228Y1524D02*
X46260Y1556D01*
X46292Y1524D02*
X58674D01*
X46260Y1556D02*
X46332Y1628D01*
Y2111D01*
X47777Y3556D01*
X60050Y2900D02*
Y3600D01*
X84746Y2958D02*
Y3542D01*
X84794Y3590D01*
X66040Y15240D02*
G03*
X57785Y23495I-8255J0D01*
G01*
X31115D02*
G03*
X22860Y15240I0J-8255D01*
G01*
X0Y0D02*
X88265D01*
Y12065D01*
X66040D02*
X88265D01*
X66040D02*
Y15240D01*
X50800Y23495D02*
X57785D01*
X50800D02*
Y31115D01*
X38100D02*
X50800D01*
X38100Y23495D02*
Y31115D01*
X31115Y23495D02*
X38100D01*
X22860Y12065D02*
Y15240D01*
X0Y12065D02*
X22860D01*
X0Y0D02*
Y12065D01*
D16*
X10630Y3526D02*
D03*
X22936Y3678D02*
D03*
X35405Y3810D02*
D03*
X47777Y3556D02*
D03*
X60050Y3600D02*
D03*
X84794Y3590D02*
D03*
X72319Y3829D02*
D03*
X6750Y9000D02*
D03*
X5250D02*
D03*
X86294Y3590D02*
D03*
X73819Y3829D02*
D03*
X61550Y3600D02*
D03*
X49277Y3556D02*
D03*
X36905Y3810D02*
D03*
X24436Y3678D02*
D03*
X12130Y3526D02*
D03*
X18750Y9000D02*
D03*
X17250D02*
D03*
X30750Y8900D02*
D03*
X29250D02*
D03*
X42750Y9000D02*
D03*
X41250D02*
D03*
X55750D02*
D03*
X54250D02*
D03*
X68750D02*
D03*
X67250D02*
D03*
X80750D02*
D03*
X79250D02*
D03*
D17*
X81890Y5461D02*
D03*
X78740D02*
D03*
X66446D02*
D03*
X69596D02*
D03*
X57277D02*
D03*
X54127D02*
D03*
X41681D02*
D03*
X44831D02*
D03*
X32385D02*
D03*
X29235D02*
D03*
X16916D02*
D03*
X20066D02*
D03*
X7620D02*
D03*
X4470D02*
D03*
D24*
X12130Y3526D02*
X13256Y2400D01*
X13300D01*
X25434Y2566D02*
Y2680D01*
X24436Y3678D02*
X25434Y2680D01*
Y2566D02*
X25500Y2500D01*
X36905Y3810D02*
X37696Y3019D01*
Y2604D02*
X37800Y2500D01*
X37696Y2604D02*
Y3019D01*
X47396Y15621D02*
X51600Y11417D01*
Y2300D02*
Y11417D01*
X50196Y2404D02*
X50300Y2300D01*
X49277Y3556D02*
X50196Y2637D01*
Y2404D02*
Y2637D01*
X62700Y2400D02*
Y2450D01*
X61550Y3600D02*
X62700Y2450D01*
X74696Y2604D02*
Y2952D01*
Y2604D02*
X74800Y2500D01*
X73819Y3829D02*
X74696Y2952D01*
X28310Y10510D02*
X35410D01*
X36500Y11600D01*
X21399Y10503D02*
X21702Y10200D01*
X26900D01*
X16294Y10503D02*
X21399D01*
X13900Y8109D02*
X16294Y10503D01*
X30750Y8900D02*
X30777Y8927D01*
X33873D01*
X34700Y8100D01*
X25200Y7400D02*
X28310Y10510D01*
X86294Y2506D02*
X86700Y2100D01*
X86294Y2506D02*
Y3590D01*
X54200Y11000D02*
X60300D01*
X51434Y13766D02*
X54200Y11000D01*
X60300D02*
X64400Y6900D01*
Y4300D02*
Y6900D01*
Y4300D02*
X66400Y2300D01*
X47133Y10500D02*
X49100D01*
X46228Y11405D02*
X47133Y10500D01*
X49100D02*
X50200Y9400D01*
Y7800D02*
Y9400D01*
X39649Y8280D02*
Y10649D01*
X41100Y12100D01*
X46203Y15621D02*
X47396D01*
X57277Y5461D02*
X57300Y5484D01*
Y7800D01*
X70100Y7703D02*
Y7800D01*
X69596Y7200D02*
X70100Y7703D01*
X82200Y6171D02*
Y8100D01*
X69596Y5461D02*
Y7200D01*
X81890Y5861D02*
X82200Y6171D01*
X81890Y5461D02*
Y5861D01*
X44800Y5492D02*
Y8000D01*
Y5492D02*
X44831Y5461D01*
X32385Y8185D02*
X32400Y8200D01*
X32385Y5461D02*
Y8185D01*
X7700Y5541D02*
Y7700D01*
X20100Y5495D02*
Y7900D01*
X20066Y5461D02*
X20100Y5495D01*
X7620Y5461D02*
X7700Y5541D01*
X13900Y8100D02*
Y8109D01*
X46228Y11405D02*
Y13386D01*
X42545Y18415D02*
X43180Y19050D01*
Y26670D01*
X45720Y18542D02*
Y26670D01*
X18750Y9000D02*
X21800D01*
X16916Y8666D02*
X17250Y9000D01*
X16916Y5461D02*
Y8666D01*
X29250Y5476D02*
Y8900D01*
X41250Y6292D02*
Y9000D01*
X41681Y5461D02*
Y5861D01*
X41250Y6292D02*
X41681Y5861D01*
X42750Y9000D02*
X46200D01*
X46700Y8500D01*
X54127Y5461D02*
X54250Y5584D01*
Y9000D01*
X57806D02*
X58506Y8300D01*
X55750Y9000D02*
X57806D01*
X66446Y5461D02*
Y6946D01*
X67250Y7750D02*
Y9000D01*
X66446Y6946D02*
X67250Y7750D01*
X70600Y9000D02*
X71200Y8400D01*
X68750Y9000D02*
X70600D01*
X81023Y9273D02*
X82979D01*
X83106Y9400D02*
X83200D01*
X82979Y9273D02*
X83106Y9400D01*
X80750Y9000D02*
X81023Y9273D01*
X78740Y5461D02*
Y8490D01*
Y5334D02*
Y5461D01*
Y8490D02*
X79250Y9000D01*
X58506Y8300D02*
X58600D01*
X6750Y9000D02*
X9200D01*
X4350Y5454D02*
Y8100D01*
Y5454D02*
X4470Y5334D01*
X4350Y8100D02*
X5250Y9000D01*
D25*
X31115Y15240D02*
D03*
X57785D02*
D03*
D26*
X48260Y26670D02*
D03*
D27*
X40640D02*
D03*
X43180D02*
D03*
X45720D02*
D03*
D28*
X700Y5000D02*
D03*
X13300Y2400D02*
D03*
X25500Y2500D02*
D03*
X37800D02*
D03*
X86700Y2100D02*
D03*
X74800Y2500D02*
D03*
X62700Y2400D02*
D03*
X50300Y2300D02*
D03*
X51600D02*
D03*
X36400Y22500D02*
D03*
X23907Y15299D02*
D03*
X36500Y11600D02*
D03*
X26900Y10200D02*
D03*
X34700Y8100D02*
D03*
X25200Y7400D02*
D03*
X47000Y22700D02*
D03*
X83900Y11200D02*
D03*
X81500D02*
D03*
X85500Y9200D02*
D03*
X80400Y7200D02*
D03*
X82100Y2500D02*
D03*
X79100D02*
D03*
X77500Y8200D02*
D03*
X74200Y8400D02*
D03*
X71100Y7300D02*
D03*
X70000Y2500D02*
D03*
X68200Y7600D02*
D03*
X65200Y8300D02*
D03*
X62600Y5000D02*
D03*
X58700Y2900D02*
D03*
X58800Y7100D02*
D03*
X61700Y8000D02*
D03*
X55473Y7337D02*
D03*
X52600Y10900D02*
D03*
X47000Y18500D02*
D03*
X47100Y12200D02*
D03*
X50100Y11000D02*
D03*
X46400Y7600D02*
D03*
X49100Y8400D02*
D03*
X50300Y4800D02*
D03*
X52800Y8100D02*
D03*
X39900Y7300D02*
D03*
X43300Y7200D02*
D03*
X43500Y2500D02*
D03*
X45400D02*
D03*
X41000D02*
D03*
X33900Y7900D02*
D03*
X32700Y2600D02*
D03*
X28200Y2500D02*
D03*
X25100Y9000D02*
D03*
X28000Y8100D02*
D03*
X30900Y7400D02*
D03*
X15400Y8000D02*
D03*
X18500Y7600D02*
D03*
Y2600D02*
D03*
X12500Y8900D02*
D03*
X6200Y7700D02*
D03*
X3500Y9000D02*
D03*
X39100Y26700D02*
D03*
Y28800D02*
D03*
Y24500D02*
D03*
X58000Y22500D02*
D03*
X55000D02*
D03*
X52000D02*
D03*
X60500Y21900D02*
D03*
X63500Y19500D02*
D03*
X65000Y15900D02*
D03*
Y12000D02*
D03*
X51200Y18200D02*
D03*
X46600Y17100D02*
D03*
X45800Y14500D02*
D03*
X45400Y10500D02*
D03*
X42400Y12100D02*
D03*
X41000Y13600D02*
D03*
X37167Y8708D02*
D03*
X37300Y11300D02*
D03*
X35829Y15439D02*
D03*
X34300Y22500D02*
D03*
X41100Y22200D02*
D03*
X42200Y20700D02*
D03*
X44500Y18400D02*
D03*
Y21000D02*
D03*
X49900Y27100D02*
D03*
X49500Y30000D02*
D03*
X47000D02*
D03*
X44500D02*
D03*
X42000D02*
D03*
X39500D02*
D03*
X31800Y22500D02*
D03*
X28800Y22200D02*
D03*
X26784Y20875D02*
D03*
X24800Y18900D02*
D03*
X23900Y12500D02*
D03*
X22921Y11445D02*
D03*
X20312Y11425D02*
D03*
X14900Y11300D02*
D03*
X9500D02*
D03*
X4100D02*
D03*
X1300D02*
D03*
X1000Y7700D02*
D03*
Y10200D02*
D03*
Y700D02*
D03*
X5900D02*
D03*
X11300D02*
D03*
X16700D02*
D03*
X22100D02*
D03*
X27500D02*
D03*
X32900D02*
D03*
X38300D02*
D03*
X43700D02*
D03*
X49100D02*
D03*
X54500D02*
D03*
X59900D02*
D03*
X65300D02*
D03*
X70400D02*
D03*
X76100D02*
D03*
X81500D02*
D03*
X85000Y1000D02*
D03*
X87500D02*
D03*
Y6000D02*
D03*
Y8500D02*
D03*
Y11000D02*
D03*
X83700Y7600D02*
D03*
X51434Y13766D02*
D03*
X66400Y2300D02*
D03*
X50200Y7800D02*
D03*
X46203Y15621D02*
D03*
X13900Y8100D02*
D03*
X46228Y13386D02*
D03*
X42545Y18415D02*
D03*
X41100Y12100D02*
D03*
X39649Y8280D02*
D03*
X45720Y18542D02*
D03*
X21800Y9000D02*
D03*
X46700Y8500D02*
D03*
X71200Y8400D02*
D03*
X83200Y9400D02*
D03*
X58600Y8300D02*
D03*
X9200Y9000D02*
D03*
D29*
X2200Y7800D02*
D03*
X12900Y5800D02*
D03*
X25100Y6000D02*
D03*
X37600Y6300D02*
D03*
X50100Y6100D02*
D03*
X70993Y1524D02*
D03*
X62500Y6600D02*
D03*
X75200Y7600D02*
D03*
X36926Y20863D02*
D03*
X25807Y18948D02*
D03*
X10600Y1600D02*
D03*
X21590Y1651D02*
D03*
X34036D02*
D03*
X46228Y1524D02*
D03*
X58674D02*
D03*
X83312D02*
D03*
X46595Y20955D02*
D03*
X57300Y7800D02*
D03*
X82200Y8100D02*
D03*
X70100Y7800D02*
D03*
X44800Y8000D02*
D03*
X32400Y8200D02*
D03*
X20100Y7900D02*
D03*
X7700Y7700D02*
D03*
M02*
