G04*
G04 #@! TF.GenerationSoftware,Altium Limited,Altium Designer,25.5.2 (35)*
G04*
G04 Layer_Color=128*
%FSLAX43Y43*%
%MOMM*%
G71*
G04*
G04 #@! TF.SameCoordinates,6B956F99-2EE2-468E-850B-CC9C62BAE9D2*
G04*
G04*
G04 #@! TF.FilePolarity,Positive*
G04*
G01*
G75*
%ADD15C,0.500*%
%ADD16R,0.800X0.800*%
%ADD30R,0.650X0.650*%
%ADD31R,1.500X1.300*%
%ADD32R,0.800X0.800*%
%ADD33R,0.500X0.950*%
%ADD34O,1.900X0.600*%
%ADD35R,1.200X1.100*%
%ADD36R,1.900X0.600*%
%ADD37R,1.400X1.200*%
D15*
X66040Y15240D02*
G03*
X57785Y23495I-8255J0D01*
G01*
X31115D02*
G03*
X22860Y15240I0J-8255D01*
G01*
X0Y0D02*
X88265D01*
Y12065D01*
X66040D02*
X88265D01*
X66040D02*
Y15240D01*
X50800Y23495D02*
X57785D01*
X50800D02*
Y31115D01*
X38100D02*
X50800D01*
X38100Y23495D02*
Y31115D01*
X31115Y23495D02*
X38100D01*
X22860Y12065D02*
Y15240D01*
X0Y12065D02*
X22860D01*
X0Y0D02*
Y12065D01*
D16*
X10660Y3556D02*
D03*
X22936Y3678D02*
D03*
X35405Y3810D02*
D03*
X43150Y22900D02*
D03*
X47777Y3556D02*
D03*
X60050Y3600D02*
D03*
X84794Y3590D02*
D03*
X72319Y3829D02*
D03*
X44650Y22900D02*
D03*
X61550Y3600D02*
D03*
X12160Y3556D02*
D03*
X86294Y3590D02*
D03*
X49277Y3556D02*
D03*
X36905Y3810D02*
D03*
X73819Y3829D02*
D03*
X24436Y3678D02*
D03*
D30*
X36750Y19400D02*
D03*
X35850D02*
D03*
X36730Y17870D02*
D03*
X35830D02*
D03*
D31*
X25300Y15350D02*
D03*
Y17250D02*
D03*
D32*
X51900Y21050D02*
D03*
X53500Y19550D02*
D03*
Y21050D02*
D03*
X51900Y19550D02*
D03*
D33*
X10403Y5454D02*
D03*
X22785D02*
D03*
X35167Y5708D02*
D03*
X47549Y5454D02*
D03*
X59930Y5511D02*
D03*
X72312Y5708D02*
D03*
X84694D02*
D03*
X26250Y13350D02*
D03*
X24950D02*
D03*
X25600Y11050D02*
D03*
X85994Y5708D02*
D03*
X85344Y8008D02*
D03*
X73612Y5708D02*
D03*
X72962Y8008D02*
D03*
X61230Y5511D02*
D03*
X60580Y7811D02*
D03*
X48849Y5454D02*
D03*
X48199Y7754D02*
D03*
X36467Y5708D02*
D03*
X35817Y8008D02*
D03*
X24085Y5454D02*
D03*
X23435Y7754D02*
D03*
X11703Y5454D02*
D03*
X11053Y7754D02*
D03*
D34*
X38765Y20955D02*
D03*
Y15875D02*
D03*
Y12065D02*
D03*
Y13335D02*
D03*
Y14605D02*
D03*
Y17145D02*
D03*
Y18415D02*
D03*
Y19685D02*
D03*
X48865Y12065D02*
D03*
Y13335D02*
D03*
Y14605D02*
D03*
Y15875D02*
D03*
Y17145D02*
D03*
Y18415D02*
D03*
Y19685D02*
D03*
D35*
X78788Y6464D02*
D03*
X66406D02*
D03*
X54023Y6337D02*
D03*
X41643Y6464D02*
D03*
X29210Y6604D02*
D03*
X16879Y6350D02*
D03*
X4497D02*
D03*
X7797D02*
D03*
Y3950D02*
D03*
X4497D02*
D03*
X78788Y4064D02*
D03*
X82088D02*
D03*
Y6464D02*
D03*
X20179Y6350D02*
D03*
Y3950D02*
D03*
X16879D02*
D03*
X66406Y4064D02*
D03*
X69706D02*
D03*
Y6464D02*
D03*
X57323Y6337D02*
D03*
Y3937D02*
D03*
X54023D02*
D03*
X41643Y4064D02*
D03*
X44943D02*
D03*
Y6464D02*
D03*
X32510Y6604D02*
D03*
Y4204D02*
D03*
X29210D02*
D03*
D36*
X48865Y20955D02*
D03*
D37*
X2200Y4000D02*
D03*
Y5800D02*
D03*
X39265Y4064D02*
D03*
Y5864D02*
D03*
X14600Y4000D02*
D03*
Y5800D02*
D03*
X76454Y5814D02*
D03*
X64157Y5864D02*
D03*
X51797Y5887D02*
D03*
X26819Y6004D02*
D03*
X64157Y4064D02*
D03*
X26819Y4204D02*
D03*
X51797Y4087D02*
D03*
X76454Y4014D02*
D03*
M02*
