G04*
G04 #@! TF.GenerationSoftware,Altium Limited,Altium Designer,25.5.2 (35)*
G04*
G04 Layer_Color=39423*
%FSLAX43Y43*%
%MOMM*%
G71*
G04*
G04 #@! TF.SameCoordinates,FE7ED0D9-B591-4211-BBA3-B0FFD2393991*
G04*
G04*
G04 #@! TF.FilePolarity,Positive*
G04*
G01*
G75*
%ADD10C,0.200*%
%ADD12C,0.150*%
%ADD13C,0.178*%
%ADD14C,0.178*%
%ADD15C,0.500*%
%ADD24C,0.254*%
%ADD38C,0.600*%
%ADD39C,0.250*%
D10*
X3000Y4500D02*
Y5300D01*
X1400Y4500D02*
Y5300D01*
X15400Y4500D02*
Y5300D01*
X13800Y4500D02*
Y5300D01*
X27619Y4704D02*
Y5504D01*
X26019Y4704D02*
Y5504D01*
X40065Y4564D02*
Y5364D01*
X38465Y4564D02*
Y5364D01*
X52597Y4587D02*
Y5387D01*
X50997Y4587D02*
Y5387D01*
X64957Y4564D02*
Y5364D01*
X63357Y4564D02*
Y5364D01*
X77254Y4514D02*
Y5314D01*
X75654Y4514D02*
Y5314D01*
X24500Y11525D02*
Y12525D01*
Y11525D02*
X24950D01*
X26700D02*
Y12525D01*
X26250Y11525D02*
X26700D01*
X40415Y11260D02*
X47215D01*
X40415Y21760D02*
X47215D01*
X40415Y11260D02*
Y21760D01*
X47215Y11260D02*
Y21760D01*
X86444Y6533D02*
Y7533D01*
X85994D02*
X86444D01*
X84244Y6533D02*
Y7533D01*
X84694D01*
X74062Y6533D02*
Y7533D01*
X73612D02*
X74062D01*
X71862Y6533D02*
Y7533D01*
X72312D01*
X61680Y6336D02*
Y7336D01*
X61230D02*
X61680D01*
X59480Y6336D02*
Y7336D01*
X59930D01*
X49299Y6279D02*
Y7279D01*
X48849D02*
X49299D01*
X47099Y6279D02*
Y7279D01*
X47549D01*
X36917Y6533D02*
Y7533D01*
X36467D02*
X36917D01*
X34717Y6533D02*
Y7533D01*
X35167D01*
X24535Y6279D02*
Y7279D01*
X24085D02*
X24535D01*
X22335Y6279D02*
Y7279D01*
X22785D01*
X12153Y6279D02*
Y7279D01*
X11703D02*
X12153D01*
X9953Y6279D02*
Y7279D01*
X10403D01*
D12*
X12451Y4206D02*
X12835D01*
X12451Y2906D02*
X12835D01*
Y4206D01*
X9985Y2906D02*
X10369D01*
X9985D02*
Y4206D01*
X10369D01*
X24727Y4328D02*
X25111D01*
X24727Y3028D02*
X25111D01*
Y4328D01*
X22261Y3028D02*
X22644D01*
X22261D02*
Y4328D01*
X22644D01*
X37196Y4460D02*
X37580D01*
X37196Y3160D02*
X37580D01*
Y4460D01*
X34730Y3160D02*
X35113D01*
X34730D02*
Y4460D01*
X35113D01*
X49568Y4206D02*
X49952D01*
X49568Y2906D02*
X49952D01*
Y4206D01*
X47102Y2906D02*
X47486D01*
X47102D02*
Y4206D01*
X47486D01*
X61841Y4250D02*
X62225D01*
X61841Y2950D02*
X62225D01*
Y4250D01*
X59375Y2950D02*
X59759D01*
X59375D02*
Y4250D01*
X59759D01*
X74110Y4479D02*
X74494D01*
X74110Y3179D02*
X74494D01*
Y4479D01*
X71644Y3179D02*
X72027D01*
X71644D02*
Y4479D01*
X72027D01*
X86585Y4240D02*
X86969D01*
X86585Y2940D02*
X86969D01*
Y4240D01*
X84119Y2940D02*
X84503D01*
X84119D02*
Y4240D01*
X84503D01*
X35800Y18825D02*
X36800D01*
X35800Y19975D02*
X36800D01*
X35780Y17295D02*
X36780D01*
X35780Y18445D02*
X36780D01*
X26300Y14475D02*
Y14575D01*
X24300Y14475D02*
Y14575D01*
Y14475D02*
X26300Y14475D01*
X24300Y18025D02*
Y18125D01*
X26300D01*
Y18025D02*
Y18125D01*
X52850Y21341D02*
Y21725D01*
X54150Y21341D02*
Y21725D01*
X52850D02*
X54150D01*
Y18875D02*
Y19259D01*
X52850Y18875D02*
X54150D01*
X52850D02*
Y19259D01*
X45125Y22265D02*
X45275D01*
Y23535D01*
X45125D02*
X45275D01*
X42525Y22265D02*
X42675D01*
X42525D02*
Y23535D01*
X42675D01*
X52550Y18875D02*
Y19259D01*
X51250Y18875D02*
Y19259D01*
Y18875D02*
X52550D01*
X51250Y21341D02*
Y21725D01*
X52550D01*
Y21341D02*
Y21725D01*
D13*
X52929Y15476D02*
X54071D01*
Y16048D01*
X53881Y16238D01*
X53500D01*
X53310Y16048D01*
Y15476D01*
Y15857D02*
X52929Y16238D01*
Y17381D02*
Y16619D01*
X53690Y17381D01*
X53881D01*
X54071Y17190D01*
Y16810D01*
X53881Y16619D01*
X54071Y18524D02*
Y17762D01*
X53500D01*
X53690Y18143D01*
Y18333D01*
X53500Y18524D01*
X53119D01*
X52929Y18333D01*
Y17952D01*
X53119Y17762D01*
X35113Y18847D02*
Y19990D01*
X34541D01*
X34351Y19800D01*
Y19419D01*
X34541Y19228D01*
X35113D01*
X34732D02*
X34351Y18847D01*
X33970D02*
X33589D01*
X33780D01*
Y19990D01*
X33970Y19800D01*
X32256Y19990D02*
X32637Y19800D01*
X33018Y19419D01*
Y19038D01*
X32827Y18847D01*
X32447D01*
X32256Y19038D01*
Y19228D01*
X32447Y19419D01*
X33018D01*
X37383Y15906D02*
Y17048D01*
X36812D01*
X36621Y16858D01*
Y16477D01*
X36812Y16287D01*
X37383D01*
X37002D02*
X36621Y15906D01*
X36241D02*
X35860D01*
X36050D01*
Y17048D01*
X36241Y16858D01*
X34527Y17048D02*
X35288D01*
Y16477D01*
X34908Y16667D01*
X34717D01*
X34527Y16477D01*
Y16096D01*
X34717Y15906D01*
X35098D01*
X35288Y16096D01*
X27410Y16461D02*
X27600Y16271D01*
Y15890D01*
X27410Y15699D01*
X26648D01*
X26458Y15890D01*
Y16271D01*
X26648Y16461D01*
X26458Y16842D02*
Y17223D01*
Y17032D01*
X27600D01*
X27410Y16842D01*
D14*
X49537Y23449D02*
Y22496D01*
X49347Y22306D01*
X48966D01*
X48776Y22496D01*
Y23449D01*
X48395Y23258D02*
X48204Y23449D01*
X47824D01*
X47633Y23258D01*
Y23068D01*
X47824Y22877D01*
X47633Y22687D01*
Y22496D01*
X47824Y22306D01*
X48204D01*
X48395Y22496D01*
Y22687D01*
X48204Y22877D01*
X48395Y23068D01*
Y23258D01*
X48204Y22877D02*
X47824D01*
X10604Y8890D02*
Y9652D01*
X10795Y9842D01*
X11176D01*
X11366Y9652D01*
Y8890D01*
X11176Y8700D01*
X10795D01*
X10985Y9081D02*
X10604Y8700D01*
X10795D02*
X10604Y8890D01*
X10224Y9652D02*
X10033Y9842D01*
X9652D01*
X9462Y9652D01*
Y9461D01*
X9652Y9271D01*
X9462Y9081D01*
Y8890D01*
X9652Y8700D01*
X10033D01*
X10224Y8890D01*
Y9081D01*
X10033Y9271D01*
X10224Y9461D01*
Y9652D01*
X10033Y9271D02*
X9652D01*
X23050Y8890D02*
Y9652D01*
X23241Y9842D01*
X23622D01*
X23812Y9652D01*
Y8890D01*
X23622Y8700D01*
X23241D01*
X23431Y9081D02*
X23050Y8700D01*
X23241D02*
X23050Y8890D01*
X22670Y9842D02*
X21908D01*
Y9652D01*
X22670Y8890D01*
Y8700D01*
X35242Y9144D02*
Y9906D01*
X35433Y10096D01*
X35814D01*
X36004Y9906D01*
Y9144D01*
X35814Y8954D01*
X35433D01*
X35623Y9335D02*
X35242Y8954D01*
X35433D02*
X35242Y9144D01*
X34100Y10096D02*
X34481Y9906D01*
X34862Y9525D01*
Y9144D01*
X34671Y8954D01*
X34290D01*
X34100Y9144D01*
Y9335D01*
X34290Y9525D01*
X34862D01*
X47612Y8941D02*
Y9703D01*
X47803Y9893D01*
X48184D01*
X48374Y9703D01*
Y8941D01*
X48184Y8750D01*
X47803D01*
X47993Y9131D02*
X47612Y8750D01*
X47803D02*
X47612Y8941D01*
X46470Y9893D02*
X47231D01*
Y9322D01*
X46850Y9512D01*
X46660D01*
X46470Y9322D01*
Y8941D01*
X46660Y8750D01*
X47041D01*
X47231Y8941D01*
X59982Y9017D02*
Y9779D01*
X60172Y9969D01*
X60553D01*
X60744Y9779D01*
Y9017D01*
X60553Y8827D01*
X60172D01*
X60363Y9208D02*
X59982Y8827D01*
X60172D02*
X59982Y9017D01*
X59030Y8827D02*
Y9969D01*
X59601Y9398D01*
X58839D01*
X72326Y9144D02*
Y9906D01*
X72517Y10096D01*
X72898D01*
X73088Y9906D01*
Y9144D01*
X72898Y8954D01*
X72517D01*
X72707Y9335D02*
X72326Y8954D01*
X72517D02*
X72326Y9144D01*
X71946Y9906D02*
X71755Y10096D01*
X71374D01*
X71184Y9906D01*
Y9715D01*
X71374Y9525D01*
X71565D01*
X71374D01*
X71184Y9335D01*
Y9144D01*
X71374Y8954D01*
X71755D01*
X71946Y9144D01*
X84645D02*
Y9906D01*
X84836Y10096D01*
X85217D01*
X85407Y9906D01*
Y9144D01*
X85217Y8954D01*
X84836D01*
X85026Y9335D02*
X84645Y8954D01*
X84836D02*
X84645Y9144D01*
X83503Y8954D02*
X84265D01*
X83503Y9715D01*
Y9906D01*
X83693Y10096D01*
X84074D01*
X84265Y9906D01*
X41481Y23394D02*
X41672Y23584D01*
X42053D01*
X42243Y23394D01*
Y22632D01*
X42053Y22442D01*
X41672D01*
X41481Y22632D01*
X40339Y22442D02*
X41101D01*
X40339Y23203D01*
Y23394D01*
X40529Y23584D01*
X40910D01*
X41101Y23394D01*
X31752Y2771D02*
Y1819D01*
X31562Y1629D01*
X31181D01*
X30990Y1819D01*
Y2771D01*
X29848D02*
X30610D01*
Y2200D01*
X30229Y2390D01*
X30038D01*
X29848Y2200D01*
Y1819D01*
X30038Y1629D01*
X30419D01*
X30610Y1819D01*
X43952Y2571D02*
Y1619D01*
X43762Y1429D01*
X43381D01*
X43190Y1619D01*
Y2571D01*
X42238Y1429D02*
Y2571D01*
X42810Y2000D01*
X42048D01*
X56452Y2471D02*
Y1519D01*
X56262Y1329D01*
X55881D01*
X55690Y1519D01*
Y2471D01*
X55310Y2281D02*
X55119Y2471D01*
X54738D01*
X54548Y2281D01*
Y2090D01*
X54738Y1900D01*
X54929D01*
X54738D01*
X54548Y1710D01*
Y1519D01*
X54738Y1329D01*
X55119D01*
X55310Y1519D01*
X69152Y2771D02*
Y1819D01*
X68962Y1629D01*
X68581D01*
X68390Y1819D01*
Y2771D01*
X67248Y1629D02*
X68010D01*
X67248Y2390D01*
Y2581D01*
X67438Y2771D01*
X67819D01*
X68010Y2581D01*
X51129Y15772D02*
X52271D01*
Y16343D01*
X52081Y16533D01*
X51700D01*
X51510Y16343D01*
Y15772D01*
Y16153D02*
X51129Y16533D01*
Y16914D02*
Y17295D01*
Y17105D01*
X52271D01*
X52081Y16914D01*
X52271Y17867D02*
Y18628D01*
X52081D01*
X51319Y17867D01*
X51129D01*
X1529Y8372D02*
X2671D01*
Y8943D01*
X2481Y9133D01*
X2100D01*
X1910Y8943D01*
Y8372D01*
Y8753D02*
X1529Y9133D01*
Y9514D02*
Y9895D01*
Y9705D01*
X2671D01*
X2481Y9514D01*
X1529Y11038D02*
X2671D01*
X2100Y10467D01*
Y11228D01*
X13929Y7572D02*
X15071D01*
Y8143D01*
X14881Y8333D01*
X14500D01*
X14310Y8143D01*
Y7572D01*
Y7953D02*
X13929Y8333D01*
Y8714D02*
Y9095D01*
Y8905D01*
X15071D01*
X14881Y8714D01*
Y9667D02*
X15071Y9857D01*
Y10238D01*
X14881Y10428D01*
X14690D01*
X14500Y10238D01*
Y10047D01*
Y10238D01*
X14310Y10428D01*
X14119D01*
X13929Y10238D01*
Y9857D01*
X14119Y9667D01*
X26329Y7872D02*
X27471D01*
Y8443D01*
X27281Y8633D01*
X26900D01*
X26710Y8443D01*
Y7872D01*
Y8253D02*
X26329Y8633D01*
Y9014D02*
Y9395D01*
Y9205D01*
X27471D01*
X27281Y9014D01*
X26329Y10728D02*
Y9967D01*
X27090Y10728D01*
X27281D01*
X27471Y10538D01*
Y10157D01*
X27281Y9967D01*
X38429Y7662D02*
X39571D01*
Y8233D01*
X39381Y8424D01*
X39000D01*
X38810Y8233D01*
Y7662D01*
Y8043D02*
X38429Y8424D01*
Y8805D02*
Y9186D01*
Y8995D01*
X39571D01*
X39381Y8805D01*
X38429Y9757D02*
Y10138D01*
Y9947D01*
X39571D01*
X39381Y9757D01*
X51129Y7572D02*
X52271D01*
Y8143D01*
X52081Y8333D01*
X51700D01*
X51510Y8143D01*
Y7572D01*
Y7953D02*
X51129Y8333D01*
Y8714D02*
Y9095D01*
Y8905D01*
X52271D01*
X52081Y8714D01*
Y9667D02*
X52271Y9857D01*
Y10238D01*
X52081Y10428D01*
X51319D01*
X51129Y10238D01*
Y9857D01*
X51319Y9667D01*
X52081D01*
X63529Y7548D02*
X64671D01*
Y8119D01*
X64481Y8310D01*
X64100D01*
X63910Y8119D01*
Y7548D01*
Y7929D02*
X63529Y8310D01*
X63719Y8690D02*
X63529Y8881D01*
Y9262D01*
X63719Y9452D01*
X64481D01*
X64671Y9262D01*
Y8881D01*
X64481Y8690D01*
X64290D01*
X64100Y8881D01*
Y9452D01*
X75829Y7548D02*
X76971D01*
Y8119D01*
X76781Y8310D01*
X76400D01*
X76210Y8119D01*
Y7548D01*
Y7929D02*
X75829Y8310D01*
X76781Y8690D02*
X76971Y8881D01*
Y9262D01*
X76781Y9452D01*
X76590D01*
X76400Y9262D01*
X76210Y9452D01*
X76019D01*
X75829Y9262D01*
Y8881D01*
X76019Y8690D01*
X76210D01*
X76400Y8881D01*
X76590Y8690D01*
X76781D01*
X76400Y8881D02*
Y9262D01*
X12352Y1329D02*
Y2471D01*
X11781D01*
X11590Y2281D01*
Y1900D01*
X11781Y1710D01*
X12352D01*
X11971D02*
X11590Y1329D01*
X11210Y2471D02*
X10448D01*
Y2281D01*
X11210Y1519D01*
Y1329D01*
X24552Y1429D02*
Y2571D01*
X23981D01*
X23790Y2381D01*
Y2000D01*
X23981Y1810D01*
X24552D01*
X24171D02*
X23790Y1429D01*
X22648Y2571D02*
X23029Y2381D01*
X23410Y2000D01*
Y1619D01*
X23219Y1429D01*
X22838D01*
X22648Y1619D01*
Y1810D01*
X22838Y2000D01*
X23410D01*
X37152Y1629D02*
Y2771D01*
X36581D01*
X36390Y2581D01*
Y2200D01*
X36581Y2010D01*
X37152D01*
X36771D02*
X36390Y1629D01*
X35248Y2771D02*
X36010D01*
Y2200D01*
X35629Y2390D01*
X35438D01*
X35248Y2200D01*
Y1819D01*
X35438Y1629D01*
X35819D01*
X36010Y1819D01*
X49452Y1329D02*
Y2471D01*
X48881D01*
X48690Y2281D01*
Y1900D01*
X48881Y1710D01*
X49452D01*
X49071D02*
X48690Y1329D01*
X47738D02*
Y2471D01*
X48310Y1900D01*
X47548D01*
X61652Y1329D02*
Y2471D01*
X61081D01*
X60890Y2281D01*
Y1900D01*
X61081Y1710D01*
X61652D01*
X61271D02*
X60890Y1329D01*
X60510Y2281D02*
X60319Y2471D01*
X59938D01*
X59748Y2281D01*
Y2090D01*
X59938Y1900D01*
X60129D01*
X59938D01*
X59748Y1710D01*
Y1519D01*
X59938Y1329D01*
X60319D01*
X60510Y1519D01*
X73952Y1429D02*
Y2571D01*
X73381D01*
X73190Y2381D01*
Y2000D01*
X73381Y1810D01*
X73952D01*
X73571D02*
X73190Y1429D01*
X72048D02*
X72810D01*
X72048Y2190D01*
Y2381D01*
X72238Y2571D01*
X72619D01*
X72810Y2381D01*
X86162Y1329D02*
Y2471D01*
X85590D01*
X85400Y2281D01*
Y1900D01*
X85590Y1710D01*
X86162D01*
X85781D02*
X85400Y1329D01*
X85019D02*
X84638D01*
X84829D01*
Y2471D01*
X85019Y2281D01*
X19652Y2471D02*
Y1519D01*
X19462Y1329D01*
X19081D01*
X18890Y1519D01*
Y2471D01*
X17748D02*
X18129Y2281D01*
X18510Y1900D01*
Y1519D01*
X18319Y1329D01*
X17938D01*
X17748Y1519D01*
Y1710D01*
X17938Y1900D01*
X18510D01*
X81162Y2771D02*
Y1819D01*
X80971Y1629D01*
X80590D01*
X80400Y1819D01*
Y2771D01*
X80019Y1629D02*
X79638D01*
X79829D01*
Y2771D01*
X80019Y2581D01*
X6852Y2571D02*
Y1619D01*
X6662Y1429D01*
X6281D01*
X6090Y1619D01*
Y2571D01*
X5710D02*
X4948D01*
Y2381D01*
X5710Y1619D01*
Y1429D01*
X27319Y12100D02*
X28081D01*
X28271Y11910D01*
Y11529D01*
X28081Y11338D01*
X27319D01*
X27129Y11529D01*
Y11910D01*
X27510Y11719D02*
X27129Y12100D01*
Y11910D02*
X27319Y12100D01*
X27129Y12481D02*
Y12862D01*
Y12671D01*
X28271D01*
X28081Y12481D01*
D15*
X66040Y15240D02*
G03*
X57785Y23495I-8255J0D01*
G01*
X31115D02*
G03*
X22860Y15240I0J-8255D01*
G01*
X0Y0D02*
X88265D01*
Y12065D01*
X66040D02*
X88265D01*
X66040D02*
Y15240D01*
X50800Y23495D02*
X57785D01*
X50800D02*
Y31115D01*
X38100D02*
X50800D01*
X38100Y23495D02*
Y31115D01*
X31115Y23495D02*
X38100D01*
X22860Y12065D02*
Y15240D01*
X0Y12065D02*
X22860D01*
X0Y0D02*
Y12065D01*
D24*
X3397Y7350D02*
X8497D01*
X8897Y6950D01*
X3397Y2950D02*
Y7350D01*
Y2950D02*
X8897D01*
Y6950D01*
X83188Y3064D02*
Y7064D01*
X77688Y3064D02*
X83188D01*
X77688D02*
Y7464D01*
X82788D02*
X83188Y7064D01*
X77688Y7464D02*
X82788D01*
X15779Y7350D02*
X20879D01*
X21279Y6950D01*
X15779Y2950D02*
Y7350D01*
Y2950D02*
X21279D01*
Y6950D01*
X70806Y3064D02*
Y7064D01*
X65306Y3064D02*
X70806D01*
X65306D02*
Y7464D01*
X70406D02*
X70806Y7064D01*
X65306Y7464D02*
X70406D01*
X52923Y7337D02*
X58023D01*
X58423Y6937D01*
X52923Y2937D02*
Y7337D01*
Y2937D02*
X58423D01*
Y6937D01*
X46043Y3064D02*
Y7064D01*
X40543Y3064D02*
X46043D01*
X40543D02*
Y7464D01*
X45643D02*
X46043Y7064D01*
X40543Y7464D02*
X45643D01*
X28110Y7604D02*
X33210D01*
X33610Y7204D01*
X28110Y3204D02*
Y7604D01*
Y3204D02*
X33610D01*
Y7204D01*
D38*
X46515Y20760D02*
G03*
X46515Y20760I-300J0D01*
G01*
D39*
X24275Y13350D02*
G03*
X24275Y13350I-125J0D01*
G01*
X48690Y21805D02*
G03*
X48690Y21805I-125J0D01*
G01*
X86919Y5708D02*
G03*
X86919Y5708I-125J0D01*
G01*
X74537D02*
G03*
X74537Y5708I-125J0D01*
G01*
X62155Y5511D02*
G03*
X62155Y5511I-125J0D01*
G01*
X49774Y5454D02*
G03*
X49774Y5454I-125J0D01*
G01*
X37392Y5708D02*
G03*
X37392Y5708I-125J0D01*
G01*
X25010Y5454D02*
G03*
X25010Y5454I-125J0D01*
G01*
X12628D02*
G03*
X12628Y5454I-125J0D01*
G01*
M02*
