G04*
G04 #@! TF.GenerationSoftware,Altium Limited,Altium Designer,25.5.2 (35)*
G04*
G04 Layer_Color=255*
%FSLAX43Y43*%
%MOMM*%
G71*
G04*
G04 #@! TF.SameCoordinates,FE7ED0D9-B591-4211-BBA3-B0FFD2393991*
G04*
G04*
G04 #@! TF.FilePolarity,Positive*
G04*
G01*
G75*
%ADD24C,0.254*%
%ADD48C,0.381*%
%ADD49C,0.051*%
%ADD50C,0.406*%
D24*
X98837Y15224D02*
X99170Y14890D01*
X98503Y15224D02*
X98837D01*
X98503D02*
X98837Y15557D01*
X98503Y15890D02*
X98837Y15557D01*
X98503Y15890D02*
X98837D01*
X99170Y16224D01*
X99503Y15890D01*
X99837D01*
X99503Y15557D02*
X99837Y15890D01*
X99503Y15557D02*
X99837Y15224D01*
X99503D02*
X99837D01*
X99170Y14890D02*
X99503Y15224D01*
X98503Y11890D02*
X99170Y12224D01*
X99837Y11890D01*
X99503Y12557D02*
X99837Y11890D01*
X99503Y12557D02*
X99837Y13224D01*
X99170Y12890D02*
X99837Y13224D01*
X98503D02*
X99170Y12890D01*
X98503Y13224D02*
X98837Y12557D01*
X98503Y11890D02*
X98837Y12557D01*
X99170Y8890D02*
X99837Y10224D01*
X98503D02*
X99837D01*
X98503D02*
X99170Y8890D01*
X98503Y5890D02*
X99837D01*
Y7224D01*
X98503D02*
X99837D01*
X98503Y5890D02*
Y7224D01*
X211595Y14890D02*
Y16090D01*
X212195D01*
X212395Y15890D01*
Y15490D01*
X212195Y15290D01*
X211595D01*
X211995D02*
X212395Y14890D01*
X212994D02*
X213394D01*
X213594Y15090D01*
Y15490D01*
X213394Y15690D01*
X212994D01*
X212795Y15490D01*
Y15090D01*
X212994Y14890D01*
X213994Y15690D02*
Y15090D01*
X214194Y14890D01*
X214794D01*
Y15690D01*
X215194Y14890D02*
Y15690D01*
X215794D01*
X215993Y15490D01*
Y14890D01*
X217193Y16090D02*
Y14890D01*
X216593D01*
X216393Y15090D01*
Y15490D01*
X216593Y15690D01*
X217193D01*
X218193Y14890D02*
X217793D01*
X217593Y15090D01*
Y15490D01*
X217793Y15690D01*
X218193D01*
X218393Y15490D01*
Y15290D01*
X217593D01*
X219592Y16090D02*
Y14890D01*
X218992D01*
X218793Y15090D01*
Y15490D01*
X218992Y15690D01*
X219592D01*
X211595Y11890D02*
Y13090D01*
X212195D01*
X212395Y12890D01*
Y12490D01*
X212195Y12290D01*
X211595D01*
X211995D02*
X212395Y11890D01*
X212994D02*
X213394D01*
X213594Y12090D01*
Y12490D01*
X213394Y12690D01*
X212994D01*
X212795Y12490D01*
Y12090D01*
X212994Y11890D01*
X213994Y12690D02*
Y12090D01*
X214194Y11890D01*
X214794D01*
Y12690D01*
X215194Y11890D02*
Y12690D01*
X215794D01*
X215993Y12490D01*
Y11890D01*
X217193Y13090D02*
Y11890D01*
X216593D01*
X216393Y12090D01*
Y12490D01*
X216593Y12690D01*
X217193D01*
X218193Y11890D02*
X217793D01*
X217593Y12090D01*
Y12490D01*
X217793Y12690D01*
X218193D01*
X218393Y12490D01*
Y12290D01*
X217593D01*
X219592Y13090D02*
Y11890D01*
X218992D01*
X218793Y12090D01*
Y12490D01*
X218992Y12690D01*
X219592D01*
X211995Y8890D02*
X211595Y9290D01*
Y9690D01*
X211995Y10090D01*
X212595Y8890D02*
Y10090D01*
X212994Y9690D01*
X213394Y10090D01*
Y8890D01*
X213794D02*
X214194D01*
X213994D01*
Y9690D01*
X213794D01*
X214794D02*
X215594Y8890D01*
X215194Y9290D01*
X215594Y9690D01*
X214794Y8890D01*
X216593D02*
X216193D01*
X215993Y9090D01*
Y9490D01*
X216193Y9690D01*
X216593D01*
X216793Y9490D01*
Y9290D01*
X215993D01*
X217993Y10090D02*
Y8890D01*
X217393D01*
X217193Y9090D01*
Y9490D01*
X217393Y9690D01*
X217993D01*
X218393Y8890D02*
X218793Y9290D01*
Y9690D01*
X218393Y10090D01*
X211595Y5890D02*
Y7090D01*
X212195D01*
X212395Y6890D01*
Y6490D01*
X212195Y6290D01*
X211595D01*
X211995D02*
X212395Y5890D01*
X212994D02*
X213394D01*
X213594Y6090D01*
Y6490D01*
X213394Y6690D01*
X212994D01*
X212795Y6490D01*
Y6090D01*
X212994Y5890D01*
X213994Y6690D02*
Y6090D01*
X214194Y5890D01*
X214794D01*
Y6690D01*
X215194Y5890D02*
Y6690D01*
X215794D01*
X215993Y6490D01*
Y5890D01*
X217193Y7090D02*
Y5890D01*
X216593D01*
X216393Y6090D01*
Y6490D01*
X216593Y6690D01*
X217193D01*
X218193Y5890D02*
X217793D01*
X217593Y6090D01*
Y6490D01*
X217793Y6690D01*
X218193D01*
X218393Y6490D01*
Y6290D01*
X217593D01*
X219592Y7090D02*
Y5890D01*
X218992D01*
X218793Y6090D01*
Y6490D01*
X218992Y6690D01*
X219592D01*
X199625Y16090D02*
Y15290D01*
X200025Y14890D01*
X200425Y15290D01*
Y16090D01*
X200825Y14890D02*
X201225D01*
X201025D01*
Y15690D01*
X200825D01*
X202024D02*
X202424D01*
X202624Y15490D01*
Y14890D01*
X202024D01*
X201824Y15090D01*
X202024Y15290D01*
X202624D01*
X199625Y13090D02*
Y12290D01*
X200025Y11890D01*
X200425Y12290D01*
Y13090D01*
X200825Y11890D02*
X201225D01*
X201025D01*
Y12690D01*
X200825D01*
X202024D02*
X202424D01*
X202624Y12490D01*
Y11890D01*
X202024D01*
X201824Y12090D01*
X202024Y12290D01*
X202624D01*
X199625Y8890D02*
Y10090D01*
X200225D01*
X200425Y9890D01*
Y9490D01*
X200225Y9290D01*
X199625D01*
X201025Y9690D02*
X201425D01*
X201624Y9490D01*
Y8890D01*
X201025D01*
X200825Y9090D01*
X201025Y9290D01*
X201624D01*
X202824Y10090D02*
Y8890D01*
X202224D01*
X202024Y9090D01*
Y9490D01*
X202224Y9690D01*
X202824D01*
X199625Y5890D02*
Y7090D01*
X200225D01*
X200425Y6890D01*
Y6490D01*
X200225Y6290D01*
X199625D01*
X201025Y6690D02*
X201425D01*
X201624Y6490D01*
Y5890D01*
X201025D01*
X200825Y6090D01*
X201025Y6290D01*
X201624D01*
X202824Y7090D02*
Y5890D01*
X202224D01*
X202024Y6090D01*
Y6490D01*
X202224Y6690D01*
X202824D01*
X169526Y16090D02*
X170326D01*
X169926D01*
Y14890D01*
X170926D02*
X171326D01*
X171525Y15090D01*
Y15490D01*
X171326Y15690D01*
X170926D01*
X170726Y15490D01*
Y15090D01*
X170926Y14890D01*
X171925Y14491D02*
Y15690D01*
X172525D01*
X172725Y15490D01*
Y15090D01*
X172525Y14890D01*
X171925D01*
X174325Y16090D02*
Y14890D01*
X175124D01*
X175724Y15690D02*
X176124D01*
X176324Y15490D01*
Y14890D01*
X175724D01*
X175524Y15090D01*
X175724Y15290D01*
X176324D01*
X176724Y15690D02*
Y15090D01*
X176924Y14890D01*
X177524D01*
Y14691D01*
X177324Y14491D01*
X177124D01*
X177524Y14890D02*
Y15690D01*
X178523Y14890D02*
X178123D01*
X177923Y15090D01*
Y15490D01*
X178123Y15690D01*
X178523D01*
X178723Y15490D01*
Y15290D01*
X177923D01*
X179123Y15690D02*
Y14890D01*
Y15290D01*
X179323Y15490D01*
X179523Y15690D01*
X179723D01*
X181522Y15490D02*
X182322D01*
X183921Y16090D02*
Y14890D01*
X184521D01*
X184721Y15090D01*
Y15290D01*
X184521Y15490D01*
X183921D01*
X184521D01*
X184721Y15690D01*
Y15890D01*
X184521Y16090D01*
X183921D01*
X185321Y14890D02*
X185721D01*
X185921Y15090D01*
Y15490D01*
X185721Y15690D01*
X185321D01*
X185121Y15490D01*
Y15090D01*
X185321Y14890D01*
X186521Y15890D02*
Y15690D01*
X186321D01*
X186721D01*
X186521D01*
Y15090D01*
X186721Y14890D01*
X187520Y15890D02*
Y15690D01*
X187320D01*
X187720D01*
X187520D01*
Y15090D01*
X187720Y14890D01*
X188520D02*
X188920D01*
X189120Y15090D01*
Y15490D01*
X188920Y15690D01*
X188520D01*
X188320Y15490D01*
Y15090D01*
X188520Y14890D01*
X189520D02*
Y15690D01*
X189720D01*
X189920Y15490D01*
Y14890D01*
Y15490D01*
X190119Y15690D01*
X190319Y15490D01*
Y14890D01*
X191919Y16090D02*
Y14890D01*
X192719D01*
X193318Y15690D02*
X193718D01*
X193918Y15490D01*
Y14890D01*
X193318D01*
X193118Y15090D01*
X193318Y15290D01*
X193918D01*
X194318Y15690D02*
Y15090D01*
X194518Y14890D01*
X195118D01*
Y14691D01*
X194918Y14491D01*
X194718D01*
X195118Y14890D02*
Y15690D01*
X196118Y14890D02*
X195718D01*
X195518Y15090D01*
Y15490D01*
X195718Y15690D01*
X196118D01*
X196317Y15490D01*
Y15290D01*
X195518D01*
X196717Y15690D02*
Y14890D01*
Y15290D01*
X196917Y15490D01*
X197117Y15690D01*
X197317D01*
X169526Y13090D02*
X170326D01*
X169926D01*
Y11890D01*
X170926D02*
X171326D01*
X171525Y12090D01*
Y12490D01*
X171326Y12690D01*
X170926D01*
X170726Y12490D01*
Y12090D01*
X170926Y11890D01*
X171925Y11491D02*
Y12690D01*
X172525D01*
X172725Y12490D01*
Y12090D01*
X172525Y11890D01*
X171925D01*
X174325Y13090D02*
Y11890D01*
X175124D01*
X175724Y12690D02*
X176124D01*
X176324Y12490D01*
Y11890D01*
X175724D01*
X175524Y12090D01*
X175724Y12290D01*
X176324D01*
X176724Y12690D02*
Y12090D01*
X176924Y11890D01*
X177524D01*
Y11691D01*
X177324Y11491D01*
X177124D01*
X177524Y11890D02*
Y12690D01*
X178523Y11890D02*
X178123D01*
X177923Y12090D01*
Y12490D01*
X178123Y12690D01*
X178523D01*
X178723Y12490D01*
Y12290D01*
X177923D01*
X179123Y12690D02*
Y11890D01*
Y12290D01*
X179323Y12490D01*
X179523Y12690D01*
X179723D01*
X181522Y12490D02*
X182322D01*
X183921Y13090D02*
Y11890D01*
X184521D01*
X184721Y12090D01*
Y12290D01*
X184521Y12490D01*
X183921D01*
X184521D01*
X184721Y12690D01*
Y12890D01*
X184521Y13090D01*
X183921D01*
X185321Y11890D02*
X185721D01*
X185921Y12090D01*
Y12490D01*
X185721Y12690D01*
X185321D01*
X185121Y12490D01*
Y12090D01*
X185321Y11890D01*
X186521Y12890D02*
Y12690D01*
X186321D01*
X186721D01*
X186521D01*
Y12090D01*
X186721Y11890D01*
X187520Y12890D02*
Y12690D01*
X187320D01*
X187720D01*
X187520D01*
Y12090D01*
X187720Y11890D01*
X188520D02*
X188920D01*
X189120Y12090D01*
Y12490D01*
X188920Y12690D01*
X188520D01*
X188320Y12490D01*
Y12090D01*
X188520Y11890D01*
X189520D02*
Y12690D01*
X189720D01*
X189920Y12490D01*
Y11890D01*
Y12490D01*
X190119Y12690D01*
X190319Y12490D01*
Y11890D01*
X191919Y13090D02*
Y11890D01*
X192719D01*
X193318Y12690D02*
X193718D01*
X193918Y12490D01*
Y11890D01*
X193318D01*
X193118Y12090D01*
X193318Y12290D01*
X193918D01*
X194318Y12690D02*
Y12090D01*
X194518Y11890D01*
X195118D01*
Y11691D01*
X194918Y11491D01*
X194718D01*
X195118Y11890D02*
Y12690D01*
X196118Y11890D02*
X195718D01*
X195518Y12090D01*
Y12490D01*
X195718Y12690D01*
X196118D01*
X196317Y12490D01*
Y12290D01*
X195518D01*
X196717Y12690D02*
Y11890D01*
Y12290D01*
X196917Y12490D01*
X197117Y12690D01*
X197317D01*
X169526Y10090D02*
X170326D01*
X169926D01*
Y8890D01*
X170926D02*
X171326D01*
X171525Y9090D01*
Y9490D01*
X171326Y9690D01*
X170926D01*
X170726Y9490D01*
Y9090D01*
X170926Y8890D01*
X171925Y8491D02*
Y9690D01*
X172525D01*
X172725Y9490D01*
Y9090D01*
X172525Y8890D01*
X171925D01*
X174325Y10090D02*
Y8890D01*
X175124D01*
X175724Y9690D02*
X176124D01*
X176324Y9490D01*
Y8890D01*
X175724D01*
X175524Y9090D01*
X175724Y9290D01*
X176324D01*
X176724Y9690D02*
Y9090D01*
X176924Y8890D01*
X177524D01*
Y8691D01*
X177324Y8491D01*
X177124D01*
X177524Y8890D02*
Y9690D01*
X178523Y8890D02*
X178123D01*
X177923Y9090D01*
Y9490D01*
X178123Y9690D01*
X178523D01*
X178723Y9490D01*
Y9290D01*
X177923D01*
X179123Y9690D02*
Y8890D01*
Y9290D01*
X179323Y9490D01*
X179523Y9690D01*
X179723D01*
X181522Y9490D02*
X182322D01*
X183921Y10090D02*
Y8890D01*
X184521D01*
X184721Y9090D01*
Y9290D01*
X184521Y9490D01*
X183921D01*
X184521D01*
X184721Y9690D01*
Y9890D01*
X184521Y10090D01*
X183921D01*
X185321Y8890D02*
X185721D01*
X185921Y9090D01*
Y9490D01*
X185721Y9690D01*
X185321D01*
X185121Y9490D01*
Y9090D01*
X185321Y8890D01*
X186521Y9890D02*
Y9690D01*
X186321D01*
X186721D01*
X186521D01*
Y9090D01*
X186721Y8890D01*
X187520Y9890D02*
Y9690D01*
X187320D01*
X187720D01*
X187520D01*
Y9090D01*
X187720Y8890D01*
X188520D02*
X188920D01*
X189120Y9090D01*
Y9490D01*
X188920Y9690D01*
X188520D01*
X188320Y9490D01*
Y9090D01*
X188520Y8890D01*
X189520D02*
Y9690D01*
X189720D01*
X189920Y9490D01*
Y8890D01*
Y9490D01*
X190119Y9690D01*
X190319Y9490D01*
Y8890D01*
X191919Y10090D02*
Y8890D01*
X192719D01*
X193318Y9690D02*
X193718D01*
X193918Y9490D01*
Y8890D01*
X193318D01*
X193118Y9090D01*
X193318Y9290D01*
X193918D01*
X194318Y9690D02*
Y9090D01*
X194518Y8890D01*
X195118D01*
Y8691D01*
X194918Y8491D01*
X194718D01*
X195118Y8890D02*
Y9690D01*
X196118Y8890D02*
X195718D01*
X195518Y9090D01*
Y9490D01*
X195718Y9690D01*
X196118D01*
X196317Y9490D01*
Y9290D01*
X195518D01*
X196717Y9690D02*
Y8890D01*
Y9290D01*
X196917Y9490D01*
X197117Y9690D01*
X197317D01*
X169526Y7090D02*
X170326D01*
X169926D01*
Y5890D01*
X170926D02*
X171326D01*
X171525Y6090D01*
Y6490D01*
X171326Y6690D01*
X170926D01*
X170726Y6490D01*
Y6090D01*
X170926Y5890D01*
X171925Y5491D02*
Y6690D01*
X172525D01*
X172725Y6490D01*
Y6090D01*
X172525Y5890D01*
X171925D01*
X174325Y7090D02*
Y5890D01*
X175124D01*
X175724Y6690D02*
X176124D01*
X176324Y6490D01*
Y5890D01*
X175724D01*
X175524Y6090D01*
X175724Y6290D01*
X176324D01*
X176724Y6690D02*
Y6090D01*
X176924Y5890D01*
X177524D01*
Y5691D01*
X177324Y5491D01*
X177124D01*
X177524Y5890D02*
Y6690D01*
X178523Y5890D02*
X178123D01*
X177923Y6090D01*
Y6490D01*
X178123Y6690D01*
X178523D01*
X178723Y6490D01*
Y6290D01*
X177923D01*
X179123Y6690D02*
Y5890D01*
Y6290D01*
X179323Y6490D01*
X179523Y6690D01*
X179723D01*
X181522Y6490D02*
X182322D01*
X183921Y7090D02*
Y5890D01*
X184521D01*
X184721Y6090D01*
Y6290D01*
X184521Y6490D01*
X183921D01*
X184521D01*
X184721Y6690D01*
Y6890D01*
X184521Y7090D01*
X183921D01*
X185321Y5890D02*
X185721D01*
X185921Y6090D01*
Y6490D01*
X185721Y6690D01*
X185321D01*
X185121Y6490D01*
Y6090D01*
X185321Y5890D01*
X186521Y6890D02*
Y6690D01*
X186321D01*
X186721D01*
X186521D01*
Y6090D01*
X186721Y5890D01*
X187520Y6890D02*
Y6690D01*
X187320D01*
X187720D01*
X187520D01*
Y6090D01*
X187720Y5890D01*
X188520D02*
X188920D01*
X189120Y6090D01*
Y6490D01*
X188920Y6690D01*
X188520D01*
X188320Y6490D01*
Y6090D01*
X188520Y5890D01*
X189520D02*
Y6690D01*
X189720D01*
X189920Y6490D01*
Y5890D01*
Y6490D01*
X190119Y6690D01*
X190319Y6490D01*
Y5890D01*
X191919Y7090D02*
Y5890D01*
X192719D01*
X193318Y6690D02*
X193718D01*
X193918Y6490D01*
Y5890D01*
X193318D01*
X193118Y6090D01*
X193318Y6290D01*
X193918D01*
X194318Y6690D02*
Y6090D01*
X194518Y5890D01*
X195118D01*
Y5691D01*
X194918Y5491D01*
X194718D01*
X195118Y5890D02*
Y6690D01*
X196118Y5890D02*
X195718D01*
X195518Y6090D01*
Y6490D01*
X195718Y6690D01*
X196118D01*
X196317Y6490D01*
Y6290D01*
X195518D01*
X196717Y6690D02*
Y5890D01*
Y6290D01*
X196917Y6490D01*
X197117Y6690D01*
X197317D01*
X154677Y14890D02*
Y16090D01*
X155277D01*
X155477Y15890D01*
Y15490D01*
X155277Y15290D01*
X154677D01*
X155077D02*
X155477Y14890D01*
X156077D02*
X156477D01*
X156677Y15090D01*
Y15490D01*
X156477Y15690D01*
X156077D01*
X155877Y15490D01*
Y15090D01*
X156077Y14890D01*
X157077Y15690D02*
Y15090D01*
X157276Y14890D01*
X157876D01*
Y15690D01*
X158276Y14890D02*
Y15690D01*
X158876D01*
X159076Y15490D01*
Y14890D01*
X160275Y16090D02*
Y14890D01*
X159676D01*
X159476Y15090D01*
Y15490D01*
X159676Y15690D01*
X160275D01*
X154677Y11890D02*
Y13090D01*
X155277D01*
X155477Y12890D01*
Y12490D01*
X155277Y12290D01*
X154677D01*
X155077D02*
X155477Y11890D01*
X156077D02*
X156477D01*
X156677Y12090D01*
Y12490D01*
X156477Y12690D01*
X156077D01*
X155877Y12490D01*
Y12090D01*
X156077Y11890D01*
X157077Y12690D02*
Y12090D01*
X157276Y11890D01*
X157876D01*
Y12690D01*
X158276Y11890D02*
Y12690D01*
X158876D01*
X159076Y12490D01*
Y11890D01*
X160275Y13090D02*
Y11890D01*
X159676D01*
X159476Y12090D01*
Y12490D01*
X159676Y12690D01*
X160275D01*
X154677Y8890D02*
Y10090D01*
X155277D01*
X155477Y9890D01*
Y9490D01*
X155277Y9290D01*
X154677D01*
X155077D02*
X155477Y8890D01*
X156077D02*
X156477D01*
X156677Y9090D01*
Y9490D01*
X156477Y9690D01*
X156077D01*
X155877Y9490D01*
Y9090D01*
X156077Y8890D01*
X157077Y9690D02*
Y9090D01*
X157276Y8890D01*
X157876D01*
Y9690D01*
X158276Y8890D02*
Y9690D01*
X158876D01*
X159076Y9490D01*
Y8890D01*
X160275Y10090D02*
Y8890D01*
X159676D01*
X159476Y9090D01*
Y9490D01*
X159676Y9690D01*
X160275D01*
X154677Y5890D02*
Y7090D01*
X155277D01*
X155477Y6890D01*
Y6490D01*
X155277Y6290D01*
X154677D01*
X155077D02*
X155477Y5890D01*
X156077D02*
X156477D01*
X156677Y6090D01*
Y6490D01*
X156477Y6690D01*
X156077D01*
X155877Y6490D01*
Y6090D01*
X156077Y5890D01*
X157077Y6690D02*
Y6090D01*
X157276Y5890D01*
X157876D01*
Y6690D01*
X158276Y5890D02*
Y6690D01*
X158876D01*
X159076Y6490D01*
Y5890D01*
X160275Y7090D02*
Y5890D01*
X159676D01*
X159476Y6090D01*
Y6490D01*
X159676Y6690D01*
X160275D01*
X144387Y14890D02*
Y16090D01*
X144987D01*
X145187Y15890D01*
Y15490D01*
X144987Y15290D01*
X144387D01*
X145587Y16090D02*
X146386D01*
X145986D01*
Y14890D01*
X146786Y16090D02*
Y14890D01*
Y15490D01*
X147586D01*
Y16090D01*
Y14890D01*
X144387Y11890D02*
Y13090D01*
X144987D01*
X145187Y12890D01*
Y12490D01*
X144987Y12290D01*
X144387D01*
X145587Y13090D02*
X146386D01*
X145986D01*
Y11890D01*
X146786Y13090D02*
Y11890D01*
Y12490D01*
X147586D01*
Y13090D01*
Y11890D01*
X144387Y8890D02*
Y10090D01*
X144987D01*
X145187Y9890D01*
Y9490D01*
X144987Y9290D01*
X144387D01*
X145587Y10090D02*
X146386D01*
X145986D01*
Y8890D01*
X146786Y10090D02*
Y8890D01*
Y9490D01*
X147586D01*
Y10090D01*
Y8890D01*
X144387Y5890D02*
Y7090D01*
X144987D01*
X145187Y6890D01*
Y6490D01*
X144987Y6290D01*
X144387D01*
X145587Y7090D02*
X146386D01*
X145986D01*
Y5890D01*
X146786Y7090D02*
Y5890D01*
Y6490D01*
X147586D01*
Y7090D01*
Y5890D01*
X121286Y15890D02*
X121486Y16090D01*
X121886D01*
X122085Y15890D01*
Y15090D01*
X121886Y14890D01*
X121486D01*
X121286Y15090D01*
Y15890D01*
X122485Y14890D02*
Y15090D01*
X122685D01*
Y14890D01*
X122485D01*
X123485Y15890D02*
X123685Y16090D01*
X124085D01*
X124285Y15890D01*
Y15690D01*
X124085Y15490D01*
X123885D01*
X124085D01*
X124285Y15290D01*
Y15090D01*
X124085Y14890D01*
X123685D01*
X123485Y15090D01*
X124685Y15890D02*
X124885Y16090D01*
X125284D01*
X125484Y15890D01*
Y15090D01*
X125284Y14890D01*
X124885D01*
X124685Y15090D01*
Y15890D01*
X125884D02*
X126084Y16090D01*
X126484D01*
X126684Y15890D01*
Y15090D01*
X126484Y14890D01*
X126084D01*
X125884Y15090D01*
Y15890D01*
X127084Y14890D02*
Y15690D01*
X127284D01*
X127484Y15490D01*
Y14890D01*
Y15490D01*
X127684Y15690D01*
X127884Y15490D01*
Y14890D01*
X128283D02*
Y15690D01*
X128483D01*
X128683Y15490D01*
Y14890D01*
Y15490D01*
X128883Y15690D01*
X129083Y15490D01*
Y14890D01*
X131083D02*
X130683Y15290D01*
Y15690D01*
X131083Y16090D01*
X131682Y14890D02*
X132082D01*
X131882D01*
Y16090D01*
X131682Y15890D01*
X132682Y14890D02*
X133082D01*
X132882D01*
Y16090D01*
X132682Y15890D01*
X133682Y14890D02*
Y15090D01*
X133882D01*
Y14890D01*
X133682D01*
X134681Y15890D02*
X134881Y16090D01*
X135281D01*
X135481Y15890D01*
Y15690D01*
X135281Y15490D01*
X135481Y15290D01*
Y15090D01*
X135281Y14890D01*
X134881D01*
X134681Y15090D01*
Y15290D01*
X134881Y15490D01*
X134681Y15690D01*
Y15890D01*
X134881Y15490D02*
X135281D01*
X135881Y14890D02*
X136281D01*
X136081D01*
Y16090D01*
X135881Y15890D01*
X136881Y14890D02*
Y15690D01*
X137081D01*
X137281Y15490D01*
Y14890D01*
Y15490D01*
X137480Y15690D01*
X137680Y15490D01*
Y14890D01*
X138080D02*
X138480D01*
X138280D01*
Y15690D01*
X138080D01*
X139080Y14890D02*
X139480D01*
X139280D01*
Y16090D01*
X139080D01*
X140080Y14890D02*
X140480Y15290D01*
Y15690D01*
X140080Y16090D01*
X121286Y12890D02*
X121486Y13090D01*
X121886D01*
X122085Y12890D01*
Y12090D01*
X121886Y11890D01*
X121486D01*
X121286Y12090D01*
Y12890D01*
X122485Y11890D02*
Y12090D01*
X122685D01*
Y11890D01*
X122485D01*
X124285Y13090D02*
X123485D01*
Y12490D01*
X123885Y12690D01*
X124085D01*
X124285Y12490D01*
Y12090D01*
X124085Y11890D01*
X123685D01*
X123485Y12090D01*
X124685Y12890D02*
X124885Y13090D01*
X125284D01*
X125484Y12890D01*
Y12090D01*
X125284Y11890D01*
X124885D01*
X124685Y12090D01*
Y12890D01*
X125884D02*
X126084Y13090D01*
X126484D01*
X126684Y12890D01*
Y12090D01*
X126484Y11890D01*
X126084D01*
X125884Y12090D01*
Y12890D01*
X127084Y11890D02*
Y12690D01*
X127284D01*
X127484Y12490D01*
Y11890D01*
Y12490D01*
X127684Y12690D01*
X127884Y12490D01*
Y11890D01*
X128283D02*
Y12690D01*
X128483D01*
X128683Y12490D01*
Y11890D01*
Y12490D01*
X128883Y12690D01*
X129083Y12490D01*
Y11890D01*
X131083D02*
X130683Y12290D01*
Y12690D01*
X131083Y13090D01*
X131682Y11890D02*
X132082D01*
X131882D01*
Y13090D01*
X131682Y12890D01*
X132682Y12090D02*
X132882Y11890D01*
X133282D01*
X133482Y12090D01*
Y12890D01*
X133282Y13090D01*
X132882D01*
X132682Y12890D01*
Y12690D01*
X132882Y12490D01*
X133482D01*
X133882Y11890D02*
Y12090D01*
X134082D01*
Y11890D01*
X133882D01*
X135681Y13090D02*
X135281Y12890D01*
X134881Y12490D01*
Y12090D01*
X135081Y11890D01*
X135481D01*
X135681Y12090D01*
Y12290D01*
X135481Y12490D01*
X134881D01*
X136081Y12090D02*
X136281Y11890D01*
X136681D01*
X136881Y12090D01*
Y12890D01*
X136681Y13090D01*
X136281D01*
X136081Y12890D01*
Y12690D01*
X136281Y12490D01*
X136881D01*
X137281Y11890D02*
Y12690D01*
X137480D01*
X137680Y12490D01*
Y11890D01*
Y12490D01*
X137880Y12690D01*
X138080Y12490D01*
Y11890D01*
X138480D02*
X138880D01*
X138680D01*
Y12690D01*
X138480D01*
X139480Y11890D02*
X139880D01*
X139680D01*
Y13090D01*
X139480D01*
X140480Y11890D02*
X140879Y12290D01*
Y12690D01*
X140480Y13090D01*
X121286Y8890D02*
X121686D01*
X121486D01*
Y10090D01*
X121286Y9890D01*
X122285Y8890D02*
Y9090D01*
X122485D01*
Y8890D01*
X122285D01*
X123285D02*
X123685D01*
X123485D01*
Y10090D01*
X123285Y9890D01*
X124285D02*
X124485Y10090D01*
X124885D01*
X125084Y9890D01*
Y9090D01*
X124885Y8890D01*
X124485D01*
X124285Y9090D01*
Y9890D01*
X125484D02*
X125684Y10090D01*
X126084D01*
X126284Y9890D01*
Y9090D01*
X126084Y8890D01*
X125684D01*
X125484Y9090D01*
Y9890D01*
X126684Y8890D02*
Y9690D01*
X126884D01*
X127084Y9490D01*
Y8890D01*
Y9490D01*
X127284Y9690D01*
X127484Y9490D01*
Y8890D01*
X127884D02*
Y9690D01*
X128084D01*
X128283Y9490D01*
Y8890D01*
Y9490D01*
X128483Y9690D01*
X128683Y9490D01*
Y8890D01*
X130683D02*
X130283Y9290D01*
Y9690D01*
X130683Y10090D01*
X131882Y8890D02*
Y10090D01*
X131282Y9490D01*
X132082D01*
X132482Y9890D02*
X132682Y10090D01*
X133082D01*
X133282Y9890D01*
Y9690D01*
X133082Y9490D01*
X132882D01*
X133082D01*
X133282Y9290D01*
Y9090D01*
X133082Y8890D01*
X132682D01*
X132482Y9090D01*
X133682Y8890D02*
Y9090D01*
X133882D01*
Y8890D01*
X133682D01*
X134681Y9890D02*
X134881Y10090D01*
X135281D01*
X135481Y9890D01*
Y9690D01*
X135281Y9490D01*
X135081D01*
X135281D01*
X135481Y9290D01*
Y9090D01*
X135281Y8890D01*
X134881D01*
X134681Y9090D01*
X135881Y8890D02*
X136281D01*
X136081D01*
Y10090D01*
X135881Y9890D01*
X136881Y8890D02*
Y9690D01*
X137081D01*
X137281Y9490D01*
Y8890D01*
Y9490D01*
X137480Y9690D01*
X137680Y9490D01*
Y8890D01*
X138080D02*
X138480D01*
X138280D01*
Y9690D01*
X138080D01*
X139080Y8890D02*
X139480D01*
X139280D01*
Y10090D01*
X139080D01*
X140080Y8890D02*
X140480Y9290D01*
Y9690D01*
X140080Y10090D01*
X121286Y6890D02*
X121486Y7090D01*
X121886D01*
X122085Y6890D01*
Y6690D01*
X121886Y6490D01*
X121686D01*
X121886D01*
X122085Y6290D01*
Y6090D01*
X121886Y5890D01*
X121486D01*
X121286Y6090D01*
X122485Y5890D02*
Y6090D01*
X122685D01*
Y5890D01*
X122485D01*
X124285D02*
X123485D01*
X124285Y6690D01*
Y6890D01*
X124085Y7090D01*
X123685D01*
X123485Y6890D01*
X124685D02*
X124885Y7090D01*
X125284D01*
X125484Y6890D01*
Y6090D01*
X125284Y5890D01*
X124885D01*
X124685Y6090D01*
Y6890D01*
X125884D02*
X126084Y7090D01*
X126484D01*
X126684Y6890D01*
Y6090D01*
X126484Y5890D01*
X126084D01*
X125884Y6090D01*
Y6890D01*
X127084Y5890D02*
Y6690D01*
X127284D01*
X127484Y6490D01*
Y5890D01*
Y6490D01*
X127684Y6690D01*
X127884Y6490D01*
Y5890D01*
X128283D02*
Y6690D01*
X128483D01*
X128683Y6490D01*
Y5890D01*
Y6490D01*
X128883Y6690D01*
X129083Y6490D01*
Y5890D01*
X131083D02*
X130683Y6290D01*
Y6690D01*
X131083Y7090D01*
X131682Y5890D02*
X132082D01*
X131882D01*
Y7090D01*
X131682Y6890D01*
X133482Y5890D02*
X132682D01*
X133482Y6690D01*
Y6890D01*
X133282Y7090D01*
X132882D01*
X132682Y6890D01*
X134681Y7090D02*
X133882D01*
Y6490D01*
X134281Y6690D01*
X134481D01*
X134681Y6490D01*
Y6090D01*
X134481Y5890D01*
X134082D01*
X133882Y6090D01*
X135081Y5890D02*
Y6090D01*
X135281D01*
Y5890D01*
X135081D01*
X136081Y6090D02*
X136281Y5890D01*
X136681D01*
X136881Y6090D01*
Y6890D01*
X136681Y7090D01*
X136281D01*
X136081Y6890D01*
Y6690D01*
X136281Y6490D01*
X136881D01*
X137281Y6890D02*
X137480Y7090D01*
X137880D01*
X138080Y6890D01*
Y6690D01*
X137880Y6490D01*
X138080Y6290D01*
Y6090D01*
X137880Y5890D01*
X137480D01*
X137281Y6090D01*
Y6290D01*
X137480Y6490D01*
X137281Y6690D01*
Y6890D01*
X137480Y6490D02*
X137880D01*
X138480Y5890D02*
Y6690D01*
X138680D01*
X138880Y6490D01*
Y5890D01*
Y6490D01*
X139080Y6690D01*
X139280Y6490D01*
Y5890D01*
X139680D02*
X140080D01*
X139880D01*
Y6690D01*
X139680D01*
X140679Y5890D02*
X141079D01*
X140879D01*
Y7090D01*
X140679D01*
X141679Y5890D02*
X142079Y6290D01*
Y6690D01*
X141679Y7090D01*
X109381Y2891D02*
X109781D01*
X109581D01*
Y4090D01*
X109381Y3890D01*
X111180Y4090D02*
X110780Y3890D01*
X110380Y3490D01*
Y3090D01*
X110580Y2891D01*
X110980D01*
X111180Y3090D01*
Y3290D01*
X110980Y3490D01*
X110380D01*
X111580Y3090D02*
X111780Y2891D01*
X112180D01*
X112380Y3090D01*
Y3890D01*
X112180Y4090D01*
X111780D01*
X111580Y3890D01*
Y3690D01*
X111780Y3490D01*
X112380D01*
X113979Y4090D02*
X114779D01*
X114379D01*
Y2891D01*
X115379D02*
X115779D01*
X115979Y3090D01*
Y3490D01*
X115779Y3690D01*
X115379D01*
X115179Y3490D01*
Y3090D01*
X115379Y2891D01*
X116578Y3890D02*
Y3690D01*
X116379D01*
X116778D01*
X116578D01*
Y3090D01*
X116778Y2891D01*
X117578Y3690D02*
X117978D01*
X118178Y3490D01*
Y2891D01*
X117578D01*
X117378Y3090D01*
X117578Y3290D01*
X118178D01*
X118578Y2891D02*
X118978D01*
X118778D01*
Y4090D01*
X118578D01*
X109381Y14890D02*
X109781D01*
X109581D01*
Y16090D01*
X109381Y15890D01*
X110380D02*
X110580Y16090D01*
X110980D01*
X111180Y15890D01*
Y15690D01*
X110980Y15490D01*
X110780D01*
X110980D01*
X111180Y15290D01*
Y15090D01*
X110980Y14890D01*
X110580D01*
X110380Y15090D01*
X111580D02*
X111780Y14890D01*
X112180D01*
X112380Y15090D01*
Y15890D01*
X112180Y16090D01*
X111780D01*
X111580Y15890D01*
Y15690D01*
X111780Y15490D01*
X112380D01*
X110181Y11890D02*
X109381D01*
X110181Y12690D01*
Y12890D01*
X109981Y13090D01*
X109581D01*
X109381Y12890D01*
X111180Y11890D02*
Y13090D01*
X110580Y12490D01*
X111380D01*
X109981Y8890D02*
Y10090D01*
X109381Y9490D01*
X110181D01*
Y5890D02*
X109381D01*
X110181Y6690D01*
Y6890D01*
X109981Y7090D01*
X109581D01*
X109381Y6890D01*
X160804Y29478D02*
X160297Y29224D01*
X159789Y28716D01*
Y28208D01*
X160043Y27954D01*
X160550D01*
X160804Y28208D01*
Y28462D01*
X160550Y28716D01*
X159789D01*
X162328Y29478D02*
X161312D01*
Y28716D01*
X161820Y28970D01*
X162074D01*
X162328Y28716D01*
Y28208D01*
X162074Y27954D01*
X161566D01*
X161312Y28208D01*
X162836Y27954D02*
Y28208D01*
X163090D01*
Y27954D01*
X162836D01*
X164105Y29224D02*
X164359Y29478D01*
X164867D01*
X165121Y29224D01*
Y28970D01*
X164867Y28716D01*
X164613D01*
X164867D01*
X165121Y28462D01*
Y28208D01*
X164867Y27954D01*
X164359D01*
X164105Y28208D01*
X165629Y29224D02*
X165883Y29478D01*
X166391D01*
X166645Y29224D01*
Y28970D01*
X166391Y28716D01*
X166137D01*
X166391D01*
X166645Y28462D01*
Y28208D01*
X166391Y27954D01*
X165883D01*
X165629Y28208D01*
X167152Y27954D02*
Y28970D01*
X167406D01*
X167660Y28716D01*
Y27954D01*
Y28716D01*
X167914Y28970D01*
X168168Y28716D01*
Y27954D01*
X168676D02*
X169184D01*
X168930D01*
Y28970D01*
X168676D01*
X169945Y27954D02*
X170453D01*
X170199D01*
Y29478D01*
X169945D01*
X100368D02*
X101384D01*
X100876D01*
Y27954D01*
X102146D02*
X102654D01*
X102908Y28208D01*
Y28716D01*
X102654Y28970D01*
X102146D01*
X101892Y28716D01*
Y28208D01*
X102146Y27954D01*
X103669Y29224D02*
Y28970D01*
X103416D01*
X103923D01*
X103669D01*
Y28208D01*
X103923Y27954D01*
X104939Y28970D02*
X105447D01*
X105701Y28716D01*
Y27954D01*
X104939D01*
X104685Y28208D01*
X104939Y28462D01*
X105701D01*
X106209Y27954D02*
X106716D01*
X106463D01*
Y29478D01*
X106209D01*
X109002D02*
Y27954D01*
X109763D01*
X110017Y28208D01*
Y28462D01*
Y28716D01*
X109763Y28970D01*
X109002D01*
X110779Y27954D02*
X111287D01*
X111541Y28208D01*
Y28716D01*
X111287Y28970D01*
X110779D01*
X110525Y28716D01*
Y28208D01*
X110779Y27954D01*
X112303Y28970D02*
X112810D01*
X113064Y28716D01*
Y27954D01*
X112303D01*
X112049Y28208D01*
X112303Y28462D01*
X113064D01*
X113572Y28970D02*
Y27954D01*
Y28462D01*
X113826Y28716D01*
X114080Y28970D01*
X114334D01*
X116111Y29478D02*
Y27954D01*
X115350D01*
X115096Y28208D01*
Y28716D01*
X115350Y28970D01*
X116111D01*
X118397Y29224D02*
Y28970D01*
X118143D01*
X118651D01*
X118397D01*
Y28208D01*
X118651Y27954D01*
X119412Y29478D02*
Y27954D01*
Y28716D01*
X119666Y28970D01*
X120174D01*
X120428Y28716D01*
Y27954D01*
X120936D02*
X121444D01*
X121190D01*
Y28970D01*
X120936D01*
X123221D02*
X122459D01*
X122205Y28716D01*
Y28208D01*
X122459Y27954D01*
X123221D01*
X123729D02*
Y29478D01*
Y28462D02*
X124491Y28970D01*
X123729Y28462D02*
X124491Y27954D01*
X125252D02*
Y28970D01*
X126014D01*
X126268Y28716D01*
Y27954D01*
X127538D02*
X127030D01*
X126776Y28208D01*
Y28716D01*
X127030Y28970D01*
X127538D01*
X127792Y28716D01*
Y28462D01*
X126776D01*
X128299Y27954D02*
X129061D01*
X129315Y28208D01*
X129061Y28462D01*
X128553D01*
X128299Y28716D01*
X128553Y28970D01*
X129315D01*
X129823Y27954D02*
X130585D01*
X130839Y28208D01*
X130585Y28462D01*
X130077D01*
X129823Y28716D01*
X130077Y28970D01*
X130839D01*
X131346D02*
X131600D01*
Y28716D01*
X131346D01*
Y28970D01*
Y28208D02*
X131600D01*
Y27954D01*
X131346D01*
Y28208D01*
X177056Y52338D02*
Y53862D01*
X176295Y53100D01*
X177310D01*
X177056Y43194D02*
Y44718D01*
X176295Y43956D01*
X177310D01*
X177818Y43194D02*
Y43448D01*
X178072D01*
Y43194D01*
X177818D01*
X179088Y44464D02*
X179342Y44718D01*
X179849D01*
X180103Y44464D01*
Y44210D01*
X179849Y43956D01*
X179595D01*
X179849D01*
X180103Y43702D01*
Y43448D01*
X179849Y43194D01*
X179342D01*
X179088Y43448D01*
X177056Y34050D02*
Y35574D01*
X176295Y34812D01*
X177310D01*
Y59704D02*
X177056Y59958D01*
X176548D01*
X176295Y59704D01*
Y58688D01*
X176548Y58434D01*
X177056D01*
X177310Y58688D01*
X178072Y58434D02*
X178580D01*
X178834Y58688D01*
Y59196D01*
X178580Y59450D01*
X178072D01*
X177818Y59196D01*
Y58688D01*
X178072Y58434D01*
X179342D02*
Y59450D01*
X180103D01*
X180357Y59196D01*
Y58434D01*
X180865D02*
X181627D01*
X181881Y58688D01*
X181627Y58942D01*
X181119D01*
X180865Y59196D01*
X181119Y59450D01*
X181881D01*
X182642Y59704D02*
Y59450D01*
X182389D01*
X182896D01*
X182642D01*
Y58688D01*
X182896Y58434D01*
X183912Y59450D02*
X184420D01*
X184674Y59196D01*
Y58434D01*
X183912D01*
X183658Y58688D01*
X183912Y58942D01*
X184674D01*
X185182Y58434D02*
Y59450D01*
X185943D01*
X186197Y59196D01*
Y58434D01*
X186959Y59704D02*
Y59450D01*
X186705D01*
X187213D01*
X186959D01*
Y58688D01*
X187213Y58434D01*
X159789Y52338D02*
X160297D01*
X160043D01*
Y53862D01*
X159789Y53608D01*
X161058Y52338D02*
Y52592D01*
X161312D01*
Y52338D01*
X161058D01*
X162328Y53608D02*
X162582Y53862D01*
X163090D01*
X163344Y53608D01*
Y52592D01*
X163090Y52338D01*
X162582D01*
X162328Y52592D01*
Y53608D01*
X163851D02*
X164105Y53862D01*
X164613D01*
X164867Y53608D01*
Y52592D01*
X164613Y52338D01*
X164105D01*
X163851Y52592D01*
Y53608D01*
X165375Y52338D02*
Y53354D01*
X165629D01*
X165883Y53100D01*
Y52338D01*
Y53100D01*
X166137Y53354D01*
X166391Y53100D01*
Y52338D01*
X166898D02*
X167406D01*
X167152D01*
Y53354D01*
X166898D01*
X168168Y52338D02*
X168676D01*
X168422D01*
Y53862D01*
X168168D01*
X159789Y50560D02*
X160043Y50814D01*
X160550D01*
X160804Y50560D01*
Y49544D01*
X160550Y49290D01*
X160043D01*
X159789Y49544D01*
Y50560D01*
X161312Y49290D02*
Y49544D01*
X161566D01*
Y49290D01*
X161312D01*
X162582Y50814D02*
X163598D01*
Y50560D01*
X162582Y49544D01*
Y49290D01*
X164105Y49544D02*
X164359Y49290D01*
X164867D01*
X165121Y49544D01*
Y50560D01*
X164867Y50814D01*
X164359D01*
X164105Y50560D01*
Y50306D01*
X164359Y50052D01*
X165121D01*
X165629Y49290D02*
Y50306D01*
X165883D01*
X166137Y50052D01*
Y49290D01*
Y50052D01*
X166391Y50306D01*
X166645Y50052D01*
Y49290D01*
X167152D02*
X167660D01*
X167406D01*
Y50306D01*
X167152D01*
X168422Y49290D02*
X168930D01*
X168676D01*
Y50814D01*
X168422D01*
X159789Y46242D02*
X160297D01*
X160043D01*
Y47766D01*
X159789Y47512D01*
X161058Y46242D02*
Y46496D01*
X161312D01*
Y46242D01*
X161058D01*
X162328Y47512D02*
X162582Y47766D01*
X163090D01*
X163344Y47512D01*
Y47258D01*
X163090Y47004D01*
X162836D01*
X163090D01*
X163344Y46750D01*
Y46496D01*
X163090Y46242D01*
X162582D01*
X162328Y46496D01*
X163851Y47512D02*
X164105Y47766D01*
X164613D01*
X164867Y47512D01*
Y47258D01*
X164613Y47004D01*
X164867Y46750D01*
Y46496D01*
X164613Y46242D01*
X164105D01*
X163851Y46496D01*
Y46750D01*
X164105Y47004D01*
X163851Y47258D01*
Y47512D01*
X164105Y47004D02*
X164613D01*
X165375Y46242D02*
Y47258D01*
X165629D01*
X165883Y47004D01*
Y46242D01*
Y47004D01*
X166137Y47258D01*
X166391Y47004D01*
Y46242D01*
X166898D02*
X167406D01*
X167152D01*
Y47258D01*
X166898D01*
X168168Y46242D02*
X168676D01*
X168422D01*
Y47766D01*
X168168D01*
X160804Y44718D02*
X159789D01*
Y43956D01*
X160297Y44210D01*
X160550D01*
X160804Y43956D01*
Y43448D01*
X160550Y43194D01*
X160043D01*
X159789Y43448D01*
X161312D02*
X161566Y43194D01*
X162074D01*
X162328Y43448D01*
Y44464D01*
X162074Y44718D01*
X161566D01*
X161312Y44464D01*
Y44210D01*
X161566Y43956D01*
X162328D01*
X162836Y43194D02*
Y43448D01*
X163090D01*
Y43194D01*
X162836D01*
X164105Y44464D02*
X164359Y44718D01*
X164867D01*
X165121Y44464D01*
Y43448D01*
X164867Y43194D01*
X164359D01*
X164105Y43448D01*
Y44464D01*
X165629D02*
X165883Y44718D01*
X166391D01*
X166645Y44464D01*
Y43448D01*
X166391Y43194D01*
X165883D01*
X165629Y43448D01*
Y44464D01*
X167152Y43194D02*
Y44210D01*
X167406D01*
X167660Y43956D01*
Y43194D01*
Y43956D01*
X167914Y44210D01*
X168168Y43956D01*
Y43194D01*
X168676D02*
X169184D01*
X168930D01*
Y44210D01*
X168676D01*
X169945Y43194D02*
X170453D01*
X170199D01*
Y44718D01*
X169945D01*
X159789Y40146D02*
X160297D01*
X160043D01*
Y41670D01*
X159789Y41416D01*
X161058Y40146D02*
Y40400D01*
X161312D01*
Y40146D01*
X161058D01*
X162328Y41416D02*
X162582Y41670D01*
X163090D01*
X163344Y41416D01*
Y41162D01*
X163090Y40908D01*
X162836D01*
X163090D01*
X163344Y40654D01*
Y40400D01*
X163090Y40146D01*
X162582D01*
X162328Y40400D01*
X163851Y41416D02*
X164105Y41670D01*
X164613D01*
X164867Y41416D01*
Y41162D01*
X164613Y40908D01*
X164867Y40654D01*
Y40400D01*
X164613Y40146D01*
X164105D01*
X163851Y40400D01*
Y40654D01*
X164105Y40908D01*
X163851Y41162D01*
Y41416D01*
X164105Y40908D02*
X164613D01*
X165375Y40146D02*
Y41162D01*
X165629D01*
X165883Y40908D01*
Y40146D01*
Y40908D01*
X166137Y41162D01*
X166391Y40908D01*
Y40146D01*
X166898D02*
X167406D01*
X167152D01*
Y41162D01*
X166898D01*
X168168Y40146D02*
X168676D01*
X168422D01*
Y41670D01*
X168168D01*
X159789Y38368D02*
X160043Y38622D01*
X160550D01*
X160804Y38368D01*
Y37352D01*
X160550Y37098D01*
X160043D01*
X159789Y37352D01*
Y38368D01*
X161312Y37098D02*
Y37352D01*
X161566D01*
Y37098D01*
X161312D01*
X162582Y38622D02*
X163598D01*
Y38368D01*
X162582Y37352D01*
Y37098D01*
X164105Y37352D02*
X164359Y37098D01*
X164867D01*
X165121Y37352D01*
Y38368D01*
X164867Y38622D01*
X164359D01*
X164105Y38368D01*
Y38114D01*
X164359Y37860D01*
X165121D01*
X165629Y37098D02*
Y38114D01*
X165883D01*
X166137Y37860D01*
Y37098D01*
Y37860D01*
X166391Y38114D01*
X166645Y37860D01*
Y37098D01*
X167152D02*
X167660D01*
X167406D01*
Y38114D01*
X167152D01*
X168422Y37098D02*
X168930D01*
X168676D01*
Y38622D01*
X168422D01*
X159789Y34050D02*
X160297D01*
X160043D01*
Y35574D01*
X159789Y35320D01*
X161058Y34050D02*
Y34304D01*
X161312D01*
Y34050D01*
X161058D01*
X162328Y35320D02*
X162582Y35574D01*
X163090D01*
X163344Y35320D01*
Y34304D01*
X163090Y34050D01*
X162582D01*
X162328Y34304D01*
Y35320D01*
X163851D02*
X164105Y35574D01*
X164613D01*
X164867Y35320D01*
Y34304D01*
X164613Y34050D01*
X164105D01*
X163851Y34304D01*
Y35320D01*
X165375Y34050D02*
Y35066D01*
X165629D01*
X165883Y34812D01*
Y34050D01*
Y34812D01*
X166137Y35066D01*
X166391Y34812D01*
Y34050D01*
X166898D02*
X167406D01*
X167152D01*
Y35066D01*
X166898D01*
X168168Y34050D02*
X168676D01*
X168422D01*
Y35574D01*
X168168D01*
X159789Y59958D02*
X160804D01*
X160297D01*
Y58434D01*
X161312Y59958D02*
Y58434D01*
Y59196D01*
X161566Y59450D01*
X162074D01*
X162328Y59196D01*
Y58434D01*
X162836D02*
X163344D01*
X163090D01*
Y59450D01*
X162836D01*
X165121D02*
X164359D01*
X164105Y59196D01*
Y58688D01*
X164359Y58434D01*
X165121D01*
X165629D02*
Y59958D01*
Y58942D02*
X166391Y59450D01*
X165629Y58942D02*
X166391Y58434D01*
X167152D02*
Y59450D01*
X167914D01*
X168168Y59196D01*
Y58434D01*
X169438D02*
X168930D01*
X168676Y58688D01*
Y59196D01*
X168930Y59450D01*
X169438D01*
X169692Y59196D01*
Y58942D01*
X168676D01*
X170199Y58434D02*
X170961D01*
X171215Y58688D01*
X170961Y58942D01*
X170453D01*
X170199Y59196D01*
X170453Y59450D01*
X171215D01*
X171723Y58434D02*
X172485D01*
X172739Y58688D01*
X172485Y58942D01*
X171977D01*
X171723Y59196D01*
X171977Y59450D01*
X172739D01*
X145568Y53608D02*
X145314Y53862D01*
X144806D01*
X144553Y53608D01*
Y53354D01*
X144806Y53100D01*
X145314D01*
X145568Y52846D01*
Y52592D01*
X145314Y52338D01*
X144806D01*
X144553Y52592D01*
X146076Y52338D02*
Y53862D01*
X146584Y53354D01*
X147092Y53862D01*
Y52338D01*
X147600Y53100D02*
X148615D01*
X149123Y53608D02*
X149377Y53862D01*
X149885D01*
X150139Y53608D01*
Y52592D01*
X149885Y52338D01*
X149377D01*
X149123Y52592D01*
Y53608D01*
X150647D02*
X150900Y53862D01*
X151408D01*
X151662Y53608D01*
Y52592D01*
X151408Y52338D01*
X150900D01*
X150647Y52592D01*
Y53608D01*
X152170Y52338D02*
X152678D01*
X152424D01*
Y53862D01*
X152170Y53608D01*
X144553Y49290D02*
Y50814D01*
X145314D01*
X145568Y50560D01*
Y50052D01*
X145314Y49798D01*
X144553D01*
X146076Y50814D02*
Y49290D01*
X146838D01*
X147092Y49544D01*
Y49798D01*
Y50052D01*
X146838Y50306D01*
X146076D01*
X148615Y50560D02*
X148361Y50814D01*
X147853D01*
X147600Y50560D01*
Y50306D01*
X147853Y50052D01*
X148361D01*
X148615Y49798D01*
Y49544D01*
X148361Y49290D01*
X147853D01*
X147600Y49544D01*
X149123Y49290D02*
Y50306D01*
X149885D01*
X150139Y50052D01*
Y49290D01*
X145568Y47512D02*
X145314Y47766D01*
X144806D01*
X144553Y47512D01*
Y46496D01*
X144806Y46242D01*
X145314D01*
X145568Y46496D01*
X147092Y47766D02*
X146076D01*
Y47004D01*
X146584D01*
X146076D01*
Y46242D01*
X147600Y47004D02*
X148615D01*
X149123Y47512D02*
X149377Y47766D01*
X149885D01*
X150139Y47512D01*
Y46496D01*
X149885Y46242D01*
X149377D01*
X149123Y46496D01*
Y47512D01*
X150647D02*
X150900Y47766D01*
X151408D01*
X151662Y47512D01*
Y46496D01*
X151408Y46242D01*
X150900D01*
X150647Y46496D01*
Y47512D01*
X152932Y46242D02*
Y47766D01*
X152170Y47004D01*
X153186D01*
X145568Y44464D02*
X145314Y44718D01*
X144806D01*
X144553Y44464D01*
Y43448D01*
X144806Y43194D01*
X145314D01*
X145568Y43448D01*
X146330Y43194D02*
X146838D01*
X147092Y43448D01*
Y43956D01*
X146838Y44210D01*
X146330D01*
X146076Y43956D01*
Y43448D01*
X146330Y43194D01*
X147600Y44210D02*
Y43194D01*
Y43702D01*
X147853Y43956D01*
X148107Y44210D01*
X148361D01*
X149885Y43194D02*
X149377D01*
X149123Y43448D01*
Y43956D01*
X149377Y44210D01*
X149885D01*
X150139Y43956D01*
Y43702D01*
X149123D01*
X150647Y43956D02*
X151662D01*
X152170Y44464D02*
X152424Y44718D01*
X152932D01*
X153186Y44464D01*
Y43448D01*
X152932Y43194D01*
X152424D01*
X152170Y43448D01*
Y44464D01*
X154455Y43194D02*
Y44718D01*
X153694Y43956D01*
X154709D01*
X155217Y44464D02*
X155471Y44718D01*
X155979D01*
X156233Y44464D01*
Y44210D01*
X155979Y43956D01*
X155725D01*
X155979D01*
X156233Y43702D01*
Y43448D01*
X155979Y43194D01*
X155471D01*
X155217Y43448D01*
X145568Y41416D02*
X145314Y41670D01*
X144806D01*
X144553Y41416D01*
Y40400D01*
X144806Y40146D01*
X145314D01*
X145568Y40400D01*
X147092Y41670D02*
X146076D01*
Y40908D01*
X146584D01*
X146076D01*
Y40146D01*
X147600Y40908D02*
X148615D01*
X149123Y41416D02*
X149377Y41670D01*
X149885D01*
X150139Y41416D01*
Y40400D01*
X149885Y40146D01*
X149377D01*
X149123Y40400D01*
Y41416D01*
X150647D02*
X150900Y41670D01*
X151408D01*
X151662Y41416D01*
Y40400D01*
X151408Y40146D01*
X150900D01*
X150647Y40400D01*
Y41416D01*
X152932Y40146D02*
Y41670D01*
X152170Y40908D01*
X153186D01*
X144553Y37098D02*
Y38622D01*
X145314D01*
X145568Y38368D01*
Y37860D01*
X145314Y37606D01*
X144553D01*
X146076Y38622D02*
Y37098D01*
X146838D01*
X147092Y37352D01*
Y37606D01*
Y37860D01*
X146838Y38114D01*
X146076D01*
X148615Y38368D02*
X148361Y38622D01*
X147853D01*
X147600Y38368D01*
Y38114D01*
X147853Y37860D01*
X148361D01*
X148615Y37606D01*
Y37352D01*
X148361Y37098D01*
X147853D01*
X147600Y37352D01*
X149123Y37098D02*
Y38114D01*
X149885D01*
X150139Y37860D01*
Y37098D01*
X145568Y35320D02*
X145314Y35574D01*
X144806D01*
X144553Y35320D01*
Y35066D01*
X144806Y34812D01*
X145314D01*
X145568Y34558D01*
Y34304D01*
X145314Y34050D01*
X144806D01*
X144553Y34304D01*
X146076Y34050D02*
Y35574D01*
X146584Y35066D01*
X147092Y35574D01*
Y34050D01*
X147600Y34812D02*
X148615D01*
X149123Y35320D02*
X149377Y35574D01*
X149885D01*
X150139Y35320D01*
Y34304D01*
X149885Y34050D01*
X149377D01*
X149123Y34304D01*
Y35320D01*
X150647D02*
X150900Y35574D01*
X151408D01*
X151662Y35320D01*
Y34304D01*
X151408Y34050D01*
X150900D01*
X150647Y34304D01*
Y35320D01*
X152170Y34050D02*
X152678D01*
X152424D01*
Y35574D01*
X152170Y35320D01*
X144553Y58434D02*
Y59958D01*
X145060Y59450D01*
X145568Y59958D01*
Y58434D01*
X146330Y59450D02*
X146838D01*
X147092Y59196D01*
Y58434D01*
X146330D01*
X146076Y58688D01*
X146330Y58942D01*
X147092D01*
X147853Y59704D02*
Y59450D01*
X147600D01*
X148107D01*
X147853D01*
Y58688D01*
X148107Y58434D01*
X149631D02*
X149123D01*
X148869Y58688D01*
Y59196D01*
X149123Y59450D01*
X149631D01*
X149885Y59196D01*
Y58942D01*
X148869D01*
X150393Y59450D02*
Y58434D01*
Y58942D01*
X150647Y59196D01*
X150900Y59450D01*
X151154D01*
X151916Y58434D02*
X152424D01*
X152170D01*
Y59450D01*
X151916D01*
X153440D02*
X153947D01*
X154201Y59196D01*
Y58434D01*
X153440D01*
X153186Y58688D01*
X153440Y58942D01*
X154201D01*
X154709Y58434D02*
X155217D01*
X154963D01*
Y59958D01*
X154709D01*
X110780Y56910D02*
X111796D01*
X111288D01*
Y55386D01*
X112558D02*
X113066D01*
X113319Y55640D01*
Y56148D01*
X113066Y56402D01*
X112558D01*
X112304Y56148D01*
Y55640D01*
X112558Y55386D01*
X113827Y54878D02*
Y56402D01*
X114589D01*
X114843Y56148D01*
Y55640D01*
X114589Y55386D01*
X113827D01*
X117636Y56910D02*
X117128D01*
X116874Y56656D01*
Y55640D01*
X117128Y55386D01*
X117636D01*
X117890Y55640D01*
Y56656D01*
X117636Y56910D01*
X118398Y56402D02*
X118906Y55386D01*
X119413Y56402D01*
X120683Y55386D02*
X120175D01*
X119921Y55640D01*
Y56148D01*
X120175Y56402D01*
X120683D01*
X120937Y56148D01*
Y55894D01*
X119921D01*
X121445Y56402D02*
Y55386D01*
Y55894D01*
X121699Y56148D01*
X121953Y56402D01*
X122207D01*
X122968Y55386D02*
X123476D01*
X123222D01*
Y56910D01*
X122968D01*
X124492Y56402D02*
X125000D01*
X125254Y56148D01*
Y55386D01*
X124492D01*
X124238Y55640D01*
X124492Y55894D01*
X125254D01*
X125761Y56402D02*
Y55640D01*
X126015Y55386D01*
X126777D01*
Y55132D01*
X126523Y54878D01*
X126269D01*
X126777Y55386D02*
Y56402D01*
X110780Y53862D02*
X111796D01*
X111288D01*
Y52338D01*
X112558D02*
X113066D01*
X113319Y52592D01*
Y53100D01*
X113066Y53354D01*
X112558D01*
X112304Y53100D01*
Y52592D01*
X112558Y52338D01*
X113827Y51830D02*
Y53354D01*
X114589D01*
X114843Y53100D01*
Y52592D01*
X114589Y52338D01*
X113827D01*
X117890Y53608D02*
X117636Y53862D01*
X117128D01*
X116874Y53608D01*
Y53354D01*
X117128Y53100D01*
X117636D01*
X117890Y52846D01*
Y52592D01*
X117636Y52338D01*
X117128D01*
X116874Y52592D01*
X118652Y52338D02*
X119160D01*
X119413Y52592D01*
Y53100D01*
X119160Y53354D01*
X118652D01*
X118398Y53100D01*
Y52592D01*
X118652Y52338D01*
X119921D02*
X120429D01*
X120175D01*
Y53862D01*
X119921D01*
X122207D02*
Y52338D01*
X121445D01*
X121191Y52592D01*
Y53100D01*
X121445Y53354D01*
X122207D01*
X123476Y52338D02*
X122968D01*
X122714Y52592D01*
Y53100D01*
X122968Y53354D01*
X123476D01*
X123730Y53100D01*
Y52846D01*
X122714D01*
X124238Y53354D02*
Y52338D01*
Y52846D01*
X124492Y53100D01*
X124746Y53354D01*
X125000D01*
X110780Y50814D02*
X111796D01*
X111288D01*
Y49290D01*
X112558D02*
X113066D01*
X113319Y49544D01*
Y50052D01*
X113066Y50306D01*
X112558D01*
X112304Y50052D01*
Y49544D01*
X112558Y49290D01*
X113827Y48782D02*
Y50306D01*
X114589D01*
X114843Y50052D01*
Y49544D01*
X114589Y49290D01*
X113827D01*
X117890Y50560D02*
X117636Y50814D01*
X117128D01*
X116874Y50560D01*
Y50306D01*
X117128Y50052D01*
X117636D01*
X117890Y49798D01*
Y49544D01*
X117636Y49290D01*
X117128D01*
X116874Y49544D01*
X118398Y50306D02*
Y49544D01*
X118652Y49290D01*
X119413D01*
Y50306D01*
X119921D02*
Y49290D01*
Y49798D01*
X120175Y50052D01*
X120429Y50306D01*
X120683D01*
X121699Y49290D02*
Y50560D01*
Y50052D01*
X121445D01*
X121953D01*
X121699D01*
Y50560D01*
X121953Y50814D01*
X122968Y50306D02*
X123476D01*
X123730Y50052D01*
Y49290D01*
X122968D01*
X122714Y49544D01*
X122968Y49798D01*
X123730D01*
X125254Y50306D02*
X124492D01*
X124238Y50052D01*
Y49544D01*
X124492Y49290D01*
X125254D01*
X126523D02*
X126015D01*
X125761Y49544D01*
Y50052D01*
X126015Y50306D01*
X126523D01*
X126777Y50052D01*
Y49798D01*
X125761D01*
X129824Y50814D02*
X128808D01*
Y50052D01*
X129316D01*
X128808D01*
Y49290D01*
X130332D02*
X130840D01*
X130586D01*
Y50306D01*
X130332D01*
X131602Y49290D02*
Y50306D01*
X132363D01*
X132617Y50052D01*
Y49290D01*
X133125D02*
X133633D01*
X133379D01*
Y50306D01*
X133125D01*
X134395Y49290D02*
X135156D01*
X135410Y49544D01*
X135156Y49798D01*
X134649D01*
X134395Y50052D01*
X134649Y50306D01*
X135410D01*
X135918Y50814D02*
Y49290D01*
Y50052D01*
X136172Y50306D01*
X136680D01*
X136934Y50052D01*
Y49290D01*
X110780Y47766D02*
X111796D01*
X111288D01*
Y46242D01*
X112558D02*
X113066D01*
X113319Y46496D01*
Y47004D01*
X113066Y47258D01*
X112558D01*
X112304Y47004D01*
Y46496D01*
X112558Y46242D01*
X113827Y45734D02*
Y47258D01*
X114589D01*
X114843Y47004D01*
Y46496D01*
X114589Y46242D01*
X113827D01*
X116874Y47766D02*
Y46242D01*
X117890D01*
X118652Y47258D02*
X119160D01*
X119413Y47004D01*
Y46242D01*
X118652D01*
X118398Y46496D01*
X118652Y46750D01*
X119413D01*
X119921Y47258D02*
Y46496D01*
X120175Y46242D01*
X120937D01*
Y45988D01*
X120683Y45734D01*
X120429D01*
X120937Y46242D02*
Y47258D01*
X122207Y46242D02*
X121699D01*
X121445Y46496D01*
Y47004D01*
X121699Y47258D01*
X122207D01*
X122461Y47004D01*
Y46750D01*
X121445D01*
X122968Y47258D02*
Y46242D01*
Y46750D01*
X123222Y47004D01*
X123476Y47258D01*
X123730D01*
X110780Y44718D02*
Y43194D01*
X111542D01*
X111796Y43448D01*
Y44464D01*
X111542Y44718D01*
X110780D01*
X112304Y43194D02*
X112812D01*
X112558D01*
Y44210D01*
X112304D01*
X114335Y43194D02*
X113827D01*
X113573Y43448D01*
Y43956D01*
X113827Y44210D01*
X114335D01*
X114589Y43956D01*
Y43702D01*
X113573D01*
X115097Y43194D02*
X115605D01*
X115351D01*
Y44718D01*
X115097D01*
X117128Y43194D02*
X116620D01*
X116366Y43448D01*
Y43956D01*
X116620Y44210D01*
X117128D01*
X117382Y43956D01*
Y43702D01*
X116366D01*
X118906Y44210D02*
X118144D01*
X117890Y43956D01*
Y43448D01*
X118144Y43194D01*
X118906D01*
X119667Y44464D02*
Y44210D01*
X119413D01*
X119921D01*
X119667D01*
Y43448D01*
X119921Y43194D01*
X120683Y44210D02*
Y43194D01*
Y43702D01*
X120937Y43956D01*
X121191Y44210D01*
X121445D01*
X122207Y43194D02*
X122714D01*
X122461D01*
Y44210D01*
X122207D01*
X124492D02*
X123730D01*
X123476Y43956D01*
Y43448D01*
X123730Y43194D01*
X124492D01*
X126523D02*
X127031D01*
X126777D01*
Y44718D01*
X126523Y44464D01*
X110780Y41670D02*
Y40146D01*
X111542D01*
X111796Y40400D01*
Y40654D01*
X111542Y40908D01*
X110780D01*
X111542D01*
X111796Y41162D01*
Y41416D01*
X111542Y41670D01*
X110780D01*
X112558Y40146D02*
X113066D01*
X113319Y40400D01*
Y40908D01*
X113066Y41162D01*
X112558D01*
X112304Y40908D01*
Y40400D01*
X112558Y40146D01*
X114081Y41416D02*
Y41162D01*
X113827D01*
X114335D01*
X114081D01*
Y40400D01*
X114335Y40146D01*
X115351Y41416D02*
Y41162D01*
X115097D01*
X115605D01*
X115351D01*
Y40400D01*
X115605Y40146D01*
X116620D02*
X117128D01*
X117382Y40400D01*
Y40908D01*
X117128Y41162D01*
X116620D01*
X116366Y40908D01*
Y40400D01*
X116620Y40146D01*
X117890D02*
Y41162D01*
X118144D01*
X118398Y40908D01*
Y40146D01*
Y40908D01*
X118652Y41162D01*
X118906Y40908D01*
Y40146D01*
X120937Y41670D02*
Y40146D01*
X121953D01*
X122714Y41162D02*
X123222D01*
X123476Y40908D01*
Y40146D01*
X122714D01*
X122461Y40400D01*
X122714Y40654D01*
X123476D01*
X123984Y41162D02*
Y40400D01*
X124238Y40146D01*
X125000D01*
Y39892D01*
X124746Y39638D01*
X124492D01*
X125000Y40146D02*
Y41162D01*
X126269Y40146D02*
X125761D01*
X125508Y40400D01*
Y40908D01*
X125761Y41162D01*
X126269D01*
X126523Y40908D01*
Y40654D01*
X125508D01*
X127031Y41162D02*
Y40146D01*
Y40654D01*
X127285Y40908D01*
X127539Y41162D01*
X127793D01*
X110780Y38622D02*
Y37098D01*
X111542D01*
X111796Y37352D01*
Y37606D01*
X111542Y37860D01*
X110780D01*
X111542D01*
X111796Y38114D01*
Y38368D01*
X111542Y38622D01*
X110780D01*
X112558Y37098D02*
X113066D01*
X113319Y37352D01*
Y37860D01*
X113066Y38114D01*
X112558D01*
X112304Y37860D01*
Y37352D01*
X112558Y37098D01*
X114081Y38368D02*
Y38114D01*
X113827D01*
X114335D01*
X114081D01*
Y37352D01*
X114335Y37098D01*
X115351Y38368D02*
Y38114D01*
X115097D01*
X115605D01*
X115351D01*
Y37352D01*
X115605Y37098D01*
X116620D02*
X117128D01*
X117382Y37352D01*
Y37860D01*
X117128Y38114D01*
X116620D01*
X116366Y37860D01*
Y37352D01*
X116620Y37098D01*
X117890D02*
Y38114D01*
X118144D01*
X118398Y37860D01*
Y37098D01*
Y37860D01*
X118652Y38114D01*
X118906Y37860D01*
Y37098D01*
X121953Y38368D02*
X121699Y38622D01*
X121191D01*
X120937Y38368D01*
Y38114D01*
X121191Y37860D01*
X121699D01*
X121953Y37606D01*
Y37352D01*
X121699Y37098D01*
X121191D01*
X120937Y37352D01*
X122461Y38114D02*
Y37352D01*
X122714Y37098D01*
X123476D01*
Y38114D01*
X123984D02*
Y37098D01*
Y37606D01*
X124238Y37860D01*
X124492Y38114D01*
X124746D01*
X125761Y37098D02*
Y38368D01*
Y37860D01*
X125508D01*
X126015D01*
X125761D01*
Y38368D01*
X126015Y38622D01*
X127031Y38114D02*
X127539D01*
X127793Y37860D01*
Y37098D01*
X127031D01*
X126777Y37352D01*
X127031Y37606D01*
X127793D01*
X129316Y38114D02*
X128555D01*
X128301Y37860D01*
Y37352D01*
X128555Y37098D01*
X129316D01*
X130586D02*
X130078D01*
X129824Y37352D01*
Y37860D01*
X130078Y38114D01*
X130586D01*
X130840Y37860D01*
Y37606D01*
X129824D01*
X133887Y38622D02*
X132871D01*
Y37860D01*
X133379D01*
X132871D01*
Y37098D01*
X134395D02*
X134902D01*
X134649D01*
Y38114D01*
X134395D01*
X135664Y37098D02*
Y38114D01*
X136426D01*
X136680Y37860D01*
Y37098D01*
X137188D02*
X137696D01*
X137442D01*
Y38114D01*
X137188D01*
X138457Y37098D02*
X139219D01*
X139473Y37352D01*
X139219Y37606D01*
X138711D01*
X138457Y37860D01*
X138711Y38114D01*
X139473D01*
X139981Y38622D02*
Y37098D01*
Y37860D01*
X140235Y38114D01*
X140743D01*
X140997Y37860D01*
Y37098D01*
X110780Y35574D02*
Y34050D01*
X111542D01*
X111796Y34304D01*
Y34558D01*
X111542Y34812D01*
X110780D01*
X111542D01*
X111796Y35066D01*
Y35320D01*
X111542Y35574D01*
X110780D01*
X112558Y34050D02*
X113066D01*
X113319Y34304D01*
Y34812D01*
X113066Y35066D01*
X112558D01*
X112304Y34812D01*
Y34304D01*
X112558Y34050D01*
X114081Y35320D02*
Y35066D01*
X113827D01*
X114335D01*
X114081D01*
Y34304D01*
X114335Y34050D01*
X115351Y35320D02*
Y35066D01*
X115097D01*
X115605D01*
X115351D01*
Y34304D01*
X115605Y34050D01*
X116620D02*
X117128D01*
X117382Y34304D01*
Y34812D01*
X117128Y35066D01*
X116620D01*
X116366Y34812D01*
Y34304D01*
X116620Y34050D01*
X117890D02*
Y35066D01*
X118144D01*
X118398Y34812D01*
Y34050D01*
Y34812D01*
X118652Y35066D01*
X118906Y34812D01*
Y34050D01*
X121953Y35320D02*
X121699Y35574D01*
X121191D01*
X120937Y35320D01*
Y35066D01*
X121191Y34812D01*
X121699D01*
X121953Y34558D01*
Y34304D01*
X121699Y34050D01*
X121191D01*
X120937Y34304D01*
X122714Y34050D02*
X123222D01*
X123476Y34304D01*
Y34812D01*
X123222Y35066D01*
X122714D01*
X122461Y34812D01*
Y34304D01*
X122714Y34050D01*
X123984D02*
X124492D01*
X124238D01*
Y35574D01*
X123984D01*
X126269D02*
Y34050D01*
X125508D01*
X125254Y34304D01*
Y34812D01*
X125508Y35066D01*
X126269D01*
X127539Y34050D02*
X127031D01*
X126777Y34304D01*
Y34812D01*
X127031Y35066D01*
X127539D01*
X127793Y34812D01*
Y34558D01*
X126777D01*
X128301Y35066D02*
Y34050D01*
Y34558D01*
X128555Y34812D01*
X128808Y35066D01*
X129062D01*
X110780Y32526D02*
Y31002D01*
X111542D01*
X111796Y31256D01*
Y31510D01*
X111542Y31764D01*
X110780D01*
X111542D01*
X111796Y32018D01*
Y32272D01*
X111542Y32526D01*
X110780D01*
X112558Y31002D02*
X113066D01*
X113319Y31256D01*
Y31764D01*
X113066Y32018D01*
X112558D01*
X112304Y31764D01*
Y31256D01*
X112558Y31002D01*
X114081Y32272D02*
Y32018D01*
X113827D01*
X114335D01*
X114081D01*
Y31256D01*
X114335Y31002D01*
X115351Y32272D02*
Y32018D01*
X115097D01*
X115605D01*
X115351D01*
Y31256D01*
X115605Y31002D01*
X116620D02*
X117128D01*
X117382Y31256D01*
Y31764D01*
X117128Y32018D01*
X116620D01*
X116366Y31764D01*
Y31256D01*
X116620Y31002D01*
X117890D02*
Y32018D01*
X118144D01*
X118398Y31764D01*
Y31002D01*
Y31764D01*
X118652Y32018D01*
X118906Y31764D01*
Y31002D01*
X121699Y32526D02*
X121191D01*
X120937Y32272D01*
Y31256D01*
X121191Y31002D01*
X121699D01*
X121953Y31256D01*
Y32272D01*
X121699Y32526D01*
X122461Y32018D02*
X122968Y31002D01*
X123476Y32018D01*
X124746Y31002D02*
X124238D01*
X123984Y31256D01*
Y31764D01*
X124238Y32018D01*
X124746D01*
X125000Y31764D01*
Y31510D01*
X123984D01*
X125508Y32018D02*
Y31002D01*
Y31510D01*
X125761Y31764D01*
X126015Y32018D01*
X126269D01*
X127031Y31002D02*
X127539D01*
X127285D01*
Y32526D01*
X127031D01*
X128555Y32018D02*
X129062D01*
X129316Y31764D01*
Y31002D01*
X128555D01*
X128301Y31256D01*
X128555Y31510D01*
X129316D01*
X129824Y32018D02*
Y31256D01*
X130078Y31002D01*
X130840D01*
Y30748D01*
X130586Y30494D01*
X130332D01*
X130840Y31002D02*
Y32018D01*
X110780Y58434D02*
Y59958D01*
X111796Y58434D01*
Y59958D01*
X112558Y59450D02*
X113066D01*
X113319Y59196D01*
Y58434D01*
X112558D01*
X112304Y58688D01*
X112558Y58942D01*
X113319D01*
X113827Y58434D02*
Y59450D01*
X114081D01*
X114335Y59196D01*
Y58434D01*
Y59196D01*
X114589Y59450D01*
X114843Y59196D01*
Y58434D01*
X116113D02*
X115605D01*
X115351Y58688D01*
Y59196D01*
X115605Y59450D01*
X116113D01*
X116366Y59196D01*
Y58942D01*
X115351D01*
X100368Y46242D02*
X100876D01*
X100622D01*
Y47766D01*
X100368Y47512D01*
X101384Y40146D02*
X100368D01*
X101384Y41162D01*
Y41416D01*
X101130Y41670D01*
X100622D01*
X100368Y41416D01*
Y59958D02*
Y58434D01*
X101384D01*
X102146Y59450D02*
X102654D01*
X102908Y59196D01*
Y58434D01*
X102146D01*
X101892Y58688D01*
X102146Y58942D01*
X102908D01*
X103416Y59450D02*
Y58688D01*
X103669Y58434D01*
X104431D01*
Y58180D01*
X104177Y57926D01*
X103923D01*
X104431Y58434D02*
Y59450D01*
X105701Y58434D02*
X105193D01*
X104939Y58688D01*
Y59196D01*
X105193Y59450D01*
X105701D01*
X105955Y59196D01*
Y58942D01*
X104939D01*
X106463Y59450D02*
Y58434D01*
Y58942D01*
X106716Y59196D01*
X106970Y59450D01*
X107224D01*
D48*
X97290Y16990D02*
X226684D01*
X97290Y4990D02*
X226684D01*
X97290Y1990D02*
X226684D01*
Y19990D01*
X97290D02*
X226684D01*
X97290Y1990D02*
Y19990D01*
X210695Y1990D02*
Y19990D01*
X198725Y1990D02*
Y19990D01*
X168626Y1990D02*
Y19990D01*
X153777Y1990D02*
Y19990D01*
X143487Y1990D02*
Y19990D01*
X120386Y1990D02*
Y19990D01*
X108481Y1990D02*
Y19990D01*
X188991Y30240D02*
Y60720D01*
X174517Y54624D02*
X188991D01*
X174517Y51576D02*
X188991D01*
X174517Y48528D02*
X188991D01*
X174517Y45480D02*
X188991D01*
X174517Y42432D02*
X188991D01*
X174517Y39384D02*
X188991D01*
X174517Y36336D02*
X188991D01*
X174517Y33288D02*
X188991D01*
X174517Y30240D02*
X188991D01*
X174517D02*
Y60720D01*
X158011Y54624D02*
X174517D01*
X158011Y51576D02*
X174517D01*
X158011Y48528D02*
X174517D01*
X158011Y45480D02*
X174517D01*
X158011Y42432D02*
X174517D01*
X158011Y39384D02*
X174517D01*
X158011Y36336D02*
X174517D01*
X158011Y33288D02*
X174517D01*
X158011Y30240D02*
X174517D01*
X158011D02*
Y60720D01*
X142775Y54624D02*
X158011D01*
X142775Y51576D02*
X158011D01*
X142775Y48528D02*
X158011D01*
X142775Y45480D02*
X158011D01*
X142775Y42432D02*
X158011D01*
X142775Y39384D02*
X158011D01*
X142775Y36336D02*
X158011D01*
X142775Y33288D02*
X158011D01*
X142775Y30240D02*
X158011D01*
X142775D02*
Y60720D01*
X109002Y54624D02*
X142775D01*
X109002Y51576D02*
X142775D01*
X109002Y48528D02*
X142775D01*
X109002Y45480D02*
X142775D01*
X109002Y42432D02*
X142775D01*
X109002Y39384D02*
X142775D01*
X109002Y36336D02*
X142775D01*
X109002Y33288D02*
X142775D01*
X109002Y30240D02*
X142775D01*
X109002D02*
Y60720D01*
X98590Y54624D02*
X109002D01*
X98590Y51576D02*
X109002D01*
X98590Y48528D02*
X109002D01*
X98590Y45480D02*
X109002D01*
X98590Y42432D02*
X109002D01*
X98590Y39384D02*
X109002D01*
X98590Y36336D02*
X109002D01*
X98590Y33288D02*
X109002D01*
X98590Y30240D02*
X109002D01*
X98590D02*
Y60720D01*
X188991D01*
X98590Y57672D02*
X188991D01*
D49*
X9073Y8873D02*
X9200Y8746D01*
X8946Y8873D02*
X9073D01*
X8946D02*
X9073Y9000D01*
X8946Y9127D02*
X9073Y9000D01*
X8946Y9127D02*
X9073D01*
X9200Y9254D01*
X9327Y9127D01*
X9454D01*
X9327Y9000D02*
X9454Y9127D01*
X9327Y9000D02*
X9454Y8873D01*
X9327D02*
X9454D01*
X9200Y8746D02*
X9327Y8873D01*
X58473Y8173D02*
X58600Y8046D01*
X58346Y8173D02*
X58473D01*
X58346D02*
X58473Y8300D01*
X58346Y8427D02*
X58473Y8300D01*
X58346Y8427D02*
X58473D01*
X58600Y8554D01*
X58727Y8427D01*
X58854D01*
X58727Y8300D02*
X58854Y8427D01*
X58727Y8300D02*
X58854Y8173D01*
X58727D02*
X58854D01*
X58600Y8046D02*
X58727Y8173D01*
X83073Y9273D02*
X83200Y9146D01*
X82946Y9273D02*
X83073D01*
X82946D02*
X83073Y9400D01*
X82946Y9527D02*
X83073Y9400D01*
X82946Y9527D02*
X83073D01*
X83200Y9654D01*
X83327Y9527D01*
X83454D01*
X83327Y9400D02*
X83454Y9527D01*
X83327Y9400D02*
X83454Y9273D01*
X83327D02*
X83454D01*
X83200Y9146D02*
X83327Y9273D01*
X71073Y8273D02*
X71200Y8146D01*
X70946Y8273D02*
X71073D01*
X70946D02*
X71073Y8400D01*
X70946Y8527D02*
X71073Y8400D01*
X70946Y8527D02*
X71073D01*
X71200Y8654D01*
X71327Y8527D01*
X71454D01*
X71327Y8400D02*
X71454Y8527D01*
X71327Y8400D02*
X71454Y8273D01*
X71327D02*
X71454D01*
X71200Y8146D02*
X71327Y8273D01*
X46573Y8373D02*
X46700Y8246D01*
X46446Y8373D02*
X46573D01*
X46446D02*
X46573Y8500D01*
X46446Y8627D02*
X46573Y8500D01*
X46446Y8627D02*
X46573D01*
X46700Y8754D01*
X46827Y8627D01*
X46954D01*
X46827Y8500D02*
X46954Y8627D01*
X46827Y8500D02*
X46954Y8373D01*
X46827D02*
X46954D01*
X46700Y8246D02*
X46827Y8373D01*
X21673Y8873D02*
X21800Y8746D01*
X21546Y8873D02*
X21673D01*
X21546D02*
X21673Y9000D01*
X21546Y9127D02*
X21673Y9000D01*
X21546Y9127D02*
X21673D01*
X21800Y9254D01*
X21927Y9127D01*
X22054D01*
X21927Y9000D02*
X22054Y9127D01*
X21927Y9000D02*
X22054Y8873D01*
X21927D02*
X22054D01*
X21800Y8746D02*
X21927Y8873D01*
X45593Y18415D02*
X45720Y18288D01*
X45466Y18415D02*
X45593D01*
X45466D02*
X45593Y18542D01*
X45466Y18669D02*
X45593Y18542D01*
X45466Y18669D02*
X45593D01*
X45720Y18796D01*
X45847Y18669D01*
X45974D01*
X45847Y18542D02*
X45974Y18669D01*
X45847Y18542D02*
X45974Y18415D01*
X45847D02*
X45974D01*
X45720Y18288D02*
X45847Y18415D01*
X39522Y8153D02*
X39649Y8026D01*
X39395Y8153D02*
X39522D01*
X39395D02*
X39522Y8280D01*
X39395Y8407D02*
X39522Y8280D01*
X39395Y8407D02*
X39522D01*
X39649Y8534D01*
X39776Y8407D01*
X39903D01*
X39776Y8280D02*
X39903Y8407D01*
X39776Y8280D02*
X39903Y8153D01*
X39776D02*
X39903D01*
X39649Y8026D02*
X39776Y8153D01*
X40973Y11973D02*
X41100Y11846D01*
X40846Y11973D02*
X40973D01*
X40846D02*
X40973Y12100D01*
X40846Y12227D02*
X40973Y12100D01*
X40846Y12227D02*
X40973D01*
X41100Y12354D01*
X41227Y12227D01*
X41354D01*
X41227Y12100D02*
X41354Y12227D01*
X41227Y12100D02*
X41354Y11973D01*
X41227D02*
X41354D01*
X41100Y11846D02*
X41227Y11973D01*
X42418Y18288D02*
X42545Y18161D01*
X42291Y18288D02*
X42418D01*
X42291D02*
X42418Y18415D01*
X42291Y18542D02*
X42418Y18415D01*
X42291Y18542D02*
X42418D01*
X42545Y18669D01*
X42672Y18542D01*
X42799D01*
X42672Y18415D02*
X42799Y18542D01*
X42672Y18415D02*
X42799Y18288D01*
X42672D02*
X42799D01*
X42545Y18161D02*
X42672Y18288D01*
X46101Y13259D02*
X46228Y13132D01*
X45974Y13259D02*
X46101D01*
X45974D02*
X46101Y13386D01*
X45974Y13513D02*
X46101Y13386D01*
X45974Y13513D02*
X46101D01*
X46228Y13640D01*
X46355Y13513D01*
X46482D01*
X46355Y13386D02*
X46482Y13513D01*
X46355Y13386D02*
X46482Y13259D01*
X46355D02*
X46482D01*
X46228Y13132D02*
X46355Y13259D01*
X13773Y7973D02*
X13900Y7846D01*
X13646Y7973D02*
X13773D01*
X13646D02*
X13773Y8100D01*
X13646Y8227D02*
X13773Y8100D01*
X13646Y8227D02*
X13773D01*
X13900Y8354D01*
X14027Y8227D01*
X14154D01*
X14027Y8100D02*
X14154Y8227D01*
X14027Y8100D02*
X14154Y7973D01*
X14027D02*
X14154D01*
X13900Y7846D02*
X14027Y7973D01*
X7446Y7446D02*
X7700Y7573D01*
X7954Y7446D01*
X7827Y7700D02*
X7954Y7446D01*
X7827Y7700D02*
X7954Y7954D01*
X7700Y7827D02*
X7954Y7954D01*
X7446D02*
X7700Y7827D01*
X7446Y7954D02*
X7573Y7700D01*
X7446Y7446D02*
X7573Y7700D01*
X19846Y7646D02*
X20100Y7773D01*
X20354Y7646D01*
X20227Y7900D02*
X20354Y7646D01*
X20227Y7900D02*
X20354Y8154D01*
X20100Y8027D02*
X20354Y8154D01*
X19846D02*
X20100Y8027D01*
X19846Y8154D02*
X19973Y7900D01*
X19846Y7646D02*
X19973Y7900D01*
X32146Y7946D02*
X32400Y8073D01*
X32654Y7946D01*
X32527Y8200D02*
X32654Y7946D01*
X32527Y8200D02*
X32654Y8454D01*
X32400Y8327D02*
X32654Y8454D01*
X32146D02*
X32400Y8327D01*
X32146Y8454D02*
X32273Y8200D01*
X32146Y7946D02*
X32273Y8200D01*
X44546Y7746D02*
X44800Y7873D01*
X45054Y7746D01*
X44927Y8000D02*
X45054Y7746D01*
X44927Y8000D02*
X45054Y8254D01*
X44800Y8127D02*
X45054Y8254D01*
X44546D02*
X44800Y8127D01*
X44546Y8254D02*
X44673Y8000D01*
X44546Y7746D02*
X44673Y8000D01*
X69846Y7546D02*
X70100Y7673D01*
X70354Y7546D01*
X70227Y7800D02*
X70354Y7546D01*
X70227Y7800D02*
X70354Y8054D01*
X70100Y7927D02*
X70354Y8054D01*
X69846D02*
X70100Y7927D01*
X69846Y8054D02*
X69973Y7800D01*
X69846Y7546D02*
X69973Y7800D01*
X81946Y7846D02*
X82200Y7973D01*
X82454Y7846D01*
X82327Y8100D02*
X82454Y7846D01*
X82327Y8100D02*
X82454Y8354D01*
X82200Y8227D02*
X82454Y8354D01*
X81946D02*
X82200Y8227D01*
X81946Y8354D02*
X82073Y8100D01*
X81946Y7846D02*
X82073Y8100D01*
X57046Y7546D02*
X57300Y7673D01*
X57554Y7546D01*
X57427Y7800D02*
X57554Y7546D01*
X57427Y7800D02*
X57554Y8054D01*
X57300Y7927D02*
X57554Y8054D01*
X57046D02*
X57300Y7927D01*
X57046Y8054D02*
X57173Y7800D01*
X57046Y7546D02*
X57173Y7800D01*
X46076Y15494D02*
X46203Y15367D01*
X45949Y15494D02*
X46076D01*
X45949D02*
X46076Y15621D01*
X45949Y15748D02*
X46076Y15621D01*
X45949Y15748D02*
X46076D01*
X46203Y15875D01*
X46330Y15748D01*
X46457D01*
X46330Y15621D02*
X46457Y15748D01*
X46330Y15621D02*
X46457Y15494D01*
X46330D02*
X46457D01*
X46203Y15367D02*
X46330Y15494D01*
X50073Y7673D02*
X50200Y7546D01*
X49946Y7673D02*
X50073D01*
X49946D02*
X50073Y7800D01*
X49946Y7927D02*
X50073Y7800D01*
X49946Y7927D02*
X50073D01*
X50200Y8054D01*
X50327Y7927D01*
X50454D01*
X50327Y7800D02*
X50454Y7927D01*
X50327Y7800D02*
X50454Y7673D01*
X50327D02*
X50454D01*
X50200Y7546D02*
X50327Y7673D01*
X66273Y2173D02*
X66400Y2046D01*
X66146Y2173D02*
X66273D01*
X66146D02*
X66273Y2300D01*
X66146Y2427D02*
X66273Y2300D01*
X66146Y2427D02*
X66273D01*
X66400Y2554D01*
X66527Y2427D01*
X66654D01*
X66527Y2300D02*
X66654Y2427D01*
X66527Y2300D02*
X66654Y2173D01*
X66527D02*
X66654D01*
X66400Y2046D02*
X66527Y2173D01*
X46341Y20701D02*
X46595Y20828D01*
X46849Y20701D01*
X46722Y20955D02*
X46849Y20701D01*
X46722Y20955D02*
X46849Y21209D01*
X46595Y21082D02*
X46849Y21209D01*
X46341D02*
X46595Y21082D01*
X46341Y21209D02*
X46468Y20955D01*
X46341Y20701D02*
X46468Y20955D01*
X51307Y13639D02*
X51434Y13512D01*
X51180Y13639D02*
X51307D01*
X51180D02*
X51307Y13766D01*
X51180Y13893D02*
X51307Y13766D01*
X51180Y13893D02*
X51307D01*
X51434Y14020D01*
X51561Y13893D01*
X51688D01*
X51561Y13766D02*
X51688Y13893D01*
X51561Y13766D02*
X51688Y13639D01*
X51561D02*
X51688D01*
X51434Y13512D02*
X51561Y13639D01*
X83573Y7473D02*
X83700Y7346D01*
X83446Y7473D02*
X83573D01*
X83446D02*
X83573Y7600D01*
X83446Y7727D02*
X83573Y7600D01*
X83446Y7727D02*
X83573D01*
X83700Y7854D01*
X83827Y7727D01*
X83954D01*
X83827Y7600D02*
X83954Y7727D01*
X83827Y7600D02*
X83954Y7473D01*
X83827D02*
X83954D01*
X83700Y7346D02*
X83827Y7473D01*
X87373Y10873D02*
X87500Y10746D01*
X87246Y10873D02*
X87373D01*
X87246D02*
X87373Y11000D01*
X87246Y11127D02*
X87373Y11000D01*
X87246Y11127D02*
X87373D01*
X87500Y11254D01*
X87627Y11127D01*
X87754D01*
X87627Y11000D02*
X87754Y11127D01*
X87627Y11000D02*
X87754Y10873D01*
X87627D02*
X87754D01*
X87500Y10746D02*
X87627Y10873D01*
X87373Y8373D02*
X87500Y8246D01*
X87246Y8373D02*
X87373D01*
X87246D02*
X87373Y8500D01*
X87246Y8627D02*
X87373Y8500D01*
X87246Y8627D02*
X87373D01*
X87500Y8754D01*
X87627Y8627D01*
X87754D01*
X87627Y8500D02*
X87754Y8627D01*
X87627Y8500D02*
X87754Y8373D01*
X87627D02*
X87754D01*
X87500Y8246D02*
X87627Y8373D01*
X87373Y5873D02*
X87500Y5746D01*
X87246Y5873D02*
X87373D01*
X87246D02*
X87373Y6000D01*
X87246Y6127D02*
X87373Y6000D01*
X87246Y6127D02*
X87373D01*
X87500Y6254D01*
X87627Y6127D01*
X87754D01*
X87627Y6000D02*
X87754Y6127D01*
X87627Y6000D02*
X87754Y5873D01*
X87627D02*
X87754D01*
X87500Y5746D02*
X87627Y5873D01*
X87373Y873D02*
X87500Y746D01*
X87246Y873D02*
X87373D01*
X87246D02*
X87373Y1000D01*
X87246Y1127D02*
X87373Y1000D01*
X87246Y1127D02*
X87373D01*
X87500Y1254D01*
X87627Y1127D01*
X87754D01*
X87627Y1000D02*
X87754Y1127D01*
X87627Y1000D02*
X87754Y873D01*
X87627D02*
X87754D01*
X87500Y746D02*
X87627Y873D01*
X84873D02*
X85000Y746D01*
X84746Y873D02*
X84873D01*
X84746D02*
X84873Y1000D01*
X84746Y1127D02*
X84873Y1000D01*
X84746Y1127D02*
X84873D01*
X85000Y1254D01*
X85127Y1127D01*
X85254D01*
X85127Y1000D02*
X85254Y1127D01*
X85127Y1000D02*
X85254Y873D01*
X85127D02*
X85254D01*
X85000Y746D02*
X85127Y873D01*
X81373Y573D02*
X81500Y446D01*
X81246Y573D02*
X81373D01*
X81246D02*
X81373Y700D01*
X81246Y827D02*
X81373Y700D01*
X81246Y827D02*
X81373D01*
X81500Y954D01*
X81627Y827D01*
X81754D01*
X81627Y700D02*
X81754Y827D01*
X81627Y700D02*
X81754Y573D01*
X81627D02*
X81754D01*
X81500Y446D02*
X81627Y573D01*
X75973D02*
X76100Y446D01*
X75846Y573D02*
X75973D01*
X75846D02*
X75973Y700D01*
X75846Y827D02*
X75973Y700D01*
X75846Y827D02*
X75973D01*
X76100Y954D01*
X76227Y827D01*
X76354D01*
X76227Y700D02*
X76354Y827D01*
X76227Y700D02*
X76354Y573D01*
X76227D02*
X76354D01*
X76100Y446D02*
X76227Y573D01*
X70273D02*
X70400Y446D01*
X70146Y573D02*
X70273D01*
X70146D02*
X70273Y700D01*
X70146Y827D02*
X70273Y700D01*
X70146Y827D02*
X70273D01*
X70400Y954D01*
X70527Y827D01*
X70654D01*
X70527Y700D02*
X70654Y827D01*
X70527Y700D02*
X70654Y573D01*
X70527D02*
X70654D01*
X70400Y446D02*
X70527Y573D01*
X65173D02*
X65300Y446D01*
X65046Y573D02*
X65173D01*
X65046D02*
X65173Y700D01*
X65046Y827D02*
X65173Y700D01*
X65046Y827D02*
X65173D01*
X65300Y954D01*
X65427Y827D01*
X65554D01*
X65427Y700D02*
X65554Y827D01*
X65427Y700D02*
X65554Y573D01*
X65427D02*
X65554D01*
X65300Y446D02*
X65427Y573D01*
X59773D02*
X59900Y446D01*
X59646Y573D02*
X59773D01*
X59646D02*
X59773Y700D01*
X59646Y827D02*
X59773Y700D01*
X59646Y827D02*
X59773D01*
X59900Y954D01*
X60027Y827D01*
X60154D01*
X60027Y700D02*
X60154Y827D01*
X60027Y700D02*
X60154Y573D01*
X60027D02*
X60154D01*
X59900Y446D02*
X60027Y573D01*
X54373D02*
X54500Y446D01*
X54246Y573D02*
X54373D01*
X54246D02*
X54373Y700D01*
X54246Y827D02*
X54373Y700D01*
X54246Y827D02*
X54373D01*
X54500Y954D01*
X54627Y827D01*
X54754D01*
X54627Y700D02*
X54754Y827D01*
X54627Y700D02*
X54754Y573D01*
X54627D02*
X54754D01*
X54500Y446D02*
X54627Y573D01*
X48973D02*
X49100Y446D01*
X48846Y573D02*
X48973D01*
X48846D02*
X48973Y700D01*
X48846Y827D02*
X48973Y700D01*
X48846Y827D02*
X48973D01*
X49100Y954D01*
X49227Y827D01*
X49354D01*
X49227Y700D02*
X49354Y827D01*
X49227Y700D02*
X49354Y573D01*
X49227D02*
X49354D01*
X49100Y446D02*
X49227Y573D01*
X43573D02*
X43700Y446D01*
X43446Y573D02*
X43573D01*
X43446D02*
X43573Y700D01*
X43446Y827D02*
X43573Y700D01*
X43446Y827D02*
X43573D01*
X43700Y954D01*
X43827Y827D01*
X43954D01*
X43827Y700D02*
X43954Y827D01*
X43827Y700D02*
X43954Y573D01*
X43827D02*
X43954D01*
X43700Y446D02*
X43827Y573D01*
X38173D02*
X38300Y446D01*
X38046Y573D02*
X38173D01*
X38046D02*
X38173Y700D01*
X38046Y827D02*
X38173Y700D01*
X38046Y827D02*
X38173D01*
X38300Y954D01*
X38427Y827D01*
X38554D01*
X38427Y700D02*
X38554Y827D01*
X38427Y700D02*
X38554Y573D01*
X38427D02*
X38554D01*
X38300Y446D02*
X38427Y573D01*
X32773D02*
X32900Y446D01*
X32646Y573D02*
X32773D01*
X32646D02*
X32773Y700D01*
X32646Y827D02*
X32773Y700D01*
X32646Y827D02*
X32773D01*
X32900Y954D01*
X33027Y827D01*
X33154D01*
X33027Y700D02*
X33154Y827D01*
X33027Y700D02*
X33154Y573D01*
X33027D02*
X33154D01*
X32900Y446D02*
X33027Y573D01*
X27373D02*
X27500Y446D01*
X27246Y573D02*
X27373D01*
X27246D02*
X27373Y700D01*
X27246Y827D02*
X27373Y700D01*
X27246Y827D02*
X27373D01*
X27500Y954D01*
X27627Y827D01*
X27754D01*
X27627Y700D02*
X27754Y827D01*
X27627Y700D02*
X27754Y573D01*
X27627D02*
X27754D01*
X27500Y446D02*
X27627Y573D01*
X21973D02*
X22100Y446D01*
X21846Y573D02*
X21973D01*
X21846D02*
X21973Y700D01*
X21846Y827D02*
X21973Y700D01*
X21846Y827D02*
X21973D01*
X22100Y954D01*
X22227Y827D01*
X22354D01*
X22227Y700D02*
X22354Y827D01*
X22227Y700D02*
X22354Y573D01*
X22227D02*
X22354D01*
X22100Y446D02*
X22227Y573D01*
X16573D02*
X16700Y446D01*
X16446Y573D02*
X16573D01*
X16446D02*
X16573Y700D01*
X16446Y827D02*
X16573Y700D01*
X16446Y827D02*
X16573D01*
X16700Y954D01*
X16827Y827D01*
X16954D01*
X16827Y700D02*
X16954Y827D01*
X16827Y700D02*
X16954Y573D01*
X16827D02*
X16954D01*
X16700Y446D02*
X16827Y573D01*
X11173D02*
X11300Y446D01*
X11046Y573D02*
X11173D01*
X11046D02*
X11173Y700D01*
X11046Y827D02*
X11173Y700D01*
X11046Y827D02*
X11173D01*
X11300Y954D01*
X11427Y827D01*
X11554D01*
X11427Y700D02*
X11554Y827D01*
X11427Y700D02*
X11554Y573D01*
X11427D02*
X11554D01*
X11300Y446D02*
X11427Y573D01*
X5773D02*
X5900Y446D01*
X5646Y573D02*
X5773D01*
X5646D02*
X5773Y700D01*
X5646Y827D02*
X5773Y700D01*
X5646Y827D02*
X5773D01*
X5900Y954D01*
X6027Y827D01*
X6154D01*
X6027Y700D02*
X6154Y827D01*
X6027Y700D02*
X6154Y573D01*
X6027D02*
X6154D01*
X5900Y446D02*
X6027Y573D01*
X873D02*
X1000Y446D01*
X746Y573D02*
X873D01*
X746D02*
X873Y700D01*
X746Y827D02*
X873Y700D01*
X746Y827D02*
X873D01*
X1000Y954D01*
X1127Y827D01*
X1254D01*
X1127Y700D02*
X1254Y827D01*
X1127Y700D02*
X1254Y573D01*
X1127D02*
X1254D01*
X1000Y446D02*
X1127Y573D01*
X873Y10073D02*
X1000Y9946D01*
X746Y10073D02*
X873D01*
X746D02*
X873Y10200D01*
X746Y10327D02*
X873Y10200D01*
X746Y10327D02*
X873D01*
X1000Y10454D01*
X1127Y10327D01*
X1254D01*
X1127Y10200D02*
X1254Y10327D01*
X1127Y10200D02*
X1254Y10073D01*
X1127D02*
X1254D01*
X1000Y9946D02*
X1127Y10073D01*
X873Y7573D02*
X1000Y7446D01*
X746Y7573D02*
X873D01*
X746D02*
X873Y7700D01*
X746Y7827D02*
X873Y7700D01*
X746Y7827D02*
X873D01*
X1000Y7954D01*
X1127Y7827D01*
X1254D01*
X1127Y7700D02*
X1254Y7827D01*
X1127Y7700D02*
X1254Y7573D01*
X1127D02*
X1254D01*
X1000Y7446D02*
X1127Y7573D01*
X1173Y11173D02*
X1300Y11046D01*
X1046Y11173D02*
X1173D01*
X1046D02*
X1173Y11300D01*
X1046Y11427D02*
X1173Y11300D01*
X1046Y11427D02*
X1173D01*
X1300Y11554D01*
X1427Y11427D01*
X1554D01*
X1427Y11300D02*
X1554Y11427D01*
X1427Y11300D02*
X1554Y11173D01*
X1427D02*
X1554D01*
X1300Y11046D02*
X1427Y11173D01*
X3973D02*
X4100Y11046D01*
X3846Y11173D02*
X3973D01*
X3846D02*
X3973Y11300D01*
X3846Y11427D02*
X3973Y11300D01*
X3846Y11427D02*
X3973D01*
X4100Y11554D01*
X4227Y11427D01*
X4354D01*
X4227Y11300D02*
X4354Y11427D01*
X4227Y11300D02*
X4354Y11173D01*
X4227D02*
X4354D01*
X4100Y11046D02*
X4227Y11173D01*
X9373D02*
X9500Y11046D01*
X9246Y11173D02*
X9373D01*
X9246D02*
X9373Y11300D01*
X9246Y11427D02*
X9373Y11300D01*
X9246Y11427D02*
X9373D01*
X9500Y11554D01*
X9627Y11427D01*
X9754D01*
X9627Y11300D02*
X9754Y11427D01*
X9627Y11300D02*
X9754Y11173D01*
X9627D02*
X9754D01*
X9500Y11046D02*
X9627Y11173D01*
X14773D02*
X14900Y11046D01*
X14646Y11173D02*
X14773D01*
X14646D02*
X14773Y11300D01*
X14646Y11427D02*
X14773Y11300D01*
X14646Y11427D02*
X14773D01*
X14900Y11554D01*
X15027Y11427D01*
X15154D01*
X15027Y11300D02*
X15154Y11427D01*
X15027Y11300D02*
X15154Y11173D01*
X15027D02*
X15154D01*
X14900Y11046D02*
X15027Y11173D01*
X20185Y11298D02*
X20312Y11171D01*
X20058Y11298D02*
X20185D01*
X20058D02*
X20185Y11425D01*
X20058Y11552D02*
X20185Y11425D01*
X20058Y11552D02*
X20185D01*
X20312Y11679D01*
X20439Y11552D01*
X20566D01*
X20439Y11425D02*
X20566Y11552D01*
X20439Y11425D02*
X20566Y11298D01*
X20439D02*
X20566D01*
X20312Y11171D02*
X20439Y11298D01*
X22794Y11318D02*
X22921Y11191D01*
X22667Y11318D02*
X22794D01*
X22667D02*
X22794Y11445D01*
X22667Y11572D02*
X22794Y11445D01*
X22667Y11572D02*
X22794D01*
X22921Y11699D01*
X23048Y11572D01*
X23175D01*
X23048Y11445D02*
X23175Y11572D01*
X23048Y11445D02*
X23175Y11318D01*
X23048D02*
X23175D01*
X22921Y11191D02*
X23048Y11318D01*
X23773Y12373D02*
X23900Y12246D01*
X23646Y12373D02*
X23773D01*
X23646D02*
X23773Y12500D01*
X23646Y12627D02*
X23773Y12500D01*
X23646Y12627D02*
X23773D01*
X23900Y12754D01*
X24027Y12627D01*
X24154D01*
X24027Y12500D02*
X24154Y12627D01*
X24027Y12500D02*
X24154Y12373D01*
X24027D02*
X24154D01*
X23900Y12246D02*
X24027Y12373D01*
X24673Y18773D02*
X24800Y18646D01*
X24546Y18773D02*
X24673D01*
X24546D02*
X24673Y18900D01*
X24546Y19027D02*
X24673Y18900D01*
X24546Y19027D02*
X24673D01*
X24800Y19154D01*
X24927Y19027D01*
X25054D01*
X24927Y18900D02*
X25054Y19027D01*
X24927Y18900D02*
X25054Y18773D01*
X24927D02*
X25054D01*
X24800Y18646D02*
X24927Y18773D01*
X26657Y20748D02*
X26784Y20621D01*
X26530Y20748D02*
X26657D01*
X26530D02*
X26657Y20875D01*
X26530Y21002D02*
X26657Y20875D01*
X26530Y21002D02*
X26657D01*
X26784Y21129D01*
X26911Y21002D01*
X27038D01*
X26911Y20875D02*
X27038Y21002D01*
X26911Y20875D02*
X27038Y20748D01*
X26911D02*
X27038D01*
X26784Y20621D02*
X26911Y20748D01*
X28673Y22073D02*
X28800Y21946D01*
X28546Y22073D02*
X28673D01*
X28546D02*
X28673Y22200D01*
X28546Y22327D02*
X28673Y22200D01*
X28546Y22327D02*
X28673D01*
X28800Y22454D01*
X28927Y22327D01*
X29054D01*
X28927Y22200D02*
X29054Y22327D01*
X28927Y22200D02*
X29054Y22073D01*
X28927D02*
X29054D01*
X28800Y21946D02*
X28927Y22073D01*
X31673Y22373D02*
X31800Y22246D01*
X31546Y22373D02*
X31673D01*
X31546D02*
X31673Y22500D01*
X31546Y22627D02*
X31673Y22500D01*
X31546Y22627D02*
X31673D01*
X31800Y22754D01*
X31927Y22627D01*
X32054D01*
X31927Y22500D02*
X32054Y22627D01*
X31927Y22500D02*
X32054Y22373D01*
X31927D02*
X32054D01*
X31800Y22246D02*
X31927Y22373D01*
X39373Y29873D02*
X39500Y29746D01*
X39246Y29873D02*
X39373D01*
X39246D02*
X39373Y30000D01*
X39246Y30127D02*
X39373Y30000D01*
X39246Y30127D02*
X39373D01*
X39500Y30254D01*
X39627Y30127D01*
X39754D01*
X39627Y30000D02*
X39754Y30127D01*
X39627Y30000D02*
X39754Y29873D01*
X39627D02*
X39754D01*
X39500Y29746D02*
X39627Y29873D01*
X41873D02*
X42000Y29746D01*
X41746Y29873D02*
X41873D01*
X41746D02*
X41873Y30000D01*
X41746Y30127D02*
X41873Y30000D01*
X41746Y30127D02*
X41873D01*
X42000Y30254D01*
X42127Y30127D01*
X42254D01*
X42127Y30000D02*
X42254Y30127D01*
X42127Y30000D02*
X42254Y29873D01*
X42127D02*
X42254D01*
X42000Y29746D02*
X42127Y29873D01*
X44373D02*
X44500Y29746D01*
X44246Y29873D02*
X44373D01*
X44246D02*
X44373Y30000D01*
X44246Y30127D02*
X44373Y30000D01*
X44246Y30127D02*
X44373D01*
X44500Y30254D01*
X44627Y30127D01*
X44754D01*
X44627Y30000D02*
X44754Y30127D01*
X44627Y30000D02*
X44754Y29873D01*
X44627D02*
X44754D01*
X44500Y29746D02*
X44627Y29873D01*
X46873D02*
X47000Y29746D01*
X46746Y29873D02*
X46873D01*
X46746D02*
X46873Y30000D01*
X46746Y30127D02*
X46873Y30000D01*
X46746Y30127D02*
X46873D01*
X47000Y30254D01*
X47127Y30127D01*
X47254D01*
X47127Y30000D02*
X47254Y30127D01*
X47127Y30000D02*
X47254Y29873D01*
X47127D02*
X47254D01*
X47000Y29746D02*
X47127Y29873D01*
X49373D02*
X49500Y29746D01*
X49246Y29873D02*
X49373D01*
X49246D02*
X49373Y30000D01*
X49246Y30127D02*
X49373Y30000D01*
X49246Y30127D02*
X49373D01*
X49500Y30254D01*
X49627Y30127D01*
X49754D01*
X49627Y30000D02*
X49754Y30127D01*
X49627Y30000D02*
X49754Y29873D01*
X49627D02*
X49754D01*
X49500Y29746D02*
X49627Y29873D01*
X49773Y26973D02*
X49900Y26846D01*
X49646Y26973D02*
X49773D01*
X49646D02*
X49773Y27100D01*
X49646Y27227D02*
X49773Y27100D01*
X49646Y27227D02*
X49773D01*
X49900Y27354D01*
X50027Y27227D01*
X50154D01*
X50027Y27100D02*
X50154Y27227D01*
X50027Y27100D02*
X50154Y26973D01*
X50027D02*
X50154D01*
X49900Y26846D02*
X50027Y26973D01*
X44373Y20873D02*
X44500Y20746D01*
X44246Y20873D02*
X44373D01*
X44246D02*
X44373Y21000D01*
X44246Y21127D02*
X44373Y21000D01*
X44246Y21127D02*
X44373D01*
X44500Y21254D01*
X44627Y21127D01*
X44754D01*
X44627Y21000D02*
X44754Y21127D01*
X44627Y21000D02*
X44754Y20873D01*
X44627D02*
X44754D01*
X44500Y20746D02*
X44627Y20873D01*
X44373Y18273D02*
X44500Y18146D01*
X44246Y18273D02*
X44373D01*
X44246D02*
X44373Y18400D01*
X44246Y18527D02*
X44373Y18400D01*
X44246Y18527D02*
X44373D01*
X44500Y18654D01*
X44627Y18527D01*
X44754D01*
X44627Y18400D02*
X44754Y18527D01*
X44627Y18400D02*
X44754Y18273D01*
X44627D02*
X44754D01*
X44500Y18146D02*
X44627Y18273D01*
X42073Y20573D02*
X42200Y20446D01*
X41946Y20573D02*
X42073D01*
X41946D02*
X42073Y20700D01*
X41946Y20827D02*
X42073Y20700D01*
X41946Y20827D02*
X42073D01*
X42200Y20954D01*
X42327Y20827D01*
X42454D01*
X42327Y20700D02*
X42454Y20827D01*
X42327Y20700D02*
X42454Y20573D01*
X42327D02*
X42454D01*
X42200Y20446D02*
X42327Y20573D01*
X40973Y22073D02*
X41100Y21946D01*
X40846Y22073D02*
X40973D01*
X40846D02*
X40973Y22200D01*
X40846Y22327D02*
X40973Y22200D01*
X40846Y22327D02*
X40973D01*
X41100Y22454D01*
X41227Y22327D01*
X41354D01*
X41227Y22200D02*
X41354Y22327D01*
X41227Y22200D02*
X41354Y22073D01*
X41227D02*
X41354D01*
X41100Y21946D02*
X41227Y22073D01*
X34173Y22373D02*
X34300Y22246D01*
X34046Y22373D02*
X34173D01*
X34046D02*
X34173Y22500D01*
X34046Y22627D02*
X34173Y22500D01*
X34046Y22627D02*
X34173D01*
X34300Y22754D01*
X34427Y22627D01*
X34554D01*
X34427Y22500D02*
X34554Y22627D01*
X34427Y22500D02*
X34554Y22373D01*
X34427D02*
X34554D01*
X34300Y22246D02*
X34427Y22373D01*
X35702Y15312D02*
X35829Y15185D01*
X35575Y15312D02*
X35702D01*
X35575D02*
X35702Y15439D01*
X35575Y15566D02*
X35702Y15439D01*
X35575Y15566D02*
X35702D01*
X35829Y15693D01*
X35956Y15566D01*
X36083D01*
X35956Y15439D02*
X36083Y15566D01*
X35956Y15439D02*
X36083Y15312D01*
X35956D02*
X36083D01*
X35829Y15185D02*
X35956Y15312D01*
X37173Y11173D02*
X37300Y11046D01*
X37046Y11173D02*
X37173D01*
X37046D02*
X37173Y11300D01*
X37046Y11427D02*
X37173Y11300D01*
X37046Y11427D02*
X37173D01*
X37300Y11554D01*
X37427Y11427D01*
X37554D01*
X37427Y11300D02*
X37554Y11427D01*
X37427Y11300D02*
X37554Y11173D01*
X37427D02*
X37554D01*
X37300Y11046D02*
X37427Y11173D01*
X37040Y8581D02*
X37167Y8454D01*
X36913Y8581D02*
X37040D01*
X36913D02*
X37040Y8708D01*
X36913Y8835D02*
X37040Y8708D01*
X36913Y8835D02*
X37040D01*
X37167Y8962D01*
X37294Y8835D01*
X37421D01*
X37294Y8708D02*
X37421Y8835D01*
X37294Y8708D02*
X37421Y8581D01*
X37294D02*
X37421D01*
X37167Y8454D02*
X37294Y8581D01*
X40873Y13473D02*
X41000Y13346D01*
X40746Y13473D02*
X40873D01*
X40746D02*
X40873Y13600D01*
X40746Y13727D02*
X40873Y13600D01*
X40746Y13727D02*
X40873D01*
X41000Y13854D01*
X41127Y13727D01*
X41254D01*
X41127Y13600D02*
X41254Y13727D01*
X41127Y13600D02*
X41254Y13473D01*
X41127D02*
X41254D01*
X41000Y13346D02*
X41127Y13473D01*
X42273Y11973D02*
X42400Y11846D01*
X42146Y11973D02*
X42273D01*
X42146D02*
X42273Y12100D01*
X42146Y12227D02*
X42273Y12100D01*
X42146Y12227D02*
X42273D01*
X42400Y12354D01*
X42527Y12227D01*
X42654D01*
X42527Y12100D02*
X42654Y12227D01*
X42527Y12100D02*
X42654Y11973D01*
X42527D02*
X42654D01*
X42400Y11846D02*
X42527Y11973D01*
X45273Y10373D02*
X45400Y10246D01*
X45146Y10373D02*
X45273D01*
X45146D02*
X45273Y10500D01*
X45146Y10627D02*
X45273Y10500D01*
X45146Y10627D02*
X45273D01*
X45400Y10754D01*
X45527Y10627D01*
X45654D01*
X45527Y10500D02*
X45654Y10627D01*
X45527Y10500D02*
X45654Y10373D01*
X45527D02*
X45654D01*
X45400Y10246D02*
X45527Y10373D01*
X45673Y14373D02*
X45800Y14246D01*
X45546Y14373D02*
X45673D01*
X45546D02*
X45673Y14500D01*
X45546Y14627D02*
X45673Y14500D01*
X45546Y14627D02*
X45673D01*
X45800Y14754D01*
X45927Y14627D01*
X46054D01*
X45927Y14500D02*
X46054Y14627D01*
X45927Y14500D02*
X46054Y14373D01*
X45927D02*
X46054D01*
X45800Y14246D02*
X45927Y14373D01*
X46473Y16973D02*
X46600Y16846D01*
X46346Y16973D02*
X46473D01*
X46346D02*
X46473Y17100D01*
X46346Y17227D02*
X46473Y17100D01*
X46346Y17227D02*
X46473D01*
X46600Y17354D01*
X46727Y17227D01*
X46854D01*
X46727Y17100D02*
X46854Y17227D01*
X46727Y17100D02*
X46854Y16973D01*
X46727D02*
X46854D01*
X46600Y16846D02*
X46727Y16973D01*
X51073Y18073D02*
X51200Y17946D01*
X50946Y18073D02*
X51073D01*
X50946D02*
X51073Y18200D01*
X50946Y18327D02*
X51073Y18200D01*
X50946Y18327D02*
X51073D01*
X51200Y18454D01*
X51327Y18327D01*
X51454D01*
X51327Y18200D02*
X51454Y18327D01*
X51327Y18200D02*
X51454Y18073D01*
X51327D02*
X51454D01*
X51200Y17946D02*
X51327Y18073D01*
X64873Y11873D02*
X65000Y11746D01*
X64746Y11873D02*
X64873D01*
X64746D02*
X64873Y12000D01*
X64746Y12127D02*
X64873Y12000D01*
X64746Y12127D02*
X64873D01*
X65000Y12254D01*
X65127Y12127D01*
X65254D01*
X65127Y12000D02*
X65254Y12127D01*
X65127Y12000D02*
X65254Y11873D01*
X65127D02*
X65254D01*
X65000Y11746D02*
X65127Y11873D01*
X64873Y15773D02*
X65000Y15646D01*
X64746Y15773D02*
X64873D01*
X64746D02*
X64873Y15900D01*
X64746Y16027D02*
X64873Y15900D01*
X64746Y16027D02*
X64873D01*
X65000Y16154D01*
X65127Y16027D01*
X65254D01*
X65127Y15900D02*
X65254Y16027D01*
X65127Y15900D02*
X65254Y15773D01*
X65127D02*
X65254D01*
X65000Y15646D02*
X65127Y15773D01*
X63373Y19373D02*
X63500Y19246D01*
X63246Y19373D02*
X63373D01*
X63246D02*
X63373Y19500D01*
X63246Y19627D02*
X63373Y19500D01*
X63246Y19627D02*
X63373D01*
X63500Y19754D01*
X63627Y19627D01*
X63754D01*
X63627Y19500D02*
X63754Y19627D01*
X63627Y19500D02*
X63754Y19373D01*
X63627D02*
X63754D01*
X63500Y19246D02*
X63627Y19373D01*
X60373Y21773D02*
X60500Y21646D01*
X60246Y21773D02*
X60373D01*
X60246D02*
X60373Y21900D01*
X60246Y22027D02*
X60373Y21900D01*
X60246Y22027D02*
X60373D01*
X60500Y22154D01*
X60627Y22027D01*
X60754D01*
X60627Y21900D02*
X60754Y22027D01*
X60627Y21900D02*
X60754Y21773D01*
X60627D02*
X60754D01*
X60500Y21646D02*
X60627Y21773D01*
X51873Y22373D02*
X52000Y22246D01*
X51746Y22373D02*
X51873D01*
X51746D02*
X51873Y22500D01*
X51746Y22627D02*
X51873Y22500D01*
X51746Y22627D02*
X51873D01*
X52000Y22754D01*
X52127Y22627D01*
X52254D01*
X52127Y22500D02*
X52254Y22627D01*
X52127Y22500D02*
X52254Y22373D01*
X52127D02*
X52254D01*
X52000Y22246D02*
X52127Y22373D01*
X54873D02*
X55000Y22246D01*
X54746Y22373D02*
X54873D01*
X54746D02*
X54873Y22500D01*
X54746Y22627D02*
X54873Y22500D01*
X54746Y22627D02*
X54873D01*
X55000Y22754D01*
X55127Y22627D01*
X55254D01*
X55127Y22500D02*
X55254Y22627D01*
X55127Y22500D02*
X55254Y22373D01*
X55127D02*
X55254D01*
X55000Y22246D02*
X55127Y22373D01*
X57873D02*
X58000Y22246D01*
X57746Y22373D02*
X57873D01*
X57746D02*
X57873Y22500D01*
X57746Y22627D02*
X57873Y22500D01*
X57746Y22627D02*
X57873D01*
X58000Y22754D01*
X58127Y22627D01*
X58254D01*
X58127Y22500D02*
X58254Y22627D01*
X58127Y22500D02*
X58254Y22373D01*
X58127D02*
X58254D01*
X58000Y22246D02*
X58127Y22373D01*
X38973Y24373D02*
X39100Y24246D01*
X38846Y24373D02*
X38973D01*
X38846D02*
X38973Y24500D01*
X38846Y24627D02*
X38973Y24500D01*
X38846Y24627D02*
X38973D01*
X39100Y24754D01*
X39227Y24627D01*
X39354D01*
X39227Y24500D02*
X39354Y24627D01*
X39227Y24500D02*
X39354Y24373D01*
X39227D02*
X39354D01*
X39100Y24246D02*
X39227Y24373D01*
X38973Y28673D02*
X39100Y28546D01*
X38846Y28673D02*
X38973D01*
X38846D02*
X38973Y28800D01*
X38846Y28927D02*
X38973Y28800D01*
X38846Y28927D02*
X38973D01*
X39100Y29054D01*
X39227Y28927D01*
X39354D01*
X39227Y28800D02*
X39354Y28927D01*
X39227Y28800D02*
X39354Y28673D01*
X39227D02*
X39354D01*
X39100Y28546D02*
X39227Y28673D01*
X38973Y26573D02*
X39100Y26446D01*
X38846Y26573D02*
X38973D01*
X38846D02*
X38973Y26700D01*
X38846Y26827D02*
X38973Y26700D01*
X38846Y26827D02*
X38973D01*
X39100Y26954D01*
X39227Y26827D01*
X39354D01*
X39227Y26700D02*
X39354Y26827D01*
X39227Y26700D02*
X39354Y26573D01*
X39227D02*
X39354D01*
X39100Y26446D02*
X39227Y26573D01*
X3373Y8873D02*
X3500Y8746D01*
X3246Y8873D02*
X3373D01*
X3246D02*
X3373Y9000D01*
X3246Y9127D02*
X3373Y9000D01*
X3246Y9127D02*
X3373D01*
X3500Y9254D01*
X3627Y9127D01*
X3754D01*
X3627Y9000D02*
X3754Y9127D01*
X3627Y9000D02*
X3754Y8873D01*
X3627D02*
X3754D01*
X3500Y8746D02*
X3627Y8873D01*
X6073Y7573D02*
X6200Y7446D01*
X5946Y7573D02*
X6073D01*
X5946D02*
X6073Y7700D01*
X5946Y7827D02*
X6073Y7700D01*
X5946Y7827D02*
X6073D01*
X6200Y7954D01*
X6327Y7827D01*
X6454D01*
X6327Y7700D02*
X6454Y7827D01*
X6327Y7700D02*
X6454Y7573D01*
X6327D02*
X6454D01*
X6200Y7446D02*
X6327Y7573D01*
X12373Y8773D02*
X12500Y8646D01*
X12246Y8773D02*
X12373D01*
X12246D02*
X12373Y8900D01*
X12246Y9027D02*
X12373Y8900D01*
X12246Y9027D02*
X12373D01*
X12500Y9154D01*
X12627Y9027D01*
X12754D01*
X12627Y8900D02*
X12754Y9027D01*
X12627Y8900D02*
X12754Y8773D01*
X12627D02*
X12754D01*
X12500Y8646D02*
X12627Y8773D01*
X18373Y2473D02*
X18500Y2346D01*
X18246Y2473D02*
X18373D01*
X18246D02*
X18373Y2600D01*
X18246Y2727D02*
X18373Y2600D01*
X18246Y2727D02*
X18373D01*
X18500Y2854D01*
X18627Y2727D01*
X18754D01*
X18627Y2600D02*
X18754Y2727D01*
X18627Y2600D02*
X18754Y2473D01*
X18627D02*
X18754D01*
X18500Y2346D02*
X18627Y2473D01*
X18373Y7473D02*
X18500Y7346D01*
X18246Y7473D02*
X18373D01*
X18246D02*
X18373Y7600D01*
X18246Y7727D02*
X18373Y7600D01*
X18246Y7727D02*
X18373D01*
X18500Y7854D01*
X18627Y7727D01*
X18754D01*
X18627Y7600D02*
X18754Y7727D01*
X18627Y7600D02*
X18754Y7473D01*
X18627D02*
X18754D01*
X18500Y7346D02*
X18627Y7473D01*
X15273Y7873D02*
X15400Y7746D01*
X15146Y7873D02*
X15273D01*
X15146D02*
X15273Y8000D01*
X15146Y8127D02*
X15273Y8000D01*
X15146Y8127D02*
X15273D01*
X15400Y8254D01*
X15527Y8127D01*
X15654D01*
X15527Y8000D02*
X15654Y8127D01*
X15527Y8000D02*
X15654Y7873D01*
X15527D02*
X15654D01*
X15400Y7746D02*
X15527Y7873D01*
X30773Y7273D02*
X30900Y7146D01*
X30646Y7273D02*
X30773D01*
X30646D02*
X30773Y7400D01*
X30646Y7527D02*
X30773Y7400D01*
X30646Y7527D02*
X30773D01*
X30900Y7654D01*
X31027Y7527D01*
X31154D01*
X31027Y7400D02*
X31154Y7527D01*
X31027Y7400D02*
X31154Y7273D01*
X31027D02*
X31154D01*
X30900Y7146D02*
X31027Y7273D01*
X27873Y7973D02*
X28000Y7846D01*
X27746Y7973D02*
X27873D01*
X27746D02*
X27873Y8100D01*
X27746Y8227D02*
X27873Y8100D01*
X27746Y8227D02*
X27873D01*
X28000Y8354D01*
X28127Y8227D01*
X28254D01*
X28127Y8100D02*
X28254Y8227D01*
X28127Y8100D02*
X28254Y7973D01*
X28127D02*
X28254D01*
X28000Y7846D02*
X28127Y7973D01*
X24973Y8873D02*
X25100Y8746D01*
X24846Y8873D02*
X24973D01*
X24846D02*
X24973Y9000D01*
X24846Y9127D02*
X24973Y9000D01*
X24846Y9127D02*
X24973D01*
X25100Y9254D01*
X25227Y9127D01*
X25354D01*
X25227Y9000D02*
X25354Y9127D01*
X25227Y9000D02*
X25354Y8873D01*
X25227D02*
X25354D01*
X25100Y8746D02*
X25227Y8873D01*
X28073Y2373D02*
X28200Y2246D01*
X27946Y2373D02*
X28073D01*
X27946D02*
X28073Y2500D01*
X27946Y2627D02*
X28073Y2500D01*
X27946Y2627D02*
X28073D01*
X28200Y2754D01*
X28327Y2627D01*
X28454D01*
X28327Y2500D02*
X28454Y2627D01*
X28327Y2500D02*
X28454Y2373D01*
X28327D02*
X28454D01*
X28200Y2246D02*
X28327Y2373D01*
X32573Y2473D02*
X32700Y2346D01*
X32446Y2473D02*
X32573D01*
X32446D02*
X32573Y2600D01*
X32446Y2727D02*
X32573Y2600D01*
X32446Y2727D02*
X32573D01*
X32700Y2854D01*
X32827Y2727D01*
X32954D01*
X32827Y2600D02*
X32954Y2727D01*
X32827Y2600D02*
X32954Y2473D01*
X32827D02*
X32954D01*
X32700Y2346D02*
X32827Y2473D01*
X33773Y7773D02*
X33900Y7646D01*
X33646Y7773D02*
X33773D01*
X33646D02*
X33773Y7900D01*
X33646Y8027D02*
X33773Y7900D01*
X33646Y8027D02*
X33773D01*
X33900Y8154D01*
X34027Y8027D01*
X34154D01*
X34027Y7900D02*
X34154Y8027D01*
X34027Y7900D02*
X34154Y7773D01*
X34027D02*
X34154D01*
X33900Y7646D02*
X34027Y7773D01*
X40873Y2373D02*
X41000Y2246D01*
X40746Y2373D02*
X40873D01*
X40746D02*
X40873Y2500D01*
X40746Y2627D02*
X40873Y2500D01*
X40746Y2627D02*
X40873D01*
X41000Y2754D01*
X41127Y2627D01*
X41254D01*
X41127Y2500D02*
X41254Y2627D01*
X41127Y2500D02*
X41254Y2373D01*
X41127D02*
X41254D01*
X41000Y2246D02*
X41127Y2373D01*
X45273D02*
X45400Y2246D01*
X45146Y2373D02*
X45273D01*
X45146D02*
X45273Y2500D01*
X45146Y2627D02*
X45273Y2500D01*
X45146Y2627D02*
X45273D01*
X45400Y2754D01*
X45527Y2627D01*
X45654D01*
X45527Y2500D02*
X45654Y2627D01*
X45527Y2500D02*
X45654Y2373D01*
X45527D02*
X45654D01*
X45400Y2246D02*
X45527Y2373D01*
X43373D02*
X43500Y2246D01*
X43246Y2373D02*
X43373D01*
X43246D02*
X43373Y2500D01*
X43246Y2627D02*
X43373Y2500D01*
X43246Y2627D02*
X43373D01*
X43500Y2754D01*
X43627Y2627D01*
X43754D01*
X43627Y2500D02*
X43754Y2627D01*
X43627Y2500D02*
X43754Y2373D01*
X43627D02*
X43754D01*
X43500Y2246D02*
X43627Y2373D01*
X43173Y7073D02*
X43300Y6946D01*
X43046Y7073D02*
X43173D01*
X43046D02*
X43173Y7200D01*
X43046Y7327D02*
X43173Y7200D01*
X43046Y7327D02*
X43173D01*
X43300Y7454D01*
X43427Y7327D01*
X43554D01*
X43427Y7200D02*
X43554Y7327D01*
X43427Y7200D02*
X43554Y7073D01*
X43427D02*
X43554D01*
X43300Y6946D02*
X43427Y7073D01*
X39773Y7173D02*
X39900Y7046D01*
X39646Y7173D02*
X39773D01*
X39646D02*
X39773Y7300D01*
X39646Y7427D02*
X39773Y7300D01*
X39646Y7427D02*
X39773D01*
X39900Y7554D01*
X40027Y7427D01*
X40154D01*
X40027Y7300D02*
X40154Y7427D01*
X40027Y7300D02*
X40154Y7173D01*
X40027D02*
X40154D01*
X39900Y7046D02*
X40027Y7173D01*
X52673Y7973D02*
X52800Y7846D01*
X52546Y7973D02*
X52673D01*
X52546D02*
X52673Y8100D01*
X52546Y8227D02*
X52673Y8100D01*
X52546Y8227D02*
X52673D01*
X52800Y8354D01*
X52927Y8227D01*
X53054D01*
X52927Y8100D02*
X53054Y8227D01*
X52927Y8100D02*
X53054Y7973D01*
X52927D02*
X53054D01*
X52800Y7846D02*
X52927Y7973D01*
X50173Y4673D02*
X50300Y4546D01*
X50046Y4673D02*
X50173D01*
X50046D02*
X50173Y4800D01*
X50046Y4927D02*
X50173Y4800D01*
X50046Y4927D02*
X50173D01*
X50300Y5054D01*
X50427Y4927D01*
X50554D01*
X50427Y4800D02*
X50554Y4927D01*
X50427Y4800D02*
X50554Y4673D01*
X50427D02*
X50554D01*
X50300Y4546D02*
X50427Y4673D01*
X48973Y8273D02*
X49100Y8146D01*
X48846Y8273D02*
X48973D01*
X48846D02*
X48973Y8400D01*
X48846Y8527D02*
X48973Y8400D01*
X48846Y8527D02*
X48973D01*
X49100Y8654D01*
X49227Y8527D01*
X49354D01*
X49227Y8400D02*
X49354Y8527D01*
X49227Y8400D02*
X49354Y8273D01*
X49227D02*
X49354D01*
X49100Y8146D02*
X49227Y8273D01*
X46273Y7473D02*
X46400Y7346D01*
X46146Y7473D02*
X46273D01*
X46146D02*
X46273Y7600D01*
X46146Y7727D02*
X46273Y7600D01*
X46146Y7727D02*
X46273D01*
X46400Y7854D01*
X46527Y7727D01*
X46654D01*
X46527Y7600D02*
X46654Y7727D01*
X46527Y7600D02*
X46654Y7473D01*
X46527D02*
X46654D01*
X46400Y7346D02*
X46527Y7473D01*
X49973Y10873D02*
X50100Y10746D01*
X49846Y10873D02*
X49973D01*
X49846D02*
X49973Y11000D01*
X49846Y11127D02*
X49973Y11000D01*
X49846Y11127D02*
X49973D01*
X50100Y11254D01*
X50227Y11127D01*
X50354D01*
X50227Y11000D02*
X50354Y11127D01*
X50227Y11000D02*
X50354Y10873D01*
X50227D02*
X50354D01*
X50100Y10746D02*
X50227Y10873D01*
X46973Y12073D02*
X47100Y11946D01*
X46846Y12073D02*
X46973D01*
X46846D02*
X46973Y12200D01*
X46846Y12327D02*
X46973Y12200D01*
X46846Y12327D02*
X46973D01*
X47100Y12454D01*
X47227Y12327D01*
X47354D01*
X47227Y12200D02*
X47354Y12327D01*
X47227Y12200D02*
X47354Y12073D01*
X47227D02*
X47354D01*
X47100Y11946D02*
X47227Y12073D01*
X46873Y18373D02*
X47000Y18246D01*
X46746Y18373D02*
X46873D01*
X46746D02*
X46873Y18500D01*
X46746Y18627D02*
X46873Y18500D01*
X46746Y18627D02*
X46873D01*
X47000Y18754D01*
X47127Y18627D01*
X47254D01*
X47127Y18500D02*
X47254Y18627D01*
X47127Y18500D02*
X47254Y18373D01*
X47127D02*
X47254D01*
X47000Y18246D02*
X47127Y18373D01*
X52473Y10773D02*
X52600Y10646D01*
X52346Y10773D02*
X52473D01*
X52346D02*
X52473Y10900D01*
X52346Y11027D02*
X52473Y10900D01*
X52346Y11027D02*
X52473D01*
X52600Y11154D01*
X52727Y11027D01*
X52854D01*
X52727Y10900D02*
X52854Y11027D01*
X52727Y10900D02*
X52854Y10773D01*
X52727D02*
X52854D01*
X52600Y10646D02*
X52727Y10773D01*
X55346Y7210D02*
X55473Y7083D01*
X55219Y7210D02*
X55346D01*
X55219D02*
X55346Y7337D01*
X55219Y7464D02*
X55346Y7337D01*
X55219Y7464D02*
X55346D01*
X55473Y7591D01*
X55600Y7464D01*
X55727D01*
X55600Y7337D02*
X55727Y7464D01*
X55600Y7337D02*
X55727Y7210D01*
X55600D02*
X55727D01*
X55473Y7083D02*
X55600Y7210D01*
X61573Y7873D02*
X61700Y7746D01*
X61446Y7873D02*
X61573D01*
X61446D02*
X61573Y8000D01*
X61446Y8127D02*
X61573Y8000D01*
X61446Y8127D02*
X61573D01*
X61700Y8254D01*
X61827Y8127D01*
X61954D01*
X61827Y8000D02*
X61954Y8127D01*
X61827Y8000D02*
X61954Y7873D01*
X61827D02*
X61954D01*
X61700Y7746D02*
X61827Y7873D01*
X58673Y6973D02*
X58800Y6846D01*
X58546Y6973D02*
X58673D01*
X58546D02*
X58673Y7100D01*
X58546Y7227D02*
X58673Y7100D01*
X58546Y7227D02*
X58673D01*
X58800Y7354D01*
X58927Y7227D01*
X59054D01*
X58927Y7100D02*
X59054Y7227D01*
X58927Y7100D02*
X59054Y6973D01*
X58927D02*
X59054D01*
X58800Y6846D02*
X58927Y6973D01*
X58573Y2773D02*
X58700Y2646D01*
X58446Y2773D02*
X58573D01*
X58446D02*
X58573Y2900D01*
X58446Y3027D02*
X58573Y2900D01*
X58446Y3027D02*
X58573D01*
X58700Y3154D01*
X58827Y3027D01*
X58954D01*
X58827Y2900D02*
X58954Y3027D01*
X58827Y2900D02*
X58954Y2773D01*
X58827D02*
X58954D01*
X58700Y2646D02*
X58827Y2773D01*
X62473Y4873D02*
X62600Y4746D01*
X62346Y4873D02*
X62473D01*
X62346D02*
X62473Y5000D01*
X62346Y5127D02*
X62473Y5000D01*
X62346Y5127D02*
X62473D01*
X62600Y5254D01*
X62727Y5127D01*
X62854D01*
X62727Y5000D02*
X62854Y5127D01*
X62727Y5000D02*
X62854Y4873D01*
X62727D02*
X62854D01*
X62600Y4746D02*
X62727Y4873D01*
X65073Y8173D02*
X65200Y8046D01*
X64946Y8173D02*
X65073D01*
X64946D02*
X65073Y8300D01*
X64946Y8427D02*
X65073Y8300D01*
X64946Y8427D02*
X65073D01*
X65200Y8554D01*
X65327Y8427D01*
X65454D01*
X65327Y8300D02*
X65454Y8427D01*
X65327Y8300D02*
X65454Y8173D01*
X65327D02*
X65454D01*
X65200Y8046D02*
X65327Y8173D01*
X68073Y7473D02*
X68200Y7346D01*
X67946Y7473D02*
X68073D01*
X67946D02*
X68073Y7600D01*
X67946Y7727D02*
X68073Y7600D01*
X67946Y7727D02*
X68073D01*
X68200Y7854D01*
X68327Y7727D01*
X68454D01*
X68327Y7600D02*
X68454Y7727D01*
X68327Y7600D02*
X68454Y7473D01*
X68327D02*
X68454D01*
X68200Y7346D02*
X68327Y7473D01*
X69873Y2373D02*
X70000Y2246D01*
X69746Y2373D02*
X69873D01*
X69746D02*
X69873Y2500D01*
X69746Y2627D02*
X69873Y2500D01*
X69746Y2627D02*
X69873D01*
X70000Y2754D01*
X70127Y2627D01*
X70254D01*
X70127Y2500D02*
X70254Y2627D01*
X70127Y2500D02*
X70254Y2373D01*
X70127D02*
X70254D01*
X70000Y2246D02*
X70127Y2373D01*
X70973Y7173D02*
X71100Y7046D01*
X70846Y7173D02*
X70973D01*
X70846D02*
X70973Y7300D01*
X70846Y7427D02*
X70973Y7300D01*
X70846Y7427D02*
X70973D01*
X71100Y7554D01*
X71227Y7427D01*
X71354D01*
X71227Y7300D02*
X71354Y7427D01*
X71227Y7300D02*
X71354Y7173D01*
X71227D02*
X71354D01*
X71100Y7046D02*
X71227Y7173D01*
X74073Y8273D02*
X74200Y8146D01*
X73946Y8273D02*
X74073D01*
X73946D02*
X74073Y8400D01*
X73946Y8527D02*
X74073Y8400D01*
X73946Y8527D02*
X74073D01*
X74200Y8654D01*
X74327Y8527D01*
X74454D01*
X74327Y8400D02*
X74454Y8527D01*
X74327Y8400D02*
X74454Y8273D01*
X74327D02*
X74454D01*
X74200Y8146D02*
X74327Y8273D01*
X77373Y8073D02*
X77500Y7946D01*
X77246Y8073D02*
X77373D01*
X77246D02*
X77373Y8200D01*
X77246Y8327D02*
X77373Y8200D01*
X77246Y8327D02*
X77373D01*
X77500Y8454D01*
X77627Y8327D01*
X77754D01*
X77627Y8200D02*
X77754Y8327D01*
X77627Y8200D02*
X77754Y8073D01*
X77627D02*
X77754D01*
X77500Y7946D02*
X77627Y8073D01*
X78973Y2373D02*
X79100Y2246D01*
X78846Y2373D02*
X78973D01*
X78846D02*
X78973Y2500D01*
X78846Y2627D02*
X78973Y2500D01*
X78846Y2627D02*
X78973D01*
X79100Y2754D01*
X79227Y2627D01*
X79354D01*
X79227Y2500D02*
X79354Y2627D01*
X79227Y2500D02*
X79354Y2373D01*
X79227D02*
X79354D01*
X79100Y2246D02*
X79227Y2373D01*
X81973D02*
X82100Y2246D01*
X81846Y2373D02*
X81973D01*
X81846D02*
X81973Y2500D01*
X81846Y2627D02*
X81973Y2500D01*
X81846Y2627D02*
X81973D01*
X82100Y2754D01*
X82227Y2627D01*
X82354D01*
X82227Y2500D02*
X82354Y2627D01*
X82227Y2500D02*
X82354Y2373D01*
X82227D02*
X82354D01*
X82100Y2246D02*
X82227Y2373D01*
X80273Y7073D02*
X80400Y6946D01*
X80146Y7073D02*
X80273D01*
X80146D02*
X80273Y7200D01*
X80146Y7327D02*
X80273Y7200D01*
X80146Y7327D02*
X80273D01*
X80400Y7454D01*
X80527Y7327D01*
X80654D01*
X80527Y7200D02*
X80654Y7327D01*
X80527Y7200D02*
X80654Y7073D01*
X80527D02*
X80654D01*
X80400Y6946D02*
X80527Y7073D01*
X85373Y9073D02*
X85500Y8946D01*
X85246Y9073D02*
X85373D01*
X85246D02*
X85373Y9200D01*
X85246Y9327D02*
X85373Y9200D01*
X85246Y9327D02*
X85373D01*
X85500Y9454D01*
X85627Y9327D01*
X85754D01*
X85627Y9200D02*
X85754Y9327D01*
X85627Y9200D02*
X85754Y9073D01*
X85627D02*
X85754D01*
X85500Y8946D02*
X85627Y9073D01*
X81373Y11073D02*
X81500Y10946D01*
X81246Y11073D02*
X81373D01*
X81246D02*
X81373Y11200D01*
X81246Y11327D02*
X81373Y11200D01*
X81246Y11327D02*
X81373D01*
X81500Y11454D01*
X81627Y11327D01*
X81754D01*
X81627Y11200D02*
X81754Y11327D01*
X81627Y11200D02*
X81754Y11073D01*
X81627D02*
X81754D01*
X81500Y10946D02*
X81627Y11073D01*
X83773D02*
X83900Y10946D01*
X83646Y11073D02*
X83773D01*
X83646D02*
X83773Y11200D01*
X83646Y11327D02*
X83773Y11200D01*
X83646Y11327D02*
X83773D01*
X83900Y11454D01*
X84027Y11327D01*
X84154D01*
X84027Y11200D02*
X84154Y11327D01*
X84027Y11200D02*
X84154Y11073D01*
X84027D02*
X84154D01*
X83900Y10946D02*
X84027Y11073D01*
X46873Y22573D02*
X47000Y22446D01*
X46746Y22573D02*
X46873D01*
X46746D02*
X46873Y22700D01*
X46746Y22827D02*
X46873Y22700D01*
X46746Y22827D02*
X46873D01*
X47000Y22954D01*
X47127Y22827D01*
X47254D01*
X47127Y22700D02*
X47254Y22827D01*
X47127Y22700D02*
X47254Y22573D01*
X47127D02*
X47254D01*
X47000Y22446D02*
X47127Y22573D01*
X25073Y7273D02*
X25200Y7146D01*
X24946Y7273D02*
X25073D01*
X24946D02*
X25073Y7400D01*
X24946Y7527D02*
X25073Y7400D01*
X24946Y7527D02*
X25073D01*
X25200Y7654D01*
X25327Y7527D01*
X25454D01*
X25327Y7400D02*
X25454Y7527D01*
X25327Y7400D02*
X25454Y7273D01*
X25327D02*
X25454D01*
X25200Y7146D02*
X25327Y7273D01*
X34573Y7973D02*
X34700Y7846D01*
X34446Y7973D02*
X34573D01*
X34446D02*
X34573Y8100D01*
X34446Y8227D02*
X34573Y8100D01*
X34446Y8227D02*
X34573D01*
X34700Y8354D01*
X34827Y8227D01*
X34954D01*
X34827Y8100D02*
X34954Y8227D01*
X34827Y8100D02*
X34954Y7973D01*
X34827D02*
X34954D01*
X34700Y7846D02*
X34827Y7973D01*
X26773Y10073D02*
X26900Y9946D01*
X26646Y10073D02*
X26773D01*
X26646D02*
X26773Y10200D01*
X26646Y10327D02*
X26773Y10200D01*
X26646Y10327D02*
X26773D01*
X26900Y10454D01*
X27027Y10327D01*
X27154D01*
X27027Y10200D02*
X27154Y10327D01*
X27027Y10200D02*
X27154Y10073D01*
X27027D02*
X27154D01*
X26900Y9946D02*
X27027Y10073D01*
X36373Y11473D02*
X36500Y11346D01*
X36246Y11473D02*
X36373D01*
X36246D02*
X36373Y11600D01*
X36246Y11727D02*
X36373Y11600D01*
X36246Y11727D02*
X36373D01*
X36500Y11854D01*
X36627Y11727D01*
X36754D01*
X36627Y11600D02*
X36754Y11727D01*
X36627Y11600D02*
X36754Y11473D01*
X36627D02*
X36754D01*
X36500Y11346D02*
X36627Y11473D01*
X83058Y1270D02*
X83312Y1397D01*
X83566Y1270D01*
X83439Y1524D02*
X83566Y1270D01*
X83439Y1524D02*
X83566Y1778D01*
X83312Y1651D02*
X83566Y1778D01*
X83058D02*
X83312Y1651D01*
X83058Y1778D02*
X83185Y1524D01*
X83058Y1270D02*
X83185Y1524D01*
X58420Y1270D02*
X58674Y1397D01*
X58928Y1270D01*
X58801Y1524D02*
X58928Y1270D01*
X58801Y1524D02*
X58928Y1778D01*
X58674Y1651D02*
X58928Y1778D01*
X58420D02*
X58674Y1651D01*
X58420Y1778D02*
X58547Y1524D01*
X58420Y1270D02*
X58547Y1524D01*
X45974Y1270D02*
X46228Y1397D01*
X46482Y1270D01*
X46355Y1524D02*
X46482Y1270D01*
X46355Y1524D02*
X46482Y1778D01*
X46228Y1651D02*
X46482Y1778D01*
X45974D02*
X46228Y1651D01*
X45974Y1778D02*
X46101Y1524D01*
X45974Y1270D02*
X46101Y1524D01*
X33782Y1397D02*
X34036Y1524D01*
X34290Y1397D01*
X34163Y1651D02*
X34290Y1397D01*
X34163Y1651D02*
X34290Y1905D01*
X34036Y1778D02*
X34290Y1905D01*
X33782D02*
X34036Y1778D01*
X33782Y1905D02*
X33909Y1651D01*
X33782Y1397D02*
X33909Y1651D01*
X21336Y1397D02*
X21590Y1524D01*
X21844Y1397D01*
X21717Y1651D02*
X21844Y1397D01*
X21717Y1651D02*
X21844Y1905D01*
X21590Y1778D02*
X21844Y1905D01*
X21336D02*
X21590Y1778D01*
X21336Y1905D02*
X21463Y1651D01*
X21336Y1397D02*
X21463Y1651D01*
X10346Y1346D02*
X10600Y1473D01*
X10854Y1346D01*
X10727Y1600D02*
X10854Y1346D01*
X10727Y1600D02*
X10854Y1854D01*
X10600Y1727D02*
X10854Y1854D01*
X10346D02*
X10600Y1727D01*
X10346Y1854D02*
X10473Y1600D01*
X10346Y1346D02*
X10473Y1600D01*
X23780Y15172D02*
X23907Y15045D01*
X23653Y15172D02*
X23780D01*
X23653D02*
X23780Y15299D01*
X23653Y15426D02*
X23780Y15299D01*
X23653Y15426D02*
X23780D01*
X23907Y15553D01*
X24034Y15426D01*
X24161D01*
X24034Y15299D02*
X24161Y15426D01*
X24034Y15299D02*
X24161Y15172D01*
X24034D02*
X24161D01*
X23907Y15045D02*
X24034Y15172D01*
X36273Y22373D02*
X36400Y22246D01*
X36146Y22373D02*
X36273D01*
X36146D02*
X36273Y22500D01*
X36146Y22627D02*
X36273Y22500D01*
X36146Y22627D02*
X36273D01*
X36400Y22754D01*
X36527Y22627D01*
X36654D01*
X36527Y22500D02*
X36654Y22627D01*
X36527Y22500D02*
X36654Y22373D01*
X36527D02*
X36654D01*
X36400Y22246D02*
X36527Y22373D01*
X25553Y18694D02*
X25807Y18821D01*
X26061Y18694D01*
X25934Y18948D02*
X26061Y18694D01*
X25934Y18948D02*
X26061Y19202D01*
X25807Y19075D02*
X26061Y19202D01*
X25553D02*
X25807Y19075D01*
X25553Y19202D02*
X25680Y18948D01*
X25553Y18694D02*
X25680Y18948D01*
X36672Y20609D02*
X36926Y20736D01*
X37180Y20609D01*
X37053Y20863D02*
X37180Y20609D01*
X37053Y20863D02*
X37180Y21117D01*
X36926Y20990D02*
X37180Y21117D01*
X36672D02*
X36926Y20990D01*
X36672Y21117D02*
X36799Y20863D01*
X36672Y20609D02*
X36799Y20863D01*
X74946Y7346D02*
X75200Y7473D01*
X75454Y7346D01*
X75327Y7600D02*
X75454Y7346D01*
X75327Y7600D02*
X75454Y7854D01*
X75200Y7727D02*
X75454Y7854D01*
X74946D02*
X75200Y7727D01*
X74946Y7854D02*
X75073Y7600D01*
X74946Y7346D02*
X75073Y7600D01*
X62246Y6346D02*
X62500Y6473D01*
X62754Y6346D01*
X62627Y6600D02*
X62754Y6346D01*
X62627Y6600D02*
X62754Y6854D01*
X62500Y6727D02*
X62754Y6854D01*
X62246D02*
X62500Y6727D01*
X62246Y6854D02*
X62373Y6600D01*
X62246Y6346D02*
X62373Y6600D01*
X70739Y1270D02*
X70993Y1397D01*
X71247Y1270D01*
X71120Y1524D02*
X71247Y1270D01*
X71120Y1524D02*
X71247Y1778D01*
X70993Y1651D02*
X71247Y1778D01*
X70739D02*
X70993Y1651D01*
X70739Y1778D02*
X70866Y1524D01*
X70739Y1270D02*
X70866Y1524D01*
X51473Y2173D02*
X51600Y2046D01*
X51346Y2173D02*
X51473D01*
X51346D02*
X51473Y2300D01*
X51346Y2427D02*
X51473Y2300D01*
X51346Y2427D02*
X51473D01*
X51600Y2554D01*
X51727Y2427D01*
X51854D01*
X51727Y2300D02*
X51854Y2427D01*
X51727Y2300D02*
X51854Y2173D01*
X51727D02*
X51854D01*
X51600Y2046D02*
X51727Y2173D01*
X50173D02*
X50300Y2046D01*
X50046Y2173D02*
X50173D01*
X50046D02*
X50173Y2300D01*
X50046Y2427D02*
X50173Y2300D01*
X50046Y2427D02*
X50173D01*
X50300Y2554D01*
X50427Y2427D01*
X50554D01*
X50427Y2300D02*
X50554Y2427D01*
X50427Y2300D02*
X50554Y2173D01*
X50427D02*
X50554D01*
X50300Y2046D02*
X50427Y2173D01*
X62573Y2273D02*
X62700Y2146D01*
X62446Y2273D02*
X62573D01*
X62446D02*
X62573Y2400D01*
X62446Y2527D02*
X62573Y2400D01*
X62446Y2527D02*
X62573D01*
X62700Y2654D01*
X62827Y2527D01*
X62954D01*
X62827Y2400D02*
X62954Y2527D01*
X62827Y2400D02*
X62954Y2273D01*
X62827D02*
X62954D01*
X62700Y2146D02*
X62827Y2273D01*
X74673Y2373D02*
X74800Y2246D01*
X74546Y2373D02*
X74673D01*
X74546D02*
X74673Y2500D01*
X74546Y2627D02*
X74673Y2500D01*
X74546Y2627D02*
X74673D01*
X74800Y2754D01*
X74927Y2627D01*
X75054D01*
X74927Y2500D02*
X75054Y2627D01*
X74927Y2500D02*
X75054Y2373D01*
X74927D02*
X75054D01*
X74800Y2246D02*
X74927Y2373D01*
X86573Y1973D02*
X86700Y1846D01*
X86446Y1973D02*
X86573D01*
X86446D02*
X86573Y2100D01*
X86446Y2227D02*
X86573Y2100D01*
X86446Y2227D02*
X86573D01*
X86700Y2354D01*
X86827Y2227D01*
X86954D01*
X86827Y2100D02*
X86954Y2227D01*
X86827Y2100D02*
X86954Y1973D01*
X86827D02*
X86954D01*
X86700Y1846D02*
X86827Y1973D01*
X49846Y5846D02*
X50100Y5973D01*
X50354Y5846D01*
X50227Y6100D02*
X50354Y5846D01*
X50227Y6100D02*
X50354Y6354D01*
X50100Y6227D02*
X50354Y6354D01*
X49846D02*
X50100Y6227D01*
X49846Y6354D02*
X49973Y6100D01*
X49846Y5846D02*
X49973Y6100D01*
X37346Y6046D02*
X37600Y6173D01*
X37854Y6046D01*
X37727Y6300D02*
X37854Y6046D01*
X37727Y6300D02*
X37854Y6554D01*
X37600Y6427D02*
X37854Y6554D01*
X37346D02*
X37600Y6427D01*
X37346Y6554D02*
X37473Y6300D01*
X37346Y6046D02*
X37473Y6300D01*
X37673Y2373D02*
X37800Y2246D01*
X37546Y2373D02*
X37673D01*
X37546D02*
X37673Y2500D01*
X37546Y2627D02*
X37673Y2500D01*
X37546Y2627D02*
X37673D01*
X37800Y2754D01*
X37927Y2627D01*
X38054D01*
X37927Y2500D02*
X38054Y2627D01*
X37927Y2500D02*
X38054Y2373D01*
X37927D02*
X38054D01*
X37800Y2246D02*
X37927Y2373D01*
X24846Y5746D02*
X25100Y5873D01*
X25354Y5746D01*
X25227Y6000D02*
X25354Y5746D01*
X25227Y6000D02*
X25354Y6254D01*
X25100Y6127D02*
X25354Y6254D01*
X24846D02*
X25100Y6127D01*
X24846Y6254D02*
X24973Y6000D01*
X24846Y5746D02*
X24973Y6000D01*
X25373Y2373D02*
X25500Y2246D01*
X25246Y2373D02*
X25373D01*
X25246D02*
X25373Y2500D01*
X25246Y2627D02*
X25373Y2500D01*
X25246Y2627D02*
X25373D01*
X25500Y2754D01*
X25627Y2627D01*
X25754D01*
X25627Y2500D02*
X25754Y2627D01*
X25627Y2500D02*
X25754Y2373D01*
X25627D02*
X25754D01*
X25500Y2246D02*
X25627Y2373D01*
X13173Y2273D02*
X13300Y2146D01*
X13046Y2273D02*
X13173D01*
X13046D02*
X13173Y2400D01*
X13046Y2527D02*
X13173Y2400D01*
X13046Y2527D02*
X13173D01*
X13300Y2654D01*
X13427Y2527D01*
X13554D01*
X13427Y2400D02*
X13554Y2527D01*
X13427Y2400D02*
X13554Y2273D01*
X13427D02*
X13554D01*
X13300Y2146D02*
X13427Y2273D01*
X12646Y5546D02*
X12900Y5673D01*
X13154Y5546D01*
X13027Y5800D02*
X13154Y5546D01*
X13027Y5800D02*
X13154Y6054D01*
X12900Y5927D02*
X13154Y6054D01*
X12646D02*
X12900Y5927D01*
X12646Y6054D02*
X12773Y5800D01*
X12646Y5546D02*
X12773Y5800D01*
X1946Y7546D02*
X2200Y7673D01*
X2454Y7546D01*
X2327Y7800D02*
X2454Y7546D01*
X2327Y7800D02*
X2454Y8054D01*
X2200Y7927D02*
X2454Y8054D01*
X1946D02*
X2200Y7927D01*
X1946Y8054D02*
X2073Y7800D01*
X1946Y7546D02*
X2073Y7800D01*
X573Y4873D02*
X700Y4746D01*
X446Y4873D02*
X573D01*
X446D02*
X573Y5000D01*
X446Y5127D02*
X573Y5000D01*
X446Y5127D02*
X573D01*
X700Y5254D01*
X827Y5127D01*
X954D01*
X827Y5000D02*
X954Y5127D01*
X827Y5000D02*
X954Y4873D01*
X827D02*
X954D01*
X700Y4746D02*
X827Y4873D01*
X57531Y14986D02*
X58039D01*
Y15494D01*
X57531D02*
X58039D01*
X57531Y14986D02*
Y15494D01*
X45720Y26416D02*
X45974Y26924D01*
X45466D02*
X45974D01*
X45466D02*
X45720Y26416D01*
X43180D02*
X43434Y26924D01*
X42926D02*
X43434D01*
X42926D02*
X43180Y26416D01*
X40640D02*
X40894Y26924D01*
X40386D02*
X40894D01*
X40386D02*
X40640Y26416D01*
X48260D02*
X48514Y26924D01*
X48006D02*
X48514D01*
X48006D02*
X48260Y26416D01*
X30861Y14986D02*
X31369D01*
Y15494D01*
X30861D02*
X31369D01*
X30861Y14986D02*
Y15494D01*
D50*
X211595Y17890D02*
Y19330D01*
X212315D01*
X212555Y19090D01*
Y18610D01*
X212315Y18370D01*
X211595D01*
X213274Y18850D02*
X213754D01*
X213994Y18610D01*
Y17890D01*
X213274D01*
X213034Y18130D01*
X213274Y18370D01*
X213994D01*
X215434Y19330D02*
Y17890D01*
X214714D01*
X214474Y18130D01*
Y18610D01*
X214714Y18850D01*
X215434D01*
X218313Y19090D02*
X218073Y19330D01*
X217593D01*
X217353Y19090D01*
Y18850D01*
X217593Y18610D01*
X218073D01*
X218313Y18370D01*
Y18130D01*
X218073Y17890D01*
X217593D01*
X217353Y18130D01*
X218793Y19330D02*
Y17890D01*
Y18610D01*
X219032Y18850D01*
X219512D01*
X219752Y18610D01*
Y17890D01*
X220472Y18850D02*
X220952D01*
X221192Y18610D01*
Y17890D01*
X220472D01*
X220232Y18130D01*
X220472Y18370D01*
X221192D01*
X221672Y17411D02*
Y18850D01*
X222391D01*
X222631Y18610D01*
Y18130D01*
X222391Y17890D01*
X221672D01*
X223831D02*
X223351D01*
X223111Y18130D01*
Y18610D01*
X223351Y18850D01*
X223831D01*
X224071Y18610D01*
Y18370D01*
X223111D01*
X199625Y19330D02*
Y18370D01*
X200105Y17890D01*
X200585Y18370D01*
Y19330D01*
X201065Y17890D02*
X201544D01*
X201305D01*
Y18850D01*
X201065D01*
X202504D02*
X202984D01*
X203224Y18610D01*
Y17890D01*
X202504D01*
X202264Y18130D01*
X202504Y18370D01*
X203224D01*
X203704Y17890D02*
X204663Y18850D01*
X205143Y17890D02*
Y19330D01*
X205863D01*
X206103Y19090D01*
Y18610D01*
X205863Y18370D01*
X205143D01*
X206823Y18850D02*
X207303D01*
X207543Y18610D01*
Y17890D01*
X206823D01*
X206583Y18130D01*
X206823Y18370D01*
X207543D01*
X208982Y19330D02*
Y17890D01*
X208262D01*
X208022Y18130D01*
Y18610D01*
X208262Y18850D01*
X208982D01*
X169526Y19330D02*
Y17890D01*
X170246D01*
X170486Y18130D01*
Y19090D01*
X170246Y19330D01*
X169526D01*
X170966Y18850D02*
Y17890D01*
Y18370D01*
X171206Y18610D01*
X171445Y18850D01*
X171685D01*
X172405Y17890D02*
X172885D01*
X172645D01*
Y18850D01*
X172405D01*
X173605Y17890D02*
X174085D01*
X173845D01*
Y19330D01*
X173605D01*
X174804Y17890D02*
X175284D01*
X175044D01*
Y19330D01*
X174804D01*
X177444D02*
Y17890D01*
X178403D01*
X179123Y18850D02*
X179603D01*
X179843Y18610D01*
Y17890D01*
X179123D01*
X178883Y18130D01*
X179123Y18370D01*
X179843D01*
X180323Y18850D02*
Y18130D01*
X180563Y17890D01*
X181282D01*
Y17651D01*
X181042Y17411D01*
X180802D01*
X181282Y17890D02*
Y18850D01*
X182482Y17890D02*
X182002D01*
X181762Y18130D01*
Y18610D01*
X182002Y18850D01*
X182482D01*
X182722Y18610D01*
Y18370D01*
X181762D01*
X183202Y18850D02*
Y17890D01*
Y18370D01*
X183442Y18610D01*
X183682Y18850D01*
X183921D01*
X186081Y17890D02*
Y19330D01*
X186801D01*
X187040Y19090D01*
Y18610D01*
X186801Y18370D01*
X186081D01*
X187760Y18850D02*
X188240D01*
X188480Y18610D01*
Y17890D01*
X187760D01*
X187520Y18130D01*
X187760Y18370D01*
X188480D01*
X188960Y17890D02*
X189440D01*
X189200D01*
Y18850D01*
X188960D01*
X190159D02*
Y17890D01*
Y18370D01*
X190399Y18610D01*
X190639Y18850D01*
X190879D01*
X154677Y19330D02*
Y17890D01*
Y18610D01*
X155637D01*
Y19330D01*
Y17890D01*
X156357D02*
X156837D01*
X157077Y18130D01*
Y18610D01*
X156837Y18850D01*
X156357D01*
X156117Y18610D01*
Y18130D01*
X156357Y17890D01*
X157556D02*
X158036D01*
X157796D01*
Y19330D01*
X157556D01*
X159476Y17890D02*
X158996D01*
X158756Y18130D01*
Y18610D01*
X158996Y18850D01*
X159476D01*
X159716Y18610D01*
Y18370D01*
X158756D01*
X161635Y19330D02*
X162595D01*
X162115D01*
Y17890D01*
X163075Y18850D02*
Y18130D01*
X163314Y17890D01*
X164034D01*
Y17651D01*
X163794Y17411D01*
X163554D01*
X164034Y17890D02*
Y18850D01*
X164514Y17411D02*
Y18850D01*
X165234D01*
X165474Y18610D01*
Y18130D01*
X165234Y17890D01*
X164514D01*
X166673D02*
X166194D01*
X165954Y18130D01*
Y18610D01*
X166194Y18850D01*
X166673D01*
X166913Y18610D01*
Y18370D01*
X165954D01*
X144387Y17890D02*
Y19330D01*
X145107D01*
X145347Y19090D01*
Y18610D01*
X145107Y18370D01*
X144387D01*
X145827Y17890D02*
X146306D01*
X146066D01*
Y19330D01*
X145827D01*
X147266Y18850D02*
X147746D01*
X147986Y18610D01*
Y17890D01*
X147266D01*
X147026Y18130D01*
X147266Y18370D01*
X147986D01*
X148706Y19090D02*
Y18850D01*
X148466D01*
X148945D01*
X148706D01*
Y18130D01*
X148945Y17890D01*
X150385D02*
X149905D01*
X149665Y18130D01*
Y18610D01*
X149905Y18850D01*
X150385D01*
X150625Y18610D01*
Y18370D01*
X149665D01*
X152064Y19330D02*
Y17890D01*
X151345D01*
X151105Y18130D01*
Y18610D01*
X151345Y18850D01*
X152064D01*
X121286Y19330D02*
Y17890D01*
Y18610D01*
X122245D01*
Y19330D01*
Y17890D01*
X122965D02*
X123445D01*
X123685Y18130D01*
Y18610D01*
X123445Y18850D01*
X122965D01*
X122725Y18610D01*
Y18130D01*
X122965Y17890D01*
X124165D02*
X124645D01*
X124405D01*
Y19330D01*
X124165D01*
X126084Y17890D02*
X125604D01*
X125364Y18130D01*
Y18610D01*
X125604Y18850D01*
X126084D01*
X126324Y18610D01*
Y18370D01*
X125364D01*
X129203Y19090D02*
X128963Y19330D01*
X128483D01*
X128243Y19090D01*
Y18850D01*
X128483Y18610D01*
X128963D01*
X129203Y18370D01*
Y18130D01*
X128963Y17890D01*
X128483D01*
X128243Y18130D01*
X129683Y17890D02*
X130163D01*
X129923D01*
Y18850D01*
X129683D01*
X130883D02*
X131842D01*
X130883Y17890D01*
X131842D01*
X133042D02*
X132562D01*
X132322Y18130D01*
Y18610D01*
X132562Y18850D01*
X133042D01*
X133282Y18610D01*
Y18370D01*
X132322D01*
X110340Y19090D02*
X110101Y19330D01*
X109621D01*
X109381Y19090D01*
Y18130D01*
X109621Y17890D01*
X110101D01*
X110340Y18130D01*
X111060Y17890D02*
X111540D01*
X111780Y18130D01*
Y18610D01*
X111540Y18850D01*
X111060D01*
X110820Y18610D01*
Y18130D01*
X111060Y17890D01*
X112260Y18850D02*
Y18130D01*
X112500Y17890D01*
X113220D01*
Y18850D01*
X113699Y17890D02*
Y18850D01*
X114419D01*
X114659Y18610D01*
Y17890D01*
X115379Y19090D02*
Y18850D01*
X115139D01*
X115619D01*
X115379D01*
Y18130D01*
X115619Y17890D01*
X100050Y19090D02*
X99810Y19330D01*
X99330D01*
X99090Y19090D01*
Y18850D01*
X99330Y18610D01*
X99810D01*
X100050Y18370D01*
Y18130D01*
X99810Y17890D01*
X99330D01*
X99090Y18130D01*
X100530Y18850D02*
Y18130D01*
X100770Y17890D01*
X101490D01*
Y17651D01*
X101250Y17411D01*
X101010D01*
X101490Y17890D02*
Y18850D01*
X101970Y17890D02*
Y18850D01*
X102209D01*
X102449Y18610D01*
Y17890D01*
Y18610D01*
X102689Y18850D01*
X102929Y18610D01*
Y17890D01*
X103409Y19330D02*
Y17890D01*
X104129D01*
X104369Y18130D01*
Y18370D01*
Y18610D01*
X104129Y18850D01*
X103409D01*
X105089Y17890D02*
X105568D01*
X105808Y18130D01*
Y18610D01*
X105568Y18850D01*
X105089D01*
X104849Y18610D01*
Y18130D01*
X105089Y17890D01*
X106288D02*
X106768D01*
X106528D01*
Y19330D01*
X106288D01*
M02*
