G04*
G04 #@! TF.GenerationSoftware,Altium Limited,Altium Designer,25.5.2 (35)*
G04*
G04 Layer_Color=16711935*
%FSLAX43Y43*%
%MOMM*%
G71*
G04*
G04 #@! TF.SameCoordinates,6B956F99-2EE2-468E-850B-CC9C62BAE9D2*
G04*
G04*
G04 #@! TF.FilePolarity,Negative*
G04*
G01*
G75*
%ADD15C,0.500*%
%ADD18R,0.950X0.950*%
%ADD20C,5.992*%
%ADD21R,1.674X2.690*%
%ADD22O,1.674X2.690*%
%ADD23C,0.950*%
%ADD40R,0.800X0.800*%
%ADD41R,1.650X1.450*%
%ADD42R,0.950X0.950*%
%ADD43R,0.650X1.100*%
%ADD44O,2.050X0.750*%
%ADD45R,1.350X1.250*%
%ADD46R,2.050X0.750*%
%ADD47R,1.550X1.350*%
D15*
X66040Y15240D02*
G03*
X57785Y23495I-8255J0D01*
G01*
X31115D02*
G03*
X22860Y15240I0J-8255D01*
G01*
X0Y0D02*
X88265D01*
Y12065D01*
X66040D02*
X88265D01*
X66040D02*
Y15240D01*
X50800Y23495D02*
X57785D01*
X50800D02*
Y31115D01*
X38100D02*
X50800D01*
X38100Y23495D02*
Y31115D01*
X31115Y23495D02*
X38100D01*
X22860Y12065D02*
Y15240D01*
X0Y12065D02*
X22860D01*
X0Y0D02*
Y12065D01*
D18*
X10660Y3556D02*
D03*
X22936Y3678D02*
D03*
X35405Y3810D02*
D03*
X43150Y22900D02*
D03*
X47777Y3556D02*
D03*
X60050Y3600D02*
D03*
X84794Y3590D02*
D03*
X72319Y3829D02*
D03*
X44650Y22900D02*
D03*
X61550Y3600D02*
D03*
X12160Y3556D02*
D03*
X86294Y3590D02*
D03*
X49277Y3556D02*
D03*
X36905Y3810D02*
D03*
X73819Y3829D02*
D03*
X24436Y3678D02*
D03*
D20*
X31115Y15240D02*
D03*
X57785D02*
D03*
D21*
X48260Y26670D02*
D03*
D22*
X40640D02*
D03*
X43180D02*
D03*
X45720D02*
D03*
D23*
X36926Y20863D02*
D03*
X25807Y18948D02*
D03*
X10600Y1600D02*
D03*
X21590Y1651D02*
D03*
X34036D02*
D03*
X46228Y1524D02*
D03*
X58674D02*
D03*
X83312D02*
D03*
X70993D02*
D03*
X86674Y2075D02*
D03*
X74874Y2674D02*
D03*
X75100Y5800D02*
D03*
X62575Y2674D02*
D03*
X62798Y5845D02*
D03*
X49974Y2575D02*
D03*
X50438Y5868D02*
D03*
X37875Y2774D02*
D03*
X37906Y5845D02*
D03*
X25375Y2674D02*
D03*
X25460Y5985D02*
D03*
X841Y5781D02*
D03*
X13241D02*
D03*
X13274Y2674D02*
D03*
X46595Y20955D02*
D03*
X57300Y7800D02*
D03*
X82200Y8100D02*
D03*
X70100Y7800D02*
D03*
X44800Y8000D02*
D03*
X32400Y8200D02*
D03*
X20100Y7900D02*
D03*
X7700Y7700D02*
D03*
D40*
X36750Y19400D02*
D03*
X35850D02*
D03*
X36730Y17870D02*
D03*
X35830D02*
D03*
D41*
X25300Y15350D02*
D03*
Y17250D02*
D03*
D42*
X51900Y21050D02*
D03*
X53500Y19550D02*
D03*
Y21050D02*
D03*
X51900Y19550D02*
D03*
D43*
X10403Y5454D02*
D03*
X22785D02*
D03*
X35167Y5708D02*
D03*
X47549Y5454D02*
D03*
X59930Y5511D02*
D03*
X72312Y5708D02*
D03*
X84694D02*
D03*
X26250Y13350D02*
D03*
X24950D02*
D03*
X25600Y11050D02*
D03*
X85994Y5708D02*
D03*
X85344Y8008D02*
D03*
X73612Y5708D02*
D03*
X72962Y8008D02*
D03*
X61230Y5511D02*
D03*
X60580Y7811D02*
D03*
X48849Y5454D02*
D03*
X48199Y7754D02*
D03*
X36467Y5708D02*
D03*
X35817Y8008D02*
D03*
X24085Y5454D02*
D03*
X23435Y7754D02*
D03*
X11703Y5454D02*
D03*
X11053Y7754D02*
D03*
D44*
X38765Y20955D02*
D03*
Y15875D02*
D03*
Y12065D02*
D03*
Y13335D02*
D03*
Y14605D02*
D03*
Y17145D02*
D03*
Y18415D02*
D03*
Y19685D02*
D03*
X48865Y12065D02*
D03*
Y13335D02*
D03*
Y14605D02*
D03*
Y15875D02*
D03*
Y17145D02*
D03*
Y18415D02*
D03*
Y19685D02*
D03*
D45*
X78788Y6464D02*
D03*
X66406D02*
D03*
X54023Y6337D02*
D03*
X41643Y6464D02*
D03*
X29210Y6604D02*
D03*
X16879Y6350D02*
D03*
X4497D02*
D03*
X7797D02*
D03*
Y3950D02*
D03*
X4497D02*
D03*
X78788Y4064D02*
D03*
X82088D02*
D03*
Y6464D02*
D03*
X20179Y6350D02*
D03*
Y3950D02*
D03*
X16879D02*
D03*
X66406Y4064D02*
D03*
X69706D02*
D03*
Y6464D02*
D03*
X57323Y6337D02*
D03*
Y3937D02*
D03*
X54023D02*
D03*
X41643Y4064D02*
D03*
X44943D02*
D03*
Y6464D02*
D03*
X32510Y6604D02*
D03*
Y4204D02*
D03*
X29210D02*
D03*
D46*
X48865Y20955D02*
D03*
D47*
X2200Y4000D02*
D03*
Y5800D02*
D03*
X39265Y4064D02*
D03*
Y5864D02*
D03*
X14600Y4000D02*
D03*
Y5800D02*
D03*
X76454Y5814D02*
D03*
X64157Y5864D02*
D03*
X51797Y5887D02*
D03*
X26819Y6004D02*
D03*
X64157Y4064D02*
D03*
X26819Y4204D02*
D03*
X51797Y4087D02*
D03*
X76454Y4014D02*
D03*
M02*
