G04*
G04 #@! TF.GenerationSoftware,Altium Limited,Altium Designer,25.5.2 (35)*
G04*
G04 Layer_Color=65535*
%FSLAX43Y43*%
%MOMM*%
G71*
G04*
G04 #@! TF.SameCoordinates,FE7ED0D9-B591-4211-BBA3-B0FFD2393991*
G04*
G04*
G04 #@! TF.FilePolarity,Positive*
G04*
G01*
G75*
%ADD10C,0.200*%
%ADD11C,0.203*%
%ADD12C,0.150*%
%ADD13C,0.178*%
%ADD14C,0.178*%
%ADD15C,0.500*%
G36*
X38692Y16380D02*
X38652D01*
Y16341D01*
X38613D01*
Y16301D01*
X38574D01*
Y16262D01*
X38535D01*
Y16223D01*
X38495D01*
Y16184D01*
X38456D01*
Y16145D01*
X38378D01*
Y16105D01*
X38339D01*
Y16066D01*
X38299D01*
Y16027D01*
X38221D01*
Y15988D01*
X38182D01*
Y15949D01*
X38103D01*
Y15909D01*
X38025D01*
Y15870D01*
X37946D01*
Y15831D01*
X37868D01*
Y15792D01*
X37790D01*
Y15752D01*
X37672D01*
Y15713D01*
X37515D01*
Y15674D01*
X37241D01*
Y15635D01*
X37005D01*
Y15674D01*
X36888D01*
Y15713D01*
X36966D01*
Y15752D01*
X37044D01*
Y15792D01*
X37123D01*
Y15831D01*
X37201D01*
Y15870D01*
X37241D01*
Y15909D01*
X37319D01*
Y15949D01*
X37358D01*
Y15988D01*
X37437D01*
Y16027D01*
X37476D01*
Y16066D01*
X37515D01*
Y16105D01*
X37554D01*
Y16145D01*
X37593D01*
Y16184D01*
X37633D01*
Y16223D01*
X37672D01*
Y16262D01*
X37711D01*
Y16301D01*
X37868D01*
Y16341D01*
X38143D01*
Y16380D01*
X38378D01*
Y16419D01*
X38613D01*
Y16458D01*
X38692D01*
Y16380D01*
D02*
G37*
G36*
X37868Y17988D02*
X37790D01*
Y17949D01*
X37711D01*
Y17909D01*
X37633D01*
Y17870D01*
X37593D01*
Y17831D01*
X37515D01*
Y17792D01*
X37437D01*
Y17752D01*
X37397D01*
Y17713D01*
X37319D01*
Y17674D01*
X37280D01*
Y17635D01*
X37201D01*
Y17596D01*
X37123D01*
Y17556D01*
X37084D01*
Y17517D01*
X37044D01*
Y17478D01*
X36966D01*
Y17439D01*
X36927D01*
Y17400D01*
X36888D01*
Y17360D01*
X36848D01*
Y17321D01*
X36770D01*
Y17282D01*
X36731D01*
Y17243D01*
X36692D01*
Y17203D01*
X36652D01*
Y17164D01*
X36613D01*
Y17125D01*
X36574D01*
Y17086D01*
X36535D01*
Y17047D01*
X36495D01*
Y17007D01*
X36456D01*
Y16968D01*
X36417D01*
Y16929D01*
X36378D01*
Y16851D01*
X36339D01*
Y16811D01*
X36299D01*
Y16733D01*
X36260D01*
Y16654D01*
X36221D01*
Y16615D01*
X36182D01*
Y16498D01*
X36143D01*
Y16341D01*
X36103D01*
Y16066D01*
X36143D01*
Y15949D01*
X36182D01*
Y15831D01*
X36221D01*
Y15792D01*
X36260D01*
Y15752D01*
X36299D01*
Y15713D01*
X36339D01*
Y15674D01*
X36378D01*
Y15635D01*
X36417D01*
Y15596D01*
X36495D01*
Y15556D01*
X36613D01*
Y15517D01*
X36731D01*
Y15478D01*
X36966D01*
Y15439D01*
X37005D01*
Y15400D01*
X36731D01*
Y15360D01*
X36182D01*
Y15400D01*
X35946D01*
Y15439D01*
X35829D01*
Y15478D01*
X35711D01*
Y15517D01*
X35633D01*
Y15556D01*
X35554D01*
Y15596D01*
X35476D01*
Y15635D01*
X35437D01*
Y15674D01*
X35358D01*
Y15713D01*
X35319D01*
Y15752D01*
X35280D01*
Y15792D01*
X35241D01*
Y15870D01*
X35201D01*
Y15909D01*
X35162D01*
Y15988D01*
X35123D01*
Y16066D01*
X35084D01*
Y16184D01*
X35044D01*
Y16576D01*
X35084D01*
Y16733D01*
X35123D01*
Y16851D01*
X35162D01*
Y16929D01*
X35201D01*
Y17007D01*
X35241D01*
Y17086D01*
X35280D01*
Y17125D01*
X35319D01*
Y17203D01*
X35358D01*
Y17243D01*
X35397D01*
Y17282D01*
X35437D01*
Y17360D01*
X35476D01*
Y17400D01*
X35515D01*
Y17439D01*
X35554D01*
Y17478D01*
X35593D01*
Y17517D01*
X35633D01*
Y17556D01*
X35672D01*
Y17596D01*
X35711D01*
Y17635D01*
X35790D01*
Y17674D01*
X35829D01*
Y17713D01*
X35868D01*
Y17752D01*
X35907D01*
Y17792D01*
X35946D01*
Y17831D01*
X36103D01*
Y17870D01*
X36456D01*
Y17909D01*
X36770D01*
Y17949D01*
X37123D01*
Y17988D01*
X37437D01*
Y18027D01*
X37868D01*
Y17988D01*
D02*
G37*
G36*
X36103Y14890D02*
X36064D01*
Y14811D01*
X36025D01*
Y14772D01*
X35907D01*
Y14851D01*
X35946D01*
Y14929D01*
X36103D01*
Y14890D01*
D02*
G37*
G36*
X37907Y14654D02*
X37946D01*
Y14576D01*
X37986D01*
Y14458D01*
Y14419D01*
Y14262D01*
X37946D01*
Y14184D01*
X37868D01*
Y14145D01*
X37711D01*
Y14184D01*
X37633D01*
Y13909D01*
X37476D01*
Y14027D01*
X37437D01*
Y14066D01*
X37476D01*
Y14105D01*
X37437D01*
Y14184D01*
X37476D01*
Y14223D01*
X37437D01*
Y14262D01*
X37476D01*
Y14301D01*
X37437D01*
Y14380D01*
X37476D01*
Y14498D01*
X37437D01*
Y14537D01*
X37476D01*
Y14576D01*
X37437D01*
Y14615D01*
X37476D01*
Y14654D01*
X37437D01*
Y14694D01*
X37633D01*
Y14654D01*
X37672D01*
Y14694D01*
X37907D01*
Y14654D01*
D02*
G37*
G36*
X36809Y14066D02*
X36770D01*
Y13988D01*
X36731D01*
Y13949D01*
X36613D01*
Y13909D01*
X36417D01*
Y13949D01*
X36299D01*
Y14105D01*
X36339D01*
Y14066D01*
X36613D01*
Y14105D01*
Y14145D01*
X36652D01*
Y14223D01*
X36613D01*
Y14184D01*
X36574D01*
Y14145D01*
X36417D01*
Y14184D01*
X36339D01*
Y14262D01*
X36299D01*
Y14615D01*
X36339D01*
Y14654D01*
X36378D01*
Y14694D01*
X36574D01*
Y14654D01*
X36652D01*
Y14694D01*
X36809D01*
Y14066D01*
D02*
G37*
G36*
X38535Y14301D02*
X38770D01*
Y14145D01*
X38339D01*
Y14890D01*
X38535D01*
Y14301D01*
D02*
G37*
G36*
X37280Y14654D02*
X37319D01*
Y14615D01*
X37358D01*
Y14537D01*
X37397D01*
Y14498D01*
Y14458D01*
Y14380D01*
X37084D01*
Y14301D01*
X37123D01*
Y14262D01*
X37319D01*
Y14301D01*
X37358D01*
Y14145D01*
X37044D01*
Y14184D01*
X36966D01*
Y14223D01*
X36927D01*
Y14301D01*
X36888D01*
Y14537D01*
X36927D01*
Y14615D01*
X36966D01*
Y14654D01*
X37005D01*
Y14694D01*
X37280D01*
Y14654D01*
D02*
G37*
G36*
X36103D02*
X36143D01*
Y14615D01*
X36182D01*
Y14576D01*
X36221D01*
Y14380D01*
X35907D01*
Y14301D01*
X35946D01*
Y14262D01*
X36182D01*
Y14301D01*
X36221D01*
Y14184D01*
X36182D01*
Y14145D01*
X35868D01*
Y14184D01*
X35790D01*
Y14262D01*
X35750D01*
Y14341D01*
X35711D01*
Y14498D01*
X35750D01*
Y14615D01*
X35790D01*
Y14654D01*
X35868D01*
Y14694D01*
X36103D01*
Y14654D01*
D02*
G37*
G36*
X35672Y14733D02*
X35397D01*
Y14694D01*
X35358D01*
Y14576D01*
X35319D01*
Y14458D01*
X35358D01*
Y14380D01*
X35397D01*
Y14301D01*
X35633D01*
Y14341D01*
X35672D01*
Y14184D01*
Y14145D01*
X35358D01*
Y14184D01*
X35280D01*
Y14223D01*
X35241D01*
Y14262D01*
X35201D01*
Y14301D01*
X35162D01*
Y14419D01*
X35123D01*
Y14654D01*
X35162D01*
Y14772D01*
X35201D01*
Y14811D01*
X35241D01*
Y14851D01*
X35319D01*
Y14890D01*
X35672D01*
Y14733D01*
D02*
G37*
G36*
X40809Y14890D02*
Y14851D01*
Y14772D01*
X40613D01*
Y14929D01*
X40809D01*
Y14890D01*
D02*
G37*
G36*
X39005Y14772D02*
X38809D01*
Y14929D01*
X39005D01*
Y14772D01*
D02*
G37*
G36*
X39868Y14654D02*
Y14615D01*
X39907D01*
Y14145D01*
X39711D01*
Y14537D01*
X39593D01*
Y14145D01*
X39397D01*
Y14537D01*
X39319D01*
Y14498D01*
X39280D01*
Y14145D01*
X39084D01*
Y14694D01*
X39280D01*
Y14654D01*
X39319D01*
Y14694D01*
X39554D01*
Y14654D01*
X39633D01*
Y14694D01*
X39868D01*
Y14654D01*
D02*
G37*
G36*
X42254Y14140D02*
X42097D01*
Y14180D01*
X42018D01*
Y14140D01*
X41822D01*
Y14180D01*
X41783D01*
Y14258D01*
X41744D01*
Y14689D01*
X41940D01*
Y14297D01*
X42057D01*
Y14689D01*
X42254D01*
Y14140D01*
D02*
G37*
G36*
X41084Y14145D02*
X40888D01*
Y14380D01*
Y14419D01*
Y14929D01*
X41084D01*
Y14145D01*
D02*
G37*
G36*
X40809Y14537D02*
X40770D01*
Y14498D01*
X40809D01*
Y14145D01*
X40613D01*
Y14694D01*
X40809D01*
Y14537D01*
D02*
G37*
G36*
X40417Y14654D02*
X40456D01*
Y14615D01*
X40495D01*
Y14537D01*
X40535D01*
Y14341D01*
X40495D01*
Y14262D01*
X40456D01*
Y14184D01*
X40378D01*
Y14145D01*
X40143D01*
Y14184D01*
X40064D01*
Y14223D01*
X40025D01*
Y14301D01*
X39986D01*
Y14576D01*
X40025D01*
Y14615D01*
X40064D01*
Y14654D01*
X40103D01*
Y14694D01*
X40417D01*
Y14654D01*
D02*
G37*
G36*
X39005Y14145D02*
X38809D01*
Y14184D01*
Y14223D01*
Y14694D01*
X39005D01*
Y14145D01*
D02*
G37*
G36*
X41587Y14650D02*
X41626D01*
Y14611D01*
X41665D01*
Y14493D01*
X41705D01*
Y14336D01*
X41665D01*
Y14258D01*
X41626D01*
Y14180D01*
X41548D01*
Y14140D01*
X41312D01*
Y14180D01*
X41234D01*
Y14219D01*
X41195D01*
Y14258D01*
X41156D01*
Y14572D01*
X41195D01*
Y14650D01*
X41273D01*
Y14689D01*
X41587D01*
Y14650D01*
D02*
G37*
G36*
X44734Y16325D02*
X44547D01*
X44110Y17487D01*
X44318D01*
X44568Y16791D01*
Y16788D01*
X44570Y16786D01*
X44572Y16779D01*
X44575Y16772D01*
X44582Y16749D01*
X44591Y16719D01*
X44602Y16684D01*
X44616Y16645D01*
X44628Y16601D01*
X44642Y16557D01*
X44644Y16561D01*
X44646Y16573D01*
X44653Y16592D01*
X44660Y16619D01*
X44672Y16649D01*
X44683Y16689D01*
X44700Y16730D01*
X44716Y16777D01*
X44973Y17487D01*
X45176D01*
X44734Y16325D01*
D02*
G37*
G36*
X46636Y17924D02*
X46655D01*
X46697Y17920D01*
X46743Y17915D01*
X46791Y17906D01*
X46840Y17894D01*
X46884Y17878D01*
X46886D01*
X46889Y17876D01*
X46903Y17869D01*
X46923Y17857D01*
X46947Y17841D01*
X46974Y17820D01*
X47004Y17795D01*
X47032Y17762D01*
X47058Y17728D01*
X47060Y17723D01*
X47067Y17709D01*
X47078Y17691D01*
X47090Y17663D01*
X47102Y17631D01*
X47113Y17596D01*
X47120Y17556D01*
X47122Y17517D01*
Y17513D01*
Y17501D01*
X47120Y17480D01*
X47115Y17455D01*
X47108Y17425D01*
X47097Y17392D01*
X47083Y17360D01*
X47065Y17325D01*
X47062Y17320D01*
X47055Y17311D01*
X47041Y17293D01*
X47023Y17274D01*
X47000Y17251D01*
X46972Y17226D01*
X46937Y17202D01*
X46898Y17179D01*
X46900D01*
X46905Y17177D01*
X46912Y17175D01*
X46921Y17170D01*
X46949Y17161D01*
X46981Y17145D01*
X47016Y17124D01*
X47055Y17098D01*
X47090Y17068D01*
X47122Y17031D01*
X47125Y17027D01*
X47134Y17013D01*
X47148Y16992D01*
X47162Y16964D01*
X47176Y16927D01*
X47189Y16888D01*
X47199Y16841D01*
X47201Y16791D01*
Y16788D01*
Y16786D01*
Y16772D01*
X47199Y16749D01*
X47194Y16721D01*
X47189Y16689D01*
X47180Y16654D01*
X47169Y16617D01*
X47152Y16580D01*
X47150Y16575D01*
X47143Y16564D01*
X47134Y16548D01*
X47120Y16524D01*
X47102Y16501D01*
X47083Y16476D01*
X47060Y16450D01*
X47034Y16430D01*
X47032Y16427D01*
X47023Y16420D01*
X47007Y16411D01*
X46986Y16402D01*
X46960Y16388D01*
X46930Y16374D01*
X46898Y16362D01*
X46859Y16351D01*
X46854D01*
X46840Y16346D01*
X46817Y16344D01*
X46787Y16339D01*
X46750Y16335D01*
X46706Y16330D01*
X46657Y16328D01*
X46602Y16325D01*
X45991D01*
Y17927D01*
X46620D01*
X46636Y17924D01*
D02*
G37*
G36*
X45632Y16325D02*
X45408D01*
Y16550D01*
X45632D01*
Y16325D01*
D02*
G37*
G36*
X42161Y17924D02*
X42182D01*
X42231Y17922D01*
X42282Y17915D01*
X42337Y17908D01*
X42388Y17897D01*
X42414Y17890D01*
X42434Y17883D01*
X42437D01*
X42439Y17880D01*
X42453Y17873D01*
X42474Y17864D01*
X42499Y17848D01*
X42527Y17827D01*
X42557Y17799D01*
X42585Y17767D01*
X42613Y17730D01*
Y17728D01*
X42615Y17725D01*
X42624Y17712D01*
X42633Y17688D01*
X42647Y17658D01*
X42659Y17624D01*
X42670Y17582D01*
X42677Y17538D01*
X42680Y17489D01*
Y17487D01*
Y17482D01*
Y17473D01*
X42677Y17462D01*
Y17445D01*
X42675Y17429D01*
X42666Y17390D01*
X42652Y17344D01*
X42633Y17295D01*
X42606Y17246D01*
X42587Y17223D01*
X42569Y17200D01*
X42566Y17198D01*
X42564Y17195D01*
X42557Y17189D01*
X42548Y17182D01*
X42536Y17172D01*
X42522Y17163D01*
X42504Y17152D01*
X42485Y17138D01*
X42462Y17126D01*
X42437Y17115D01*
X42409Y17101D01*
X42379Y17089D01*
X42344Y17080D01*
X42309Y17068D01*
X42270Y17061D01*
X42228Y17054D01*
X42233Y17052D01*
X42242Y17047D01*
X42256Y17038D01*
X42275Y17029D01*
X42316Y17003D01*
X42337Y16987D01*
X42356Y16973D01*
X42360Y16969D01*
X42372Y16957D01*
X42390Y16939D01*
X42414Y16916D01*
X42439Y16883D01*
X42469Y16848D01*
X42499Y16807D01*
X42532Y16760D01*
X42807Y16325D01*
X42543D01*
X42333Y16659D01*
Y16661D01*
X42328Y16666D01*
X42323Y16673D01*
X42316Y16682D01*
X42300Y16707D01*
X42279Y16740D01*
X42254Y16774D01*
X42228Y16811D01*
X42203Y16846D01*
X42180Y16878D01*
X42177Y16881D01*
X42171Y16890D01*
X42159Y16904D01*
X42143Y16920D01*
X42108Y16955D01*
X42090Y16971D01*
X42071Y16985D01*
X42069Y16987D01*
X42064Y16990D01*
X42055Y16994D01*
X42041Y17001D01*
X42027Y17008D01*
X42011Y17015D01*
X41974Y17027D01*
X41972D01*
X41967Y17029D01*
X41958D01*
X41946Y17031D01*
X41930Y17034D01*
X41911D01*
X41886Y17036D01*
X41613D01*
Y16325D01*
X41400D01*
Y17927D01*
X42143D01*
X42161Y17924D01*
D02*
G37*
G36*
X43501Y17510D02*
X43520Y17508D01*
X43543Y17503D01*
X43568Y17499D01*
X43598Y17492D01*
X43626Y17485D01*
X43658Y17473D01*
X43688Y17462D01*
X43721Y17445D01*
X43753Y17427D01*
X43786Y17406D01*
X43816Y17381D01*
X43844Y17353D01*
X43846Y17351D01*
X43850Y17346D01*
X43857Y17337D01*
X43867Y17323D01*
X43878Y17307D01*
X43890Y17288D01*
X43904Y17265D01*
X43918Y17237D01*
X43931Y17207D01*
X43945Y17175D01*
X43957Y17138D01*
X43968Y17098D01*
X43978Y17054D01*
X43985Y17008D01*
X43989Y16959D01*
X43992Y16906D01*
Y16904D01*
Y16895D01*
Y16878D01*
X43989Y16855D01*
X43122D01*
Y16853D01*
Y16846D01*
X43124Y16837D01*
Y16823D01*
X43126Y16807D01*
X43131Y16788D01*
X43138Y16747D01*
X43152Y16700D01*
X43170Y16649D01*
X43196Y16603D01*
X43228Y16561D01*
X43230D01*
X43233Y16557D01*
X43247Y16545D01*
X43267Y16529D01*
X43295Y16513D01*
X43332Y16494D01*
X43374Y16478D01*
X43420Y16467D01*
X43446Y16464D01*
X43473Y16462D01*
X43492D01*
X43513Y16464D01*
X43538Y16469D01*
X43566Y16476D01*
X43598Y16485D01*
X43628Y16499D01*
X43658Y16518D01*
X43661Y16520D01*
X43672Y16529D01*
X43686Y16543D01*
X43702Y16561D01*
X43721Y16587D01*
X43742Y16619D01*
X43763Y16656D01*
X43781Y16700D01*
X43985Y16675D01*
Y16673D01*
X43982Y16668D01*
X43980Y16659D01*
X43975Y16645D01*
X43968Y16631D01*
X43962Y16612D01*
X43943Y16573D01*
X43920Y16529D01*
X43887Y16483D01*
X43850Y16439D01*
X43804Y16397D01*
X43802D01*
X43797Y16393D01*
X43790Y16388D01*
X43781Y16381D01*
X43767Y16374D01*
X43753Y16367D01*
X43735Y16358D01*
X43714Y16349D01*
X43691Y16339D01*
X43668Y16330D01*
X43610Y16316D01*
X43545Y16305D01*
X43473Y16300D01*
X43448D01*
X43432Y16302D01*
X43411Y16305D01*
X43385Y16309D01*
X43358Y16314D01*
X43328Y16319D01*
X43263Y16337D01*
X43228Y16351D01*
X43196Y16365D01*
X43161Y16383D01*
X43129Y16404D01*
X43098Y16427D01*
X43068Y16455D01*
X43066Y16457D01*
X43061Y16462D01*
X43054Y16471D01*
X43045Y16485D01*
X43034Y16501D01*
X43022Y16520D01*
X43008Y16543D01*
X42994Y16568D01*
X42980Y16598D01*
X42967Y16631D01*
X42955Y16668D01*
X42943Y16707D01*
X42934Y16749D01*
X42927Y16795D01*
X42923Y16844D01*
X42920Y16895D01*
Y16897D01*
Y16909D01*
Y16922D01*
X42923Y16943D01*
X42925Y16969D01*
X42927Y16997D01*
X42932Y17029D01*
X42939Y17061D01*
X42957Y17135D01*
X42969Y17172D01*
X42983Y17212D01*
X43001Y17249D01*
X43022Y17283D01*
X43045Y17318D01*
X43071Y17351D01*
X43073Y17353D01*
X43078Y17357D01*
X43087Y17364D01*
X43098Y17376D01*
X43112Y17388D01*
X43131Y17401D01*
X43152Y17418D01*
X43177Y17432D01*
X43203Y17448D01*
X43233Y17462D01*
X43265Y17475D01*
X43300Y17487D01*
X43337Y17499D01*
X43376Y17506D01*
X43418Y17510D01*
X43462Y17513D01*
X43485D01*
X43501Y17510D01*
D02*
G37*
G36*
X50365Y20478D02*
X50192D01*
Y20676D01*
X50365D01*
Y20478D01*
D02*
G37*
G36*
X41720D02*
X41548D01*
Y20676D01*
X41720D01*
Y20478D01*
D02*
G37*
G36*
X39688Y20698D02*
X39702D01*
X39741Y20694D01*
X39784Y20688D01*
X39828Y20678D01*
X39877Y20665D01*
X39922Y20649D01*
X39924D01*
X39928Y20647D01*
X39934Y20643D01*
X39942Y20639D01*
X39963Y20629D01*
X39989Y20610D01*
X40020Y20590D01*
X40050Y20564D01*
X40079Y20533D01*
X40105Y20499D01*
Y20497D01*
X40107Y20495D01*
X40111Y20488D01*
X40115Y20482D01*
X40125Y20462D01*
X40138Y20436D01*
X40152Y20403D01*
X40162Y20364D01*
X40172Y20324D01*
X40176Y20279D01*
X39997Y20265D01*
Y20267D01*
Y20271D01*
X39995Y20277D01*
X39993Y20287D01*
X39987Y20309D01*
X39979Y20340D01*
X39967Y20372D01*
X39948Y20405D01*
X39926Y20436D01*
X39898Y20464D01*
X39893Y20466D01*
X39883Y20474D01*
X39863Y20486D01*
X39836Y20499D01*
X39802Y20511D01*
X39761Y20523D01*
X39710Y20531D01*
X39653Y20533D01*
X39625D01*
X39613Y20531D01*
X39596Y20529D01*
X39560Y20525D01*
X39519Y20517D01*
X39478Y20507D01*
X39440Y20490D01*
X39423Y20480D01*
X39407Y20470D01*
X39403Y20468D01*
X39395Y20460D01*
X39383Y20446D01*
X39371Y20429D01*
X39356Y20407D01*
X39344Y20383D01*
X39336Y20354D01*
X39332Y20322D01*
Y20318D01*
Y20309D01*
X39334Y20295D01*
X39338Y20279D01*
X39344Y20258D01*
X39354Y20238D01*
X39367Y20218D01*
X39385Y20197D01*
X39387Y20195D01*
X39397Y20189D01*
X39405Y20183D01*
X39413Y20179D01*
X39426Y20173D01*
X39440Y20165D01*
X39458Y20159D01*
X39478Y20151D01*
X39501Y20143D01*
X39527Y20132D01*
X39556Y20124D01*
X39588Y20114D01*
X39625Y20106D01*
X39666Y20096D01*
X39668D01*
X39676Y20094D01*
X39688Y20092D01*
X39702Y20088D01*
X39721Y20084D01*
X39743Y20077D01*
X39765Y20071D01*
X39790Y20065D01*
X39843Y20051D01*
X39893Y20037D01*
X39918Y20029D01*
X39940Y20020D01*
X39961Y20014D01*
X39977Y20006D01*
X39979D01*
X39983Y20004D01*
X39989Y20000D01*
X39997Y19996D01*
X40020Y19984D01*
X40046Y19968D01*
X40077Y19945D01*
X40107Y19921D01*
X40136Y19892D01*
X40160Y19862D01*
X40162Y19858D01*
X40170Y19848D01*
X40178Y19829D01*
X40191Y19805D01*
X40201Y19776D01*
X40211Y19742D01*
X40217Y19703D01*
X40219Y19662D01*
Y19660D01*
Y19658D01*
Y19652D01*
Y19644D01*
X40215Y19622D01*
X40211Y19593D01*
X40203Y19561D01*
X40193Y19526D01*
X40176Y19489D01*
X40154Y19451D01*
Y19449D01*
X40152Y19447D01*
X40142Y19435D01*
X40127Y19416D01*
X40107Y19396D01*
X40081Y19371D01*
X40048Y19345D01*
X40011Y19321D01*
X39969Y19298D01*
X39967D01*
X39963Y19296D01*
X39957Y19294D01*
X39948Y19290D01*
X39936Y19286D01*
X39922Y19280D01*
X39889Y19272D01*
X39851Y19262D01*
X39804Y19251D01*
X39753Y19245D01*
X39698Y19243D01*
X39666D01*
X39649Y19245D01*
X39631D01*
X39611Y19247D01*
X39586Y19249D01*
X39535Y19258D01*
X39482Y19266D01*
X39430Y19280D01*
X39379Y19298D01*
X39377D01*
X39373Y19300D01*
X39367Y19304D01*
X39358Y19308D01*
X39334Y19321D01*
X39305Y19339D01*
X39273Y19363D01*
X39238Y19392D01*
X39206Y19426D01*
X39175Y19465D01*
Y19467D01*
X39171Y19471D01*
X39169Y19477D01*
X39163Y19485D01*
X39159Y19496D01*
X39153Y19508D01*
X39139Y19538D01*
X39124Y19577D01*
X39112Y19620D01*
X39104Y19668D01*
X39100Y19719D01*
X39275Y19736D01*
Y19734D01*
Y19732D01*
X39277Y19725D01*
Y19717D01*
X39281Y19699D01*
X39287Y19673D01*
X39295Y19646D01*
X39303Y19616D01*
X39318Y19587D01*
X39332Y19561D01*
X39334Y19559D01*
X39340Y19550D01*
X39350Y19536D01*
X39367Y19522D01*
X39387Y19504D01*
X39409Y19485D01*
X39440Y19467D01*
X39472Y19451D01*
X39474D01*
X39476Y19449D01*
X39482Y19447D01*
X39489Y19445D01*
X39509Y19439D01*
X39535Y19430D01*
X39568Y19422D01*
X39605Y19416D01*
X39645Y19412D01*
X39690Y19410D01*
X39708D01*
X39729Y19412D01*
X39753Y19414D01*
X39782Y19418D01*
X39814Y19422D01*
X39847Y19430D01*
X39877Y19441D01*
X39881Y19443D01*
X39891Y19447D01*
X39906Y19455D01*
X39924Y19463D01*
X39942Y19477D01*
X39963Y19491D01*
X39983Y19508D01*
X39999Y19528D01*
X40001Y19530D01*
X40005Y19538D01*
X40011Y19548D01*
X40020Y19565D01*
X40028Y19581D01*
X40034Y19601D01*
X40038Y19624D01*
X40040Y19648D01*
Y19650D01*
Y19660D01*
X40038Y19673D01*
X40036Y19689D01*
X40030Y19705D01*
X40024Y19725D01*
X40014Y19746D01*
X39999Y19764D01*
X39997Y19766D01*
X39991Y19772D01*
X39983Y19780D01*
X39969Y19793D01*
X39952Y19805D01*
X39930Y19819D01*
X39904Y19833D01*
X39873Y19845D01*
X39871Y19848D01*
X39861Y19850D01*
X39845Y19856D01*
X39834Y19858D01*
X39820Y19862D01*
X39806Y19868D01*
X39788Y19872D01*
X39767Y19878D01*
X39743Y19884D01*
X39718Y19890D01*
X39690Y19898D01*
X39657Y19907D01*
X39623Y19915D01*
X39621D01*
X39615Y19917D01*
X39605Y19919D01*
X39592Y19923D01*
X39576Y19927D01*
X39558Y19931D01*
X39517Y19943D01*
X39472Y19957D01*
X39426Y19972D01*
X39385Y19986D01*
X39367Y19994D01*
X39350Y20002D01*
X39348D01*
X39346Y20004D01*
X39334Y20012D01*
X39316Y20022D01*
X39295Y20039D01*
X39271Y20057D01*
X39246Y20079D01*
X39222Y20106D01*
X39202Y20134D01*
X39200Y20138D01*
X39194Y20149D01*
X39185Y20165D01*
X39177Y20185D01*
X39169Y20212D01*
X39161Y20242D01*
X39155Y20275D01*
X39153Y20309D01*
Y20311D01*
Y20313D01*
Y20320D01*
Y20328D01*
X39157Y20348D01*
X39161Y20374D01*
X39167Y20405D01*
X39177Y20440D01*
X39192Y20474D01*
X39212Y20509D01*
Y20511D01*
X39214Y20513D01*
X39224Y20525D01*
X39238Y20541D01*
X39257Y20562D01*
X39281Y20584D01*
X39312Y20608D01*
X39348Y20631D01*
X39389Y20651D01*
X39391D01*
X39395Y20653D01*
X39401Y20655D01*
X39409Y20659D01*
X39419Y20663D01*
X39434Y20667D01*
X39464Y20676D01*
X39503Y20684D01*
X39548Y20692D01*
X39594Y20698D01*
X39647Y20700D01*
X39674D01*
X39688Y20698D01*
D02*
G37*
G36*
X47181Y19268D02*
X47020D01*
Y19396D01*
X47018Y19394D01*
X47016Y19390D01*
X47010Y19382D01*
X47002Y19371D01*
X46992Y19361D01*
X46980Y19349D01*
X46966Y19335D01*
X46947Y19321D01*
X46929Y19306D01*
X46909Y19292D01*
X46884Y19280D01*
X46858Y19270D01*
X46831Y19260D01*
X46801Y19251D01*
X46768Y19247D01*
X46734Y19245D01*
X46721D01*
X46713Y19247D01*
X46689Y19249D01*
X46660Y19253D01*
X46626Y19262D01*
X46587Y19274D01*
X46548Y19290D01*
X46510Y19312D01*
X46508D01*
X46506Y19317D01*
X46494Y19325D01*
X46475Y19341D01*
X46453Y19361D01*
X46426Y19388D01*
X46400Y19420D01*
X46373Y19457D01*
X46351Y19500D01*
Y19502D01*
X46349Y19506D01*
X46347Y19512D01*
X46343Y19520D01*
X46339Y19532D01*
X46333Y19546D01*
X46329Y19561D01*
X46325Y19579D01*
X46314Y19620D01*
X46304Y19666D01*
X46298Y19719D01*
X46296Y19776D01*
Y19778D01*
Y19782D01*
Y19791D01*
Y19803D01*
X46298Y19815D01*
Y19831D01*
X46302Y19868D01*
X46308Y19911D01*
X46319Y19957D01*
X46331Y20006D01*
X46347Y20053D01*
Y20055D01*
X46349Y20059D01*
X46353Y20065D01*
X46357Y20073D01*
X46369Y20096D01*
X46386Y20124D01*
X46406Y20155D01*
X46432Y20185D01*
X46463Y20218D01*
X46500Y20244D01*
X46502D01*
X46504Y20246D01*
X46510Y20250D01*
X46518Y20254D01*
X46538Y20265D01*
X46567Y20279D01*
X46599Y20291D01*
X46638Y20301D01*
X46681Y20309D01*
X46725Y20311D01*
X46742D01*
X46758Y20309D01*
X46780Y20307D01*
X46807Y20301D01*
X46835Y20295D01*
X46864Y20285D01*
X46890Y20271D01*
X46894Y20269D01*
X46902Y20265D01*
X46915Y20254D01*
X46931Y20244D01*
X46951Y20230D01*
X46970Y20212D01*
X46990Y20193D01*
X47008Y20171D01*
Y20676D01*
X47181D01*
Y19268D01*
D02*
G37*
G36*
X52235Y20309D02*
X52257Y20307D01*
X52284Y20303D01*
X52312Y20297D01*
X52343Y20289D01*
X52371Y20277D01*
X52375Y20275D01*
X52384Y20271D01*
X52398Y20265D01*
X52414Y20254D01*
X52434Y20242D01*
X52453Y20226D01*
X52471Y20210D01*
X52487Y20189D01*
X52489Y20187D01*
X52493Y20179D01*
X52499Y20169D01*
X52510Y20155D01*
X52518Y20134D01*
X52526Y20114D01*
X52536Y20090D01*
X52542Y20063D01*
Y20061D01*
X52544Y20053D01*
X52546Y20041D01*
X52548Y20025D01*
Y20000D01*
X52550Y19972D01*
X52552Y19937D01*
Y19894D01*
Y19268D01*
X52379D01*
Y19886D01*
Y19888D01*
Y19890D01*
Y19904D01*
Y19923D01*
X52377Y19945D01*
X52375Y19972D01*
X52371Y19998D01*
X52365Y20022D01*
X52359Y20045D01*
Y20047D01*
X52355Y20053D01*
X52349Y20063D01*
X52343Y20075D01*
X52333Y20088D01*
X52320Y20102D01*
X52304Y20116D01*
X52286Y20128D01*
X52284Y20130D01*
X52278Y20134D01*
X52266Y20138D01*
X52251Y20145D01*
X52235Y20151D01*
X52215Y20157D01*
X52190Y20159D01*
X52166Y20161D01*
X52156D01*
X52148Y20159D01*
X52127Y20157D01*
X52101Y20153D01*
X52072Y20143D01*
X52040Y20130D01*
X52007Y20114D01*
X51977Y20090D01*
X51973Y20086D01*
X51964Y20075D01*
X51958Y20067D01*
X51952Y20057D01*
X51944Y20045D01*
X51938Y20031D01*
X51930Y20014D01*
X51922Y19994D01*
X51916Y19972D01*
X51909Y19947D01*
X51905Y19921D01*
X51901Y19892D01*
X51897Y19858D01*
Y19823D01*
Y19268D01*
X51724D01*
Y20289D01*
X51879D01*
Y20143D01*
X51881Y20145D01*
X51885Y20151D01*
X51891Y20159D01*
X51899Y20169D01*
X51911Y20181D01*
X51926Y20195D01*
X51942Y20212D01*
X51962Y20228D01*
X51983Y20242D01*
X52007Y20258D01*
X52034Y20273D01*
X52062Y20285D01*
X52095Y20295D01*
X52127Y20303D01*
X52164Y20309D01*
X52202Y20311D01*
X52219D01*
X52235Y20309D01*
D02*
G37*
G36*
X45566D02*
X45588Y20305D01*
X45615Y20297D01*
X45643Y20287D01*
X45676Y20273D01*
X45710Y20254D01*
X45647Y20096D01*
X45645Y20098D01*
X45637Y20102D01*
X45625Y20108D01*
X45608Y20114D01*
X45590Y20120D01*
X45568Y20126D01*
X45545Y20130D01*
X45523Y20132D01*
X45513D01*
X45503Y20130D01*
X45488Y20128D01*
X45474Y20124D01*
X45456Y20118D01*
X45438Y20110D01*
X45421Y20098D01*
X45419Y20096D01*
X45413Y20092D01*
X45407Y20084D01*
X45397Y20073D01*
X45387Y20059D01*
X45377Y20043D01*
X45366Y20025D01*
X45358Y20002D01*
X45356Y19998D01*
X45354Y19986D01*
X45350Y19968D01*
X45344Y19943D01*
X45338Y19913D01*
X45334Y19878D01*
X45332Y19841D01*
X45330Y19801D01*
Y19268D01*
X45157D01*
Y20289D01*
X45313D01*
Y20134D01*
X45316Y20136D01*
X45324Y20151D01*
X45334Y20169D01*
X45350Y20191D01*
X45366Y20214D01*
X45385Y20238D01*
X45403Y20258D01*
X45421Y20275D01*
X45423Y20277D01*
X45429Y20281D01*
X45442Y20287D01*
X45454Y20293D01*
X45470Y20299D01*
X45490Y20305D01*
X45511Y20309D01*
X45533Y20311D01*
X45547D01*
X45566Y20309D01*
D02*
G37*
G36*
X42426Y19268D02*
X42262D01*
X41877Y20289D01*
X42060D01*
X42280Y19677D01*
Y19675D01*
X42282Y19673D01*
X42284Y19666D01*
X42286Y19660D01*
X42292Y19640D01*
X42300Y19614D01*
X42311Y19583D01*
X42323Y19548D01*
X42333Y19510D01*
X42345Y19471D01*
X42347Y19475D01*
X42349Y19485D01*
X42355Y19502D01*
X42361Y19526D01*
X42372Y19553D01*
X42382Y19587D01*
X42396Y19624D01*
X42410Y19664D01*
X42636Y20289D01*
X42815D01*
X42426Y19268D01*
D02*
G37*
G36*
X44888D02*
X44734D01*
Y19416D01*
X44732Y19414D01*
X44728Y19408D01*
X44721Y19400D01*
X44711Y19390D01*
X44699Y19378D01*
X44685Y19361D01*
X44669Y19347D01*
X44648Y19331D01*
X44626Y19314D01*
X44601Y19300D01*
X44575Y19286D01*
X44546Y19272D01*
X44514Y19262D01*
X44481Y19253D01*
X44445Y19247D01*
X44408Y19245D01*
X44394D01*
X44376Y19247D01*
X44353Y19249D01*
X44327Y19253D01*
X44298Y19260D01*
X44270Y19268D01*
X44239Y19280D01*
X44235Y19282D01*
X44227Y19286D01*
X44213Y19294D01*
X44197Y19304D01*
X44176Y19317D01*
X44158Y19331D01*
X44140Y19347D01*
X44123Y19365D01*
X44121Y19367D01*
X44117Y19376D01*
X44111Y19386D01*
X44103Y19402D01*
X44093Y19420D01*
X44085Y19443D01*
X44076Y19467D01*
X44070Y19494D01*
Y19496D01*
X44068Y19504D01*
X44066Y19516D01*
Y19532D01*
X44064Y19557D01*
X44062Y19583D01*
X44060Y19618D01*
Y19656D01*
Y20289D01*
X44233D01*
Y19721D01*
Y19719D01*
Y19715D01*
Y19709D01*
Y19699D01*
Y19677D01*
X44235Y19648D01*
Y19618D01*
X44237Y19587D01*
X44239Y19561D01*
X44243Y19538D01*
Y19536D01*
X44247Y19528D01*
X44251Y19516D01*
X44258Y19500D01*
X44268Y19483D01*
X44280Y19465D01*
X44294Y19449D01*
X44312Y19432D01*
X44315Y19430D01*
X44323Y19426D01*
X44333Y19420D01*
X44349Y19414D01*
X44367Y19406D01*
X44390Y19400D01*
X44414Y19396D01*
X44443Y19394D01*
X44457D01*
X44471Y19396D01*
X44489Y19398D01*
X44512Y19404D01*
X44536Y19410D01*
X44563Y19420D01*
X44589Y19432D01*
X44593Y19435D01*
X44601Y19441D01*
X44614Y19449D01*
X44628Y19461D01*
X44644Y19477D01*
X44660Y19496D01*
X44675Y19516D01*
X44687Y19540D01*
X44689Y19544D01*
X44691Y19553D01*
X44695Y19569D01*
X44701Y19591D01*
X44707Y19620D01*
X44711Y19654D01*
X44713Y19695D01*
X44715Y19742D01*
Y20289D01*
X44888D01*
Y19268D01*
D02*
G37*
G36*
X41277D02*
X41122D01*
Y19416D01*
X41120Y19414D01*
X41116Y19408D01*
X41110Y19400D01*
X41100Y19390D01*
X41088Y19378D01*
X41074Y19361D01*
X41057Y19347D01*
X41037Y19331D01*
X41014Y19314D01*
X40990Y19300D01*
X40964Y19286D01*
X40935Y19272D01*
X40903Y19262D01*
X40870Y19253D01*
X40833Y19247D01*
X40797Y19245D01*
X40783D01*
X40764Y19247D01*
X40742Y19249D01*
X40715Y19253D01*
X40687Y19260D01*
X40658Y19268D01*
X40628Y19280D01*
X40624Y19282D01*
X40616Y19286D01*
X40601Y19294D01*
X40585Y19304D01*
X40565Y19317D01*
X40547Y19331D01*
X40528Y19347D01*
X40512Y19365D01*
X40510Y19367D01*
X40506Y19376D01*
X40500Y19386D01*
X40492Y19402D01*
X40481Y19420D01*
X40473Y19443D01*
X40465Y19467D01*
X40459Y19494D01*
Y19496D01*
X40457Y19504D01*
X40455Y19516D01*
Y19532D01*
X40453Y19557D01*
X40451Y19583D01*
X40449Y19618D01*
Y19656D01*
Y20289D01*
X40622D01*
Y19721D01*
Y19719D01*
Y19715D01*
Y19709D01*
Y19699D01*
Y19677D01*
X40624Y19648D01*
Y19618D01*
X40626Y19587D01*
X40628Y19561D01*
X40632Y19538D01*
Y19536D01*
X40636Y19528D01*
X40640Y19516D01*
X40646Y19500D01*
X40656Y19483D01*
X40669Y19465D01*
X40683Y19449D01*
X40701Y19432D01*
X40703Y19430D01*
X40711Y19426D01*
X40722Y19420D01*
X40738Y19414D01*
X40756Y19406D01*
X40778Y19400D01*
X40803Y19396D01*
X40831Y19394D01*
X40846D01*
X40860Y19396D01*
X40878Y19398D01*
X40901Y19404D01*
X40925Y19410D01*
X40951Y19420D01*
X40978Y19432D01*
X40982Y19435D01*
X40990Y19441D01*
X41002Y19449D01*
X41017Y19461D01*
X41033Y19477D01*
X41049Y19496D01*
X41063Y19516D01*
X41076Y19540D01*
X41078Y19544D01*
X41080Y19553D01*
X41084Y19569D01*
X41090Y19591D01*
X41096Y19620D01*
X41100Y19654D01*
X41102Y19695D01*
X41104Y19742D01*
Y20289D01*
X41277D01*
Y19268D01*
D02*
G37*
G36*
X55991Y20521D02*
X55989Y20519D01*
X55985Y20515D01*
X55977Y20507D01*
X55968Y20495D01*
X55956Y20480D01*
X55940Y20464D01*
X55924Y20444D01*
X55905Y20419D01*
X55887Y20395D01*
X55865Y20366D01*
X55842Y20334D01*
X55820Y20301D01*
X55795Y20265D01*
X55771Y20226D01*
X55747Y20183D01*
X55722Y20140D01*
X55720Y20138D01*
X55716Y20130D01*
X55710Y20118D01*
X55700Y20100D01*
X55690Y20077D01*
X55677Y20053D01*
X55663Y20025D01*
X55649Y19992D01*
X55633Y19955D01*
X55614Y19919D01*
X55598Y19878D01*
X55582Y19835D01*
X55549Y19748D01*
X55519Y19654D01*
Y19652D01*
X55517Y19646D01*
X55515Y19636D01*
X55511Y19624D01*
X55507Y19607D01*
X55502Y19587D01*
X55496Y19565D01*
X55492Y19540D01*
X55486Y19512D01*
X55480Y19481D01*
X55470Y19416D01*
X55460Y19345D01*
X55454Y19268D01*
X55277D01*
Y19270D01*
Y19276D01*
Y19284D01*
X55279Y19296D01*
Y19312D01*
X55281Y19333D01*
X55283Y19355D01*
X55285Y19380D01*
X55289Y19408D01*
X55293Y19437D01*
X55299Y19471D01*
X55305Y19506D01*
X55311Y19542D01*
X55319Y19583D01*
X55340Y19666D01*
Y19668D01*
X55342Y19677D01*
X55346Y19689D01*
X55352Y19707D01*
X55358Y19727D01*
X55366Y19752D01*
X55374Y19780D01*
X55386Y19811D01*
X55399Y19845D01*
X55411Y19880D01*
X55441Y19957D01*
X55478Y20039D01*
X55519Y20120D01*
X55521Y20122D01*
X55525Y20130D01*
X55531Y20140D01*
X55539Y20157D01*
X55549Y20175D01*
X55563Y20197D01*
X55578Y20222D01*
X55594Y20248D01*
X55633Y20307D01*
X55673Y20368D01*
X55720Y20431D01*
X55769Y20490D01*
X55079D01*
Y20657D01*
X55991D01*
Y20521D01*
D02*
G37*
G36*
X50365Y19268D02*
X50192D01*
Y20289D01*
X50365D01*
Y19268D01*
D02*
G37*
G36*
X49299Y19435D02*
X49993D01*
Y19268D01*
X49112D01*
Y20676D01*
X49299D01*
Y19435D01*
D02*
G37*
G36*
X41720Y19268D02*
X41548D01*
Y20289D01*
X41720D01*
Y19268D01*
D02*
G37*
G36*
X53271Y20309D02*
X53287Y20307D01*
X53307Y20303D01*
X53330Y20299D01*
X53356Y20293D01*
X53380Y20287D01*
X53409Y20277D01*
X53435Y20267D01*
X53464Y20252D01*
X53492Y20236D01*
X53521Y20218D01*
X53547Y20195D01*
X53572Y20171D01*
X53574Y20169D01*
X53578Y20165D01*
X53584Y20157D01*
X53592Y20145D01*
X53602Y20130D01*
X53612Y20114D01*
X53625Y20094D01*
X53637Y20069D01*
X53649Y20043D01*
X53661Y20014D01*
X53671Y19982D01*
X53682Y19947D01*
X53690Y19909D01*
X53696Y19868D01*
X53700Y19825D01*
X53702Y19778D01*
Y19776D01*
Y19768D01*
Y19754D01*
X53700Y19734D01*
X52937D01*
Y19732D01*
Y19725D01*
X52939Y19717D01*
Y19705D01*
X52941Y19691D01*
X52945Y19675D01*
X52951Y19638D01*
X52963Y19597D01*
X52980Y19553D01*
X53002Y19512D01*
X53030Y19475D01*
X53033D01*
X53035Y19471D01*
X53047Y19461D01*
X53065Y19447D01*
X53090Y19432D01*
X53122Y19416D01*
X53159Y19402D01*
X53199Y19392D01*
X53222Y19390D01*
X53246Y19388D01*
X53262D01*
X53281Y19390D01*
X53303Y19394D01*
X53328Y19400D01*
X53356Y19408D01*
X53382Y19420D01*
X53409Y19437D01*
X53411Y19439D01*
X53421Y19447D01*
X53433Y19459D01*
X53448Y19475D01*
X53464Y19498D01*
X53482Y19526D01*
X53500Y19559D01*
X53517Y19597D01*
X53696Y19575D01*
Y19573D01*
X53694Y19569D01*
X53692Y19561D01*
X53688Y19548D01*
X53682Y19536D01*
X53675Y19520D01*
X53659Y19485D01*
X53639Y19447D01*
X53610Y19406D01*
X53578Y19367D01*
X53537Y19331D01*
X53535D01*
X53531Y19327D01*
X53525Y19323D01*
X53517Y19317D01*
X53505Y19310D01*
X53492Y19304D01*
X53476Y19296D01*
X53458Y19288D01*
X53437Y19280D01*
X53417Y19272D01*
X53366Y19260D01*
X53309Y19249D01*
X53246Y19245D01*
X53224D01*
X53210Y19247D01*
X53191Y19249D01*
X53169Y19253D01*
X53144Y19258D01*
X53118Y19262D01*
X53061Y19278D01*
X53030Y19290D01*
X53002Y19302D01*
X52971Y19319D01*
X52943Y19337D01*
X52917Y19357D01*
X52890Y19382D01*
X52888Y19384D01*
X52884Y19388D01*
X52878Y19396D01*
X52870Y19408D01*
X52860Y19422D01*
X52849Y19439D01*
X52837Y19459D01*
X52825Y19481D01*
X52813Y19508D01*
X52801Y19536D01*
X52790Y19569D01*
X52780Y19603D01*
X52772Y19640D01*
X52766Y19681D01*
X52762Y19723D01*
X52760Y19768D01*
Y19770D01*
Y19780D01*
Y19793D01*
X52762Y19811D01*
X52764Y19833D01*
X52766Y19858D01*
X52770Y19886D01*
X52776Y19915D01*
X52792Y19980D01*
X52803Y20012D01*
X52815Y20047D01*
X52831Y20079D01*
X52849Y20110D01*
X52870Y20140D01*
X52892Y20169D01*
X52894Y20171D01*
X52898Y20175D01*
X52906Y20181D01*
X52917Y20191D01*
X52929Y20202D01*
X52945Y20214D01*
X52963Y20228D01*
X52986Y20240D01*
X53008Y20254D01*
X53035Y20267D01*
X53063Y20279D01*
X53094Y20289D01*
X53126Y20299D01*
X53161Y20305D01*
X53197Y20309D01*
X53236Y20311D01*
X53256D01*
X53271Y20309D01*
D02*
G37*
G36*
X47908D02*
X47924Y20307D01*
X47944Y20303D01*
X47967Y20299D01*
X47993Y20293D01*
X48017Y20287D01*
X48046Y20277D01*
X48072Y20267D01*
X48101Y20252D01*
X48129Y20236D01*
X48158Y20218D01*
X48184Y20195D01*
X48209Y20171D01*
X48211Y20169D01*
X48215Y20165D01*
X48221Y20157D01*
X48229Y20145D01*
X48239Y20130D01*
X48249Y20114D01*
X48262Y20094D01*
X48274Y20069D01*
X48286Y20043D01*
X48298Y20014D01*
X48308Y19982D01*
X48319Y19947D01*
X48327Y19909D01*
X48333Y19868D01*
X48337Y19825D01*
X48339Y19778D01*
Y19776D01*
Y19768D01*
Y19754D01*
X48337Y19734D01*
X47574D01*
Y19732D01*
Y19725D01*
X47576Y19717D01*
Y19705D01*
X47578Y19691D01*
X47582Y19675D01*
X47588Y19638D01*
X47600Y19597D01*
X47617Y19553D01*
X47639Y19512D01*
X47667Y19475D01*
X47669D01*
X47672Y19471D01*
X47684Y19461D01*
X47702Y19447D01*
X47726Y19432D01*
X47759Y19416D01*
X47796Y19402D01*
X47836Y19392D01*
X47859Y19390D01*
X47883Y19388D01*
X47899D01*
X47918Y19390D01*
X47940Y19394D01*
X47964Y19400D01*
X47993Y19408D01*
X48019Y19420D01*
X48046Y19437D01*
X48048Y19439D01*
X48058Y19447D01*
X48070Y19459D01*
X48085Y19475D01*
X48101Y19498D01*
X48119Y19526D01*
X48137Y19559D01*
X48154Y19597D01*
X48333Y19575D01*
Y19573D01*
X48331Y19569D01*
X48329Y19561D01*
X48325Y19548D01*
X48319Y19536D01*
X48312Y19520D01*
X48296Y19485D01*
X48276Y19447D01*
X48247Y19406D01*
X48215Y19367D01*
X48174Y19331D01*
X48172D01*
X48168Y19327D01*
X48162Y19323D01*
X48154Y19317D01*
X48141Y19310D01*
X48129Y19304D01*
X48113Y19296D01*
X48095Y19288D01*
X48074Y19280D01*
X48054Y19272D01*
X48003Y19260D01*
X47946Y19249D01*
X47883Y19245D01*
X47861D01*
X47846Y19247D01*
X47828Y19249D01*
X47806Y19253D01*
X47781Y19258D01*
X47755Y19262D01*
X47698Y19278D01*
X47667Y19290D01*
X47639Y19302D01*
X47608Y19319D01*
X47580Y19337D01*
X47554Y19357D01*
X47527Y19382D01*
X47525Y19384D01*
X47521Y19388D01*
X47515Y19396D01*
X47507Y19408D01*
X47497Y19422D01*
X47486Y19439D01*
X47474Y19459D01*
X47462Y19481D01*
X47450Y19508D01*
X47438Y19536D01*
X47427Y19569D01*
X47417Y19603D01*
X47409Y19640D01*
X47403Y19681D01*
X47399Y19723D01*
X47397Y19768D01*
Y19770D01*
Y19780D01*
Y19793D01*
X47399Y19811D01*
X47401Y19833D01*
X47403Y19858D01*
X47407Y19886D01*
X47413Y19915D01*
X47429Y19980D01*
X47440Y20012D01*
X47452Y20047D01*
X47468Y20079D01*
X47486Y20110D01*
X47507Y20140D01*
X47529Y20169D01*
X47531Y20171D01*
X47535Y20175D01*
X47543Y20181D01*
X47554Y20191D01*
X47566Y20202D01*
X47582Y20214D01*
X47600Y20228D01*
X47623Y20240D01*
X47645Y20254D01*
X47672Y20267D01*
X47700Y20279D01*
X47731Y20289D01*
X47763Y20299D01*
X47798Y20305D01*
X47834Y20309D01*
X47873Y20311D01*
X47893D01*
X47908Y20309D01*
D02*
G37*
G36*
X43421D02*
X43438Y20307D01*
X43458Y20303D01*
X43480Y20299D01*
X43507Y20293D01*
X43531Y20287D01*
X43560Y20277D01*
X43586Y20267D01*
X43615Y20252D01*
X43643Y20236D01*
X43672Y20218D01*
X43698Y20195D01*
X43722Y20171D01*
X43725Y20169D01*
X43729Y20165D01*
X43735Y20157D01*
X43743Y20145D01*
X43753Y20130D01*
X43763Y20114D01*
X43775Y20094D01*
X43788Y20069D01*
X43800Y20043D01*
X43812Y20014D01*
X43822Y19982D01*
X43832Y19947D01*
X43840Y19909D01*
X43847Y19868D01*
X43851Y19825D01*
X43853Y19778D01*
Y19776D01*
Y19768D01*
Y19754D01*
X43851Y19734D01*
X43088D01*
Y19732D01*
Y19725D01*
X43090Y19717D01*
Y19705D01*
X43092Y19691D01*
X43096Y19675D01*
X43102Y19638D01*
X43114Y19597D01*
X43130Y19553D01*
X43153Y19512D01*
X43181Y19475D01*
X43183D01*
X43185Y19471D01*
X43198Y19461D01*
X43216Y19447D01*
X43240Y19432D01*
X43273Y19416D01*
X43309Y19402D01*
X43350Y19392D01*
X43373Y19390D01*
X43397Y19388D01*
X43413D01*
X43432Y19390D01*
X43454Y19394D01*
X43478Y19400D01*
X43507Y19408D01*
X43533Y19420D01*
X43560Y19437D01*
X43562Y19439D01*
X43572Y19447D01*
X43584Y19459D01*
X43598Y19475D01*
X43615Y19498D01*
X43633Y19526D01*
X43651Y19559D01*
X43668Y19597D01*
X43847Y19575D01*
Y19573D01*
X43845Y19569D01*
X43843Y19561D01*
X43838Y19548D01*
X43832Y19536D01*
X43826Y19520D01*
X43810Y19485D01*
X43790Y19447D01*
X43761Y19406D01*
X43729Y19367D01*
X43688Y19331D01*
X43686D01*
X43682Y19327D01*
X43676Y19323D01*
X43668Y19317D01*
X43655Y19310D01*
X43643Y19304D01*
X43627Y19296D01*
X43609Y19288D01*
X43588Y19280D01*
X43568Y19272D01*
X43517Y19260D01*
X43460Y19249D01*
X43397Y19245D01*
X43375D01*
X43360Y19247D01*
X43342Y19249D01*
X43320Y19253D01*
X43295Y19258D01*
X43269Y19262D01*
X43212Y19278D01*
X43181Y19290D01*
X43153Y19302D01*
X43122Y19319D01*
X43094Y19337D01*
X43067Y19357D01*
X43041Y19382D01*
X43039Y19384D01*
X43035Y19388D01*
X43029Y19396D01*
X43021Y19408D01*
X43010Y19422D01*
X43000Y19439D01*
X42988Y19459D01*
X42976Y19481D01*
X42964Y19508D01*
X42951Y19536D01*
X42941Y19569D01*
X42931Y19603D01*
X42923Y19640D01*
X42917Y19681D01*
X42913Y19723D01*
X42911Y19768D01*
Y19770D01*
Y19780D01*
Y19793D01*
X42913Y19811D01*
X42915Y19833D01*
X42917Y19858D01*
X42921Y19886D01*
X42927Y19915D01*
X42943Y19980D01*
X42953Y20012D01*
X42966Y20047D01*
X42982Y20079D01*
X43000Y20110D01*
X43021Y20140D01*
X43043Y20169D01*
X43045Y20171D01*
X43049Y20175D01*
X43057Y20181D01*
X43067Y20191D01*
X43080Y20202D01*
X43096Y20214D01*
X43114Y20228D01*
X43137Y20240D01*
X43159Y20254D01*
X43185Y20267D01*
X43214Y20279D01*
X43244Y20289D01*
X43277Y20299D01*
X43312Y20305D01*
X43348Y20309D01*
X43387Y20311D01*
X43407D01*
X43421Y20309D01*
D02*
G37*
G36*
X51035D02*
X51049Y20307D01*
X51067Y20303D01*
X51088Y20299D01*
X51110Y20293D01*
X51132Y20285D01*
X51157Y20275D01*
X51181Y20263D01*
X51208Y20248D01*
X51232Y20232D01*
X51256Y20212D01*
X51281Y20189D01*
X51303Y20163D01*
Y20289D01*
X51462D01*
Y19406D01*
Y19404D01*
Y19396D01*
Y19384D01*
Y19367D01*
X51460Y19349D01*
Y19327D01*
X51458Y19302D01*
X51456Y19276D01*
X51450Y19221D01*
X51442Y19164D01*
X51435Y19137D01*
X51429Y19113D01*
X51421Y19091D01*
X51413Y19070D01*
Y19068D01*
X51411Y19066D01*
X51403Y19054D01*
X51393Y19036D01*
X51376Y19013D01*
X51354Y18989D01*
X51328Y18962D01*
X51295Y18936D01*
X51258Y18914D01*
X51256D01*
X51254Y18912D01*
X51248Y18908D01*
X51240Y18906D01*
X51230Y18899D01*
X51218Y18895D01*
X51187Y18885D01*
X51151Y18873D01*
X51106Y18865D01*
X51055Y18857D01*
X51000Y18855D01*
X50982D01*
X50970Y18857D01*
X50953D01*
X50937Y18859D01*
X50917Y18861D01*
X50894Y18865D01*
X50847Y18875D01*
X50799Y18889D01*
X50750Y18910D01*
X50705Y18938D01*
X50703Y18940D01*
X50701Y18942D01*
X50687Y18954D01*
X50670Y18973D01*
X50650Y18999D01*
X50630Y19034D01*
X50611Y19076D01*
X50605Y19101D01*
X50601Y19127D01*
X50597Y19154D01*
Y19184D01*
X50766Y19162D01*
Y19158D01*
X50768Y19150D01*
X50772Y19135D01*
X50776Y19117D01*
X50784Y19099D01*
X50795Y19081D01*
X50807Y19062D01*
X50823Y19048D01*
X50827Y19046D01*
X50835Y19040D01*
X50849Y19032D01*
X50870Y19024D01*
X50894Y19013D01*
X50925Y19005D01*
X50961Y18999D01*
X51000Y18997D01*
X51020D01*
X51041Y18999D01*
X51069Y19003D01*
X51098Y19009D01*
X51128Y19017D01*
X51159Y19030D01*
X51185Y19046D01*
X51187Y19048D01*
X51195Y19054D01*
X51208Y19066D01*
X51222Y19081D01*
X51236Y19101D01*
X51250Y19123D01*
X51265Y19150D01*
X51275Y19180D01*
Y19182D01*
X51277Y19190D01*
X51279Y19207D01*
X51281Y19227D01*
X51283Y19241D01*
Y19258D01*
X51285Y19276D01*
Y19296D01*
Y19319D01*
X51287Y19345D01*
Y19371D01*
Y19402D01*
X51285Y19400D01*
X51281Y19396D01*
X51275Y19390D01*
X51267Y19382D01*
X51256Y19371D01*
X51242Y19359D01*
X51226Y19347D01*
X51210Y19335D01*
X51167Y19310D01*
X51120Y19288D01*
X51094Y19280D01*
X51065Y19274D01*
X51035Y19270D01*
X51004Y19268D01*
X50994D01*
X50984Y19270D01*
X50970D01*
X50951Y19272D01*
X50931Y19276D01*
X50908Y19280D01*
X50884Y19286D01*
X50858Y19294D01*
X50831Y19304D01*
X50805Y19317D01*
X50776Y19331D01*
X50750Y19349D01*
X50723Y19369D01*
X50699Y19392D01*
X50677Y19418D01*
X50674Y19420D01*
X50672Y19424D01*
X50666Y19435D01*
X50658Y19445D01*
X50650Y19461D01*
X50640Y19477D01*
X50630Y19498D01*
X50620Y19522D01*
X50609Y19546D01*
X50599Y19575D01*
X50589Y19603D01*
X50581Y19636D01*
X50567Y19705D01*
X50565Y19744D01*
X50563Y19782D01*
Y19784D01*
Y19789D01*
Y19797D01*
Y19807D01*
X50565Y19821D01*
Y19835D01*
X50569Y19872D01*
X50575Y19913D01*
X50585Y19957D01*
X50597Y20004D01*
X50616Y20051D01*
Y20053D01*
X50618Y20057D01*
X50622Y20063D01*
X50626Y20071D01*
X50638Y20094D01*
X50654Y20122D01*
X50677Y20153D01*
X50703Y20183D01*
X50734Y20216D01*
X50768Y20242D01*
X50770D01*
X50772Y20244D01*
X50778Y20248D01*
X50786Y20252D01*
X50807Y20265D01*
X50835Y20277D01*
X50870Y20289D01*
X50911Y20301D01*
X50955Y20309D01*
X51004Y20311D01*
X51022D01*
X51035Y20309D01*
D02*
G37*
G36*
X56326Y20698D02*
X56333Y20690D01*
X56341Y20676D01*
X56353Y20659D01*
X56369Y20637D01*
X56385Y20610D01*
X56404Y20582D01*
X56424Y20549D01*
X56446Y20513D01*
X56467Y20474D01*
X56489Y20436D01*
X56512Y20393D01*
X56552Y20305D01*
X56573Y20258D01*
X56589Y20214D01*
Y20212D01*
X56593Y20204D01*
X56595Y20193D01*
X56601Y20177D01*
X56607Y20159D01*
X56613Y20136D01*
X56619Y20110D01*
X56628Y20081D01*
X56634Y20049D01*
X56640Y20014D01*
X56646Y19980D01*
X56652Y19941D01*
X56660Y19860D01*
X56664Y19776D01*
Y19774D01*
Y19764D01*
Y19750D01*
X56662Y19732D01*
Y19709D01*
X56658Y19681D01*
X56656Y19650D01*
X56652Y19616D01*
X56646Y19579D01*
X56640Y19538D01*
X56621Y19455D01*
X56611Y19410D01*
X56597Y19365D01*
X56583Y19319D01*
X56564Y19274D01*
X56562Y19272D01*
X56560Y19264D01*
X56554Y19251D01*
X56546Y19233D01*
X56538Y19213D01*
X56526Y19188D01*
X56512Y19162D01*
X56497Y19131D01*
X56481Y19099D01*
X56463Y19066D01*
X56422Y18995D01*
X56375Y18922D01*
X56324Y18853D01*
X56200D01*
Y18855D01*
X56204Y18859D01*
X56208Y18865D01*
X56213Y18873D01*
X56219Y18885D01*
X56227Y18897D01*
X56235Y18914D01*
X56245Y18932D01*
X56267Y18973D01*
X56292Y19024D01*
X56316Y19078D01*
X56345Y19142D01*
X56371Y19209D01*
X56396Y19280D01*
X56420Y19357D01*
X56442Y19437D01*
X56461Y19518D01*
X56475Y19603D01*
X56483Y19689D01*
X56487Y19776D01*
Y19778D01*
Y19784D01*
Y19795D01*
Y19807D01*
X56485Y19823D01*
Y19843D01*
X56483Y19864D01*
X56481Y19888D01*
X56479Y19915D01*
X56477Y19943D01*
X56469Y20002D01*
X56459Y20067D01*
X56444Y20134D01*
Y20136D01*
X56442Y20140D01*
X56440Y20149D01*
X56438Y20159D01*
X56434Y20171D01*
X56430Y20187D01*
X56420Y20224D01*
X56408Y20265D01*
X56392Y20311D01*
X56373Y20362D01*
X56353Y20411D01*
Y20413D01*
X56351Y20415D01*
X56349Y20421D01*
X56345Y20427D01*
X56341Y20438D01*
X56335Y20450D01*
X56328Y20462D01*
X56320Y20480D01*
X56310Y20499D01*
X56300Y20519D01*
X56288Y20543D01*
X56274Y20570D01*
X56257Y20598D01*
X56241Y20629D01*
X56221Y20663D01*
X56200Y20700D01*
X56324D01*
X56326Y20698D01*
D02*
G37*
G36*
X54912D02*
X54910Y20692D01*
X54904Y20682D01*
X54896Y20667D01*
X54886Y20651D01*
X54876Y20631D01*
X54851Y20588D01*
X54825Y20541D01*
X54801Y20495D01*
X54776Y20450D01*
X54768Y20431D01*
X54760Y20413D01*
Y20411D01*
X54758Y20407D01*
X54754Y20401D01*
X54750Y20391D01*
X54746Y20379D01*
X54740Y20364D01*
X54733Y20348D01*
X54727Y20330D01*
X54711Y20287D01*
X54697Y20240D01*
X54683Y20189D01*
X54668Y20136D01*
Y20134D01*
X54666Y20128D01*
X54664Y20118D01*
X54662Y20106D01*
X54658Y20090D01*
X54656Y20069D01*
X54652Y20049D01*
X54648Y20025D01*
X54644Y19998D01*
X54640Y19970D01*
X54634Y19909D01*
X54630Y19843D01*
X54628Y19776D01*
Y19774D01*
Y19770D01*
Y19764D01*
Y19756D01*
X54630Y19744D01*
Y19732D01*
X54632Y19715D01*
Y19697D01*
X54636Y19654D01*
X54642Y19605D01*
X54652Y19548D01*
X54664Y19487D01*
X54678Y19420D01*
X54697Y19347D01*
X54721Y19270D01*
X54750Y19190D01*
X54782Y19109D01*
X54819Y19024D01*
X54864Y18938D01*
X54914Y18853D01*
X54790D01*
X54788Y18855D01*
X54784Y18861D01*
X54776Y18871D01*
X54766Y18885D01*
X54754Y18901D01*
X54740Y18922D01*
X54723Y18946D01*
X54707Y18973D01*
X54687Y19003D01*
X54668Y19036D01*
X54648Y19070D01*
X54628Y19107D01*
X54607Y19146D01*
X54587Y19186D01*
X54548Y19274D01*
X54546Y19276D01*
X54544Y19284D01*
X54540Y19298D01*
X54534Y19317D01*
X54526Y19339D01*
X54518Y19363D01*
X54510Y19394D01*
X54499Y19428D01*
X54491Y19463D01*
X54481Y19504D01*
X54473Y19544D01*
X54467Y19587D01*
X54455Y19681D01*
X54453Y19727D01*
X54451Y19776D01*
Y19778D01*
Y19786D01*
Y19799D01*
X54453Y19815D01*
Y19835D01*
X54455Y19860D01*
X54457Y19886D01*
X54461Y19917D01*
X54463Y19949D01*
X54469Y19984D01*
X54481Y20057D01*
X54499Y20134D01*
X54524Y20214D01*
X54526Y20216D01*
X54528Y20224D01*
X54532Y20238D01*
X54540Y20256D01*
X54548Y20277D01*
X54560Y20303D01*
X54575Y20334D01*
X54589Y20366D01*
X54607Y20401D01*
X54626Y20440D01*
X54648Y20480D01*
X54672Y20521D01*
X54699Y20566D01*
X54727Y20610D01*
X54758Y20655D01*
X54790Y20700D01*
X54914D01*
X54912Y20698D01*
D02*
G37*
G36*
X47255Y15658D02*
X47268D01*
X47283Y15656D01*
X47318Y15649D01*
X47357Y15640D01*
X47398Y15625D01*
X47439Y15603D01*
X47459Y15590D01*
X47478Y15575D01*
X47479Y15573D01*
X47481Y15571D01*
X47487Y15566D01*
X47492Y15560D01*
X47502Y15551D01*
X47509Y15540D01*
X47529Y15514D01*
X47550Y15480D01*
X47568Y15440D01*
X47585Y15393D01*
X47596Y15342D01*
X47439Y15329D01*
Y15330D01*
X47437Y15332D01*
X47435Y15343D01*
X47429Y15360D01*
X47422Y15380D01*
X47415Y15403D01*
X47404Y15425D01*
X47391Y15445D01*
X47378Y15462D01*
X47374Y15466D01*
X47367Y15473D01*
X47354Y15484D01*
X47335Y15497D01*
X47311Y15508D01*
X47285Y15519D01*
X47254Y15527D01*
X47220Y15530D01*
X47207D01*
X47192Y15529D01*
X47176Y15525D01*
X47154Y15519D01*
X47131Y15512D01*
X47109Y15503D01*
X47087Y15488D01*
X47083Y15486D01*
X47074Y15479D01*
X47061Y15466D01*
X47044Y15447D01*
X47026Y15425D01*
X47005Y15399D01*
X46987Y15366D01*
X46968Y15329D01*
Y15327D01*
X46967Y15323D01*
X46965Y15317D01*
X46961Y15310D01*
X46959Y15299D01*
X46955Y15286D01*
X46952Y15271D01*
X46948Y15253D01*
X46942Y15232D01*
X46939Y15210D01*
X46935Y15186D01*
X46933Y15160D01*
X46930Y15130D01*
X46928Y15101D01*
X46926Y15067D01*
Y15034D01*
X46928Y15036D01*
X46935Y15047D01*
X46948Y15062D01*
X46965Y15080D01*
X46983Y15103D01*
X47007Y15123D01*
X47033Y15143D01*
X47063Y15162D01*
X47065D01*
X47067Y15164D01*
X47078Y15169D01*
X47094Y15175D01*
X47117Y15184D01*
X47142Y15192D01*
X47172Y15197D01*
X47204Y15203D01*
X47237Y15204D01*
X47252D01*
X47263Y15203D01*
X47278Y15201D01*
X47292Y15199D01*
X47311Y15195D01*
X47329Y15190D01*
X47372Y15177D01*
X47394Y15167D01*
X47417Y15155D01*
X47439Y15142D01*
X47463Y15127D01*
X47485Y15108D01*
X47505Y15088D01*
X47507Y15086D01*
X47511Y15082D01*
X47516Y15077D01*
X47522Y15067D01*
X47531Y15055D01*
X47541Y15042D01*
X47550Y15025D01*
X47561Y15006D01*
X47572Y14986D01*
X47581Y14964D01*
X47591Y14938D01*
X47600Y14912D01*
X47605Y14884D01*
X47611Y14853D01*
X47615Y14821D01*
X47616Y14788D01*
Y14786D01*
Y14782D01*
Y14777D01*
Y14767D01*
X47615Y14756D01*
Y14745D01*
X47609Y14716D01*
X47604Y14680D01*
X47594Y14643D01*
X47581Y14603D01*
X47563Y14564D01*
Y14562D01*
X47561Y14560D01*
X47557Y14555D01*
X47554Y14547D01*
X47542Y14529D01*
X47526Y14505D01*
X47505Y14479D01*
X47481Y14453D01*
X47452Y14427D01*
X47420Y14405D01*
X47418D01*
X47417Y14403D01*
X47411Y14399D01*
X47404Y14397D01*
X47385Y14388D01*
X47361Y14379D01*
X47329Y14368D01*
X47294Y14360D01*
X47255Y14353D01*
X47213Y14351D01*
X47204D01*
X47194Y14353D01*
X47180D01*
X47163Y14355D01*
X47144Y14358D01*
X47122Y14364D01*
X47100Y14369D01*
X47074Y14377D01*
X47048Y14386D01*
X47022Y14397D01*
X46994Y14412D01*
X46968Y14429D01*
X46942Y14447D01*
X46917Y14469D01*
X46892Y14495D01*
X46891Y14497D01*
X46887Y14503D01*
X46881Y14510D01*
X46874Y14523D01*
X46863Y14540D01*
X46854Y14558D01*
X46842Y14582D01*
X46831Y14608D01*
X46818Y14640D01*
X46807Y14675D01*
X46798Y14714D01*
X46789Y14756D01*
X46780Y14805D01*
X46774Y14856D01*
X46770Y14912D01*
X46768Y14971D01*
Y14973D01*
Y14975D01*
Y14980D01*
Y14988D01*
X46770Y15006D01*
Y15032D01*
X46772Y15062D01*
X46776Y15097D01*
X46780Y15136D01*
X46785Y15179D01*
X46792Y15221D01*
X46802Y15267D01*
X46813Y15312D01*
X46826Y15356D01*
X46842Y15399D01*
X46861Y15440D01*
X46881Y15479D01*
X46905Y15512D01*
X46907Y15514D01*
X46911Y15517D01*
X46918Y15525D01*
X46928Y15536D01*
X46939Y15547D01*
X46954Y15558D01*
X46972Y15573D01*
X46991Y15586D01*
X47013Y15599D01*
X47037Y15614D01*
X47065Y15625D01*
X47092Y15638D01*
X47124Y15647D01*
X47157Y15654D01*
X47192Y15658D01*
X47229Y15660D01*
X47244D01*
X47255Y15658D01*
D02*
G37*
G36*
X50829Y14758D02*
X50342D01*
Y14916D01*
X50829D01*
Y14758D01*
D02*
G37*
G36*
X48241D02*
X47754D01*
Y14916D01*
X48241D01*
Y14758D01*
D02*
G37*
G36*
X52546Y14373D02*
X52388D01*
Y15375D01*
X52386Y15373D01*
X52377Y15366D01*
X52366Y15354D01*
X52347Y15342D01*
X52327Y15325D01*
X52301Y15306D01*
X52272Y15286D01*
X52238Y15266D01*
X52236D01*
X52235Y15264D01*
X52223Y15256D01*
X52205Y15247D01*
X52183Y15236D01*
X52157Y15223D01*
X52129Y15210D01*
X52101Y15197D01*
X52073Y15186D01*
Y15338D01*
X52075D01*
X52079Y15342D01*
X52086Y15343D01*
X52096Y15349D01*
X52107Y15354D01*
X52120Y15362D01*
X52151Y15380D01*
X52188Y15401D01*
X52225Y15427D01*
X52264Y15456D01*
X52303Y15488D01*
X52305Y15490D01*
X52307Y15491D01*
X52312Y15497D01*
X52320Y15503D01*
X52336Y15521D01*
X52359Y15543D01*
X52381Y15569D01*
X52405Y15599D01*
X52425Y15629D01*
X52444Y15660D01*
X52546D01*
Y14373D01*
D02*
G37*
G36*
X51412Y15658D02*
X51427Y15656D01*
X51446Y15654D01*
X51466Y15651D01*
X51486Y15647D01*
X51535Y15634D01*
X51583Y15616D01*
X51607Y15604D01*
X51631Y15591D01*
X51653Y15575D01*
X51673Y15556D01*
X51675Y15554D01*
X51679Y15553D01*
X51683Y15545D01*
X51690Y15538D01*
X51699Y15529D01*
X51709Y15516D01*
X51718Y15503D01*
X51729Y15486D01*
X51748Y15451D01*
X51766Y15406D01*
X51773Y15384D01*
X51777Y15358D01*
X51781Y15332D01*
X51783Y15304D01*
Y15301D01*
Y15292D01*
X51781Y15277D01*
X51779Y15256D01*
X51775Y15234D01*
X51768Y15208D01*
X51761Y15180D01*
X51749Y15153D01*
X51748Y15149D01*
X51744Y15140D01*
X51736Y15125D01*
X51725Y15104D01*
X51711Y15082D01*
X51692Y15055D01*
X51670Y15027D01*
X51644Y14995D01*
X51640Y14992D01*
X51631Y14980D01*
X51622Y14971D01*
X51612Y14962D01*
X51601Y14951D01*
X51586Y14936D01*
X51572Y14921D01*
X51553Y14905D01*
X51535Y14886D01*
X51512Y14866D01*
X51488Y14845D01*
X51462Y14821D01*
X51433Y14797D01*
X51403Y14771D01*
X51401Y14769D01*
X51398Y14766D01*
X51390Y14760D01*
X51381Y14753D01*
X51370Y14742D01*
X51357Y14730D01*
X51327Y14706D01*
X51296Y14679D01*
X51266Y14651D01*
X51240Y14627D01*
X51229Y14618D01*
X51220Y14608D01*
X51218Y14606D01*
X51212Y14601D01*
X51205Y14593D01*
X51196Y14582D01*
X51186Y14569D01*
X51175Y14556D01*
X51153Y14525D01*
X51785D01*
Y14373D01*
X50935D01*
Y14375D01*
Y14382D01*
Y14393D01*
X50937Y14408D01*
X50938Y14425D01*
X50942Y14443D01*
X50946Y14462D01*
X50953Y14482D01*
Y14484D01*
X50955Y14486D01*
X50959Y14497D01*
X50966Y14514D01*
X50977Y14536D01*
X50992Y14562D01*
X51011Y14592D01*
X51031Y14621D01*
X51057Y14653D01*
Y14655D01*
X51061Y14656D01*
X51070Y14668D01*
X51086Y14684D01*
X51111Y14708D01*
X51138Y14736D01*
X51174Y14769D01*
X51216Y14806D01*
X51262Y14845D01*
X51264Y14847D01*
X51272Y14853D01*
X51283Y14862D01*
X51296Y14873D01*
X51312Y14888D01*
X51333Y14905D01*
X51353Y14923D01*
X51377Y14943D01*
X51424Y14988D01*
X51470Y15032D01*
X51492Y15055D01*
X51512Y15077D01*
X51531Y15097D01*
X51546Y15117D01*
Y15119D01*
X51549Y15121D01*
X51553Y15127D01*
X51557Y15134D01*
X51570Y15155D01*
X51585Y15179D01*
X51598Y15208D01*
X51611Y15240D01*
X51618Y15275D01*
X51622Y15308D01*
Y15310D01*
Y15312D01*
X51620Y15323D01*
X51618Y15342D01*
X51612Y15362D01*
X51605Y15388D01*
X51592Y15414D01*
X51575Y15440D01*
X51553Y15466D01*
X51549Y15469D01*
X51540Y15477D01*
X51527Y15486D01*
X51507Y15499D01*
X51481Y15510D01*
X51451Y15521D01*
X51416Y15529D01*
X51377Y15530D01*
X51366D01*
X51359Y15529D01*
X51336Y15527D01*
X51311Y15521D01*
X51283Y15514D01*
X51251Y15501D01*
X51222Y15484D01*
X51194Y15462D01*
X51190Y15458D01*
X51183Y15449D01*
X51172Y15434D01*
X51161Y15412D01*
X51148Y15386D01*
X51137Y15353D01*
X51129Y15316D01*
X51125Y15273D01*
X50964Y15290D01*
Y15292D01*
X50966Y15297D01*
Y15306D01*
X50968Y15319D01*
X50972Y15334D01*
X50975Y15351D01*
X50981Y15371D01*
X50987Y15392D01*
X51001Y15436D01*
X51024Y15480D01*
X51037Y15503D01*
X51053Y15525D01*
X51070Y15545D01*
X51088Y15564D01*
X51090Y15566D01*
X51094Y15567D01*
X51099Y15573D01*
X51109Y15579D01*
X51120Y15586D01*
X51133Y15593D01*
X51148Y15603D01*
X51166Y15612D01*
X51186Y15621D01*
X51209Y15630D01*
X51233Y15638D01*
X51259Y15645D01*
X51286Y15651D01*
X51316Y15656D01*
X51348Y15658D01*
X51381Y15660D01*
X51399D01*
X51412Y15658D01*
D02*
G37*
G36*
X49820D02*
X49835Y15656D01*
X49853Y15654D01*
X49874Y15651D01*
X49894Y15647D01*
X49942Y15634D01*
X49990Y15616D01*
X50014Y15604D01*
X50038Y15591D01*
X50061Y15575D01*
X50081Y15556D01*
X50083Y15554D01*
X50087Y15553D01*
X50090Y15545D01*
X50098Y15538D01*
X50107Y15529D01*
X50116Y15516D01*
X50125Y15503D01*
X50137Y15486D01*
X50155Y15451D01*
X50174Y15406D01*
X50181Y15384D01*
X50185Y15358D01*
X50188Y15332D01*
X50190Y15304D01*
Y15301D01*
Y15292D01*
X50188Y15277D01*
X50187Y15256D01*
X50183Y15234D01*
X50175Y15208D01*
X50168Y15180D01*
X50157Y15153D01*
X50155Y15149D01*
X50151Y15140D01*
X50144Y15125D01*
X50133Y15104D01*
X50118Y15082D01*
X50100Y15055D01*
X50077Y15027D01*
X50051Y14995D01*
X50048Y14992D01*
X50038Y14980D01*
X50029Y14971D01*
X50020Y14962D01*
X50009Y14951D01*
X49994Y14936D01*
X49979Y14921D01*
X49961Y14905D01*
X49942Y14886D01*
X49920Y14866D01*
X49896Y14845D01*
X49870Y14821D01*
X49840Y14797D01*
X49811Y14771D01*
X49809Y14769D01*
X49805Y14766D01*
X49798Y14760D01*
X49788Y14753D01*
X49777Y14742D01*
X49764Y14730D01*
X49735Y14706D01*
X49703Y14679D01*
X49674Y14651D01*
X49648Y14627D01*
X49637Y14618D01*
X49627Y14608D01*
X49626Y14606D01*
X49620Y14601D01*
X49613Y14593D01*
X49603Y14582D01*
X49594Y14569D01*
X49583Y14556D01*
X49561Y14525D01*
X50192D01*
Y14373D01*
X49342D01*
Y14375D01*
Y14382D01*
Y14393D01*
X49344Y14408D01*
X49346Y14425D01*
X49350Y14443D01*
X49353Y14462D01*
X49361Y14482D01*
Y14484D01*
X49363Y14486D01*
X49366Y14497D01*
X49374Y14514D01*
X49385Y14536D01*
X49400Y14562D01*
X49418Y14592D01*
X49439Y14621D01*
X49464Y14653D01*
Y14655D01*
X49468Y14656D01*
X49477Y14668D01*
X49494Y14684D01*
X49518Y14708D01*
X49546Y14736D01*
X49581Y14769D01*
X49624Y14806D01*
X49670Y14845D01*
X49672Y14847D01*
X49679Y14853D01*
X49690Y14862D01*
X49703Y14873D01*
X49720Y14888D01*
X49740Y14905D01*
X49761Y14923D01*
X49785Y14943D01*
X49831Y14988D01*
X49877Y15032D01*
X49900Y15055D01*
X49920Y15077D01*
X49938Y15097D01*
X49953Y15117D01*
Y15119D01*
X49957Y15121D01*
X49961Y15127D01*
X49964Y15134D01*
X49977Y15155D01*
X49992Y15179D01*
X50005Y15208D01*
X50018Y15240D01*
X50026Y15275D01*
X50029Y15308D01*
Y15310D01*
Y15312D01*
X50027Y15323D01*
X50026Y15342D01*
X50020Y15362D01*
X50013Y15388D01*
X50000Y15414D01*
X49983Y15440D01*
X49961Y15466D01*
X49957Y15469D01*
X49948Y15477D01*
X49935Y15486D01*
X49914Y15499D01*
X49888Y15510D01*
X49859Y15521D01*
X49824Y15529D01*
X49785Y15530D01*
X49774D01*
X49766Y15529D01*
X49744Y15527D01*
X49718Y15521D01*
X49690Y15514D01*
X49659Y15501D01*
X49629Y15484D01*
X49601Y15462D01*
X49598Y15458D01*
X49590Y15449D01*
X49579Y15434D01*
X49568Y15412D01*
X49555Y15386D01*
X49544Y15353D01*
X49537Y15316D01*
X49533Y15273D01*
X49372Y15290D01*
Y15292D01*
X49374Y15297D01*
Y15306D01*
X49376Y15319D01*
X49379Y15334D01*
X49383Y15351D01*
X49389Y15371D01*
X49394Y15392D01*
X49409Y15436D01*
X49431Y15480D01*
X49444Y15503D01*
X49461Y15525D01*
X49477Y15545D01*
X49496Y15564D01*
X49498Y15566D01*
X49501Y15567D01*
X49507Y15573D01*
X49516Y15579D01*
X49527Y15586D01*
X49540Y15593D01*
X49555Y15603D01*
X49574Y15612D01*
X49594Y15621D01*
X49616Y15630D01*
X49640Y15638D01*
X49666Y15645D01*
X49694Y15651D01*
X49724Y15656D01*
X49755Y15658D01*
X49788Y15660D01*
X49807D01*
X49820Y15658D01*
D02*
G37*
G36*
X46235D02*
X46250Y15656D01*
X46268Y15654D01*
X46289Y15651D01*
X46309Y15647D01*
X46357Y15634D01*
X46406Y15616D01*
X46430Y15604D01*
X46454Y15591D01*
X46476Y15575D01*
X46496Y15556D01*
X46498Y15554D01*
X46502Y15553D01*
X46506Y15545D01*
X46513Y15538D01*
X46522Y15529D01*
X46531Y15516D01*
X46541Y15503D01*
X46552Y15486D01*
X46570Y15451D01*
X46589Y15406D01*
X46596Y15384D01*
X46600Y15358D01*
X46604Y15332D01*
X46605Y15304D01*
Y15301D01*
Y15292D01*
X46604Y15277D01*
X46602Y15256D01*
X46598Y15234D01*
X46591Y15208D01*
X46583Y15180D01*
X46572Y15153D01*
X46570Y15149D01*
X46567Y15140D01*
X46559Y15125D01*
X46548Y15104D01*
X46533Y15082D01*
X46515Y15055D01*
X46493Y15027D01*
X46467Y14995D01*
X46463Y14992D01*
X46454Y14980D01*
X46444Y14971D01*
X46435Y14962D01*
X46424Y14951D01*
X46409Y14936D01*
X46394Y14921D01*
X46376Y14905D01*
X46357Y14886D01*
X46335Y14866D01*
X46311Y14845D01*
X46285Y14821D01*
X46256Y14797D01*
X46226Y14771D01*
X46224Y14769D01*
X46220Y14766D01*
X46213Y14760D01*
X46204Y14753D01*
X46193Y14742D01*
X46180Y14730D01*
X46150Y14706D01*
X46118Y14679D01*
X46089Y14651D01*
X46063Y14627D01*
X46052Y14618D01*
X46043Y14608D01*
X46041Y14606D01*
X46035Y14601D01*
X46028Y14593D01*
X46019Y14582D01*
X46009Y14569D01*
X45998Y14556D01*
X45976Y14525D01*
X46607D01*
Y14373D01*
X45757D01*
Y14375D01*
Y14382D01*
Y14393D01*
X45759Y14408D01*
X45761Y14425D01*
X45765Y14443D01*
X45769Y14462D01*
X45776Y14482D01*
Y14484D01*
X45778Y14486D01*
X45782Y14497D01*
X45789Y14514D01*
X45800Y14536D01*
X45815Y14562D01*
X45833Y14592D01*
X45854Y14621D01*
X45880Y14653D01*
Y14655D01*
X45883Y14656D01*
X45893Y14668D01*
X45909Y14684D01*
X45933Y14708D01*
X45961Y14736D01*
X45996Y14769D01*
X46039Y14806D01*
X46085Y14845D01*
X46087Y14847D01*
X46094Y14853D01*
X46106Y14862D01*
X46118Y14873D01*
X46135Y14888D01*
X46156Y14905D01*
X46176Y14923D01*
X46200Y14943D01*
X46246Y14988D01*
X46293Y15032D01*
X46315Y15055D01*
X46335Y15077D01*
X46354Y15097D01*
X46368Y15117D01*
Y15119D01*
X46372Y15121D01*
X46376Y15127D01*
X46380Y15134D01*
X46393Y15155D01*
X46407Y15179D01*
X46420Y15208D01*
X46433Y15240D01*
X46441Y15275D01*
X46444Y15308D01*
Y15310D01*
Y15312D01*
X46443Y15323D01*
X46441Y15342D01*
X46435Y15362D01*
X46428Y15388D01*
X46415Y15414D01*
X46398Y15440D01*
X46376Y15466D01*
X46372Y15469D01*
X46363Y15477D01*
X46350Y15486D01*
X46330Y15499D01*
X46304Y15510D01*
X46274Y15521D01*
X46239Y15529D01*
X46200Y15530D01*
X46189D01*
X46181Y15529D01*
X46159Y15527D01*
X46133Y15521D01*
X46106Y15514D01*
X46074Y15501D01*
X46044Y15484D01*
X46017Y15462D01*
X46013Y15458D01*
X46006Y15449D01*
X45994Y15434D01*
X45983Y15412D01*
X45970Y15386D01*
X45959Y15353D01*
X45952Y15316D01*
X45948Y15273D01*
X45787Y15290D01*
Y15292D01*
X45789Y15297D01*
Y15306D01*
X45791Y15319D01*
X45794Y15334D01*
X45798Y15351D01*
X45804Y15371D01*
X45809Y15392D01*
X45824Y15436D01*
X45846Y15480D01*
X45859Y15503D01*
X45876Y15525D01*
X45893Y15545D01*
X45911Y15564D01*
X45913Y15566D01*
X45917Y15567D01*
X45922Y15573D01*
X45931Y15579D01*
X45943Y15586D01*
X45956Y15593D01*
X45970Y15603D01*
X45989Y15612D01*
X46009Y15621D01*
X46031Y15630D01*
X46056Y15638D01*
X46081Y15645D01*
X46109Y15651D01*
X46139Y15656D01*
X46170Y15658D01*
X46204Y15660D01*
X46222D01*
X46235Y15658D01*
D02*
G37*
G36*
X44243D02*
X44258Y15656D01*
X44276Y15654D01*
X44296Y15651D01*
X44317Y15647D01*
X44365Y15634D01*
X44413Y15616D01*
X44437Y15604D01*
X44461Y15591D01*
X44483Y15575D01*
X44504Y15556D01*
X44506Y15554D01*
X44509Y15553D01*
X44513Y15545D01*
X44521Y15538D01*
X44530Y15529D01*
X44539Y15516D01*
X44548Y15503D01*
X44559Y15486D01*
X44578Y15451D01*
X44596Y15406D01*
X44604Y15384D01*
X44608Y15358D01*
X44611Y15332D01*
X44613Y15304D01*
Y15301D01*
Y15292D01*
X44611Y15277D01*
X44609Y15256D01*
X44606Y15234D01*
X44598Y15208D01*
X44591Y15180D01*
X44580Y15153D01*
X44578Y15149D01*
X44574Y15140D01*
X44567Y15125D01*
X44556Y15104D01*
X44541Y15082D01*
X44522Y15055D01*
X44500Y15027D01*
X44474Y14995D01*
X44471Y14992D01*
X44461Y14980D01*
X44452Y14971D01*
X44443Y14962D01*
X44432Y14951D01*
X44417Y14936D01*
X44402Y14921D01*
X44383Y14905D01*
X44365Y14886D01*
X44343Y14866D01*
X44319Y14845D01*
X44293Y14821D01*
X44263Y14797D01*
X44234Y14771D01*
X44232Y14769D01*
X44228Y14766D01*
X44221Y14760D01*
X44211Y14753D01*
X44200Y14742D01*
X44187Y14730D01*
X44158Y14706D01*
X44126Y14679D01*
X44096Y14651D01*
X44071Y14627D01*
X44059Y14618D01*
X44050Y14608D01*
X44048Y14606D01*
X44043Y14601D01*
X44035Y14593D01*
X44026Y14582D01*
X44017Y14569D01*
X44006Y14556D01*
X43984Y14525D01*
X44615D01*
Y14373D01*
X43765D01*
Y14375D01*
Y14382D01*
Y14393D01*
X43767Y14408D01*
X43769Y14425D01*
X43772Y14443D01*
X43776Y14462D01*
X43784Y14482D01*
Y14484D01*
X43785Y14486D01*
X43789Y14497D01*
X43797Y14514D01*
X43808Y14536D01*
X43822Y14562D01*
X43841Y14592D01*
X43861Y14621D01*
X43887Y14653D01*
Y14655D01*
X43891Y14656D01*
X43900Y14668D01*
X43917Y14684D01*
X43941Y14708D01*
X43969Y14736D01*
X44004Y14769D01*
X44046Y14806D01*
X44093Y14845D01*
X44095Y14847D01*
X44102Y14853D01*
X44113Y14862D01*
X44126Y14873D01*
X44143Y14888D01*
X44163Y14905D01*
X44184Y14923D01*
X44208Y14943D01*
X44254Y14988D01*
X44300Y15032D01*
X44322Y15055D01*
X44343Y15077D01*
X44361Y15097D01*
X44376Y15117D01*
Y15119D01*
X44380Y15121D01*
X44383Y15127D01*
X44387Y15134D01*
X44400Y15155D01*
X44415Y15179D01*
X44428Y15208D01*
X44441Y15240D01*
X44448Y15275D01*
X44452Y15308D01*
Y15310D01*
Y15312D01*
X44450Y15323D01*
X44448Y15342D01*
X44443Y15362D01*
X44435Y15388D01*
X44422Y15414D01*
X44406Y15440D01*
X44383Y15466D01*
X44380Y15469D01*
X44371Y15477D01*
X44358Y15486D01*
X44337Y15499D01*
X44311Y15510D01*
X44282Y15521D01*
X44246Y15529D01*
X44208Y15530D01*
X44196D01*
X44189Y15529D01*
X44167Y15527D01*
X44141Y15521D01*
X44113Y15514D01*
X44082Y15501D01*
X44052Y15484D01*
X44024Y15462D01*
X44021Y15458D01*
X44013Y15449D01*
X44002Y15434D01*
X43991Y15412D01*
X43978Y15386D01*
X43967Y15353D01*
X43959Y15316D01*
X43956Y15273D01*
X43795Y15290D01*
Y15292D01*
X43797Y15297D01*
Y15306D01*
X43798Y15319D01*
X43802Y15334D01*
X43806Y15351D01*
X43811Y15371D01*
X43817Y15392D01*
X43832Y15436D01*
X43854Y15480D01*
X43867Y15503D01*
X43884Y15525D01*
X43900Y15545D01*
X43919Y15564D01*
X43921Y15566D01*
X43924Y15567D01*
X43930Y15573D01*
X43939Y15579D01*
X43950Y15586D01*
X43963Y15593D01*
X43978Y15603D01*
X43996Y15612D01*
X44017Y15621D01*
X44039Y15630D01*
X44063Y15638D01*
X44089Y15645D01*
X44117Y15651D01*
X44146Y15656D01*
X44178Y15658D01*
X44211Y15660D01*
X44230D01*
X44243Y15658D01*
D02*
G37*
G36*
X48824D02*
X48848Y15654D01*
X48876Y15649D01*
X48905Y15641D01*
X48937Y15632D01*
X48966Y15617D01*
X48968D01*
X48970Y15616D01*
X48979Y15610D01*
X48994Y15601D01*
X49013Y15588D01*
X49033Y15569D01*
X49055Y15549D01*
X49076Y15525D01*
X49096Y15497D01*
X49098Y15493D01*
X49105Y15484D01*
X49113Y15467D01*
X49126Y15443D01*
X49137Y15416D01*
X49152Y15384D01*
X49164Y15347D01*
X49176Y15306D01*
Y15304D01*
X49177Y15301D01*
X49179Y15295D01*
X49181Y15286D01*
X49183Y15275D01*
X49185Y15262D01*
X49189Y15245D01*
X49190Y15227D01*
X49194Y15206D01*
X49196Y15184D01*
X49198Y15158D01*
X49202Y15132D01*
X49203Y15103D01*
Y15073D01*
X49205Y15040D01*
Y15005D01*
Y15003D01*
Y14995D01*
Y14982D01*
Y14967D01*
X49203Y14947D01*
Y14925D01*
X49202Y14901D01*
X49200Y14875D01*
X49194Y14816D01*
X49185Y14755D01*
X49174Y14695D01*
X49166Y14668D01*
X49157Y14640D01*
Y14638D01*
X49155Y14634D01*
X49152Y14627D01*
X49148Y14618D01*
X49144Y14605D01*
X49137Y14592D01*
X49122Y14560D01*
X49103Y14527D01*
X49079Y14490D01*
X49052Y14456D01*
X49018Y14425D01*
X49016D01*
X49014Y14421D01*
X49009Y14418D01*
X49002Y14414D01*
X48992Y14408D01*
X48983Y14401D01*
X48955Y14388D01*
X48922Y14375D01*
X48883Y14362D01*
X48837Y14355D01*
X48787Y14351D01*
X48768D01*
X48755Y14353D01*
X48740Y14355D01*
X48722Y14358D01*
X48702Y14362D01*
X48679Y14368D01*
X48657Y14375D01*
X48633Y14382D01*
X48609Y14393D01*
X48585Y14406D01*
X48561Y14421D01*
X48537Y14440D01*
X48515Y14460D01*
X48494Y14482D01*
X48492Y14484D01*
X48489Y14490D01*
X48483Y14499D01*
X48474Y14514D01*
X48465Y14530D01*
X48455Y14553D01*
X48442Y14579D01*
X48431Y14608D01*
X48420Y14642D01*
X48409Y14680D01*
X48398Y14723D01*
X48389Y14771D01*
X48379Y14823D01*
X48374Y14879D01*
X48370Y14940D01*
X48368Y15005D01*
Y15006D01*
Y15014D01*
Y15027D01*
Y15042D01*
X48370Y15062D01*
Y15084D01*
X48372Y15108D01*
X48374Y15136D01*
X48379Y15193D01*
X48389Y15254D01*
X48400Y15316D01*
X48407Y15343D01*
X48415Y15371D01*
Y15373D01*
X48416Y15377D01*
X48420Y15384D01*
X48424Y15393D01*
X48428Y15406D01*
X48435Y15419D01*
X48450Y15451D01*
X48468Y15484D01*
X48492Y15519D01*
X48520Y15554D01*
X48553Y15584D01*
X48555D01*
X48557Y15588D01*
X48563Y15591D01*
X48570Y15595D01*
X48579Y15603D01*
X48590Y15608D01*
X48618Y15623D01*
X48652Y15636D01*
X48690Y15649D01*
X48737Y15656D01*
X48787Y15660D01*
X48803D01*
X48824Y15658D01*
D02*
G37*
G36*
X45239D02*
X45263Y15654D01*
X45291Y15649D01*
X45320Y15641D01*
X45352Y15632D01*
X45382Y15617D01*
X45383D01*
X45385Y15616D01*
X45395Y15610D01*
X45409Y15601D01*
X45428Y15588D01*
X45448Y15569D01*
X45470Y15549D01*
X45491Y15525D01*
X45511Y15497D01*
X45513Y15493D01*
X45520Y15484D01*
X45528Y15467D01*
X45541Y15443D01*
X45552Y15416D01*
X45567Y15384D01*
X45580Y15347D01*
X45591Y15306D01*
Y15304D01*
X45593Y15301D01*
X45594Y15295D01*
X45596Y15286D01*
X45598Y15275D01*
X45600Y15262D01*
X45604Y15245D01*
X45606Y15227D01*
X45609Y15206D01*
X45611Y15184D01*
X45613Y15158D01*
X45617Y15132D01*
X45619Y15103D01*
Y15073D01*
X45620Y15040D01*
Y15005D01*
Y15003D01*
Y14995D01*
Y14982D01*
Y14967D01*
X45619Y14947D01*
Y14925D01*
X45617Y14901D01*
X45615Y14875D01*
X45609Y14816D01*
X45600Y14755D01*
X45589Y14695D01*
X45582Y14668D01*
X45572Y14640D01*
Y14638D01*
X45570Y14634D01*
X45567Y14627D01*
X45563Y14618D01*
X45559Y14605D01*
X45552Y14592D01*
X45537Y14560D01*
X45519Y14527D01*
X45494Y14490D01*
X45467Y14456D01*
X45433Y14425D01*
X45432D01*
X45430Y14421D01*
X45424Y14418D01*
X45417Y14414D01*
X45407Y14408D01*
X45398Y14401D01*
X45370Y14388D01*
X45337Y14375D01*
X45298Y14362D01*
X45252Y14355D01*
X45202Y14351D01*
X45183D01*
X45170Y14353D01*
X45156Y14355D01*
X45137Y14358D01*
X45117Y14362D01*
X45095Y14368D01*
X45072Y14375D01*
X45048Y14382D01*
X45024Y14393D01*
X45000Y14406D01*
X44976Y14421D01*
X44952Y14440D01*
X44930Y14460D01*
X44909Y14482D01*
X44908Y14484D01*
X44904Y14490D01*
X44898Y14499D01*
X44889Y14514D01*
X44880Y14530D01*
X44870Y14553D01*
X44858Y14579D01*
X44846Y14608D01*
X44835Y14642D01*
X44824Y14680D01*
X44813Y14723D01*
X44804Y14771D01*
X44795Y14823D01*
X44789Y14879D01*
X44785Y14940D01*
X44783Y15005D01*
Y15006D01*
Y15014D01*
Y15027D01*
Y15042D01*
X44785Y15062D01*
Y15084D01*
X44787Y15108D01*
X44789Y15136D01*
X44795Y15193D01*
X44804Y15254D01*
X44815Y15316D01*
X44822Y15343D01*
X44830Y15371D01*
Y15373D01*
X44832Y15377D01*
X44835Y15384D01*
X44839Y15393D01*
X44843Y15406D01*
X44850Y15419D01*
X44865Y15451D01*
X44883Y15484D01*
X44908Y15519D01*
X44935Y15554D01*
X44969Y15584D01*
X44970D01*
X44972Y15588D01*
X44978Y15591D01*
X44985Y15595D01*
X44995Y15603D01*
X45006Y15608D01*
X45033Y15623D01*
X45067Y15636D01*
X45106Y15649D01*
X45152Y15656D01*
X45202Y15660D01*
X45219D01*
X45239Y15658D01*
D02*
G37*
%LPC*%
G36*
X37790Y14576D02*
X37711D01*
Y14537D01*
X37672D01*
Y14458D01*
X37633D01*
Y14419D01*
X37672D01*
Y14301D01*
X37711D01*
Y14262D01*
X37750D01*
Y14301D01*
X37790D01*
Y14576D01*
D02*
G37*
G36*
X36613D02*
X36495D01*
Y14301D01*
X36613D01*
Y14419D01*
Y14458D01*
Y14576D01*
D02*
G37*
G36*
X37201D02*
X37084D01*
Y14537D01*
X37044D01*
Y14498D01*
X37084D01*
Y14458D01*
X37201D01*
Y14576D01*
D02*
G37*
G36*
X36064D02*
X35907D01*
Y14458D01*
X36064D01*
Y14576D01*
D02*
G37*
G36*
X40299D02*
X40182D01*
Y14537D01*
Y14301D01*
X40221D01*
Y14262D01*
X40260D01*
Y14301D01*
X40299D01*
Y14341D01*
X40339D01*
Y14498D01*
X40299D01*
Y14576D01*
D02*
G37*
G36*
X41469Y14572D02*
X41352D01*
Y14533D01*
Y14493D01*
Y14297D01*
X41391D01*
Y14258D01*
X41430D01*
Y14297D01*
X41469D01*
Y14376D01*
X41508D01*
Y14454D01*
X41469D01*
Y14572D01*
D02*
G37*
G36*
X46583Y17737D02*
X46204D01*
Y17256D01*
X46597D01*
X46627Y17258D01*
X46660Y17260D01*
X46692Y17263D01*
X46724Y17267D01*
X46750Y17272D01*
X46754Y17274D01*
X46764Y17276D01*
X46778Y17283D01*
X46796Y17293D01*
X46815Y17302D01*
X46835Y17316D01*
X46856Y17334D01*
X46872Y17353D01*
X46875Y17355D01*
X46879Y17362D01*
X46886Y17376D01*
X46893Y17392D01*
X46900Y17411D01*
X46907Y17434D01*
X46912Y17462D01*
X46914Y17492D01*
Y17496D01*
Y17506D01*
X46912Y17519D01*
X46909Y17538D01*
X46905Y17561D01*
X46898Y17584D01*
X46889Y17607D01*
X46875Y17631D01*
X46872Y17633D01*
X46868Y17640D01*
X46859Y17651D01*
X46847Y17663D01*
X46831Y17677D01*
X46812Y17691D01*
X46789Y17705D01*
X46764Y17714D01*
X46761D01*
X46750Y17718D01*
X46734Y17721D01*
X46708Y17725D01*
X46673Y17730D01*
X46634Y17732D01*
X46583Y17737D01*
D02*
G37*
G36*
X46625Y17066D02*
X46204D01*
Y16515D01*
X46660D01*
X46708Y16518D01*
X46729Y16520D01*
X46748Y16522D01*
X46750D01*
X46759Y16524D01*
X46773Y16527D01*
X46789Y16531D01*
X46828Y16545D01*
X46868Y16564D01*
X46870Y16566D01*
X46877Y16571D01*
X46886Y16578D01*
X46898Y16587D01*
X46909Y16601D01*
X46926Y16615D01*
X46937Y16633D01*
X46951Y16654D01*
X46953Y16656D01*
X46956Y16663D01*
X46960Y16677D01*
X46967Y16693D01*
X46974Y16712D01*
X46979Y16735D01*
X46981Y16763D01*
X46984Y16791D01*
Y16795D01*
Y16804D01*
X46981Y16823D01*
X46977Y16844D01*
X46972Y16867D01*
X46963Y16892D01*
X46951Y16918D01*
X46935Y16943D01*
X46933Y16946D01*
X46926Y16955D01*
X46916Y16966D01*
X46903Y16980D01*
X46884Y16997D01*
X46861Y17013D01*
X46835Y17027D01*
X46805Y17038D01*
X46801Y17040D01*
X46791Y17043D01*
X46771Y17047D01*
X46745Y17052D01*
X46713Y17057D01*
X46673Y17061D01*
X46625Y17066D01*
D02*
G37*
G36*
X42117Y17749D02*
X41613D01*
Y17219D01*
X42090D01*
X42117Y17221D01*
X42150Y17223D01*
X42187Y17226D01*
X42224Y17230D01*
X42261Y17237D01*
X42293Y17246D01*
X42298Y17249D01*
X42307Y17253D01*
X42321Y17260D01*
X42339Y17270D01*
X42360Y17283D01*
X42381Y17300D01*
X42402Y17320D01*
X42418Y17344D01*
X42420Y17346D01*
X42425Y17355D01*
X42432Y17369D01*
X42441Y17388D01*
X42448Y17408D01*
X42455Y17432D01*
X42460Y17459D01*
X42462Y17487D01*
Y17489D01*
Y17492D01*
X42460Y17506D01*
X42457Y17526D01*
X42453Y17554D01*
X42441Y17582D01*
X42427Y17614D01*
X42407Y17644D01*
X42379Y17674D01*
X42374Y17677D01*
X42363Y17686D01*
X42344Y17698D01*
X42314Y17712D01*
X42279Y17725D01*
X42233Y17737D01*
X42180Y17746D01*
X42117Y17749D01*
D02*
G37*
G36*
X43464Y17351D02*
X43450D01*
X43441Y17348D01*
X43415Y17346D01*
X43385Y17339D01*
X43348Y17327D01*
X43309Y17311D01*
X43272Y17288D01*
X43235Y17258D01*
X43230Y17253D01*
X43221Y17242D01*
X43205Y17221D01*
X43189Y17193D01*
X43170Y17161D01*
X43154Y17119D01*
X43140Y17071D01*
X43133Y17017D01*
X43783D01*
Y17020D01*
Y17024D01*
X43781Y17031D01*
Y17040D01*
X43776Y17068D01*
X43769Y17098D01*
X43758Y17135D01*
X43746Y17170D01*
X43728Y17205D01*
X43707Y17235D01*
Y17237D01*
X43702Y17239D01*
X43691Y17253D01*
X43670Y17272D01*
X43642Y17293D01*
X43607Y17314D01*
X43566Y17332D01*
X43517Y17346D01*
X43492Y17348D01*
X43464Y17351D01*
D02*
G37*
G36*
X46744Y20169D02*
X46734D01*
X46725Y20167D01*
X46703Y20165D01*
X46677Y20157D01*
X46646Y20147D01*
X46614Y20128D01*
X46581Y20106D01*
X46565Y20090D01*
X46550Y20073D01*
Y20071D01*
X46546Y20069D01*
X46544Y20063D01*
X46538Y20055D01*
X46532Y20045D01*
X46526Y20033D01*
X46520Y20018D01*
X46512Y20002D01*
X46504Y19982D01*
X46498Y19959D01*
X46491Y19935D01*
X46485Y19909D01*
X46481Y19880D01*
X46477Y19848D01*
X46473Y19813D01*
Y19776D01*
Y19774D01*
Y19768D01*
Y19758D01*
X46475Y19744D01*
Y19727D01*
X46477Y19709D01*
X46483Y19666D01*
X46494Y19620D01*
X46508Y19571D01*
X46528Y19524D01*
X46540Y19504D01*
X46555Y19483D01*
X46557D01*
X46559Y19479D01*
X46569Y19469D01*
X46587Y19453D01*
X46609Y19437D01*
X46638Y19418D01*
X46673Y19402D01*
X46709Y19392D01*
X46730Y19390D01*
X46750Y19388D01*
X46760D01*
X46768Y19390D01*
X46791Y19392D01*
X46817Y19400D01*
X46848Y19410D01*
X46880Y19426D01*
X46913Y19449D01*
X46929Y19463D01*
X46943Y19479D01*
Y19481D01*
X46947Y19483D01*
X46951Y19489D01*
X46955Y19498D01*
X46961Y19508D01*
X46970Y19518D01*
X46976Y19534D01*
X46984Y19550D01*
X46992Y19569D01*
X46998Y19589D01*
X47006Y19614D01*
X47012Y19638D01*
X47016Y19666D01*
X47020Y19695D01*
X47025Y19727D01*
Y19762D01*
Y19764D01*
Y19772D01*
Y19782D01*
X47022Y19797D01*
Y19813D01*
X47020Y19833D01*
X47018Y19856D01*
X47014Y19880D01*
X47004Y19929D01*
X46990Y19980D01*
X46970Y20029D01*
X46957Y20049D01*
X46943Y20069D01*
Y20071D01*
X46939Y20073D01*
X46929Y20086D01*
X46911Y20102D01*
X46888Y20120D01*
X46860Y20138D01*
X46825Y20153D01*
X46786Y20165D01*
X46766Y20167D01*
X46744Y20169D01*
D02*
G37*
G36*
X53238D02*
X53226D01*
X53218Y20167D01*
X53195Y20165D01*
X53169Y20159D01*
X53136Y20149D01*
X53102Y20134D01*
X53069Y20114D01*
X53037Y20088D01*
X53033Y20084D01*
X53024Y20073D01*
X53010Y20055D01*
X52996Y20031D01*
X52980Y20002D01*
X52965Y19966D01*
X52953Y19923D01*
X52947Y19876D01*
X53519D01*
Y19878D01*
Y19882D01*
X53517Y19888D01*
Y19896D01*
X53513Y19921D01*
X53507Y19947D01*
X53496Y19980D01*
X53486Y20010D01*
X53470Y20041D01*
X53452Y20067D01*
Y20069D01*
X53448Y20071D01*
X53437Y20084D01*
X53419Y20100D01*
X53395Y20118D01*
X53364Y20136D01*
X53328Y20153D01*
X53285Y20165D01*
X53262Y20167D01*
X53238Y20169D01*
D02*
G37*
G36*
X47875D02*
X47863D01*
X47855Y20167D01*
X47832Y20165D01*
X47806Y20159D01*
X47773Y20149D01*
X47739Y20134D01*
X47706Y20114D01*
X47674Y20088D01*
X47669Y20084D01*
X47661Y20073D01*
X47647Y20055D01*
X47633Y20031D01*
X47617Y20002D01*
X47602Y19966D01*
X47590Y19923D01*
X47584Y19876D01*
X48156D01*
Y19878D01*
Y19882D01*
X48154Y19888D01*
Y19896D01*
X48150Y19921D01*
X48144Y19947D01*
X48133Y19980D01*
X48123Y20010D01*
X48107Y20041D01*
X48089Y20067D01*
Y20069D01*
X48085Y20071D01*
X48074Y20084D01*
X48056Y20100D01*
X48032Y20118D01*
X48001Y20136D01*
X47964Y20153D01*
X47922Y20165D01*
X47899Y20167D01*
X47875Y20169D01*
D02*
G37*
G36*
X43389D02*
X43377D01*
X43368Y20167D01*
X43346Y20165D01*
X43320Y20159D01*
X43287Y20149D01*
X43252Y20134D01*
X43220Y20114D01*
X43187Y20088D01*
X43183Y20084D01*
X43175Y20073D01*
X43161Y20055D01*
X43147Y20031D01*
X43130Y20002D01*
X43116Y19966D01*
X43104Y19923D01*
X43098Y19876D01*
X43670D01*
Y19878D01*
Y19882D01*
X43668Y19888D01*
Y19896D01*
X43663Y19921D01*
X43657Y19947D01*
X43647Y19980D01*
X43637Y20010D01*
X43621Y20041D01*
X43602Y20067D01*
Y20069D01*
X43598Y20071D01*
X43588Y20084D01*
X43570Y20100D01*
X43545Y20118D01*
X43515Y20136D01*
X43478Y20153D01*
X43436Y20165D01*
X43413Y20167D01*
X43389Y20169D01*
D02*
G37*
G36*
X51039D02*
X51006D01*
X50998Y20167D01*
X50976Y20165D01*
X50949Y20157D01*
X50917Y20147D01*
X50884Y20128D01*
X50852Y20106D01*
X50835Y20090D01*
X50819Y20073D01*
Y20071D01*
X50815Y20069D01*
X50811Y20063D01*
X50807Y20055D01*
X50801Y20047D01*
X50795Y20035D01*
X50786Y20020D01*
X50780Y20004D01*
X50772Y19986D01*
X50764Y19963D01*
X50758Y19941D01*
X50752Y19917D01*
X50748Y19888D01*
X50744Y19860D01*
X50740Y19829D01*
Y19795D01*
Y19793D01*
Y19786D01*
Y19776D01*
X50742Y19762D01*
Y19746D01*
X50744Y19725D01*
X50750Y19683D01*
X50760Y19634D01*
X50772Y19587D01*
X50792Y19540D01*
X50805Y19520D01*
X50819Y19502D01*
X50823Y19498D01*
X50833Y19487D01*
X50849Y19473D01*
X50874Y19457D01*
X50902Y19439D01*
X50937Y19424D01*
X50976Y19414D01*
X50996Y19412D01*
X51018Y19410D01*
X51031D01*
X51039Y19412D01*
X51061Y19414D01*
X51090Y19422D01*
X51120Y19432D01*
X51155Y19449D01*
X51187Y19471D01*
X51203Y19485D01*
X51220Y19502D01*
Y19504D01*
X51224Y19506D01*
X51228Y19512D01*
X51232Y19520D01*
X51238Y19528D01*
X51246Y19540D01*
X51252Y19555D01*
X51260Y19573D01*
X51269Y19591D01*
X51275Y19612D01*
X51283Y19636D01*
X51289Y19662D01*
X51293Y19689D01*
X51297Y19719D01*
X51301Y19754D01*
Y19789D01*
Y19791D01*
Y19797D01*
Y19807D01*
X51299Y19819D01*
Y19835D01*
X51297Y19854D01*
X51291Y19894D01*
X51281Y19941D01*
X51267Y19988D01*
X51246Y20035D01*
X51232Y20055D01*
X51218Y20073D01*
Y20075D01*
X51214Y20077D01*
X51203Y20088D01*
X51185Y20104D01*
X51161Y20122D01*
X51132Y20138D01*
X51098Y20155D01*
X51059Y20165D01*
X51039Y20169D01*
D02*
G37*
G36*
X47205Y15066D02*
X47194D01*
X47187Y15064D01*
X47168Y15062D01*
X47142Y15056D01*
X47115Y15047D01*
X47083Y15032D01*
X47054Y15014D01*
X47024Y14988D01*
X47020Y14984D01*
X47013Y14975D01*
X47000Y14958D01*
X46987Y14934D01*
X46974Y14906D01*
X46961Y14871D01*
X46954Y14832D01*
X46950Y14788D01*
Y14784D01*
Y14775D01*
X46952Y14758D01*
X46954Y14738D01*
X46957Y14714D01*
X46965Y14688D01*
X46972Y14660D01*
X46983Y14632D01*
X46985Y14629D01*
X46991Y14619D01*
X46998Y14606D01*
X47009Y14590D01*
X47022Y14573D01*
X47039Y14553D01*
X47057Y14536D01*
X47080Y14519D01*
X47083Y14518D01*
X47091Y14514D01*
X47104Y14506D01*
X47120Y14501D01*
X47139Y14493D01*
X47161Y14486D01*
X47185Y14482D01*
X47211Y14480D01*
X47220D01*
X47228Y14482D01*
X47246Y14484D01*
X47270Y14490D01*
X47296Y14501D01*
X47326Y14514D01*
X47355Y14534D01*
X47370Y14545D01*
X47383Y14560D01*
Y14562D01*
X47387Y14564D01*
X47394Y14575D01*
X47405Y14593D01*
X47420Y14618D01*
X47433Y14649D01*
X47444Y14686D01*
X47452Y14729D01*
X47455Y14779D01*
Y14780D01*
Y14784D01*
Y14792D01*
X47454Y14801D01*
Y14812D01*
X47452Y14825D01*
X47446Y14855D01*
X47439Y14888D01*
X47426Y14923D01*
X47407Y14956D01*
X47383Y14988D01*
X47379Y14992D01*
X47370Y15001D01*
X47355Y15012D01*
X47335Y15027D01*
X47309Y15042D01*
X47279Y15053D01*
X47244Y15062D01*
X47205Y15066D01*
D02*
G37*
G36*
X48785Y15530D02*
X48774D01*
X48766Y15529D01*
X48746Y15525D01*
X48722Y15519D01*
X48694Y15508D01*
X48665Y15491D01*
X48650Y15480D01*
X48635Y15469D01*
X48622Y15454D01*
X48609Y15438D01*
Y15436D01*
X48605Y15432D01*
X48602Y15425D01*
X48596Y15416D01*
X48590Y15401D01*
X48583Y15384D01*
X48578Y15364D01*
X48570Y15340D01*
X48563Y15312D01*
X48555Y15280D01*
X48548Y15245D01*
X48542Y15206D01*
X48537Y15162D01*
X48533Y15114D01*
X48531Y15062D01*
X48529Y15005D01*
Y15001D01*
Y14992D01*
Y14975D01*
X48531Y14953D01*
Y14929D01*
X48533Y14899D01*
X48535Y14867D01*
X48539Y14834D01*
X48548Y14762D01*
X48553Y14727D01*
X48561Y14693D01*
X48568Y14662D01*
X48579Y14632D01*
X48590Y14606D01*
X48603Y14584D01*
Y14582D01*
X48607Y14580D01*
X48616Y14568D01*
X48633Y14551D01*
X48653Y14532D01*
X48681Y14514D01*
X48713Y14497D01*
X48748Y14484D01*
X48766Y14482D01*
X48787Y14480D01*
X48798D01*
X48805Y14482D01*
X48824Y14486D01*
X48850Y14493D01*
X48877Y14506D01*
X48909Y14525D01*
X48924Y14536D01*
X48939Y14551D01*
X48953Y14566D01*
X48968Y14584D01*
Y14586D01*
X48972Y14590D01*
X48976Y14595D01*
X48979Y14605D01*
X48987Y14618D01*
X48992Y14634D01*
X49000Y14653D01*
X49007Y14675D01*
X49013Y14703D01*
X49020Y14732D01*
X49027Y14767D01*
X49033Y14805D01*
X49037Y14849D01*
X49040Y14895D01*
X49044Y14947D01*
Y15005D01*
Y15006D01*
Y15008D01*
Y15017D01*
Y15034D01*
X49042Y15056D01*
Y15080D01*
X49040Y15110D01*
X49039Y15142D01*
X49035Y15177D01*
X49026Y15247D01*
X49020Y15282D01*
X49013Y15316D01*
X49005Y15347D01*
X48994Y15377D01*
X48983Y15403D01*
X48970Y15425D01*
Y15427D01*
X48966Y15429D01*
X48963Y15434D01*
X48957Y15441D01*
X48940Y15458D01*
X48920Y15479D01*
X48892Y15497D01*
X48861Y15514D01*
X48844Y15521D01*
X48826Y15527D01*
X48805Y15529D01*
X48785Y15530D01*
D02*
G37*
G36*
X45200D02*
X45189D01*
X45182Y15529D01*
X45161Y15525D01*
X45137Y15519D01*
X45109Y15508D01*
X45080Y15491D01*
X45065Y15480D01*
X45050Y15469D01*
X45037Y15454D01*
X45024Y15438D01*
Y15436D01*
X45020Y15432D01*
X45017Y15425D01*
X45011Y15416D01*
X45006Y15401D01*
X44998Y15384D01*
X44993Y15364D01*
X44985Y15340D01*
X44978Y15312D01*
X44970Y15280D01*
X44963Y15245D01*
X44958Y15206D01*
X44952Y15162D01*
X44948Y15114D01*
X44946Y15062D01*
X44945Y15005D01*
Y15001D01*
Y14992D01*
Y14975D01*
X44946Y14953D01*
Y14929D01*
X44948Y14899D01*
X44950Y14867D01*
X44954Y14834D01*
X44963Y14762D01*
X44969Y14727D01*
X44976Y14693D01*
X44983Y14662D01*
X44995Y14632D01*
X45006Y14606D01*
X45019Y14584D01*
Y14582D01*
X45022Y14580D01*
X45032Y14568D01*
X45048Y14551D01*
X45069Y14532D01*
X45096Y14514D01*
X45128Y14497D01*
X45163Y14484D01*
X45182Y14482D01*
X45202Y14480D01*
X45213D01*
X45220Y14482D01*
X45239Y14486D01*
X45265Y14493D01*
X45293Y14506D01*
X45324Y14525D01*
X45339Y14536D01*
X45354Y14551D01*
X45369Y14566D01*
X45383Y14584D01*
Y14586D01*
X45387Y14590D01*
X45391Y14595D01*
X45395Y14605D01*
X45402Y14618D01*
X45407Y14634D01*
X45415Y14653D01*
X45422Y14675D01*
X45428Y14703D01*
X45435Y14732D01*
X45443Y14767D01*
X45448Y14805D01*
X45452Y14849D01*
X45456Y14895D01*
X45459Y14947D01*
Y15005D01*
Y15006D01*
Y15008D01*
Y15017D01*
Y15034D01*
X45457Y15056D01*
Y15080D01*
X45456Y15110D01*
X45454Y15142D01*
X45450Y15177D01*
X45441Y15247D01*
X45435Y15282D01*
X45428Y15316D01*
X45420Y15347D01*
X45409Y15377D01*
X45398Y15403D01*
X45385Y15425D01*
Y15427D01*
X45382Y15429D01*
X45378Y15434D01*
X45372Y15441D01*
X45356Y15458D01*
X45335Y15479D01*
X45307Y15497D01*
X45276Y15514D01*
X45259Y15521D01*
X45241Y15527D01*
X45220Y15529D01*
X45200Y15530D01*
D02*
G37*
%LPD*%
D10*
X79615Y4686D02*
X81015D01*
X79615Y6236D02*
X81015D01*
X67321D02*
X68721D01*
X67321Y4686D02*
X68721D01*
X55002D02*
X56402D01*
X55002Y6236D02*
X56402D01*
X42556D02*
X43956D01*
X42556Y4686D02*
X43956D01*
X30110D02*
X31510D01*
X30110Y6236D02*
X31510D01*
X17791D02*
X19191D01*
X17791Y4686D02*
X19191D01*
X5345D02*
X6745D01*
X5345Y6236D02*
X6745D01*
D11*
X38760Y24170D02*
X50260D01*
X38760Y29170D02*
X41460D01*
X47460D02*
X50260D01*
X41460Y30670D02*
X47460D01*
X38760Y24170D02*
Y29170D01*
X50260Y24170D02*
Y29170D01*
X41460D02*
Y30670D01*
X47460Y29170D02*
Y30670D01*
D12*
X4575Y9650D02*
X4959D01*
X4575Y8350D02*
X4959D01*
X4575D02*
Y9650D01*
X7041Y8350D02*
X7425D01*
Y9650D01*
X7041D02*
X7425D01*
X86769Y4225D02*
X86919D01*
Y2955D02*
Y4225D01*
X86769Y2955D02*
X86919D01*
X84169Y4225D02*
X84319D01*
X84169Y2955D02*
Y4225D01*
Y2955D02*
X84319D01*
X74294Y4464D02*
X74444D01*
Y3194D02*
Y4464D01*
X74294Y3194D02*
X74444D01*
X71694Y4464D02*
X71844D01*
X71694Y3194D02*
Y4464D01*
Y3194D02*
X71844D01*
X62025Y4235D02*
X62175D01*
Y2965D02*
Y4235D01*
X62025Y2965D02*
X62175D01*
X59425Y4235D02*
X59575D01*
X59425Y2965D02*
Y4235D01*
Y2965D02*
X59575D01*
X49752Y4191D02*
X49902D01*
Y2921D02*
Y4191D01*
X49752Y2921D02*
X49902D01*
X47152Y4191D02*
X47302D01*
X47152Y2921D02*
Y4191D01*
Y2921D02*
X47302D01*
X37380Y4445D02*
X37530D01*
Y3175D02*
Y4445D01*
X37380Y3175D02*
X37530D01*
X34780Y4445D02*
X34930D01*
X34780Y3175D02*
Y4445D01*
Y3175D02*
X34930D01*
X24911Y4313D02*
X25061D01*
Y3043D02*
Y4313D01*
X24911Y3043D02*
X25061D01*
X22311Y4313D02*
X22461D01*
X22311Y3043D02*
Y4313D01*
Y3043D02*
X22461D01*
X12605Y4161D02*
X12755D01*
Y2891D02*
Y4161D01*
X12605Y2891D02*
X12755D01*
X10005Y4161D02*
X10155D01*
X10005Y2891D02*
Y4161D01*
Y2891D02*
X10155D01*
X16575Y9650D02*
X16959D01*
X16575Y8350D02*
X16959D01*
X16575D02*
Y9650D01*
X19041Y8350D02*
X19425D01*
Y9650D01*
X19041D02*
X19425D01*
X28575Y9550D02*
X28959D01*
X28575Y8250D02*
X28959D01*
X28575D02*
Y9550D01*
X31041Y8250D02*
X31425D01*
Y9550D01*
X31041D02*
X31425D01*
X40575Y9650D02*
X40959D01*
X40575Y8350D02*
X40959D01*
X40575D02*
Y9650D01*
X43041Y8350D02*
X43425D01*
Y9650D01*
X43041D02*
X43425D01*
X53575D02*
X53959D01*
X53575Y8350D02*
X53959D01*
X53575D02*
Y9650D01*
X56041Y8350D02*
X56425D01*
Y9650D01*
X56041D02*
X56425D01*
X66575D02*
X66959D01*
X66575Y8350D02*
X66959D01*
X66575D02*
Y9650D01*
X69041Y8350D02*
X69425D01*
Y9650D01*
X69041D02*
X69425D01*
X78575Y9650D02*
X78959D01*
X78575Y8350D02*
X78959D01*
X78575D02*
Y9650D01*
X81041Y8350D02*
X81425D01*
Y9650D01*
X81041D02*
X81425D01*
D13*
X85404Y5371D02*
X85213Y5561D01*
X84832D01*
X84642Y5371D01*
Y4609D01*
X84832Y4419D01*
X85213D01*
X85404Y4609D01*
X85784D02*
X85975Y4419D01*
X86356D01*
X86546Y4609D01*
Y5371D01*
X86356Y5561D01*
X85975D01*
X85784Y5371D01*
Y5180D01*
X85975Y4990D01*
X86546D01*
X72928Y5710D02*
X72738Y5900D01*
X72357D01*
X72167Y5710D01*
Y4948D01*
X72357Y4757D01*
X72738D01*
X72928Y4948D01*
X73309Y5710D02*
X73500Y5900D01*
X73881D01*
X74071Y5710D01*
Y5519D01*
X73881Y5329D01*
X74071Y5138D01*
Y4948D01*
X73881Y4757D01*
X73500D01*
X73309Y4948D01*
Y5138D01*
X73500Y5329D01*
X73309Y5519D01*
Y5710D01*
X73500Y5329D02*
X73881D01*
X60760Y5481D02*
X60569Y5671D01*
X60188D01*
X59998Y5481D01*
Y4719D01*
X60188Y4529D01*
X60569D01*
X60760Y4719D01*
X61140Y5671D02*
X61902D01*
Y5481D01*
X61140Y4719D01*
Y4529D01*
X48287Y5437D02*
X48096Y5627D01*
X47715D01*
X47525Y5437D01*
Y4675D01*
X47715Y4485D01*
X48096D01*
X48287Y4675D01*
X49429Y5627D02*
X49048Y5437D01*
X48667Y5056D01*
Y4675D01*
X48858Y4485D01*
X49239D01*
X49429Y4675D01*
Y4866D01*
X49239Y5056D01*
X48667D01*
X36014Y5691D02*
X35824Y5881D01*
X35443D01*
X35252Y5691D01*
Y4929D01*
X35443Y4739D01*
X35824D01*
X36014Y4929D01*
X37157Y5881D02*
X36395D01*
Y5310D01*
X36776Y5500D01*
X36966D01*
X37157Y5310D01*
Y4929D01*
X36966Y4739D01*
X36586D01*
X36395Y4929D01*
X23545Y5459D02*
X23355Y5649D01*
X22974D01*
X22784Y5459D01*
Y4697D01*
X22974Y4507D01*
X23355D01*
X23545Y4697D01*
X24498Y4507D02*
Y5649D01*
X23926Y5078D01*
X24688D01*
X11240Y5407D02*
X11049Y5597D01*
X10668D01*
X10478Y5407D01*
Y4645D01*
X10668Y4455D01*
X11049D01*
X11240Y4645D01*
X11620Y5407D02*
X11811Y5597D01*
X12192D01*
X12382Y5407D01*
Y5216D01*
X12192Y5026D01*
X12001D01*
X12192D01*
X12382Y4836D01*
Y4645D01*
X12192Y4455D01*
X11811D01*
X11620Y4645D01*
D14*
X4476Y9829D02*
Y10971D01*
X5048D01*
X5238Y10781D01*
Y10400D01*
X5048Y10210D01*
X4476D01*
X4857D02*
X5238Y9829D01*
X6381D02*
X5619D01*
X6381Y10590D01*
Y10781D01*
X6190Y10971D01*
X5810D01*
X5619Y10781D01*
X7333Y9829D02*
Y10971D01*
X6762Y10400D01*
X7524D01*
X16376Y9929D02*
Y11071D01*
X16948D01*
X17138Y10881D01*
Y10500D01*
X16948Y10310D01*
X16376D01*
X16757D02*
X17138Y9929D01*
X18281D02*
X17519D01*
X18281Y10690D01*
Y10881D01*
X18090Y11071D01*
X17710D01*
X17519Y10881D01*
X18662D02*
X18852Y11071D01*
X19233D01*
X19424Y10881D01*
Y10690D01*
X19233Y10500D01*
X19043D01*
X19233D01*
X19424Y10310D01*
Y10119D01*
X19233Y9929D01*
X18852D01*
X18662Y10119D01*
X28576Y9729D02*
Y10871D01*
X29148D01*
X29338Y10681D01*
Y10300D01*
X29148Y10110D01*
X28576D01*
X28957D02*
X29338Y9729D01*
X30481D02*
X29719D01*
X30481Y10490D01*
Y10681D01*
X30290Y10871D01*
X29910D01*
X29719Y10681D01*
X31624Y9729D02*
X30862D01*
X31624Y10490D01*
Y10681D01*
X31433Y10871D01*
X31052D01*
X30862Y10681D01*
X40717Y9829D02*
Y10971D01*
X41288D01*
X41479Y10781D01*
Y10400D01*
X41288Y10210D01*
X40717D01*
X41098D02*
X41479Y9829D01*
X42621D02*
X41860D01*
X42621Y10590D01*
Y10781D01*
X42431Y10971D01*
X42050D01*
X41860Y10781D01*
X43002Y9829D02*
X43383D01*
X43193D01*
Y10971D01*
X43002Y10781D01*
X53805Y9927D02*
Y11069D01*
X54377D01*
X54567Y10879D01*
Y10498D01*
X54377Y10308D01*
X53805D01*
X54186D02*
X54567Y9927D01*
X55710D02*
X54948D01*
X55710Y10688D01*
Y10879D01*
X55519Y11069D01*
X55139D01*
X54948Y10879D01*
X56091D02*
X56281Y11069D01*
X56662D01*
X56853Y10879D01*
Y10117D01*
X56662Y9927D01*
X56281D01*
X56091Y10117D01*
Y10879D01*
X66672Y9829D02*
Y10971D01*
X67243D01*
X67433Y10781D01*
Y10400D01*
X67243Y10210D01*
X66672D01*
X67053D02*
X67433Y9829D01*
X67814D02*
X68195D01*
X68005D01*
Y10971D01*
X67814Y10781D01*
X68767Y10019D02*
X68957Y9829D01*
X69338D01*
X69528Y10019D01*
Y10781D01*
X69338Y10971D01*
X68957D01*
X68767Y10781D01*
Y10590D01*
X68957Y10400D01*
X69528D01*
X5148Y7671D02*
Y6529D01*
X5719D01*
X5910Y6719D01*
Y7481D01*
X5719Y7671D01*
X5148D01*
X6290D02*
X7052D01*
Y7481D01*
X6290Y6719D01*
Y6529D01*
X17548Y7671D02*
Y6529D01*
X18119D01*
X18310Y6719D01*
Y7481D01*
X18119Y7671D01*
X17548D01*
X19452D02*
X19071Y7481D01*
X18690Y7100D01*
Y6719D01*
X18881Y6529D01*
X19262D01*
X19452Y6719D01*
Y6910D01*
X19262Y7100D01*
X18690D01*
X29848Y7671D02*
Y6529D01*
X30419D01*
X30610Y6719D01*
Y7481D01*
X30419Y7671D01*
X29848D01*
X31752D02*
X30990D01*
Y7100D01*
X31371Y7290D01*
X31562D01*
X31752Y7100D01*
Y6719D01*
X31562Y6529D01*
X31181D01*
X30990Y6719D01*
X42248Y7671D02*
Y6529D01*
X42819D01*
X43010Y6719D01*
Y7481D01*
X42819Y7671D01*
X42248D01*
X43962Y6529D02*
Y7671D01*
X43390Y7100D01*
X44152D01*
X54848Y7671D02*
Y6529D01*
X55419D01*
X55610Y6719D01*
Y7481D01*
X55419Y7671D01*
X54848D01*
X55990Y7481D02*
X56181Y7671D01*
X56562D01*
X56752Y7481D01*
Y7290D01*
X56562Y7100D01*
X56371D01*
X56562D01*
X56752Y6910D01*
Y6719D01*
X56562Y6529D01*
X56181D01*
X55990Y6719D01*
X67048Y7671D02*
Y6529D01*
X67619D01*
X67810Y6719D01*
Y7481D01*
X67619Y7671D01*
X67048D01*
X68952Y6529D02*
X68190D01*
X68952Y7290D01*
Y7481D01*
X68762Y7671D01*
X68381D01*
X68190Y7481D01*
X78522Y9929D02*
Y11071D01*
X79093D01*
X79283Y10881D01*
Y10500D01*
X79093Y10310D01*
X78522D01*
X78903D02*
X79283Y9929D01*
X79664D02*
X80045D01*
X79855D01*
Y11071D01*
X79664Y10881D01*
X80617D02*
X80807Y11071D01*
X81188D01*
X81378Y10881D01*
Y10690D01*
X81188Y10500D01*
X81378Y10310D01*
Y10119D01*
X81188Y9929D01*
X80807D01*
X80617Y10119D01*
Y10310D01*
X80807Y10500D01*
X80617Y10690D01*
Y10881D01*
X80807Y10500D02*
X81188D01*
X39729Y23671D02*
X39348D01*
X39538D01*
Y22719D01*
X39348Y22529D01*
X39157D01*
X38967Y22719D01*
X40110Y22529D02*
Y23671D01*
X40681D01*
X40871Y23481D01*
Y23100D01*
X40681Y22910D01*
X40110D01*
X41252Y22529D02*
X41633D01*
X41443D01*
Y23671D01*
X41252Y23481D01*
X79438Y7771D02*
Y6629D01*
X80010D01*
X80200Y6819D01*
Y7581D01*
X80010Y7771D01*
X79438D01*
X80581Y6629D02*
X80962D01*
X80771D01*
Y7771D01*
X80581Y7581D01*
D15*
X66040Y15240D02*
G03*
X57785Y23495I-8255J0D01*
G01*
X31115D02*
G03*
X22860Y15240I0J-8255D01*
G01*
X0Y0D02*
X88265D01*
Y12065D01*
X66040D02*
X88265D01*
X66040D02*
Y15240D01*
X50800Y23495D02*
X57785D01*
X50800D02*
Y31115D01*
X38100D02*
X50800D01*
X38100Y23495D02*
Y31115D01*
X31115Y23495D02*
X38100D01*
X22860Y12065D02*
Y15240D01*
X0Y12065D02*
X22860D01*
X0Y0D02*
Y12065D01*
M02*
