G04*
G04 #@! TF.GenerationSoftware,Altium Limited,Altium Designer,25.5.2 (35)*
G04*
G04 Layer_Color=8421504*
%FSLAX43Y43*%
%MOMM*%
G71*
G04*
G04 #@! TF.SameCoordinates,6B956F99-2EE2-468E-850B-CC9C62BAE9D2*
G04*
G04*
G04 #@! TF.FilePolarity,Positive*
G04*
G01*
G75*
%ADD15C,0.500*%
%ADD16R,0.800X0.800*%
%ADD17R,0.950X1.750*%
D15*
X66040Y15240D02*
G03*
X57785Y23495I-8255J0D01*
G01*
X31115D02*
G03*
X22860Y15240I0J-8255D01*
G01*
X0Y0D02*
X88265D01*
Y12065D01*
X66040D02*
X88265D01*
X66040D02*
Y15240D01*
X50800Y23495D02*
X57785D01*
X50800D02*
Y31115D01*
X38100D02*
X50800D01*
X38100Y23495D02*
Y31115D01*
X31115Y23495D02*
X38100D01*
X22860Y12065D02*
Y15240D01*
X0Y12065D02*
X22860D01*
X0Y0D02*
Y12065D01*
D16*
X10630Y3526D02*
D03*
X22936Y3678D02*
D03*
X35405Y3810D02*
D03*
X47777Y3556D02*
D03*
X60050Y3600D02*
D03*
X84794Y3590D02*
D03*
X72319Y3829D02*
D03*
X6750Y9000D02*
D03*
X5250D02*
D03*
X86294Y3590D02*
D03*
X73819Y3829D02*
D03*
X61550Y3600D02*
D03*
X49277Y3556D02*
D03*
X36905Y3810D02*
D03*
X24436Y3678D02*
D03*
X12130Y3526D02*
D03*
X18750Y9000D02*
D03*
X17250D02*
D03*
X30750Y8900D02*
D03*
X29250D02*
D03*
X42750Y9000D02*
D03*
X41250D02*
D03*
X55750D02*
D03*
X54250D02*
D03*
X68750D02*
D03*
X67250D02*
D03*
X80750D02*
D03*
X79250D02*
D03*
D17*
X81890Y5461D02*
D03*
X78740D02*
D03*
X66446D02*
D03*
X69596D02*
D03*
X57277D02*
D03*
X54127D02*
D03*
X41681D02*
D03*
X44831D02*
D03*
X32385D02*
D03*
X29235D02*
D03*
X16916D02*
D03*
X20066D02*
D03*
X7620D02*
D03*
X4470D02*
D03*
M02*
