G04*
G04 #@! TF.GenerationSoftware,Altium Limited,Altium Designer,25.5.2 (35)*
G04*
G04 Layer_Physical_Order=2*
G04 Layer_Color=16711680*
%FSLAX43Y43*%
%MOMM*%
G71*
G04*
G04 #@! TF.SameCoordinates,6B956F99-2EE2-468E-850B-CC9C62BAE9D2*
G04*
G04*
G04 #@! TF.FilePolarity,Positive*
G04*
G01*
G75*
%ADD15C,0.500*%
%ADD16R,0.800X0.800*%
%ADD24C,0.254*%
%ADD25C,5.842*%
%ADD26R,1.524X2.540*%
%ADD27O,1.524X2.540*%
%ADD28C,0.800*%
%ADD29C,0.600*%
%ADD30R,0.650X0.650*%
%ADD31R,1.500X1.300*%
%ADD32R,0.800X0.800*%
%ADD33R,0.500X0.950*%
%ADD34O,1.900X0.600*%
%ADD35R,1.200X1.100*%
%ADD36R,1.900X0.600*%
%ADD37R,1.400X1.200*%
%ADD38C,0.600*%
%ADD39C,0.250*%
G36*
X50494Y23495D02*
X50517Y23378D01*
X50584Y23279D01*
X50683Y23212D01*
X50800Y23189D01*
X58176D01*
X58953Y23113D01*
X59719Y22960D01*
X60466Y22733D01*
X61188Y22435D01*
X61877Y22066D01*
X62526Y21632D01*
X63130Y21137D01*
X63682Y20585D01*
X64177Y19981D01*
X64611Y19332D01*
X64980Y18643D01*
X65278Y17921D01*
X65505Y17174D01*
X65658Y16408D01*
X65734Y15631D01*
Y15240D01*
Y12065D01*
X65757Y11948D01*
X65824Y11849D01*
X65923Y11782D01*
X66040Y11759D01*
X87959D01*
Y306D01*
X306D01*
Y11759D01*
X22860D01*
X22977Y11782D01*
X23076Y11849D01*
X23143Y11948D01*
X23166Y12065D01*
Y15240D01*
Y15631D01*
X23242Y16408D01*
X23395Y17174D01*
X23622Y17921D01*
X23920Y18643D01*
X24289Y19332D01*
X24722Y19981D01*
X25218Y20585D01*
X25770Y21137D01*
X26374Y21632D01*
X27023Y22066D01*
X27712Y22435D01*
X28434Y22733D01*
X29181Y22960D01*
X29947Y23113D01*
X30724Y23189D01*
X38100D01*
X38217Y23212D01*
X38316Y23279D01*
X38383Y23378D01*
X38406Y23495D01*
Y30809D01*
X50494D01*
Y23495D01*
D02*
G37*
%LPC*%
G36*
X40767Y28186D02*
Y26797D01*
X41665D01*
Y27178D01*
X41630Y27443D01*
X41527Y27690D01*
X41365Y27903D01*
X41152Y28065D01*
X40905Y28168D01*
X40767Y28186D01*
D02*
G37*
G36*
X40513D02*
X40375Y28168D01*
X40128Y28065D01*
X39915Y27903D01*
X39753Y27690D01*
X39650Y27443D01*
X39615Y27178D01*
Y26797D01*
X40513D01*
Y28186D01*
D02*
G37*
G36*
X45720Y28148D02*
X45469Y28115D01*
X45235Y28018D01*
X45034Y27864D01*
X44880Y27663D01*
X44783Y27429D01*
X44750Y27178D01*
Y26162D01*
X44783Y25911D01*
X44880Y25677D01*
X45034Y25476D01*
X45235Y25322D01*
X45469Y25225D01*
X45720Y25192D01*
X45971Y25225D01*
X46205Y25322D01*
X46406Y25476D01*
X46560Y25677D01*
X46657Y25911D01*
X46690Y26162D01*
Y27178D01*
X46657Y27429D01*
X46560Y27663D01*
X46406Y27864D01*
X46205Y28018D01*
X45971Y28115D01*
X45720Y28148D01*
D02*
G37*
G36*
X43180D02*
X42929Y28115D01*
X42695Y28018D01*
X42494Y27864D01*
X42340Y27663D01*
X42243Y27429D01*
X42210Y27178D01*
Y26162D01*
X42243Y25911D01*
X42340Y25677D01*
X42494Y25476D01*
X42695Y25322D01*
X42929Y25225D01*
X43180Y25192D01*
X43431Y25225D01*
X43665Y25322D01*
X43866Y25476D01*
X44020Y25677D01*
X44117Y25911D01*
X44150Y26162D01*
Y27178D01*
X44117Y27429D01*
X44020Y27663D01*
X43866Y27864D01*
X43665Y28018D01*
X43431Y28115D01*
X43180Y28148D01*
D02*
G37*
G36*
X41665Y26543D02*
X40767D01*
Y25154D01*
X40905Y25172D01*
X41152Y25275D01*
X41365Y25437D01*
X41527Y25650D01*
X41630Y25897D01*
X41665Y26162D01*
Y26543D01*
D02*
G37*
G36*
X40513D02*
X39615D01*
Y26162D01*
X39650Y25897D01*
X39753Y25650D01*
X39915Y25437D01*
X40128Y25275D01*
X40375Y25172D01*
X40513Y25154D01*
Y26543D01*
D02*
G37*
G36*
X45304Y22773D02*
X44777D01*
Y22246D01*
X45304D01*
Y22773D01*
D02*
G37*
G36*
X44523D02*
X43996D01*
Y22246D01*
X44523D01*
Y22773D01*
D02*
G37*
G36*
X54154Y21704D02*
X53627D01*
Y21177D01*
X54154D01*
Y21704D01*
D02*
G37*
G36*
X53373D02*
X52846D01*
Y21177D01*
X53373D01*
Y21704D01*
D02*
G37*
G36*
X50069Y21509D02*
X48992D01*
Y21082D01*
X50069D01*
Y21509D01*
D02*
G37*
G36*
X48738D02*
X47661D01*
Y21082D01*
X48738D01*
Y21509D01*
D02*
G37*
G36*
X49222Y28140D02*
X47298D01*
Y25200D01*
X47488D01*
Y24909D01*
X47089Y24510D01*
X40800D01*
X40605Y24471D01*
X40440Y24360D01*
X39057Y22978D01*
X37668D01*
X37473Y22939D01*
X37307Y22828D01*
X36603Y22124D01*
X36493Y21959D01*
X36454Y21764D01*
Y21494D01*
X36295Y21335D01*
X36125D01*
X35930Y21296D01*
X35765Y21186D01*
X35589Y21010D01*
X28800D01*
X28605Y20971D01*
X28440Y20860D01*
X26540Y18960D01*
X26429Y18795D01*
X26390Y18600D01*
Y18245D01*
X26304Y18154D01*
X26263Y18154D01*
X25427D01*
Y17250D01*
Y16346D01*
X26263D01*
X26304Y16346D01*
X26390Y16255D01*
Y16130D01*
X26377Y16121D01*
X26250Y16189D01*
Y16200D01*
X24350D01*
Y14500D01*
X25701D01*
Y14289D01*
X25740Y14094D01*
X25800Y14004D01*
X25800Y12675D01*
X25690Y12633D01*
X25538D01*
X25400Y12771D01*
Y14025D01*
X24500D01*
Y12675D01*
X24632D01*
X24642Y12622D01*
X24714Y12514D01*
X25164Y12064D01*
X25272Y11992D01*
X25400Y11967D01*
X26610D01*
X27912Y10664D01*
X27918Y10660D01*
X27880Y10533D01*
X27279D01*
X27260Y10560D01*
X27095Y10671D01*
X26900Y10710D01*
X26705Y10671D01*
X26540Y10560D01*
X26429Y10395D01*
X26420Y10350D01*
X26282Y10308D01*
X26059Y10531D01*
Y11050D01*
X26050Y11094D01*
Y11725D01*
X25150D01*
Y11094D01*
X25141Y11050D01*
Y10988D01*
X16952D01*
X16891Y11000D01*
X6949D01*
X6773Y10965D01*
X6624Y10865D01*
X4173Y8414D01*
X4073Y8265D01*
X4038Y8089D01*
Y7100D01*
X3697D01*
Y5600D01*
X4368D01*
Y4700D01*
X3697D01*
Y4333D01*
X3100D01*
Y4800D01*
X1300D01*
Y3200D01*
X3100D01*
Y3667D01*
X3697D01*
Y3200D01*
X5297D01*
Y3733D01*
X6997D01*
Y3200D01*
X8597D01*
Y3604D01*
X8890D01*
X9018Y3629D01*
X9126Y3701D01*
X9380Y3955D01*
X9452Y4063D01*
X9477Y4191D01*
Y5806D01*
X9844Y6173D01*
X9953Y6102D01*
X9953Y6013D01*
Y4779D01*
X10070D01*
Y4156D01*
X10060D01*
Y2956D01*
X10267D01*
Y2099D01*
X10167Y2033D01*
X10035Y1834D01*
X9988Y1600D01*
X10035Y1366D01*
X10167Y1167D01*
X10366Y1035D01*
X10600Y988D01*
X10834Y1035D01*
X11033Y1167D01*
X11165Y1366D01*
X11212Y1600D01*
X11165Y1834D01*
X11033Y2033D01*
X10933Y2099D01*
Y2956D01*
X11260D01*
Y4156D01*
X10737D01*
Y4779D01*
X10853D01*
Y6129D01*
X10107D01*
X10056Y6188D01*
X10032Y6256D01*
X10039Y6271D01*
X11370D01*
Y6129D01*
X11253D01*
Y4779D01*
X11682D01*
X11827Y4634D01*
Y4156D01*
X11560D01*
Y2956D01*
X12760D01*
Y4156D01*
X12493D01*
Y4772D01*
X12468Y4900D01*
X12396Y5008D01*
X12153Y5251D01*
Y6129D01*
X12037D01*
Y6271D01*
X12471D01*
X12599Y6296D01*
X12707Y6368D01*
X13936Y7597D01*
X14095Y7629D01*
X14260Y7740D01*
X14371Y7905D01*
X14410Y8100D01*
X14371Y8295D01*
X14260Y8460D01*
X14095Y8571D01*
X13900Y8610D01*
X13705Y8571D01*
X13540Y8460D01*
X13429Y8295D01*
X13390Y8100D01*
X13408Y8012D01*
X12333Y6937D01*
X9804D01*
X9676Y6912D01*
X9568Y6840D01*
X8908Y6180D01*
X8836Y6072D01*
X8811Y5944D01*
Y4329D01*
X8752Y4270D01*
X8597D01*
Y4700D01*
X7951D01*
Y5546D01*
X8651D01*
Y6223D01*
X7797D01*
Y6350D01*
X7670D01*
Y7154D01*
X6943D01*
Y6427D01*
X5297D01*
Y7100D01*
X4956D01*
Y7899D01*
X7139Y10082D01*
X16420D01*
Y7100D01*
X16079D01*
Y5600D01*
X16751D01*
Y4700D01*
X16079D01*
Y4283D01*
X15500D01*
Y4800D01*
X13700D01*
Y3200D01*
X15500D01*
Y3617D01*
X16079D01*
Y3200D01*
X17679D01*
Y3733D01*
X19379D01*
Y3200D01*
X20979D01*
Y3617D01*
X21194D01*
X21260Y3604D01*
X21387Y3629D01*
X21496Y3701D01*
X21750Y3955D01*
X21822Y4063D01*
X21847Y4191D01*
Y6212D01*
X21906Y6271D01*
X23797D01*
Y6129D01*
X23635D01*
Y4779D01*
X24102D01*
Y4278D01*
X23836D01*
Y3078D01*
X25036D01*
Y4278D01*
X24769D01*
Y5103D01*
X24744Y5231D01*
X24672Y5339D01*
X24535Y5476D01*
Y5537D01*
X24543Y5579D01*
X24535Y5621D01*
Y6129D01*
X24463D01*
Y6276D01*
X24562Y6296D01*
X24671Y6368D01*
X25194Y6891D01*
X25200Y6890D01*
X25395Y6929D01*
X25560Y7040D01*
X25671Y7205D01*
X25710Y7400D01*
X25671Y7595D01*
X25560Y7760D01*
X25395Y7871D01*
X25200Y7910D01*
X25005Y7871D01*
X24840Y7760D01*
X24729Y7595D01*
X24690Y7400D01*
X24702Y7342D01*
X24297Y6937D01*
X21768D01*
X21640Y6912D01*
X21532Y6840D01*
X21278Y6586D01*
X21206Y6478D01*
X21180Y6350D01*
Y4329D01*
X21135Y4283D01*
X20979D01*
Y4700D01*
X20333D01*
Y5546D01*
X21033D01*
Y6223D01*
X20179D01*
Y6350D01*
X20052D01*
Y7154D01*
X19325D01*
Y6427D01*
X17679D01*
Y7100D01*
X17338D01*
Y10070D01*
X25222D01*
X26717Y8576D01*
X26865Y8476D01*
X27041Y8441D01*
X28802D01*
Y7354D01*
X28410D01*
Y5854D01*
X29133D01*
Y4954D01*
X28410D01*
Y4537D01*
X27719D01*
Y5004D01*
X25919D01*
Y3404D01*
X27719D01*
Y3871D01*
X28410D01*
Y3454D01*
X30010D01*
Y3987D01*
X31710D01*
Y3454D01*
X33310D01*
Y3858D01*
X33655D01*
X33783Y3883D01*
X33891Y3955D01*
X34145Y4209D01*
X34217Y4317D01*
X34242Y4445D01*
Y6380D01*
X34717D01*
Y5033D01*
X35071D01*
Y4410D01*
X34805D01*
Y3210D01*
X34833D01*
Y2920D01*
X34153Y2239D01*
X34036Y2263D01*
X33802Y2216D01*
X33603Y2084D01*
X33471Y1885D01*
X33424Y1651D01*
X33471Y1417D01*
X33603Y1218D01*
X33802Y1086D01*
X34036Y1039D01*
X34270Y1086D01*
X34469Y1218D01*
X34601Y1417D01*
X34648Y1651D01*
X34624Y1768D01*
X35403Y2546D01*
X35475Y2654D01*
X35500Y2782D01*
Y3210D01*
X36005D01*
Y4410D01*
X35738D01*
Y5245D01*
X35713Y5373D01*
X35640Y5481D01*
X35617Y5505D01*
Y6380D01*
X36017D01*
Y5033D01*
X36558D01*
X36571Y5030D01*
Y4410D01*
X36305D01*
Y3210D01*
X37505D01*
Y4410D01*
X37238D01*
Y5211D01*
X37213Y5339D01*
X37140Y5447D01*
X36992Y5596D01*
X36917Y5646D01*
Y6383D01*
X36800D01*
Y6575D01*
X38147Y7922D01*
X39288D01*
X39289Y7920D01*
X39454Y7809D01*
X39649Y7771D01*
X39844Y7809D01*
X40010Y7920D01*
X40120Y8085D01*
X40159Y8280D01*
X40120Y8475D01*
X40010Y8641D01*
X39844Y8751D01*
X39649Y8790D01*
X39454Y8751D01*
X39289Y8641D01*
X39254Y8588D01*
X38009D01*
X37881Y8563D01*
X37773Y8491D01*
X36329Y7047D01*
X34058D01*
X33930Y7021D01*
X33822Y6949D01*
X33673Y6800D01*
X33601Y6692D01*
X33576Y6564D01*
Y4583D01*
X33517Y4524D01*
X33310D01*
Y4954D01*
X32716D01*
Y5800D01*
X33364D01*
Y6477D01*
X32510D01*
Y6604D01*
X32383D01*
Y7408D01*
X31656D01*
Y6681D01*
X30010D01*
Y7354D01*
X29719D01*
Y8441D01*
X31600D01*
X31776Y8476D01*
X31924Y8576D01*
X32390Y9041D01*
X41184D01*
Y7214D01*
X40843D01*
Y5714D01*
X41516D01*
Y4814D01*
X40843D01*
Y4397D01*
X40165D01*
Y4864D01*
X38365D01*
Y3264D01*
X40165D01*
Y3731D01*
X40843D01*
Y3314D01*
X42443D01*
Y3860D01*
X44143D01*
Y3314D01*
X45743D01*
Y3731D01*
X45974D01*
X46102Y3756D01*
X46210Y3828D01*
X46464Y4082D01*
X46536Y4190D01*
X46561Y4318D01*
Y6085D01*
X46620Y6144D01*
X46978D01*
X47099Y6129D01*
X47099Y6017D01*
Y4779D01*
X47444D01*
Y4156D01*
X47177D01*
Y3428D01*
X46089Y2339D01*
X46016Y2231D01*
X45991Y2103D01*
Y2087D01*
X45795Y1957D01*
X45663Y1758D01*
X45616Y1524D01*
X45663Y1290D01*
X45795Y1091D01*
X45994Y959D01*
X46228Y912D01*
X46462Y959D01*
X46661Y1091D01*
X46793Y1290D01*
X46840Y1524D01*
X46793Y1758D01*
X46661Y1957D01*
X46741Y2048D01*
X47649Y2956D01*
X48377D01*
Y4156D01*
X48110D01*
Y5001D01*
X48085Y5128D01*
X48013Y5236D01*
X47999Y5251D01*
X47999Y6129D01*
X48120Y6144D01*
X48278D01*
X48399Y6129D01*
Y4779D01*
X48827D01*
X48944Y4662D01*
Y4156D01*
X48677D01*
Y2956D01*
X49877D01*
Y4156D01*
X49610D01*
Y4801D01*
X49585Y4928D01*
X49513Y5036D01*
X49299Y5251D01*
Y6129D01*
X49217D01*
X49196Y6256D01*
X50238Y7298D01*
X50395Y7329D01*
X50560Y7440D01*
X50671Y7605D01*
X50710Y7800D01*
X50671Y7995D01*
X50560Y8160D01*
X50395Y8271D01*
X50200Y8310D01*
X50005Y8271D01*
X49840Y8160D01*
X49729Y7995D01*
X49690Y7800D01*
X49708Y7711D01*
X48808Y6810D01*
X46482D01*
X46354Y6785D01*
X46246Y6713D01*
X45992Y6459D01*
X45924Y6357D01*
X45915Y6355D01*
X45797Y6401D01*
Y7268D01*
X45070D01*
Y6464D01*
X44816D01*
Y7268D01*
X44089D01*
Y6554D01*
X42443D01*
Y7214D01*
X42101D01*
Y9041D01*
X46381D01*
X46420Y8914D01*
X46340Y8860D01*
X46229Y8695D01*
X46190Y8500D01*
X46229Y8305D01*
X46340Y8140D01*
X46505Y8029D01*
X46700Y7990D01*
X46732Y7997D01*
X47160Y7568D01*
X47268Y7496D01*
X47396Y7471D01*
X47749D01*
Y7079D01*
X48649D01*
Y8429D01*
X47749D01*
Y8137D01*
X47534D01*
X47203Y8468D01*
X47210Y8500D01*
X47171Y8695D01*
X47060Y8860D01*
X46980Y8914D01*
X47019Y9041D01*
X53565D01*
Y7087D01*
X53223D01*
Y5587D01*
X53898D01*
Y4687D01*
X53223D01*
Y4420D01*
X52697D01*
Y4887D01*
X50897D01*
Y3287D01*
X52697D01*
Y3753D01*
X53223D01*
Y3187D01*
X54823D01*
Y3758D01*
X56523D01*
Y3187D01*
X56989D01*
Y2851D01*
X56479Y2340D01*
X52032D01*
X51803Y2568D01*
X51810Y2600D01*
X51771Y2795D01*
X51660Y2960D01*
X51495Y3071D01*
X51300Y3110D01*
X51105Y3071D01*
X50940Y2960D01*
X50829Y2795D01*
X50790Y2600D01*
X50829Y2405D01*
X50940Y2240D01*
X51105Y2129D01*
X51300Y2090D01*
X51332Y2097D01*
X51658Y1771D01*
X51766Y1699D01*
X51893Y1673D01*
X56617D01*
X56744Y1699D01*
X56852Y1771D01*
X57559Y2477D01*
X57631Y2585D01*
X57656Y2713D01*
Y3187D01*
X58123D01*
Y3604D01*
X58420D01*
X58548Y3629D01*
X58656Y3701D01*
X58976Y4021D01*
X59048Y4129D01*
X59073Y4257D01*
Y5897D01*
X59210Y6034D01*
X59480D01*
Y4836D01*
X59717D01*
Y4200D01*
X59450D01*
Y3000D01*
X59513D01*
X59561Y2883D01*
X58791Y2112D01*
X58674Y2136D01*
X58440Y2089D01*
X58241Y1957D01*
X58109Y1758D01*
X58062Y1524D01*
X58109Y1290D01*
X58241Y1091D01*
X58440Y959D01*
X58674Y912D01*
X58908Y959D01*
X59107Y1091D01*
X59239Y1290D01*
X59286Y1524D01*
X59262Y1641D01*
X60286Y2664D01*
X60358Y2772D01*
X60383Y2900D01*
Y3000D01*
X60650D01*
Y4200D01*
X60383D01*
Y5391D01*
X60380Y5406D01*
Y6034D01*
X60780D01*
Y4836D01*
X61197D01*
Y4200D01*
X60950D01*
Y3000D01*
X62150D01*
Y4200D01*
X61864D01*
Y5211D01*
X61839Y5339D01*
X61766Y5447D01*
X61680Y5532D01*
Y6186D01*
X61543D01*
X61538Y6207D01*
X61466Y6315D01*
X61179Y6603D01*
X61071Y6675D01*
X60943Y6700D01*
X59072D01*
X58944Y6675D01*
X58836Y6603D01*
X58504Y6271D01*
X58432Y6163D01*
X58407Y6035D01*
Y4395D01*
X58282Y4270D01*
X58123D01*
Y4687D01*
X57481D01*
Y5533D01*
X58177D01*
Y6210D01*
X57323D01*
Y6337D01*
X57196D01*
Y7141D01*
X56469D01*
Y6452D01*
X54823D01*
Y7087D01*
X54483D01*
Y9041D01*
X65947D01*
Y7214D01*
X65606D01*
Y5714D01*
X66217D01*
Y4814D01*
X65606D01*
Y4397D01*
X65057D01*
Y4864D01*
X63257D01*
Y3264D01*
X65057D01*
Y3731D01*
X65606D01*
Y3314D01*
X67206D01*
Y3860D01*
X68906D01*
Y3314D01*
X68906Y3314D01*
X68906D01*
X68843Y3215D01*
X68262Y2633D01*
X66779D01*
X66760Y2660D01*
X66595Y2771D01*
X66400Y2810D01*
X66205Y2771D01*
X66040Y2660D01*
X65929Y2495D01*
X65890Y2300D01*
X65929Y2105D01*
X66040Y1940D01*
X66205Y1829D01*
X66400Y1790D01*
X66595Y1829D01*
X66760Y1940D01*
X66779Y1967D01*
X68400D01*
X68528Y1992D01*
X68636Y2064D01*
X69618Y3046D01*
X69690Y3154D01*
X69715Y3282D01*
Y3314D01*
X70506D01*
Y3858D01*
X70866D01*
X70994Y3883D01*
X71102Y3955D01*
X71356Y4209D01*
X71428Y4317D01*
X71453Y4445D01*
Y6212D01*
X71512Y6271D01*
X71862D01*
Y5033D01*
X71979D01*
Y4429D01*
X71719D01*
Y3698D01*
X71651Y3597D01*
X71626Y3469D01*
Y2628D01*
X71110Y2112D01*
X70993Y2136D01*
X70759Y2089D01*
X70560Y1957D01*
X70428Y1758D01*
X70381Y1524D01*
X70428Y1290D01*
X70560Y1091D01*
X70759Y959D01*
X70993Y912D01*
X71227Y959D01*
X71426Y1091D01*
X71558Y1290D01*
X71605Y1524D01*
X71581Y1641D01*
X72195Y2254D01*
X72267Y2362D01*
X72292Y2490D01*
Y3229D01*
X72919D01*
Y4429D01*
X72646D01*
Y5033D01*
X72762D01*
Y6271D01*
X73162D01*
Y5033D01*
X73485D01*
Y4429D01*
X73219D01*
Y3229D01*
X74419D01*
Y4429D01*
X74152D01*
Y5276D01*
X74127Y5404D01*
X74062Y5501D01*
Y6383D01*
X73946D01*
Y6398D01*
X73920Y6525D01*
X73848Y6634D01*
X73642Y6840D01*
X73534Y6912D01*
X73406Y6937D01*
X71374D01*
X71246Y6912D01*
X71138Y6840D01*
X70884Y6586D01*
X70812Y6478D01*
X70787Y6350D01*
Y4583D01*
X70728Y4524D01*
X70506D01*
Y4814D01*
X69800D01*
Y5660D01*
X70560D01*
Y6337D01*
X69706D01*
Y6464D01*
X69579D01*
Y7268D01*
X68852D01*
Y6554D01*
X67206D01*
Y7214D01*
X66865D01*
Y9324D01*
X66909Y9368D01*
X77409D01*
X78329Y8448D01*
Y7214D01*
X77988D01*
Y5714D01*
X78663D01*
Y4814D01*
X77988D01*
Y4347D01*
X77354D01*
Y4814D01*
X75554D01*
Y3214D01*
X77354D01*
Y3681D01*
X77988D01*
Y3314D01*
X79588D01*
Y3860D01*
X81288D01*
Y3314D01*
X82888D01*
Y3731D01*
X83185D01*
X83313Y3756D01*
X83421Y3828D01*
X83675Y4082D01*
X83747Y4190D01*
X83772Y4318D01*
Y5831D01*
X84127Y6185D01*
X84244Y6137D01*
Y5033D01*
X84361D01*
Y4190D01*
X84194D01*
Y2990D01*
X84194D01*
X84227Y2910D01*
X83429Y2112D01*
X83312Y2136D01*
X83078Y2089D01*
X82879Y1957D01*
X82747Y1758D01*
X82700Y1524D01*
X82747Y1290D01*
X82879Y1091D01*
X83078Y959D01*
X83312Y912D01*
X83546Y959D01*
X83745Y1091D01*
X83877Y1290D01*
X83924Y1524D01*
X83900Y1641D01*
X84982Y2722D01*
X85054Y2830D01*
X85079Y2958D01*
Y2990D01*
X85394D01*
Y4190D01*
X85027D01*
Y5033D01*
X85144D01*
Y6383D01*
X85236Y6467D01*
X85262D01*
X85538Y6191D01*
Y5831D01*
X85544Y5799D01*
Y5033D01*
X85961D01*
Y4190D01*
X85694D01*
Y2990D01*
X86894D01*
Y4190D01*
X86627D01*
Y5211D01*
X86602Y5339D01*
X86530Y5447D01*
X86444Y5533D01*
Y6383D01*
X86194D01*
X86179Y6457D01*
X86107Y6565D01*
X86072Y6600D01*
X86636Y7164D01*
X86708Y7272D01*
X86733Y7400D01*
Y9600D01*
X86708Y9728D01*
X86636Y9836D01*
X85936Y10536D01*
X85828Y10608D01*
X85700Y10633D01*
X79380D01*
X78783Y11231D01*
X78675Y11303D01*
X78547Y11328D01*
X66233D01*
X66105Y11303D01*
X65997Y11231D01*
X65400Y10633D01*
X55472D01*
X52933Y13172D01*
Y15000D01*
X52908Y15128D01*
X52836Y15236D01*
X50691Y17381D01*
X50583Y17453D01*
X50455Y17478D01*
X49894D01*
X49876Y17505D01*
X49710Y17616D01*
X49515Y17655D01*
X48215D01*
X48020Y17616D01*
X47855Y17505D01*
X47744Y17340D01*
X47705Y17145D01*
X47744Y16950D01*
X47855Y16785D01*
X48020Y16674D01*
X48215Y16635D01*
X49515D01*
X49710Y16674D01*
X49876Y16785D01*
X49894Y16812D01*
X50317D01*
X52267Y14862D01*
Y13034D01*
X52292Y12906D01*
X52364Y12798D01*
X55076Y10086D01*
X55056Y10002D01*
X55027Y9959D01*
X33572D01*
X33519Y10086D01*
X37632Y14199D01*
X37755Y14245D01*
X37920Y14134D01*
X38115Y14095D01*
X39415D01*
X39610Y14134D01*
X39776Y14245D01*
X39886Y14410D01*
X39925Y14605D01*
X39886Y14800D01*
X39776Y14965D01*
X39610Y15076D01*
X39415Y15115D01*
X38115D01*
X37920Y15076D01*
X37755Y14965D01*
X37736Y14938D01*
X37567D01*
X37439Y14913D01*
X37332Y14994D01*
X37333Y15000D01*
Y15496D01*
X37379Y15542D01*
X37736D01*
X37755Y15515D01*
X37920Y15404D01*
X38115Y15365D01*
X39415D01*
X39610Y15404D01*
X39776Y15515D01*
X39886Y15680D01*
X39925Y15875D01*
X39886Y16070D01*
X39776Y16235D01*
X39610Y16346D01*
X39415Y16385D01*
X38115D01*
X37920Y16346D01*
X37755Y16235D01*
X37736Y16208D01*
X37113D01*
X36985Y16183D01*
X36877Y16111D01*
X36805Y16003D01*
X36782Y15888D01*
X36764Y15870D01*
X36692Y15762D01*
X36667Y15634D01*
Y15138D01*
X32762Y11233D01*
X28286D01*
X26984Y12536D01*
X26876Y12608D01*
X26805Y12622D01*
X26738Y12656D01*
X26700Y12743D01*
Y14025D01*
X26700Y14025D01*
X26694Y14152D01*
X26721Y14289D01*
Y14900D01*
X27260Y15440D01*
X27371Y15605D01*
X27410Y15800D01*
Y18389D01*
X29011Y19990D01*
X35225D01*
X35325Y19925D01*
Y18875D01*
X35509D01*
Y18395D01*
X35305D01*
Y17345D01*
X37255D01*
Y17739D01*
X37370D01*
X37497Y17764D01*
X37604Y17836D01*
X37785Y18017D01*
X37811D01*
X37920Y17944D01*
X38115Y17905D01*
X39415D01*
X39610Y17944D01*
X39776Y18055D01*
X39794Y18082D01*
X42166D01*
X42185Y18055D01*
X42350Y17944D01*
X42545Y17905D01*
X42740Y17944D01*
X42905Y18055D01*
X43016Y18220D01*
X43055Y18415D01*
X43016Y18610D01*
X42905Y18775D01*
X42740Y18886D01*
X42545Y18925D01*
X42350Y18886D01*
X42185Y18775D01*
X42166Y18748D01*
X39794D01*
X39776Y18775D01*
X39610Y18886D01*
X39415Y18925D01*
X38115D01*
X37920Y18886D01*
X37755Y18775D01*
X37690Y18679D01*
X37648D01*
X37521Y18654D01*
X37414Y18582D01*
X37233Y18401D01*
X36930D01*
X36898Y18395D01*
X36171D01*
Y18875D01*
X37275D01*
Y19069D01*
X37735D01*
X37862Y19094D01*
X37970Y19166D01*
X38002Y19198D01*
X38115Y19175D01*
X39415D01*
X39610Y19214D01*
X39776Y19325D01*
X39794Y19352D01*
X44693D01*
X45272Y18772D01*
X45249Y18737D01*
X45210Y18542D01*
X45249Y18347D01*
X45360Y18182D01*
X45525Y18071D01*
X45720Y18032D01*
X45915Y18071D01*
X46080Y18182D01*
X46191Y18347D01*
X46230Y18542D01*
X46191Y18737D01*
X46080Y18902D01*
X46011Y18949D01*
X45956Y19032D01*
X45067Y19921D01*
X44959Y19993D01*
X44831Y20018D01*
X39794D01*
X39776Y20045D01*
X39610Y20156D01*
X39415Y20195D01*
X38115D01*
X37920Y20156D01*
X37755Y20045D01*
X37644Y19880D01*
X37619Y19752D01*
X37598Y19731D01*
X37275D01*
Y19925D01*
X36181D01*
Y20160D01*
X36336Y20315D01*
X36666D01*
X36692Y20298D01*
X36926Y20252D01*
X37160Y20298D01*
X37358Y20431D01*
X37491Y20629D01*
X37516Y20754D01*
X37633Y20759D01*
X37646Y20757D01*
X37755Y20595D01*
X37920Y20484D01*
X38115Y20445D01*
X39415D01*
X39610Y20484D01*
X39776Y20595D01*
X39794Y20622D01*
X41205D01*
X41333Y20647D01*
X41441Y20719D01*
X43022Y22300D01*
X43750D01*
Y23490D01*
X43996D01*
Y23027D01*
X44650D01*
X45304D01*
Y23490D01*
X47300D01*
X47495Y23529D01*
X47660Y23640D01*
X47774Y23753D01*
X49562Y21964D01*
X49670Y21892D01*
X49798Y21867D01*
X50612D01*
X51300Y21178D01*
Y20450D01*
X52500D01*
Y21650D01*
X51772D01*
X50986Y22436D01*
X50878Y22508D01*
X50750Y22533D01*
X49936D01*
X48245Y24224D01*
X48358Y24338D01*
X48469Y24503D01*
X48508Y24698D01*
Y25200D01*
X49222D01*
Y28140D01*
D02*
G37*
G36*
X50069Y20828D02*
X48992D01*
Y20401D01*
X50069D01*
Y20828D01*
D02*
G37*
G36*
X48738D02*
X47661D01*
Y20401D01*
X48738D01*
Y20828D01*
D02*
G37*
G36*
X54154Y20923D02*
X53627D01*
Y20396D01*
X54154D01*
Y20923D01*
D02*
G37*
G36*
X53373D02*
X52846D01*
Y20396D01*
X53373D01*
Y20923D01*
D02*
G37*
G36*
X49515Y20195D02*
X48215D01*
X48020Y20156D01*
X47855Y20045D01*
X47744Y19880D01*
X47705Y19685D01*
X47744Y19490D01*
X47855Y19325D01*
X48020Y19214D01*
X48215Y19175D01*
X49515D01*
X49710Y19214D01*
X49876Y19325D01*
X49894Y19352D01*
X51300D01*
Y18950D01*
X52500D01*
Y19217D01*
X52900D01*
Y18950D01*
X54100D01*
Y20150D01*
X52900D01*
Y19883D01*
X52500D01*
Y20150D01*
X51300D01*
Y20018D01*
X49894D01*
X49876Y20045D01*
X49710Y20156D01*
X49515Y20195D01*
D02*
G37*
G36*
Y18980D02*
X48992D01*
Y18542D01*
X50055D01*
X50037Y18631D01*
X49914Y18814D01*
X49731Y18937D01*
X49515Y18980D01*
D02*
G37*
G36*
X48738D02*
X48215D01*
X47999Y18937D01*
X47816Y18814D01*
X47693Y18631D01*
X47675Y18542D01*
X48738D01*
Y18980D01*
D02*
G37*
G36*
X50055Y18288D02*
X48992D01*
Y17850D01*
X49515D01*
X49731Y17893D01*
X49914Y18016D01*
X50037Y18199D01*
X50055Y18288D01*
D02*
G37*
G36*
X48738D02*
X47675D01*
X47693Y18199D01*
X47816Y18016D01*
X47999Y17893D01*
X48215Y17850D01*
X48738D01*
Y18288D01*
D02*
G37*
G36*
X25173Y18154D02*
X24296D01*
Y17377D01*
X25173D01*
Y18154D01*
D02*
G37*
G36*
X39415Y17655D02*
X38115D01*
X37920Y17616D01*
X37755Y17505D01*
X37644Y17340D01*
X37605Y17145D01*
X37644Y16950D01*
X37755Y16785D01*
X37920Y16674D01*
X38115Y16635D01*
X39415D01*
X39610Y16674D01*
X39776Y16785D01*
X39886Y16950D01*
X39925Y17145D01*
X39886Y17340D01*
X39776Y17505D01*
X39610Y17616D01*
X39415Y17655D01*
D02*
G37*
G36*
X25173Y17123D02*
X24296D01*
Y16346D01*
X25173D01*
Y17123D01*
D02*
G37*
G36*
X57912Y18415D02*
Y15367D01*
X60960D01*
X60931Y15738D01*
X60814Y16224D01*
X60623Y16686D01*
X60362Y17112D01*
X60037Y17492D01*
X59657Y17817D01*
X59231Y18078D01*
X58769Y18269D01*
X58283Y18386D01*
X57912Y18415D01*
D02*
G37*
G36*
X57658D02*
X57287Y18386D01*
X56801Y18269D01*
X56339Y18078D01*
X55913Y17817D01*
X55533Y17492D01*
X55208Y17112D01*
X54947Y16686D01*
X54756Y16224D01*
X54639Y15738D01*
X54610Y15367D01*
X57658D01*
Y18415D01*
D02*
G37*
G36*
X31242D02*
Y15367D01*
X34290D01*
X34261Y15738D01*
X34144Y16224D01*
X33953Y16686D01*
X33692Y17112D01*
X33367Y17492D01*
X32987Y17817D01*
X32561Y18078D01*
X32099Y18269D01*
X31613Y18386D01*
X31242Y18415D01*
D02*
G37*
G36*
X30988D02*
X30617Y18386D01*
X30131Y18269D01*
X29669Y18078D01*
X29243Y17817D01*
X28863Y17492D01*
X28538Y17112D01*
X28277Y16686D01*
X28086Y16224D01*
X27969Y15738D01*
X27940Y15367D01*
X30988D01*
Y18415D01*
D02*
G37*
G36*
X46203Y16131D02*
X46008Y16092D01*
X45842Y15981D01*
X45732Y15816D01*
X45693Y15621D01*
X45732Y15426D01*
X45842Y15261D01*
X46008Y15150D01*
X46187Y15114D01*
X46932Y14369D01*
X47040Y14297D01*
X47168Y14272D01*
X47836D01*
X47855Y14245D01*
X48020Y14134D01*
X48215Y14095D01*
X49515D01*
X49710Y14134D01*
X49876Y14245D01*
X49986Y14410D01*
X50025Y14605D01*
X49986Y14800D01*
X49876Y14965D01*
X49710Y15076D01*
X49515Y15115D01*
X48215D01*
X48020Y15076D01*
X47855Y14965D01*
X47836Y14938D01*
X47306D01*
X46698Y15547D01*
X46712Y15621D01*
X46674Y15816D01*
X46563Y15981D01*
X46398Y16092D01*
X46203Y16131D01*
D02*
G37*
G36*
X49515Y16385D02*
X48215D01*
X48020Y16346D01*
X47855Y16235D01*
X47744Y16070D01*
X47705Y15875D01*
X47744Y15680D01*
X47855Y15515D01*
X48020Y15404D01*
X48215Y15365D01*
X49515D01*
X49710Y15404D01*
X49876Y15515D01*
X49894Y15542D01*
X50287D01*
X51100Y14728D01*
Y14145D01*
X51073Y14127D01*
X50963Y13961D01*
X50924Y13766D01*
X50963Y13571D01*
X51073Y13406D01*
X51239Y13295D01*
X51434Y13256D01*
X51629Y13295D01*
X51794Y13406D01*
X51905Y13571D01*
X51944Y13766D01*
X51905Y13961D01*
X51794Y14127D01*
X51767Y14145D01*
Y14866D01*
X51742Y14994D01*
X51670Y15102D01*
X50661Y16111D01*
X50553Y16183D01*
X50425Y16208D01*
X49894D01*
X49876Y16235D01*
X49710Y16346D01*
X49515Y16385D01*
D02*
G37*
G36*
X46228Y13896D02*
X46033Y13857D01*
X45868Y13746D01*
X45757Y13581D01*
X45718Y13386D01*
X45757Y13191D01*
X45868Y13025D01*
X46033Y12915D01*
X46228Y12876D01*
X46423Y12915D01*
X46553Y13002D01*
X47836D01*
X47855Y12975D01*
X48020Y12864D01*
X48215Y12825D01*
X49515D01*
X49710Y12864D01*
X49876Y12975D01*
X49986Y13140D01*
X50025Y13335D01*
X49986Y13530D01*
X49876Y13695D01*
X49710Y13806D01*
X49515Y13845D01*
X48215D01*
X48020Y13806D01*
X47855Y13695D01*
X47836Y13668D01*
X46641D01*
X46588Y13746D01*
X46423Y13857D01*
X46228Y13896D01*
D02*
G37*
G36*
X39415Y13845D02*
X38115D01*
X37920Y13806D01*
X37755Y13695D01*
X37707Y13624D01*
X37565D01*
X37437Y13599D01*
X37329Y13526D01*
X36264Y12462D01*
X36192Y12354D01*
X36167Y12226D01*
Y11979D01*
X36140Y11960D01*
X36029Y11795D01*
X35990Y11600D01*
X36029Y11405D01*
X36140Y11240D01*
X36305Y11129D01*
X36500Y11090D01*
X36695Y11129D01*
X36860Y11240D01*
X36971Y11405D01*
X37010Y11600D01*
X36971Y11795D01*
X36860Y11960D01*
X36850Y11968D01*
X36842Y12096D01*
X37703Y12957D01*
X37781D01*
X37920Y12864D01*
X38115Y12825D01*
X39415D01*
X39610Y12864D01*
X39776Y12975D01*
X39886Y13140D01*
X39925Y13335D01*
X39886Y13530D01*
X39776Y13695D01*
X39610Y13806D01*
X39415Y13845D01*
D02*
G37*
G36*
X41100Y12610D02*
X40905Y12571D01*
X40740Y12460D01*
X40710Y12416D01*
X39782D01*
X39776Y12425D01*
X39610Y12536D01*
X39415Y12575D01*
X38115D01*
X37920Y12536D01*
X37755Y12425D01*
X37644Y12260D01*
X37605Y12065D01*
X37644Y11870D01*
X37755Y11705D01*
X37920Y11594D01*
X38115Y11555D01*
X39415D01*
X39610Y11594D01*
X39776Y11705D01*
X39805Y11749D01*
X40733D01*
X40740Y11740D01*
X40905Y11629D01*
X41100Y11590D01*
X41295Y11629D01*
X41460Y11740D01*
X41571Y11905D01*
X41610Y12100D01*
X41571Y12295D01*
X41460Y12460D01*
X41295Y12571D01*
X41100Y12610D01*
D02*
G37*
G36*
X49515Y12630D02*
X48992D01*
Y12192D01*
X50055D01*
X50037Y12281D01*
X49914Y12464D01*
X49731Y12587D01*
X49515Y12630D01*
D02*
G37*
G36*
X48738D02*
X48215D01*
X47999Y12587D01*
X47816Y12464D01*
X47693Y12281D01*
X47675Y12192D01*
X48738D01*
Y12630D01*
D02*
G37*
G36*
X60960Y15113D02*
X57912D01*
Y12065D01*
X58283Y12094D01*
X58769Y12211D01*
X59231Y12402D01*
X59657Y12663D01*
X60037Y12988D01*
X60362Y13368D01*
X60623Y13794D01*
X60814Y14256D01*
X60931Y14742D01*
X60960Y15113D01*
D02*
G37*
G36*
X57658D02*
X54610D01*
X54639Y14742D01*
X54756Y14256D01*
X54947Y13794D01*
X55208Y13368D01*
X55533Y12988D01*
X55913Y12663D01*
X56339Y12402D01*
X56801Y12211D01*
X57287Y12094D01*
X57658Y12065D01*
Y15113D01*
D02*
G37*
G36*
X34290D02*
X31242D01*
Y12065D01*
X31613Y12094D01*
X32099Y12211D01*
X32561Y12402D01*
X32987Y12663D01*
X33367Y12988D01*
X33692Y13368D01*
X33953Y13794D01*
X34144Y14256D01*
X34261Y14742D01*
X34290Y15113D01*
D02*
G37*
G36*
X30988D02*
X27940D01*
X27969Y14742D01*
X28086Y14256D01*
X28277Y13794D01*
X28538Y13368D01*
X28863Y12988D01*
X29243Y12663D01*
X29669Y12402D01*
X30131Y12211D01*
X30617Y12094D01*
X30988Y12065D01*
Y15113D01*
D02*
G37*
G36*
X50055Y11938D02*
X48992D01*
Y11500D01*
X49515D01*
X49731Y11543D01*
X49914Y11666D01*
X50037Y11849D01*
X50055Y11938D01*
D02*
G37*
G36*
X48738D02*
X47675D01*
X47693Y11849D01*
X47816Y11666D01*
X47999Y11543D01*
X48215Y11500D01*
X48738D01*
Y11938D01*
D02*
G37*
G36*
X36267Y8683D02*
X35367D01*
Y8433D01*
X35079D01*
X35060Y8460D01*
X34895Y8571D01*
X34700Y8610D01*
X34505Y8571D01*
X34340Y8460D01*
X34229Y8295D01*
X34190Y8100D01*
X34229Y7905D01*
X34340Y7740D01*
X34505Y7629D01*
X34700Y7590D01*
X34895Y7629D01*
X35060Y7740D01*
X35079Y7767D01*
X35367D01*
Y7333D01*
X36267D01*
Y8683D01*
D02*
G37*
G36*
X71200Y8910D02*
X71005Y8871D01*
X70840Y8760D01*
X70729Y8595D01*
X70690Y8400D01*
X70729Y8205D01*
X70840Y8040D01*
X71005Y7929D01*
X71200Y7890D01*
X71310Y7912D01*
X71400Y7822D01*
X71508Y7750D01*
X71636Y7725D01*
X72512D01*
Y7333D01*
X73412D01*
Y8683D01*
X72512D01*
Y8391D01*
X71774D01*
X71696Y8469D01*
X71671Y8595D01*
X71560Y8760D01*
X71395Y8871D01*
X71200Y8910D01*
D02*
G37*
G36*
X58600Y8810D02*
X58405Y8771D01*
X58240Y8660D01*
X58129Y8495D01*
X58090Y8300D01*
X58129Y8105D01*
X58240Y7940D01*
X58405Y7829D01*
X58600Y7790D01*
X58703Y7811D01*
X58888Y7625D01*
X58996Y7553D01*
X59124Y7528D01*
X60130D01*
Y7136D01*
X61030D01*
Y8486D01*
X60130D01*
Y8194D01*
X59262D01*
X59098Y8358D01*
X59071Y8495D01*
X58960Y8660D01*
X58795Y8771D01*
X58600Y8810D01*
D02*
G37*
G36*
X21800Y9510D02*
X21605Y9471D01*
X21440Y9360D01*
X21329Y9195D01*
X21290Y9000D01*
X21329Y8805D01*
X21440Y8640D01*
X21605Y8529D01*
X21800Y8490D01*
X21832Y8497D01*
X22462Y7866D01*
X22570Y7794D01*
X22698Y7769D01*
X22985D01*
Y7079D01*
X23885D01*
Y8429D01*
X23344D01*
X23312Y8435D01*
X22836D01*
X22303Y8968D01*
X22310Y9000D01*
X22271Y9195D01*
X22160Y9360D01*
X21995Y9471D01*
X21800Y9510D01*
D02*
G37*
G36*
X9200D02*
X9005Y9471D01*
X8840Y9360D01*
X8729Y9195D01*
X8690Y9000D01*
X8729Y8805D01*
X8840Y8640D01*
X9005Y8529D01*
X9200Y8490D01*
X9232Y8497D01*
X10160Y7568D01*
X10268Y7496D01*
X10396Y7471D01*
X10603D01*
Y7079D01*
X11503D01*
Y8429D01*
X10603D01*
Y8248D01*
X10476Y8195D01*
X9703Y8968D01*
X9710Y9000D01*
X9671Y9195D01*
X9560Y9360D01*
X9395Y9471D01*
X9200Y9510D01*
D02*
G37*
G36*
X33364Y7408D02*
X32637D01*
Y6731D01*
X33364D01*
Y7408D01*
D02*
G37*
G36*
X70560Y7268D02*
X69833D01*
Y6591D01*
X70560D01*
Y7268D01*
D02*
G37*
G36*
X21033Y7154D02*
X20306D01*
Y6477D01*
X21033D01*
Y7154D01*
D02*
G37*
G36*
X8651D02*
X7924D01*
Y6477D01*
X8651D01*
Y7154D01*
D02*
G37*
G36*
X58177Y7141D02*
X57450D01*
Y6464D01*
X58177D01*
Y7141D01*
D02*
G37*
G36*
X27773Y6858D02*
X26946D01*
Y6131D01*
X27773D01*
Y6858D01*
D02*
G37*
G36*
X26692D02*
X25865D01*
Y6131D01*
X26692D01*
Y6858D01*
D02*
G37*
G36*
X52751Y6741D02*
X51924D01*
Y6014D01*
X52751D01*
Y6741D01*
D02*
G37*
G36*
X51670D02*
X50843D01*
Y6014D01*
X51670D01*
Y6741D01*
D02*
G37*
G36*
X65111Y6718D02*
X64284D01*
Y5991D01*
X65111D01*
Y6718D01*
D02*
G37*
G36*
X40219D02*
X39392D01*
Y5991D01*
X40219D01*
Y6718D01*
D02*
G37*
G36*
X64030D02*
X63203D01*
Y5991D01*
X64030D01*
Y6718D01*
D02*
G37*
G36*
X39138D02*
X38311D01*
Y5991D01*
X39138D01*
Y6718D01*
D02*
G37*
G36*
X77408Y6668D02*
X76581D01*
Y5941D01*
X77408D01*
Y6668D01*
D02*
G37*
G36*
X76327D02*
X75500D01*
Y5941D01*
X76327D01*
Y6668D01*
D02*
G37*
G36*
X15554Y6654D02*
X14727D01*
Y5927D01*
X15554D01*
Y6654D01*
D02*
G37*
G36*
X3154D02*
X2327D01*
Y5927D01*
X3154D01*
Y6654D01*
D02*
G37*
G36*
X2073D02*
X1246D01*
Y5927D01*
X2073D01*
Y6654D01*
D02*
G37*
G36*
X14473D02*
X13646D01*
Y5927D01*
X14473D01*
Y6654D01*
D02*
G37*
G36*
X27773Y5877D02*
X26946D01*
Y5150D01*
X27773D01*
Y5877D01*
D02*
G37*
G36*
X26692D02*
X25865D01*
Y5150D01*
X26692D01*
Y5877D01*
D02*
G37*
G36*
X52751Y5760D02*
X51924D01*
Y5033D01*
X52751D01*
Y5760D01*
D02*
G37*
G36*
X51670D02*
X50843D01*
Y5033D01*
X51670D01*
Y5760D01*
D02*
G37*
G36*
X65111Y5737D02*
X64284D01*
Y5010D01*
X65111D01*
Y5737D01*
D02*
G37*
G36*
X64030D02*
X63203D01*
Y5010D01*
X64030D01*
Y5737D01*
D02*
G37*
G36*
X40219D02*
X39392D01*
Y5010D01*
X40219D01*
Y5737D01*
D02*
G37*
G36*
X39138D02*
X38311D01*
Y5010D01*
X39138D01*
Y5737D01*
D02*
G37*
G36*
X77408Y5687D02*
X76581D01*
Y4960D01*
X77408D01*
Y5687D01*
D02*
G37*
G36*
X76327D02*
X75500D01*
Y4960D01*
X76327D01*
Y5687D01*
D02*
G37*
G36*
X15554Y5673D02*
X14727D01*
Y4946D01*
X15554D01*
Y5673D01*
D02*
G37*
G36*
X14473D02*
X13646D01*
Y4946D01*
X14473D01*
Y5673D01*
D02*
G37*
G36*
X3154D02*
X2327D01*
Y4946D01*
X3154D01*
Y5673D01*
D02*
G37*
G36*
X2073D02*
X1246D01*
Y4946D01*
X2073D01*
Y5673D01*
D02*
G37*
G36*
X23235Y6129D02*
X22335D01*
Y4779D01*
X22602D01*
Y4278D01*
X22336D01*
Y3078D01*
X22336Y3078D01*
X22336D01*
X22302Y2961D01*
X21601Y2261D01*
X21590Y2263D01*
X21356Y2216D01*
X21157Y2084D01*
X21025Y1885D01*
X20978Y1651D01*
X21025Y1417D01*
X21157Y1218D01*
X21356Y1086D01*
X21590Y1039D01*
X21824Y1086D01*
X22023Y1218D01*
X22155Y1417D01*
X22202Y1651D01*
X22157Y1874D01*
X23093Y2810D01*
X23166Y2918D01*
X23191Y3046D01*
Y3078D01*
X23536D01*
Y4278D01*
X23269D01*
Y5078D01*
X23244Y5206D01*
X23235Y5219D01*
Y6129D01*
D02*
G37*
%LPD*%
G36*
X42550Y22772D02*
X41067Y21288D01*
X39794D01*
X39776Y21315D01*
X39610Y21426D01*
X39415Y21465D01*
X38115D01*
X37920Y21426D01*
X37755Y21315D01*
X37644Y21150D01*
X37627Y21064D01*
X37497D01*
X37491Y21098D01*
X37474Y21123D01*
Y21553D01*
X37879Y21958D01*
X39268D01*
X39463Y21997D01*
X39628Y22107D01*
X41011Y23490D01*
X42550D01*
Y22772D01*
D02*
G37*
G36*
X86067Y9462D02*
Y7538D01*
X85921Y7392D01*
X85794Y7445D01*
Y8683D01*
X84894D01*
Y8391D01*
X84680D01*
X83703Y9368D01*
X83710Y9400D01*
X83671Y9595D01*
X83560Y9760D01*
X83442Y9840D01*
X83481Y9967D01*
X85562D01*
X86067Y9462D01*
D02*
G37*
G36*
X79006Y10064D02*
X79114Y9992D01*
X79242Y9967D01*
X82919D01*
X82958Y9840D01*
X82840Y9760D01*
X82729Y9595D01*
X82690Y9400D01*
X82729Y9205D01*
X82840Y9040D01*
X83005Y8929D01*
X83200Y8890D01*
X83232Y8897D01*
X84306Y7822D01*
X84414Y7750D01*
X84542Y7725D01*
X84894D01*
Y7333D01*
X85682D01*
X85734Y7206D01*
X85593Y7064D01*
X85528Y7108D01*
X85400Y7133D01*
X84270D01*
X84142Y7108D01*
X84034Y7036D01*
X83203Y6205D01*
X83131Y6097D01*
X83106Y5969D01*
Y4456D01*
X83047Y4397D01*
X82888D01*
Y4814D01*
X82246D01*
Y5660D01*
X82942D01*
Y6337D01*
X82088D01*
Y6464D01*
X81961D01*
Y7268D01*
X81234D01*
Y6554D01*
X79588D01*
Y7214D01*
X79247D01*
Y8638D01*
X79212Y8814D01*
X79112Y8963D01*
X77924Y10151D01*
X77775Y10251D01*
X77599Y10286D01*
X66719D01*
X66543Y10251D01*
X66394Y10151D01*
X66202Y9959D01*
X65844D01*
X65815Y10002D01*
X65795Y10086D01*
X66371Y10662D01*
X78409D01*
X79006Y10064D01*
D02*
G37*
%LPC*%
G36*
X82942Y7268D02*
X82215D01*
Y6591D01*
X82942D01*
Y7268D01*
D02*
G37*
%LPD*%
D15*
X25800Y17650D02*
Y18941D01*
X25807Y18948D01*
X25300Y17250D02*
X25400D01*
X25800Y17650D01*
X25600Y10341D02*
Y10541D01*
X25412Y10529D02*
X25600Y10341D01*
Y10541D02*
Y11050D01*
X16879Y10529D02*
X25412D01*
X25600Y10341D02*
X27041Y8900D01*
X29261Y6604D02*
Y8900D01*
X31600D02*
X32200Y9500D01*
X41642D01*
X29261Y8900D02*
X31600D01*
X27041D02*
X29261D01*
X66719Y9827D02*
X77599D01*
X78788Y8638D01*
X66406Y9514D02*
X66719Y9827D01*
X41642Y9500D02*
X54024D01*
X66406D02*
Y9514D01*
X54024Y9500D02*
X66406D01*
X78788Y6464D02*
Y8638D01*
X66406Y6464D02*
Y9500D01*
X54024Y6350D02*
Y9500D01*
X41642Y6477D02*
Y9500D01*
X4497Y8089D02*
X6949Y10541D01*
X16879Y10529D02*
X16891Y10541D01*
X6949D02*
X16891D01*
X16879Y6350D02*
Y10529D01*
X4497Y6350D02*
Y8089D01*
X66040Y15240D02*
G03*
X57785Y23495I-8255J0D01*
G01*
X31115D02*
G03*
X22860Y15240I0J-8255D01*
G01*
X0Y0D02*
X88265D01*
Y12065D01*
X66040D02*
X88265D01*
X66040D02*
Y15240D01*
X50800Y23495D02*
X57785D01*
X50800D02*
Y31115D01*
X38100D02*
X50800D01*
X38100Y23495D02*
Y31115D01*
X31115Y23495D02*
X38100D01*
X22860Y12065D02*
Y15240D01*
X0Y12065D02*
X22860D01*
X0Y0D02*
Y12065D01*
D16*
X10660Y3556D02*
D03*
X22936Y3678D02*
D03*
X35405Y3810D02*
D03*
X43150Y22900D02*
D03*
X47777Y3556D02*
D03*
X60050Y3600D02*
D03*
X84794Y3590D02*
D03*
X72319Y3829D02*
D03*
X44650Y22900D02*
D03*
X61550Y3600D02*
D03*
X12160Y3556D02*
D03*
X86294Y3590D02*
D03*
X49277Y3556D02*
D03*
X36905Y3810D02*
D03*
X73819Y3829D02*
D03*
X24436Y3678D02*
D03*
D24*
X39000Y18415D02*
X42545D01*
X38765D02*
X39000D01*
X35167Y2782D02*
Y3810D01*
X21463Y1651D02*
X22858Y3046D01*
Y3600D01*
X34036Y1651D02*
X35167Y2782D01*
X22936Y3678D02*
Y5078D01*
X22858Y3600D02*
X22936Y3678D01*
X22785Y5229D02*
Y5454D01*
Y5229D02*
X22936Y5078D01*
X35405Y3810D02*
Y5245D01*
X35167Y5483D02*
Y5708D01*
Y5483D02*
X35405Y5245D01*
X38765Y20955D02*
X41205D01*
X43150Y22900D01*
Y23970D02*
X43180Y24000D01*
X46228Y1524D02*
X46324Y1620D01*
Y2103D01*
X47777Y3556D01*
X58674Y1524D02*
X60050Y2900D01*
Y3600D01*
X70993Y1524D02*
X71959Y2490D01*
Y3469D01*
X83312Y1524D02*
X84746Y2958D01*
Y3542D01*
X47549Y5229D02*
Y5454D01*
Y5229D02*
X47777Y5001D01*
Y3556D02*
Y5001D01*
X50750Y22200D02*
X51900Y21050D01*
X43150Y22900D02*
Y23970D01*
X47649Y24349D02*
X49798Y22200D01*
X50750D01*
X71959Y3469D02*
X72319Y3829D01*
X84694Y3690D02*
X84794Y3590D01*
X84746Y3542D02*
X84794Y3590D01*
X60050Y3600D02*
Y5391D01*
X59930Y5511D02*
X60050Y5391D01*
X84694Y3690D02*
Y5708D01*
X72312Y3835D02*
Y5708D01*
X26250Y13350D02*
Y14250D01*
X10403Y3813D02*
X10660Y3556D01*
X10403Y3813D02*
Y5454D01*
X10600Y3496D02*
X10660Y3556D01*
X10600Y1600D02*
Y3496D01*
X37241Y15875D02*
X38765D01*
X37113D02*
X37241D01*
X37000Y15634D02*
X37241Y15875D01*
X37000Y15000D02*
Y15634D01*
X28148Y10900D02*
X32900D01*
X37000Y15000D01*
X26748Y12300D02*
X28148Y10900D01*
X33162Y10200D02*
X37567Y14605D01*
X38765D01*
X26900Y10200D02*
X33162D01*
X37565Y13290D02*
X38721D01*
X36500Y12226D02*
X37565Y13290D01*
X36500Y11600D02*
Y12226D01*
X38721Y13290D02*
X38765Y13335D01*
X35775Y8100D02*
X35817Y8058D01*
X34700Y8100D02*
X35775D01*
X25200Y7369D02*
Y7400D01*
X24435Y6604D02*
X25200Y7369D01*
X24130Y6604D02*
X24435D01*
X54950Y22500D02*
X55000D01*
X53500Y21050D02*
X54950Y22500D01*
X51900Y19550D02*
X53500D01*
X25400Y12300D02*
X26748D01*
X24950Y12750D02*
X25400Y12300D01*
X24950Y13350D02*
X24950Y12750D01*
X69773Y6337D02*
Y7395D01*
X45008Y6350D02*
Y7644D01*
X32400Y6766D02*
X32562Y6604D01*
X20100Y6493D02*
X20243Y6350D01*
X76440Y5800D02*
X76454Y5814D01*
X75100Y5800D02*
X76440D01*
X73612Y5708D02*
Y6398D01*
Y5483D02*
Y5708D01*
X48865Y15875D02*
X50425D01*
X51434Y14866D01*
Y13766D02*
Y14866D01*
X46595Y20955D02*
X48865D01*
X44650Y22900D02*
X46595Y20955D01*
X867Y5806D02*
X2194D01*
X13267D02*
X14594D01*
X25485Y6010D02*
X26812D01*
X37931Y5870D02*
X39258D01*
X50464Y5893D02*
X51791D01*
X62823Y5870D02*
X64150D01*
X2200Y4000D02*
X4447D01*
X4497Y3950D01*
X14600D02*
X16879D01*
X33909Y6564D02*
X34058Y6713D01*
X33909Y4445D02*
Y6564D01*
X34058Y6713D02*
X36467D01*
X38009Y8255D01*
X39624D01*
X36467Y5708D02*
Y6713D01*
Y5483D02*
Y5708D01*
X32558Y4191D02*
X33655D01*
X36590Y5360D02*
X36756D01*
X36905Y5211D01*
X36467Y5483D02*
X36590Y5360D01*
X36905Y3810D02*
Y5211D01*
X51893Y2007D02*
X56617D01*
X51300Y2600D02*
X51893Y2007D01*
X53873Y4087D02*
X54023Y3937D01*
X51797Y4087D02*
X53873D01*
X48849Y5229D02*
X49277Y4801D01*
Y3556D02*
Y4801D01*
X61530Y3675D02*
X61649Y3556D01*
X69382Y3740D02*
X69706Y4064D01*
X69382Y3282D02*
Y3740D01*
X68400Y2300D02*
X69382Y3282D01*
X66400Y2300D02*
X68400D01*
X73819Y3829D02*
Y5276D01*
X73612Y5483D02*
X73819Y5276D01*
X86294Y3590D02*
Y5211D01*
X85994Y5483D02*
X86117Y5360D01*
X85994Y5483D02*
Y5708D01*
X86145Y5360D02*
X86294Y5211D01*
X86117Y5360D02*
X86145D01*
X85600Y6600D02*
X86400Y7400D01*
X85400Y6800D02*
X85600Y6600D01*
X86400Y7400D02*
Y9600D01*
X85600Y6600D02*
X85871Y6329D01*
Y5831D02*
Y6329D01*
Y5831D02*
X85994Y5708D01*
X83439Y5969D02*
X84270Y6800D01*
X85400D01*
X85700Y10300D02*
X86400Y9600D01*
X79242Y10300D02*
X85700D01*
X48946Y6477D02*
X50200Y7731D01*
Y7800D01*
X48849Y5229D02*
Y6380D01*
X46482Y6477D02*
X48849D01*
X48946D01*
X44877Y4064D02*
X45974D01*
X57323Y3937D02*
X58420D01*
X46203Y15570D02*
X47168Y14605D01*
X48865D01*
X46203Y15570D02*
Y15621D01*
X57323Y2713D02*
Y3937D01*
X56617Y2007D02*
X57323Y2713D01*
X61530Y3675D02*
Y5211D01*
X58420Y3937D02*
X58740Y4257D01*
Y6035D01*
X61230Y5511D02*
X61530Y5211D01*
X58740Y6035D02*
X59072Y6367D01*
X60943D01*
X61230Y5511D02*
Y6080D01*
X60943Y6367D02*
X61230Y6080D01*
X57300Y6377D02*
Y7800D01*
X82200Y6458D02*
Y8100D01*
X70100Y7722D02*
Y7800D01*
X82092Y6350D02*
X82200Y6458D01*
X69773Y7395D02*
X70100Y7722D01*
X44800Y7852D02*
Y8000D01*
Y7852D02*
X45008Y7644D01*
X32400Y6766D02*
Y8200D01*
X20100Y6493D02*
Y7900D01*
X7700Y6447D02*
Y7700D01*
Y6447D02*
X7797Y6350D01*
X9804Y6604D02*
X11703D01*
X9144Y5944D02*
X9804Y6604D01*
X9144Y4191D02*
Y5944D01*
X11703Y5454D02*
Y6604D01*
X12471D01*
X13900Y8033D01*
X12160Y3556D02*
Y4772D01*
X11703Y5229D02*
X12160Y4772D01*
X13900Y8033D02*
Y8100D01*
X8890Y3937D02*
X9144Y4191D01*
X7793Y3937D02*
X8890D01*
X52600Y13034D02*
Y15000D01*
X50455Y17145D02*
X52600Y15000D01*
X48865Y17145D02*
X50455D01*
X52600Y13034D02*
X55334Y10300D01*
X78547Y10995D02*
X79242Y10300D01*
X65538D02*
X66233Y10995D01*
X55334Y10300D02*
X65538D01*
X66233Y10995D02*
X78547D01*
X83185Y4064D02*
X83439Y4318D01*
X82088Y4064D02*
X83185D01*
X83439Y4318D02*
Y5969D01*
X45974Y4064D02*
X46228Y4318D01*
Y13386D02*
X46279Y13335D01*
X48865D01*
X48849Y6380D02*
X48946Y6477D01*
X46228Y4318D02*
Y6223D01*
X46482Y6477D01*
X51765Y19685D02*
X51900Y19550D01*
X48865Y19685D02*
X51765D01*
X41083Y12083D02*
X41100Y12100D01*
X38783Y12083D02*
X41083D01*
X38765Y12065D02*
X38783Y12083D01*
X33655Y4191D02*
X33909Y4445D01*
X39624Y8255D02*
X39649Y8280D01*
X69769Y4191D02*
X70866D01*
X71120Y4445D01*
Y6350D02*
X71374Y6604D01*
X71120Y4445D02*
Y6350D01*
X71374Y6604D02*
X73406D01*
X73612Y6398D01*
X38765Y19685D02*
X44831D01*
X45720Y18796D01*
Y18542D02*
Y18796D01*
X21514Y6350D02*
X21768Y6604D01*
X21260Y3937D02*
X21514Y4191D01*
Y6350D01*
X24436Y3678D02*
Y5103D01*
X20179Y3950D02*
X21247D01*
X21260Y3937D01*
X24085Y5454D02*
X24436Y5103D01*
X24130Y5659D02*
Y6604D01*
X21768D02*
X24130D01*
Y5659D02*
X24210Y5579D01*
X23312Y8102D02*
X23435Y7979D01*
X21800Y9000D02*
X22698Y8102D01*
X23435Y7804D02*
Y7979D01*
X22698Y8102D02*
X23312D01*
X47396Y7804D02*
X48199D01*
X46700Y8500D02*
X47396Y7804D01*
X64157Y4064D02*
X66261D01*
X71636Y8058D02*
X72962D01*
X71200Y8400D02*
X71294D01*
X71636Y8058D01*
X84542D02*
X85344D01*
X83200Y9400D02*
X84542Y8058D01*
X59124Y7861D02*
X60580D01*
X58600Y8300D02*
X58685D01*
X59124Y7861D01*
X10396Y7804D02*
X11053D01*
X9200Y9000D02*
X10396Y7804D01*
X16879Y3950D02*
X16891D01*
X39265Y4064D02*
X41643D01*
X39265D02*
X41643D01*
X41656Y4077D01*
X41643Y4064D02*
X41656Y4077D01*
X41643Y4064D02*
X41656Y4077D01*
X41643Y4064D02*
X41649Y4070D01*
X39265Y4064D02*
X41643D01*
X26819Y4204D02*
X29210D01*
X78738Y4014D02*
X78788Y4064D01*
X76454Y4014D02*
X78738D01*
D25*
X31115Y15240D02*
D03*
X57785D02*
D03*
D26*
X48260Y26670D02*
D03*
D27*
X40640D02*
D03*
X43180D02*
D03*
X45720D02*
D03*
D28*
X36926Y20863D02*
D03*
X25807Y18948D02*
D03*
X10600Y1600D02*
D03*
X21590Y1651D02*
D03*
X34036D02*
D03*
X46228Y1524D02*
D03*
X58674D02*
D03*
X83312D02*
D03*
X70993D02*
D03*
X86674Y2075D02*
D03*
X74874Y2674D02*
D03*
X75100Y5800D02*
D03*
X62575Y2674D02*
D03*
X62798Y5845D02*
D03*
X49974Y2575D02*
D03*
X50438Y5868D02*
D03*
X37875Y2774D02*
D03*
X37906Y5845D02*
D03*
X25375Y2674D02*
D03*
X25460Y5985D02*
D03*
X841Y5781D02*
D03*
X13241D02*
D03*
X13274Y2674D02*
D03*
X46595Y20955D02*
D03*
X57300Y7800D02*
D03*
X82200Y8100D02*
D03*
X70100Y7800D02*
D03*
X44800Y8000D02*
D03*
X32400Y8200D02*
D03*
X20100Y7900D02*
D03*
X7700Y7700D02*
D03*
D29*
X36400Y22500D02*
D03*
X23907Y15299D02*
D03*
X36500Y11600D02*
D03*
X26900Y10200D02*
D03*
X34700Y8100D02*
D03*
X25200Y7400D02*
D03*
X47000Y22700D02*
D03*
X83900Y11200D02*
D03*
X81500D02*
D03*
X85500Y9200D02*
D03*
X80400Y7200D02*
D03*
X82100Y2500D02*
D03*
X79100D02*
D03*
X77200D02*
D03*
X77500Y8200D02*
D03*
X74200Y8400D02*
D03*
X71100Y7300D02*
D03*
X71300Y3400D02*
D03*
X70000Y2500D02*
D03*
X68200Y7600D02*
D03*
X65200Y8300D02*
D03*
X62700Y4300D02*
D03*
X64200Y2600D02*
D03*
X58700Y2900D02*
D03*
X58800Y7100D02*
D03*
X61700Y8000D02*
D03*
X55473Y7337D02*
D03*
X52600Y10900D02*
D03*
X47000Y18500D02*
D03*
X47100Y12200D02*
D03*
X50100Y11000D02*
D03*
X46400Y7600D02*
D03*
X49100Y8400D02*
D03*
X50300Y4800D02*
D03*
X52800Y8100D02*
D03*
X39900Y7300D02*
D03*
X43300Y7200D02*
D03*
X43500Y2500D02*
D03*
X45400D02*
D03*
X41000D02*
D03*
X33900Y7900D02*
D03*
X32700Y2600D02*
D03*
X28000D02*
D03*
X25100Y9000D02*
D03*
X28000Y8100D02*
D03*
X30900Y7400D02*
D03*
X15400Y8000D02*
D03*
X18500Y7600D02*
D03*
Y2600D02*
D03*
X15000D02*
D03*
X12500Y8900D02*
D03*
X6200Y7700D02*
D03*
X3500Y9000D02*
D03*
X39100Y26700D02*
D03*
Y28800D02*
D03*
Y24500D02*
D03*
X58000Y22500D02*
D03*
X55000D02*
D03*
X52000D02*
D03*
X60500Y21900D02*
D03*
X63500Y19500D02*
D03*
X65000Y15900D02*
D03*
Y12000D02*
D03*
X51200Y18200D02*
D03*
X46600Y17100D02*
D03*
X45800Y14500D02*
D03*
X45400Y10500D02*
D03*
X42400Y12100D02*
D03*
X41000Y13600D02*
D03*
X37167Y8708D02*
D03*
X37300Y11300D02*
D03*
X35829Y15439D02*
D03*
X34300Y22500D02*
D03*
X41100Y22200D02*
D03*
X42200Y20700D02*
D03*
X44500Y18400D02*
D03*
Y21000D02*
D03*
X49900Y27100D02*
D03*
X49500Y30000D02*
D03*
X47000D02*
D03*
X44500D02*
D03*
X42000D02*
D03*
X39500D02*
D03*
X31800Y22500D02*
D03*
X28800Y22200D02*
D03*
X26784Y20875D02*
D03*
X24800Y18900D02*
D03*
X23900Y12500D02*
D03*
X22921Y11445D02*
D03*
X20312Y11425D02*
D03*
X14900Y11300D02*
D03*
X9500D02*
D03*
X4100D02*
D03*
X1300D02*
D03*
X1000Y7400D02*
D03*
Y10200D02*
D03*
X1100Y2600D02*
D03*
X1000Y700D02*
D03*
X5900D02*
D03*
X11300D02*
D03*
X16700D02*
D03*
X22100D02*
D03*
X27500D02*
D03*
X32900D02*
D03*
X38300D02*
D03*
X43700D02*
D03*
X49100D02*
D03*
X54500D02*
D03*
X59900D02*
D03*
X65300D02*
D03*
X70400D02*
D03*
X76100D02*
D03*
X81500D02*
D03*
X85000Y1000D02*
D03*
X87500D02*
D03*
Y3500D02*
D03*
Y6000D02*
D03*
Y8500D02*
D03*
Y11000D02*
D03*
X83700Y7600D02*
D03*
X51434Y13766D02*
D03*
X51300Y2600D02*
D03*
X66400Y2300D02*
D03*
X50200Y7800D02*
D03*
X46203Y15621D02*
D03*
X13900Y8100D02*
D03*
X46228Y13386D02*
D03*
X42545Y18415D02*
D03*
X41100Y12100D02*
D03*
X39649Y8280D02*
D03*
X45720Y18542D02*
D03*
X21800Y9000D02*
D03*
X46700Y8500D02*
D03*
X71200Y8400D02*
D03*
X83200Y9400D02*
D03*
X58600Y8300D02*
D03*
X9200Y9000D02*
D03*
D30*
X36750Y19400D02*
D03*
X35850D02*
D03*
X36730Y17870D02*
D03*
X35830D02*
D03*
D31*
X25300Y15350D02*
D03*
Y17250D02*
D03*
D32*
X51900Y21050D02*
D03*
X53500Y19550D02*
D03*
Y21050D02*
D03*
X51900Y19550D02*
D03*
D33*
X10403Y5454D02*
D03*
X22785D02*
D03*
X35167Y5708D02*
D03*
X47549Y5454D02*
D03*
X59930Y5511D02*
D03*
X72312Y5708D02*
D03*
X84694D02*
D03*
X26250Y13350D02*
D03*
X24950D02*
D03*
X25600Y11050D02*
D03*
X85994Y5708D02*
D03*
X85344Y8008D02*
D03*
X73612Y5708D02*
D03*
X72962Y8008D02*
D03*
X61230Y5511D02*
D03*
X60580Y7811D02*
D03*
X48849Y5454D02*
D03*
X48199Y7754D02*
D03*
X36467Y5708D02*
D03*
X35817Y8008D02*
D03*
X24085Y5454D02*
D03*
X23435Y7754D02*
D03*
X11703Y5454D02*
D03*
X11053Y7754D02*
D03*
D34*
X38765Y20955D02*
D03*
Y15875D02*
D03*
Y12065D02*
D03*
Y13335D02*
D03*
Y14605D02*
D03*
Y17145D02*
D03*
Y18415D02*
D03*
Y19685D02*
D03*
X48865Y12065D02*
D03*
Y13335D02*
D03*
Y14605D02*
D03*
Y15875D02*
D03*
Y17145D02*
D03*
Y18415D02*
D03*
Y19685D02*
D03*
D35*
X78788Y6464D02*
D03*
X66406D02*
D03*
X54023Y6337D02*
D03*
X41643Y6464D02*
D03*
X29210Y6604D02*
D03*
X16879Y6350D02*
D03*
X4497D02*
D03*
X7797D02*
D03*
Y3950D02*
D03*
X4497D02*
D03*
X78788Y4064D02*
D03*
X82088D02*
D03*
Y6464D02*
D03*
X20179Y6350D02*
D03*
Y3950D02*
D03*
X16879D02*
D03*
X66406Y4064D02*
D03*
X69706D02*
D03*
Y6464D02*
D03*
X57323Y6337D02*
D03*
Y3937D02*
D03*
X54023D02*
D03*
X41643Y4064D02*
D03*
X44943D02*
D03*
Y6464D02*
D03*
X32510Y6604D02*
D03*
Y4204D02*
D03*
X29210D02*
D03*
D36*
X48865Y20955D02*
D03*
D37*
X2200Y4000D02*
D03*
Y5800D02*
D03*
X39265Y4064D02*
D03*
Y5864D02*
D03*
X14600Y4000D02*
D03*
Y5800D02*
D03*
X76454Y5814D02*
D03*
X64157Y5864D02*
D03*
X51797Y5887D02*
D03*
X26819Y6004D02*
D03*
X64157Y4064D02*
D03*
X26819Y4204D02*
D03*
X51797Y4087D02*
D03*
X76454Y4014D02*
D03*
D38*
X36506Y20825D02*
X36887D01*
X36125D02*
X36506D01*
X36964Y21283D02*
Y21764D01*
Y20902D02*
Y21283D01*
X36926Y20863D02*
X36964Y20902D01*
X36887Y20825D02*
X36926Y20863D01*
X36506Y20825D02*
X36964Y21283D01*
Y21333D01*
X35800Y20500D02*
X36125Y20825D01*
X36964Y21764D02*
X37668Y22468D01*
X39268D01*
X28800Y20500D02*
X35800D01*
X39268Y22468D02*
X40800Y24000D01*
X26211Y15111D02*
X26500Y15400D01*
X26211Y14989D02*
Y15111D01*
Y14289D02*
Y14989D01*
X25300Y15350D02*
X25850D01*
Y15400D02*
X26500D01*
X25850Y15350D02*
X26211Y14989D01*
X26500Y15400D02*
X26900Y15800D01*
Y18600D01*
X28800Y20500D01*
X43180Y24000D02*
X47300D01*
X40800D02*
X43180D01*
X47300D02*
X47649Y24349D01*
X47998Y24698D01*
Y26408D01*
X48260Y26670D01*
D39*
X37648Y18348D02*
X38933D01*
X37370Y18070D02*
X37648Y18348D01*
X38933D02*
X39000Y18415D01*
X36730Y17870D02*
X36930Y18070D01*
X37370D01*
X37735Y19400D02*
X38020Y19685D01*
X36750Y19400D02*
X37735D01*
X38020Y19685D02*
X38765D01*
X35800Y20500D02*
X35850Y20450D01*
Y19400D02*
Y20450D01*
X35830Y17870D02*
X35840Y17880D01*
Y19390D01*
X35850Y19400D01*
M02*
