G04*
G04 #@! TF.GenerationSoftware,Altium Limited,Altium Designer,25.5.2 (35)*
G04*
G04 Layer_Color=255*
%FSLAX43Y43*%
%MOMM*%
G71*
G04*
G04 #@! TF.SameCoordinates,6B956F99-2EE2-468E-850B-CC9C62BAE9D2*
G04*
G04*
G04 #@! TF.FilePolarity,Positive*
G04*
G01*
G75*
%ADD24C,0.254*%
%ADD48C,0.381*%
%ADD49C,0.051*%
%ADD50C,0.406*%
D24*
X98837Y15224D02*
X99170Y14890D01*
X98503Y15224D02*
X98837D01*
X98503D02*
X98837Y15557D01*
X98503Y15890D02*
X98837Y15557D01*
X98503Y15890D02*
X98837D01*
X99170Y16224D01*
X99503Y15890D01*
X99837D01*
X99503Y15557D02*
X99837Y15890D01*
X99503Y15557D02*
X99837Y15224D01*
X99503D02*
X99837D01*
X99170Y14890D02*
X99503Y15224D01*
X98503Y11890D02*
X99170Y12224D01*
X99837Y11890D01*
X99503Y12557D02*
X99837Y11890D01*
X99503Y12557D02*
X99837Y13224D01*
X99170Y12890D02*
X99837Y13224D01*
X98503D02*
X99170Y12890D01*
X98503Y13224D02*
X98837Y12557D01*
X98503Y11890D02*
X98837Y12557D01*
X99170Y8890D02*
X99837Y10224D01*
X98503D02*
X99837D01*
X98503D02*
X99170Y8890D01*
X98503Y5890D02*
X99837D01*
Y7224D01*
X98503D02*
X99837D01*
X98503Y5890D02*
Y7224D01*
X211595Y14890D02*
Y16090D01*
X212195D01*
X212395Y15890D01*
Y15490D01*
X212195Y15290D01*
X211595D01*
X211995D02*
X212395Y14890D01*
X212994D02*
X213394D01*
X213594Y15090D01*
Y15490D01*
X213394Y15690D01*
X212994D01*
X212795Y15490D01*
Y15090D01*
X212994Y14890D01*
X213994Y15690D02*
Y15090D01*
X214194Y14890D01*
X214794D01*
Y15690D01*
X215194Y14890D02*
Y15690D01*
X215794D01*
X215993Y15490D01*
Y14890D01*
X217193Y16090D02*
Y14890D01*
X216593D01*
X216393Y15090D01*
Y15490D01*
X216593Y15690D01*
X217193D01*
X218193Y14890D02*
X217793D01*
X217593Y15090D01*
Y15490D01*
X217793Y15690D01*
X218193D01*
X218393Y15490D01*
Y15290D01*
X217593D01*
X219592Y16090D02*
Y14890D01*
X218992D01*
X218793Y15090D01*
Y15490D01*
X218992Y15690D01*
X219592D01*
X211595Y11890D02*
Y13090D01*
X212195D01*
X212395Y12890D01*
Y12490D01*
X212195Y12290D01*
X211595D01*
X211995D02*
X212395Y11890D01*
X212994D02*
X213394D01*
X213594Y12090D01*
Y12490D01*
X213394Y12690D01*
X212994D01*
X212795Y12490D01*
Y12090D01*
X212994Y11890D01*
X213994Y12690D02*
Y12090D01*
X214194Y11890D01*
X214794D01*
Y12690D01*
X215194Y11890D02*
Y12690D01*
X215794D01*
X215993Y12490D01*
Y11890D01*
X217193Y13090D02*
Y11890D01*
X216593D01*
X216393Y12090D01*
Y12490D01*
X216593Y12690D01*
X217193D01*
X218193Y11890D02*
X217793D01*
X217593Y12090D01*
Y12490D01*
X217793Y12690D01*
X218193D01*
X218393Y12490D01*
Y12290D01*
X217593D01*
X219592Y13090D02*
Y11890D01*
X218992D01*
X218793Y12090D01*
Y12490D01*
X218992Y12690D01*
X219592D01*
X211995Y8890D02*
X211595Y9290D01*
Y9690D01*
X211995Y10090D01*
X212595Y8890D02*
Y10090D01*
X212994Y9690D01*
X213394Y10090D01*
Y8890D01*
X213794D02*
X214194D01*
X213994D01*
Y9690D01*
X213794D01*
X214794D02*
X215594Y8890D01*
X215194Y9290D01*
X215594Y9690D01*
X214794Y8890D01*
X216593D02*
X216193D01*
X215993Y9090D01*
Y9490D01*
X216193Y9690D01*
X216593D01*
X216793Y9490D01*
Y9290D01*
X215993D01*
X217993Y10090D02*
Y8890D01*
X217393D01*
X217193Y9090D01*
Y9490D01*
X217393Y9690D01*
X217993D01*
X218393Y8890D02*
X218793Y9290D01*
Y9690D01*
X218393Y10090D01*
X211595Y5890D02*
Y7090D01*
X212195D01*
X212395Y6890D01*
Y6490D01*
X212195Y6290D01*
X211595D01*
X211995D02*
X212395Y5890D01*
X212994D02*
X213394D01*
X213594Y6090D01*
Y6490D01*
X213394Y6690D01*
X212994D01*
X212795Y6490D01*
Y6090D01*
X212994Y5890D01*
X213994Y6690D02*
Y6090D01*
X214194Y5890D01*
X214794D01*
Y6690D01*
X215194Y5890D02*
Y6690D01*
X215794D01*
X215993Y6490D01*
Y5890D01*
X217193Y7090D02*
Y5890D01*
X216593D01*
X216393Y6090D01*
Y6490D01*
X216593Y6690D01*
X217193D01*
X218193Y5890D02*
X217793D01*
X217593Y6090D01*
Y6490D01*
X217793Y6690D01*
X218193D01*
X218393Y6490D01*
Y6290D01*
X217593D01*
X219592Y7090D02*
Y5890D01*
X218992D01*
X218793Y6090D01*
Y6490D01*
X218992Y6690D01*
X219592D01*
X199625Y16090D02*
Y15290D01*
X200025Y14890D01*
X200425Y15290D01*
Y16090D01*
X200825Y14890D02*
X201225D01*
X201025D01*
Y15690D01*
X200825D01*
X202024D02*
X202424D01*
X202624Y15490D01*
Y14890D01*
X202024D01*
X201824Y15090D01*
X202024Y15290D01*
X202624D01*
X199625Y13090D02*
Y12290D01*
X200025Y11890D01*
X200425Y12290D01*
Y13090D01*
X200825Y11890D02*
X201225D01*
X201025D01*
Y12690D01*
X200825D01*
X202024D02*
X202424D01*
X202624Y12490D01*
Y11890D01*
X202024D01*
X201824Y12090D01*
X202024Y12290D01*
X202624D01*
X199625Y8890D02*
Y10090D01*
X200225D01*
X200425Y9890D01*
Y9490D01*
X200225Y9290D01*
X199625D01*
X201025Y9690D02*
X201425D01*
X201624Y9490D01*
Y8890D01*
X201025D01*
X200825Y9090D01*
X201025Y9290D01*
X201624D01*
X202824Y10090D02*
Y8890D01*
X202224D01*
X202024Y9090D01*
Y9490D01*
X202224Y9690D01*
X202824D01*
X199625Y5890D02*
Y7090D01*
X200225D01*
X200425Y6890D01*
Y6490D01*
X200225Y6290D01*
X199625D01*
X201025Y6690D02*
X201425D01*
X201624Y6490D01*
Y5890D01*
X201025D01*
X200825Y6090D01*
X201025Y6290D01*
X201624D01*
X202824Y7090D02*
Y5890D01*
X202224D01*
X202024Y6090D01*
Y6490D01*
X202224Y6690D01*
X202824D01*
X169526Y16090D02*
X170326D01*
X169926D01*
Y14890D01*
X170926D02*
X171326D01*
X171525Y15090D01*
Y15490D01*
X171326Y15690D01*
X170926D01*
X170726Y15490D01*
Y15090D01*
X170926Y14890D01*
X171925Y14491D02*
Y15690D01*
X172525D01*
X172725Y15490D01*
Y15090D01*
X172525Y14890D01*
X171925D01*
X174325Y16090D02*
Y14890D01*
X175124D01*
X175724Y15690D02*
X176124D01*
X176324Y15490D01*
Y14890D01*
X175724D01*
X175524Y15090D01*
X175724Y15290D01*
X176324D01*
X176724Y15690D02*
Y15090D01*
X176924Y14890D01*
X177524D01*
Y14691D01*
X177324Y14491D01*
X177124D01*
X177524Y14890D02*
Y15690D01*
X178523Y14890D02*
X178123D01*
X177923Y15090D01*
Y15490D01*
X178123Y15690D01*
X178523D01*
X178723Y15490D01*
Y15290D01*
X177923D01*
X179123Y15690D02*
Y14890D01*
Y15290D01*
X179323Y15490D01*
X179523Y15690D01*
X179723D01*
X181522Y15490D02*
X182322D01*
X183921Y16090D02*
Y14890D01*
X184521D01*
X184721Y15090D01*
Y15290D01*
X184521Y15490D01*
X183921D01*
X184521D01*
X184721Y15690D01*
Y15890D01*
X184521Y16090D01*
X183921D01*
X185321Y14890D02*
X185721D01*
X185921Y15090D01*
Y15490D01*
X185721Y15690D01*
X185321D01*
X185121Y15490D01*
Y15090D01*
X185321Y14890D01*
X186521Y15890D02*
Y15690D01*
X186321D01*
X186721D01*
X186521D01*
Y15090D01*
X186721Y14890D01*
X187520Y15890D02*
Y15690D01*
X187320D01*
X187720D01*
X187520D01*
Y15090D01*
X187720Y14890D01*
X188520D02*
X188920D01*
X189120Y15090D01*
Y15490D01*
X188920Y15690D01*
X188520D01*
X188320Y15490D01*
Y15090D01*
X188520Y14890D01*
X189520D02*
Y15690D01*
X189720D01*
X189920Y15490D01*
Y14890D01*
Y15490D01*
X190119Y15690D01*
X190319Y15490D01*
Y14890D01*
X191919Y16090D02*
Y14890D01*
X192719D01*
X193318Y15690D02*
X193718D01*
X193918Y15490D01*
Y14890D01*
X193318D01*
X193118Y15090D01*
X193318Y15290D01*
X193918D01*
X194318Y15690D02*
Y15090D01*
X194518Y14890D01*
X195118D01*
Y14691D01*
X194918Y14491D01*
X194718D01*
X195118Y14890D02*
Y15690D01*
X196118Y14890D02*
X195718D01*
X195518Y15090D01*
Y15490D01*
X195718Y15690D01*
X196118D01*
X196317Y15490D01*
Y15290D01*
X195518D01*
X196717Y15690D02*
Y14890D01*
Y15290D01*
X196917Y15490D01*
X197117Y15690D01*
X197317D01*
X169526Y13090D02*
X170326D01*
X169926D01*
Y11890D01*
X170926D02*
X171326D01*
X171525Y12090D01*
Y12490D01*
X171326Y12690D01*
X170926D01*
X170726Y12490D01*
Y12090D01*
X170926Y11890D01*
X171925Y11491D02*
Y12690D01*
X172525D01*
X172725Y12490D01*
Y12090D01*
X172525Y11890D01*
X171925D01*
X174325Y13090D02*
Y11890D01*
X175124D01*
X175724Y12690D02*
X176124D01*
X176324Y12490D01*
Y11890D01*
X175724D01*
X175524Y12090D01*
X175724Y12290D01*
X176324D01*
X176724Y12690D02*
Y12090D01*
X176924Y11890D01*
X177524D01*
Y11691D01*
X177324Y11491D01*
X177124D01*
X177524Y11890D02*
Y12690D01*
X178523Y11890D02*
X178123D01*
X177923Y12090D01*
Y12490D01*
X178123Y12690D01*
X178523D01*
X178723Y12490D01*
Y12290D01*
X177923D01*
X179123Y12690D02*
Y11890D01*
Y12290D01*
X179323Y12490D01*
X179523Y12690D01*
X179723D01*
X181522Y12490D02*
X182322D01*
X183921Y13090D02*
Y11890D01*
X184521D01*
X184721Y12090D01*
Y12290D01*
X184521Y12490D01*
X183921D01*
X184521D01*
X184721Y12690D01*
Y12890D01*
X184521Y13090D01*
X183921D01*
X185321Y11890D02*
X185721D01*
X185921Y12090D01*
Y12490D01*
X185721Y12690D01*
X185321D01*
X185121Y12490D01*
Y12090D01*
X185321Y11890D01*
X186521Y12890D02*
Y12690D01*
X186321D01*
X186721D01*
X186521D01*
Y12090D01*
X186721Y11890D01*
X187520Y12890D02*
Y12690D01*
X187320D01*
X187720D01*
X187520D01*
Y12090D01*
X187720Y11890D01*
X188520D02*
X188920D01*
X189120Y12090D01*
Y12490D01*
X188920Y12690D01*
X188520D01*
X188320Y12490D01*
Y12090D01*
X188520Y11890D01*
X189520D02*
Y12690D01*
X189720D01*
X189920Y12490D01*
Y11890D01*
Y12490D01*
X190119Y12690D01*
X190319Y12490D01*
Y11890D01*
X191919Y13090D02*
Y11890D01*
X192719D01*
X193318Y12690D02*
X193718D01*
X193918Y12490D01*
Y11890D01*
X193318D01*
X193118Y12090D01*
X193318Y12290D01*
X193918D01*
X194318Y12690D02*
Y12090D01*
X194518Y11890D01*
X195118D01*
Y11691D01*
X194918Y11491D01*
X194718D01*
X195118Y11890D02*
Y12690D01*
X196118Y11890D02*
X195718D01*
X195518Y12090D01*
Y12490D01*
X195718Y12690D01*
X196118D01*
X196317Y12490D01*
Y12290D01*
X195518D01*
X196717Y12690D02*
Y11890D01*
Y12290D01*
X196917Y12490D01*
X197117Y12690D01*
X197317D01*
X169526Y10090D02*
X170326D01*
X169926D01*
Y8890D01*
X170926D02*
X171326D01*
X171525Y9090D01*
Y9490D01*
X171326Y9690D01*
X170926D01*
X170726Y9490D01*
Y9090D01*
X170926Y8890D01*
X171925Y8491D02*
Y9690D01*
X172525D01*
X172725Y9490D01*
Y9090D01*
X172525Y8890D01*
X171925D01*
X174325Y10090D02*
Y8890D01*
X175124D01*
X175724Y9690D02*
X176124D01*
X176324Y9490D01*
Y8890D01*
X175724D01*
X175524Y9090D01*
X175724Y9290D01*
X176324D01*
X176724Y9690D02*
Y9090D01*
X176924Y8890D01*
X177524D01*
Y8691D01*
X177324Y8491D01*
X177124D01*
X177524Y8890D02*
Y9690D01*
X178523Y8890D02*
X178123D01*
X177923Y9090D01*
Y9490D01*
X178123Y9690D01*
X178523D01*
X178723Y9490D01*
Y9290D01*
X177923D01*
X179123Y9690D02*
Y8890D01*
Y9290D01*
X179323Y9490D01*
X179523Y9690D01*
X179723D01*
X181522Y9490D02*
X182322D01*
X183921Y10090D02*
Y8890D01*
X184521D01*
X184721Y9090D01*
Y9290D01*
X184521Y9490D01*
X183921D01*
X184521D01*
X184721Y9690D01*
Y9890D01*
X184521Y10090D01*
X183921D01*
X185321Y8890D02*
X185721D01*
X185921Y9090D01*
Y9490D01*
X185721Y9690D01*
X185321D01*
X185121Y9490D01*
Y9090D01*
X185321Y8890D01*
X186521Y9890D02*
Y9690D01*
X186321D01*
X186721D01*
X186521D01*
Y9090D01*
X186721Y8890D01*
X187520Y9890D02*
Y9690D01*
X187320D01*
X187720D01*
X187520D01*
Y9090D01*
X187720Y8890D01*
X188520D02*
X188920D01*
X189120Y9090D01*
Y9490D01*
X188920Y9690D01*
X188520D01*
X188320Y9490D01*
Y9090D01*
X188520Y8890D01*
X189520D02*
Y9690D01*
X189720D01*
X189920Y9490D01*
Y8890D01*
Y9490D01*
X190119Y9690D01*
X190319Y9490D01*
Y8890D01*
X191919Y10090D02*
Y8890D01*
X192719D01*
X193318Y9690D02*
X193718D01*
X193918Y9490D01*
Y8890D01*
X193318D01*
X193118Y9090D01*
X193318Y9290D01*
X193918D01*
X194318Y9690D02*
Y9090D01*
X194518Y8890D01*
X195118D01*
Y8691D01*
X194918Y8491D01*
X194718D01*
X195118Y8890D02*
Y9690D01*
X196118Y8890D02*
X195718D01*
X195518Y9090D01*
Y9490D01*
X195718Y9690D01*
X196118D01*
X196317Y9490D01*
Y9290D01*
X195518D01*
X196717Y9690D02*
Y8890D01*
Y9290D01*
X196917Y9490D01*
X197117Y9690D01*
X197317D01*
X169526Y7090D02*
X170326D01*
X169926D01*
Y5890D01*
X170926D02*
X171326D01*
X171525Y6090D01*
Y6490D01*
X171326Y6690D01*
X170926D01*
X170726Y6490D01*
Y6090D01*
X170926Y5890D01*
X171925Y5491D02*
Y6690D01*
X172525D01*
X172725Y6490D01*
Y6090D01*
X172525Y5890D01*
X171925D01*
X174325Y7090D02*
Y5890D01*
X175124D01*
X175724Y6690D02*
X176124D01*
X176324Y6490D01*
Y5890D01*
X175724D01*
X175524Y6090D01*
X175724Y6290D01*
X176324D01*
X176724Y6690D02*
Y6090D01*
X176924Y5890D01*
X177524D01*
Y5691D01*
X177324Y5491D01*
X177124D01*
X177524Y5890D02*
Y6690D01*
X178523Y5890D02*
X178123D01*
X177923Y6090D01*
Y6490D01*
X178123Y6690D01*
X178523D01*
X178723Y6490D01*
Y6290D01*
X177923D01*
X179123Y6690D02*
Y5890D01*
Y6290D01*
X179323Y6490D01*
X179523Y6690D01*
X179723D01*
X181522Y6490D02*
X182322D01*
X183921Y7090D02*
Y5890D01*
X184521D01*
X184721Y6090D01*
Y6290D01*
X184521Y6490D01*
X183921D01*
X184521D01*
X184721Y6690D01*
Y6890D01*
X184521Y7090D01*
X183921D01*
X185321Y5890D02*
X185721D01*
X185921Y6090D01*
Y6490D01*
X185721Y6690D01*
X185321D01*
X185121Y6490D01*
Y6090D01*
X185321Y5890D01*
X186521Y6890D02*
Y6690D01*
X186321D01*
X186721D01*
X186521D01*
Y6090D01*
X186721Y5890D01*
X187520Y6890D02*
Y6690D01*
X187320D01*
X187720D01*
X187520D01*
Y6090D01*
X187720Y5890D01*
X188520D02*
X188920D01*
X189120Y6090D01*
Y6490D01*
X188920Y6690D01*
X188520D01*
X188320Y6490D01*
Y6090D01*
X188520Y5890D01*
X189520D02*
Y6690D01*
X189720D01*
X189920Y6490D01*
Y5890D01*
Y6490D01*
X190119Y6690D01*
X190319Y6490D01*
Y5890D01*
X191919Y7090D02*
Y5890D01*
X192719D01*
X193318Y6690D02*
X193718D01*
X193918Y6490D01*
Y5890D01*
X193318D01*
X193118Y6090D01*
X193318Y6290D01*
X193918D01*
X194318Y6690D02*
Y6090D01*
X194518Y5890D01*
X195118D01*
Y5691D01*
X194918Y5491D01*
X194718D01*
X195118Y5890D02*
Y6690D01*
X196118Y5890D02*
X195718D01*
X195518Y6090D01*
Y6490D01*
X195718Y6690D01*
X196118D01*
X196317Y6490D01*
Y6290D01*
X195518D01*
X196717Y6690D02*
Y5890D01*
Y6290D01*
X196917Y6490D01*
X197117Y6690D01*
X197317D01*
X154677Y14890D02*
Y16090D01*
X155277D01*
X155477Y15890D01*
Y15490D01*
X155277Y15290D01*
X154677D01*
X155077D02*
X155477Y14890D01*
X156077D02*
X156477D01*
X156677Y15090D01*
Y15490D01*
X156477Y15690D01*
X156077D01*
X155877Y15490D01*
Y15090D01*
X156077Y14890D01*
X157077Y15690D02*
Y15090D01*
X157276Y14890D01*
X157876D01*
Y15690D01*
X158276Y14890D02*
Y15690D01*
X158876D01*
X159076Y15490D01*
Y14890D01*
X160275Y16090D02*
Y14890D01*
X159676D01*
X159476Y15090D01*
Y15490D01*
X159676Y15690D01*
X160275D01*
X154677Y11890D02*
Y13090D01*
X155277D01*
X155477Y12890D01*
Y12490D01*
X155277Y12290D01*
X154677D01*
X155077D02*
X155477Y11890D01*
X156077D02*
X156477D01*
X156677Y12090D01*
Y12490D01*
X156477Y12690D01*
X156077D01*
X155877Y12490D01*
Y12090D01*
X156077Y11890D01*
X157077Y12690D02*
Y12090D01*
X157276Y11890D01*
X157876D01*
Y12690D01*
X158276Y11890D02*
Y12690D01*
X158876D01*
X159076Y12490D01*
Y11890D01*
X160275Y13090D02*
Y11890D01*
X159676D01*
X159476Y12090D01*
Y12490D01*
X159676Y12690D01*
X160275D01*
X154677Y8890D02*
Y10090D01*
X155277D01*
X155477Y9890D01*
Y9490D01*
X155277Y9290D01*
X154677D01*
X155077D02*
X155477Y8890D01*
X156077D02*
X156477D01*
X156677Y9090D01*
Y9490D01*
X156477Y9690D01*
X156077D01*
X155877Y9490D01*
Y9090D01*
X156077Y8890D01*
X157077Y9690D02*
Y9090D01*
X157276Y8890D01*
X157876D01*
Y9690D01*
X158276Y8890D02*
Y9690D01*
X158876D01*
X159076Y9490D01*
Y8890D01*
X160275Y10090D02*
Y8890D01*
X159676D01*
X159476Y9090D01*
Y9490D01*
X159676Y9690D01*
X160275D01*
X154677Y5890D02*
Y7090D01*
X155277D01*
X155477Y6890D01*
Y6490D01*
X155277Y6290D01*
X154677D01*
X155077D02*
X155477Y5890D01*
X156077D02*
X156477D01*
X156677Y6090D01*
Y6490D01*
X156477Y6690D01*
X156077D01*
X155877Y6490D01*
Y6090D01*
X156077Y5890D01*
X157077Y6690D02*
Y6090D01*
X157276Y5890D01*
X157876D01*
Y6690D01*
X158276Y5890D02*
Y6690D01*
X158876D01*
X159076Y6490D01*
Y5890D01*
X160275Y7090D02*
Y5890D01*
X159676D01*
X159476Y6090D01*
Y6490D01*
X159676Y6690D01*
X160275D01*
X144387Y14890D02*
Y16090D01*
X144987D01*
X145187Y15890D01*
Y15490D01*
X144987Y15290D01*
X144387D01*
X145587Y16090D02*
X146386D01*
X145986D01*
Y14890D01*
X146786Y16090D02*
Y14890D01*
Y15490D01*
X147586D01*
Y16090D01*
Y14890D01*
X144387Y11890D02*
Y13090D01*
X144987D01*
X145187Y12890D01*
Y12490D01*
X144987Y12290D01*
X144387D01*
X145587Y13090D02*
X146386D01*
X145986D01*
Y11890D01*
X146786Y13090D02*
Y11890D01*
Y12490D01*
X147586D01*
Y13090D01*
Y11890D01*
X144387Y8890D02*
Y10090D01*
X144987D01*
X145187Y9890D01*
Y9490D01*
X144987Y9290D01*
X144387D01*
X145587Y10090D02*
X146386D01*
X145986D01*
Y8890D01*
X146786Y10090D02*
Y8890D01*
Y9490D01*
X147586D01*
Y10090D01*
Y8890D01*
X144387Y5890D02*
Y7090D01*
X144987D01*
X145187Y6890D01*
Y6490D01*
X144987Y6290D01*
X144387D01*
X145587Y7090D02*
X146386D01*
X145986D01*
Y5890D01*
X146786Y7090D02*
Y5890D01*
Y6490D01*
X147586D01*
Y7090D01*
Y5890D01*
X121286Y15890D02*
X121486Y16090D01*
X121886D01*
X122085Y15890D01*
Y15090D01*
X121886Y14890D01*
X121486D01*
X121286Y15090D01*
Y15890D01*
X122485Y14890D02*
Y15090D01*
X122685D01*
Y14890D01*
X122485D01*
X123485Y15890D02*
X123685Y16090D01*
X124085D01*
X124285Y15890D01*
Y15690D01*
X124085Y15490D01*
X123885D01*
X124085D01*
X124285Y15290D01*
Y15090D01*
X124085Y14890D01*
X123685D01*
X123485Y15090D01*
X124685Y15890D02*
X124885Y16090D01*
X125284D01*
X125484Y15890D01*
Y15090D01*
X125284Y14890D01*
X124885D01*
X124685Y15090D01*
Y15890D01*
X125884D02*
X126084Y16090D01*
X126484D01*
X126684Y15890D01*
Y15090D01*
X126484Y14890D01*
X126084D01*
X125884Y15090D01*
Y15890D01*
X127084Y14890D02*
Y15690D01*
X127284D01*
X127484Y15490D01*
Y14890D01*
Y15490D01*
X127684Y15690D01*
X127884Y15490D01*
Y14890D01*
X128283D02*
Y15690D01*
X128483D01*
X128683Y15490D01*
Y14890D01*
Y15490D01*
X128883Y15690D01*
X129083Y15490D01*
Y14890D01*
X131083D02*
X130683Y15290D01*
Y15690D01*
X131083Y16090D01*
X131682Y14890D02*
X132082D01*
X131882D01*
Y16090D01*
X131682Y15890D01*
X132682Y14890D02*
X133082D01*
X132882D01*
Y16090D01*
X132682Y15890D01*
X133682Y14890D02*
Y15090D01*
X133882D01*
Y14890D01*
X133682D01*
X134681Y15890D02*
X134881Y16090D01*
X135281D01*
X135481Y15890D01*
Y15690D01*
X135281Y15490D01*
X135481Y15290D01*
Y15090D01*
X135281Y14890D01*
X134881D01*
X134681Y15090D01*
Y15290D01*
X134881Y15490D01*
X134681Y15690D01*
Y15890D01*
X134881Y15490D02*
X135281D01*
X135881Y14890D02*
X136281D01*
X136081D01*
Y16090D01*
X135881Y15890D01*
X136881Y14890D02*
Y15690D01*
X137081D01*
X137281Y15490D01*
Y14890D01*
Y15490D01*
X137480Y15690D01*
X137680Y15490D01*
Y14890D01*
X138080D02*
X138480D01*
X138280D01*
Y15690D01*
X138080D01*
X139080Y14890D02*
X139480D01*
X139280D01*
Y16090D01*
X139080D01*
X140080Y14890D02*
X140480Y15290D01*
Y15690D01*
X140080Y16090D01*
X121286Y12890D02*
X121486Y13090D01*
X121886D01*
X122085Y12890D01*
Y12090D01*
X121886Y11890D01*
X121486D01*
X121286Y12090D01*
Y12890D01*
X122485Y11890D02*
Y12090D01*
X122685D01*
Y11890D01*
X122485D01*
X124285Y13090D02*
X123485D01*
Y12490D01*
X123885Y12690D01*
X124085D01*
X124285Y12490D01*
Y12090D01*
X124085Y11890D01*
X123685D01*
X123485Y12090D01*
X124685Y12890D02*
X124885Y13090D01*
X125284D01*
X125484Y12890D01*
Y12090D01*
X125284Y11890D01*
X124885D01*
X124685Y12090D01*
Y12890D01*
X125884D02*
X126084Y13090D01*
X126484D01*
X126684Y12890D01*
Y12090D01*
X126484Y11890D01*
X126084D01*
X125884Y12090D01*
Y12890D01*
X127084Y11890D02*
Y12690D01*
X127284D01*
X127484Y12490D01*
Y11890D01*
Y12490D01*
X127684Y12690D01*
X127884Y12490D01*
Y11890D01*
X128283D02*
Y12690D01*
X128483D01*
X128683Y12490D01*
Y11890D01*
Y12490D01*
X128883Y12690D01*
X129083Y12490D01*
Y11890D01*
X131083D02*
X130683Y12290D01*
Y12690D01*
X131083Y13090D01*
X131682Y11890D02*
X132082D01*
X131882D01*
Y13090D01*
X131682Y12890D01*
X132682Y12090D02*
X132882Y11890D01*
X133282D01*
X133482Y12090D01*
Y12890D01*
X133282Y13090D01*
X132882D01*
X132682Y12890D01*
Y12690D01*
X132882Y12490D01*
X133482D01*
X133882Y11890D02*
Y12090D01*
X134082D01*
Y11890D01*
X133882D01*
X135681Y13090D02*
X135281Y12890D01*
X134881Y12490D01*
Y12090D01*
X135081Y11890D01*
X135481D01*
X135681Y12090D01*
Y12290D01*
X135481Y12490D01*
X134881D01*
X136081Y12090D02*
X136281Y11890D01*
X136681D01*
X136881Y12090D01*
Y12890D01*
X136681Y13090D01*
X136281D01*
X136081Y12890D01*
Y12690D01*
X136281Y12490D01*
X136881D01*
X137281Y11890D02*
Y12690D01*
X137480D01*
X137680Y12490D01*
Y11890D01*
Y12490D01*
X137880Y12690D01*
X138080Y12490D01*
Y11890D01*
X138480D02*
X138880D01*
X138680D01*
Y12690D01*
X138480D01*
X139480Y11890D02*
X139880D01*
X139680D01*
Y13090D01*
X139480D01*
X140480Y11890D02*
X140879Y12290D01*
Y12690D01*
X140480Y13090D01*
X121286Y8890D02*
X121686D01*
X121486D01*
Y10090D01*
X121286Y9890D01*
X122285Y8890D02*
Y9090D01*
X122485D01*
Y8890D01*
X122285D01*
X123285D02*
X123685D01*
X123485D01*
Y10090D01*
X123285Y9890D01*
X124285D02*
X124485Y10090D01*
X124885D01*
X125084Y9890D01*
Y9090D01*
X124885Y8890D01*
X124485D01*
X124285Y9090D01*
Y9890D01*
X125484D02*
X125684Y10090D01*
X126084D01*
X126284Y9890D01*
Y9090D01*
X126084Y8890D01*
X125684D01*
X125484Y9090D01*
Y9890D01*
X126684Y8890D02*
Y9690D01*
X126884D01*
X127084Y9490D01*
Y8890D01*
Y9490D01*
X127284Y9690D01*
X127484Y9490D01*
Y8890D01*
X127884D02*
Y9690D01*
X128084D01*
X128283Y9490D01*
Y8890D01*
Y9490D01*
X128483Y9690D01*
X128683Y9490D01*
Y8890D01*
X130683D02*
X130283Y9290D01*
Y9690D01*
X130683Y10090D01*
X131882Y8890D02*
Y10090D01*
X131282Y9490D01*
X132082D01*
X132482Y9890D02*
X132682Y10090D01*
X133082D01*
X133282Y9890D01*
Y9690D01*
X133082Y9490D01*
X132882D01*
X133082D01*
X133282Y9290D01*
Y9090D01*
X133082Y8890D01*
X132682D01*
X132482Y9090D01*
X133682Y8890D02*
Y9090D01*
X133882D01*
Y8890D01*
X133682D01*
X134681Y9890D02*
X134881Y10090D01*
X135281D01*
X135481Y9890D01*
Y9690D01*
X135281Y9490D01*
X135081D01*
X135281D01*
X135481Y9290D01*
Y9090D01*
X135281Y8890D01*
X134881D01*
X134681Y9090D01*
X135881Y8890D02*
X136281D01*
X136081D01*
Y10090D01*
X135881Y9890D01*
X136881Y8890D02*
Y9690D01*
X137081D01*
X137281Y9490D01*
Y8890D01*
Y9490D01*
X137480Y9690D01*
X137680Y9490D01*
Y8890D01*
X138080D02*
X138480D01*
X138280D01*
Y9690D01*
X138080D01*
X139080Y8890D02*
X139480D01*
X139280D01*
Y10090D01*
X139080D01*
X140080Y8890D02*
X140480Y9290D01*
Y9690D01*
X140080Y10090D01*
X121286Y6890D02*
X121486Y7090D01*
X121886D01*
X122085Y6890D01*
Y6690D01*
X121886Y6490D01*
X121686D01*
X121886D01*
X122085Y6290D01*
Y6090D01*
X121886Y5890D01*
X121486D01*
X121286Y6090D01*
X122485Y5890D02*
Y6090D01*
X122685D01*
Y5890D01*
X122485D01*
X124285D02*
X123485D01*
X124285Y6690D01*
Y6890D01*
X124085Y7090D01*
X123685D01*
X123485Y6890D01*
X124685D02*
X124885Y7090D01*
X125284D01*
X125484Y6890D01*
Y6090D01*
X125284Y5890D01*
X124885D01*
X124685Y6090D01*
Y6890D01*
X125884D02*
X126084Y7090D01*
X126484D01*
X126684Y6890D01*
Y6090D01*
X126484Y5890D01*
X126084D01*
X125884Y6090D01*
Y6890D01*
X127084Y5890D02*
Y6690D01*
X127284D01*
X127484Y6490D01*
Y5890D01*
Y6490D01*
X127684Y6690D01*
X127884Y6490D01*
Y5890D01*
X128283D02*
Y6690D01*
X128483D01*
X128683Y6490D01*
Y5890D01*
Y6490D01*
X128883Y6690D01*
X129083Y6490D01*
Y5890D01*
X131083D02*
X130683Y6290D01*
Y6690D01*
X131083Y7090D01*
X131682Y5890D02*
X132082D01*
X131882D01*
Y7090D01*
X131682Y6890D01*
X133482Y5890D02*
X132682D01*
X133482Y6690D01*
Y6890D01*
X133282Y7090D01*
X132882D01*
X132682Y6890D01*
X134681Y7090D02*
X133882D01*
Y6490D01*
X134281Y6690D01*
X134481D01*
X134681Y6490D01*
Y6090D01*
X134481Y5890D01*
X134082D01*
X133882Y6090D01*
X135081Y5890D02*
Y6090D01*
X135281D01*
Y5890D01*
X135081D01*
X136081Y6090D02*
X136281Y5890D01*
X136681D01*
X136881Y6090D01*
Y6890D01*
X136681Y7090D01*
X136281D01*
X136081Y6890D01*
Y6690D01*
X136281Y6490D01*
X136881D01*
X137281Y6890D02*
X137480Y7090D01*
X137880D01*
X138080Y6890D01*
Y6690D01*
X137880Y6490D01*
X138080Y6290D01*
Y6090D01*
X137880Y5890D01*
X137480D01*
X137281Y6090D01*
Y6290D01*
X137480Y6490D01*
X137281Y6690D01*
Y6890D01*
X137480Y6490D02*
X137880D01*
X138480Y5890D02*
Y6690D01*
X138680D01*
X138880Y6490D01*
Y5890D01*
Y6490D01*
X139080Y6690D01*
X139280Y6490D01*
Y5890D01*
X139680D02*
X140080D01*
X139880D01*
Y6690D01*
X139680D01*
X140679Y5890D02*
X141079D01*
X140879D01*
Y7090D01*
X140679D01*
X141679Y5890D02*
X142079Y6290D01*
Y6690D01*
X141679Y7090D01*
X109381Y2891D02*
X109781D01*
X109581D01*
Y4090D01*
X109381Y3890D01*
X110380Y4090D02*
X111180D01*
Y3890D01*
X110380Y3090D01*
Y2891D01*
X112180D02*
Y4090D01*
X111580Y3490D01*
X112380D01*
X113979Y4090D02*
X114779D01*
X114379D01*
Y2891D01*
X115379D02*
X115779D01*
X115979Y3090D01*
Y3490D01*
X115779Y3690D01*
X115379D01*
X115179Y3490D01*
Y3090D01*
X115379Y2891D01*
X116578Y3890D02*
Y3690D01*
X116379D01*
X116778D01*
X116578D01*
Y3090D01*
X116778Y2891D01*
X117578Y3690D02*
X117978D01*
X118178Y3490D01*
Y2891D01*
X117578D01*
X117378Y3090D01*
X117578Y3290D01*
X118178D01*
X118578Y2891D02*
X118978D01*
X118778D01*
Y4090D01*
X118578D01*
X109381Y14890D02*
X109781D01*
X109581D01*
Y16090D01*
X109381Y15890D01*
X110380D02*
X110580Y16090D01*
X110980D01*
X111180Y15890D01*
Y15690D01*
X110980Y15490D01*
X110780D01*
X110980D01*
X111180Y15290D01*
Y15090D01*
X110980Y14890D01*
X110580D01*
X110380Y15090D01*
X111580Y16090D02*
X112380D01*
Y15890D01*
X111580Y15090D01*
Y14890D01*
X109381Y12890D02*
X109581Y13090D01*
X109981D01*
X110181Y12890D01*
Y12690D01*
X109981Y12490D01*
X109781D01*
X109981D01*
X110181Y12290D01*
Y12090D01*
X109981Y11890D01*
X109581D01*
X109381Y12090D01*
X110580Y11890D02*
X110980D01*
X110780D01*
Y13090D01*
X110580Y12890D01*
X109981Y8890D02*
Y10090D01*
X109381Y9490D01*
X110181D01*
Y5890D02*
X109381D01*
X110181Y6690D01*
Y6890D01*
X109981Y7090D01*
X109581D01*
X109381Y6890D01*
X160804Y29985D02*
X160297Y29731D01*
X159789Y29224D01*
Y28716D01*
X160043Y28462D01*
X160550D01*
X160804Y28716D01*
Y28970D01*
X160550Y29224D01*
X159789D01*
X162328Y29985D02*
X161312D01*
Y29224D01*
X161820Y29478D01*
X162074D01*
X162328Y29224D01*
Y28716D01*
X162074Y28462D01*
X161566D01*
X161312Y28716D01*
X163090Y28208D02*
X163344Y28462D01*
Y28716D01*
X163090D01*
Y28462D01*
X163344D01*
X163090Y28208D01*
X162836Y27954D01*
X164359Y29731D02*
X164613Y29985D01*
X165121D01*
X165375Y29731D01*
Y29478D01*
X165121Y29224D01*
X164867D01*
X165121D01*
X165375Y28970D01*
Y28716D01*
X165121Y28462D01*
X164613D01*
X164359Y28716D01*
X165883Y29731D02*
X166137Y29985D01*
X166645D01*
X166898Y29731D01*
Y29478D01*
X166645Y29224D01*
X166391D01*
X166645D01*
X166898Y28970D01*
Y28716D01*
X166645Y28462D01*
X166137D01*
X165883Y28716D01*
X167406Y28462D02*
Y29478D01*
X167660D01*
X167914Y29224D01*
Y28462D01*
Y29224D01*
X168168Y29478D01*
X168422Y29224D01*
Y28462D01*
X168930D02*
X169438D01*
X169184D01*
Y29478D01*
X168930D01*
X170199Y28462D02*
X170707D01*
X170453D01*
Y29985D01*
X170199D01*
X100368D02*
X101384D01*
X100876D01*
Y28462D01*
X102146D02*
X102654D01*
X102908Y28716D01*
Y29224D01*
X102654Y29478D01*
X102146D01*
X101892Y29224D01*
Y28716D01*
X102146Y28462D01*
X103669Y29731D02*
Y29478D01*
X103416D01*
X103923D01*
X103669D01*
Y28716D01*
X103923Y28462D01*
X104939Y29478D02*
X105447D01*
X105701Y29224D01*
Y28462D01*
X104939D01*
X104685Y28716D01*
X104939Y28970D01*
X105701D01*
X106209Y28462D02*
X106716D01*
X106463D01*
Y29985D01*
X106209D01*
X109002D02*
Y28462D01*
X109763D01*
X110017Y28716D01*
Y28970D01*
Y29224D01*
X109763Y29478D01*
X109002D01*
X110779Y28462D02*
X111287D01*
X111541Y28716D01*
Y29224D01*
X111287Y29478D01*
X110779D01*
X110525Y29224D01*
Y28716D01*
X110779Y28462D01*
X112303Y29478D02*
X112810D01*
X113064Y29224D01*
Y28462D01*
X112303D01*
X112049Y28716D01*
X112303Y28970D01*
X113064D01*
X113572Y29478D02*
Y28462D01*
Y28970D01*
X113826Y29224D01*
X114080Y29478D01*
X114334D01*
X116111Y29985D02*
Y28462D01*
X115350D01*
X115096Y28716D01*
Y29224D01*
X115350Y29478D01*
X116111D01*
X118397Y29731D02*
Y29478D01*
X118143D01*
X118651D01*
X118397D01*
Y28716D01*
X118651Y28462D01*
X119412Y29985D02*
Y28462D01*
Y29224D01*
X119666Y29478D01*
X120174D01*
X120428Y29224D01*
Y28462D01*
X120936D02*
X121444D01*
X121190D01*
Y29478D01*
X120936D01*
X123221D02*
X122459D01*
X122205Y29224D01*
Y28716D01*
X122459Y28462D01*
X123221D01*
X123729D02*
Y29985D01*
Y28970D02*
X124491Y29478D01*
X123729Y28970D02*
X124491Y28462D01*
X125252D02*
Y29478D01*
X126014D01*
X126268Y29224D01*
Y28462D01*
X127538D02*
X127030D01*
X126776Y28716D01*
Y29224D01*
X127030Y29478D01*
X127538D01*
X127792Y29224D01*
Y28970D01*
X126776D01*
X128299Y28462D02*
X129061D01*
X129315Y28716D01*
X129061Y28970D01*
X128553D01*
X128299Y29224D01*
X128553Y29478D01*
X129315D01*
X129823Y28462D02*
X130585D01*
X130839Y28716D01*
X130585Y28970D01*
X130077D01*
X129823Y29224D01*
X130077Y29478D01*
X130839D01*
X131346D02*
X131600D01*
Y29224D01*
X131346D01*
Y29478D01*
Y28716D02*
X131600D01*
Y28462D01*
X131346D01*
Y28716D01*
X177056Y52846D02*
Y54369D01*
X176295Y53608D01*
X177310D01*
X177056Y43702D02*
Y45225D01*
X176295Y44464D01*
X177310D01*
X177818Y43702D02*
Y43956D01*
X178072D01*
Y43702D01*
X177818D01*
X179088Y44971D02*
X179342Y45225D01*
X179849D01*
X180103Y44971D01*
Y44718D01*
X179849Y44464D01*
X179595D01*
X179849D01*
X180103Y44210D01*
Y43956D01*
X179849Y43702D01*
X179342D01*
X179088Y43956D01*
X177056Y34558D02*
Y36081D01*
X176295Y35320D01*
X177310D01*
Y60211D02*
X177056Y60465D01*
X176548D01*
X176295Y60211D01*
Y59196D01*
X176548Y58942D01*
X177056D01*
X177310Y59196D01*
X178072Y58942D02*
X178580D01*
X178834Y59196D01*
Y59704D01*
X178580Y59958D01*
X178072D01*
X177818Y59704D01*
Y59196D01*
X178072Y58942D01*
X179342D02*
Y59958D01*
X180103D01*
X180357Y59704D01*
Y58942D01*
X180865D02*
X181627D01*
X181881Y59196D01*
X181627Y59450D01*
X181119D01*
X180865Y59704D01*
X181119Y59958D01*
X181881D01*
X182642Y60211D02*
Y59958D01*
X182389D01*
X182896D01*
X182642D01*
Y59196D01*
X182896Y58942D01*
X183912Y59958D02*
X184420D01*
X184674Y59704D01*
Y58942D01*
X183912D01*
X183658Y59196D01*
X183912Y59450D01*
X184674D01*
X185182Y58942D02*
Y59958D01*
X185943D01*
X186197Y59704D01*
Y58942D01*
X186959Y60211D02*
Y59958D01*
X186705D01*
X187213D01*
X186959D01*
Y59196D01*
X187213Y58942D01*
X159789Y52846D02*
X160297D01*
X160043D01*
Y54369D01*
X159789Y54115D01*
X161312Y52592D02*
X161566Y52846D01*
Y53100D01*
X161312D01*
Y52846D01*
X161566D01*
X161312Y52592D01*
X161058Y52338D01*
X162582Y54115D02*
X162836Y54369D01*
X163344D01*
X163598Y54115D01*
Y53100D01*
X163344Y52846D01*
X162836D01*
X162582Y53100D01*
Y54115D01*
X164105D02*
X164359Y54369D01*
X164867D01*
X165121Y54115D01*
Y53100D01*
X164867Y52846D01*
X164359D01*
X164105Y53100D01*
Y54115D01*
X165629Y52846D02*
Y53862D01*
X165883D01*
X166137Y53608D01*
Y52846D01*
Y53608D01*
X166391Y53862D01*
X166645Y53608D01*
Y52846D01*
X167152D02*
X167660D01*
X167406D01*
Y53862D01*
X167152D01*
X168422Y52846D02*
X168930D01*
X168676D01*
Y54369D01*
X168422D01*
X159789Y51067D02*
X160043Y51321D01*
X160550D01*
X160804Y51067D01*
Y50052D01*
X160550Y49798D01*
X160043D01*
X159789Y50052D01*
Y51067D01*
X161566Y49544D02*
X161820Y49798D01*
Y50052D01*
X161566D01*
Y49798D01*
X161820D01*
X161566Y49544D01*
X161312Y49290D01*
X162836Y51321D02*
X163851D01*
Y51067D01*
X162836Y50052D01*
Y49798D01*
X164359Y50052D02*
X164613Y49798D01*
X165121D01*
X165375Y50052D01*
Y51067D01*
X165121Y51321D01*
X164613D01*
X164359Y51067D01*
Y50814D01*
X164613Y50560D01*
X165375D01*
X165883Y49798D02*
Y50814D01*
X166137D01*
X166391Y50560D01*
Y49798D01*
Y50560D01*
X166645Y50814D01*
X166898Y50560D01*
Y49798D01*
X167406D02*
X167914D01*
X167660D01*
Y50814D01*
X167406D01*
X168676Y49798D02*
X169184D01*
X168930D01*
Y51321D01*
X168676D01*
X159789Y46750D02*
X160297D01*
X160043D01*
Y48273D01*
X159789Y48019D01*
X161312Y46496D02*
X161566Y46750D01*
Y47004D01*
X161312D01*
Y46750D01*
X161566D01*
X161312Y46496D01*
X161058Y46242D01*
X162582Y48019D02*
X162836Y48273D01*
X163344D01*
X163598Y48019D01*
Y47766D01*
X163344Y47512D01*
X163090D01*
X163344D01*
X163598Y47258D01*
Y47004D01*
X163344Y46750D01*
X162836D01*
X162582Y47004D01*
X164105Y48019D02*
X164359Y48273D01*
X164867D01*
X165121Y48019D01*
Y47766D01*
X164867Y47512D01*
X165121Y47258D01*
Y47004D01*
X164867Y46750D01*
X164359D01*
X164105Y47004D01*
Y47258D01*
X164359Y47512D01*
X164105Y47766D01*
Y48019D01*
X164359Y47512D02*
X164867D01*
X165629Y46750D02*
Y47766D01*
X165883D01*
X166137Y47512D01*
Y46750D01*
Y47512D01*
X166391Y47766D01*
X166645Y47512D01*
Y46750D01*
X167152D02*
X167660D01*
X167406D01*
Y47766D01*
X167152D01*
X168422Y46750D02*
X168930D01*
X168676D01*
Y48273D01*
X168422D01*
X160804Y45225D02*
X159789D01*
Y44464D01*
X160297Y44718D01*
X160550D01*
X160804Y44464D01*
Y43956D01*
X160550Y43702D01*
X160043D01*
X159789Y43956D01*
X161312D02*
X161566Y43702D01*
X162074D01*
X162328Y43956D01*
Y44971D01*
X162074Y45225D01*
X161566D01*
X161312Y44971D01*
Y44718D01*
X161566Y44464D01*
X162328D01*
X163090Y43448D02*
X163344Y43702D01*
Y43956D01*
X163090D01*
Y43702D01*
X163344D01*
X163090Y43448D01*
X162836Y43194D01*
X164359Y44971D02*
X164613Y45225D01*
X165121D01*
X165375Y44971D01*
Y43956D01*
X165121Y43702D01*
X164613D01*
X164359Y43956D01*
Y44971D01*
X165883D02*
X166137Y45225D01*
X166645D01*
X166898Y44971D01*
Y43956D01*
X166645Y43702D01*
X166137D01*
X165883Y43956D01*
Y44971D01*
X167406Y43702D02*
Y44718D01*
X167660D01*
X167914Y44464D01*
Y43702D01*
Y44464D01*
X168168Y44718D01*
X168422Y44464D01*
Y43702D01*
X168930D02*
X169438D01*
X169184D01*
Y44718D01*
X168930D01*
X170199Y43702D02*
X170707D01*
X170453D01*
Y45225D01*
X170199D01*
X159789Y40654D02*
X160297D01*
X160043D01*
Y42177D01*
X159789Y41923D01*
X161312Y40400D02*
X161566Y40654D01*
Y40908D01*
X161312D01*
Y40654D01*
X161566D01*
X161312Y40400D01*
X161058Y40146D01*
X162582Y41923D02*
X162836Y42177D01*
X163344D01*
X163598Y41923D01*
Y41670D01*
X163344Y41416D01*
X163090D01*
X163344D01*
X163598Y41162D01*
Y40908D01*
X163344Y40654D01*
X162836D01*
X162582Y40908D01*
X164105Y41923D02*
X164359Y42177D01*
X164867D01*
X165121Y41923D01*
Y41670D01*
X164867Y41416D01*
X165121Y41162D01*
Y40908D01*
X164867Y40654D01*
X164359D01*
X164105Y40908D01*
Y41162D01*
X164359Y41416D01*
X164105Y41670D01*
Y41923D01*
X164359Y41416D02*
X164867D01*
X165629Y40654D02*
Y41670D01*
X165883D01*
X166137Y41416D01*
Y40654D01*
Y41416D01*
X166391Y41670D01*
X166645Y41416D01*
Y40654D01*
X167152D02*
X167660D01*
X167406D01*
Y41670D01*
X167152D01*
X168422Y40654D02*
X168930D01*
X168676D01*
Y42177D01*
X168422D01*
X159789Y38875D02*
X160043Y39129D01*
X160550D01*
X160804Y38875D01*
Y37860D01*
X160550Y37606D01*
X160043D01*
X159789Y37860D01*
Y38875D01*
X161566Y37352D02*
X161820Y37606D01*
Y37860D01*
X161566D01*
Y37606D01*
X161820D01*
X161566Y37352D01*
X161312Y37098D01*
X162836Y39129D02*
X163851D01*
Y38875D01*
X162836Y37860D01*
Y37606D01*
X164359Y37860D02*
X164613Y37606D01*
X165121D01*
X165375Y37860D01*
Y38875D01*
X165121Y39129D01*
X164613D01*
X164359Y38875D01*
Y38622D01*
X164613Y38368D01*
X165375D01*
X165883Y37606D02*
Y38622D01*
X166137D01*
X166391Y38368D01*
Y37606D01*
Y38368D01*
X166645Y38622D01*
X166898Y38368D01*
Y37606D01*
X167406D02*
X167914D01*
X167660D01*
Y38622D01*
X167406D01*
X168676Y37606D02*
X169184D01*
X168930D01*
Y39129D01*
X168676D01*
X159789Y34558D02*
X160297D01*
X160043D01*
Y36081D01*
X159789Y35827D01*
X161312Y34304D02*
X161566Y34558D01*
Y34812D01*
X161312D01*
Y34558D01*
X161566D01*
X161312Y34304D01*
X161058Y34050D01*
X162582Y35827D02*
X162836Y36081D01*
X163344D01*
X163598Y35827D01*
Y34812D01*
X163344Y34558D01*
X162836D01*
X162582Y34812D01*
Y35827D01*
X164105D02*
X164359Y36081D01*
X164867D01*
X165121Y35827D01*
Y34812D01*
X164867Y34558D01*
X164359D01*
X164105Y34812D01*
Y35827D01*
X165629Y34558D02*
Y35574D01*
X165883D01*
X166137Y35320D01*
Y34558D01*
Y35320D01*
X166391Y35574D01*
X166645Y35320D01*
Y34558D01*
X167152D02*
X167660D01*
X167406D01*
Y35574D01*
X167152D01*
X168422Y34558D02*
X168930D01*
X168676D01*
Y36081D01*
X168422D01*
X159789Y60465D02*
X160804D01*
X160297D01*
Y58942D01*
X161312Y60465D02*
Y58942D01*
Y59704D01*
X161566Y59958D01*
X162074D01*
X162328Y59704D01*
Y58942D01*
X162836D02*
X163344D01*
X163090D01*
Y59958D01*
X162836D01*
X165121D02*
X164359D01*
X164105Y59704D01*
Y59196D01*
X164359Y58942D01*
X165121D01*
X165629D02*
Y60465D01*
Y59450D02*
X166391Y59958D01*
X165629Y59450D02*
X166391Y58942D01*
X167152D02*
Y59958D01*
X167914D01*
X168168Y59704D01*
Y58942D01*
X169438D02*
X168930D01*
X168676Y59196D01*
Y59704D01*
X168930Y59958D01*
X169438D01*
X169692Y59704D01*
Y59450D01*
X168676D01*
X170199Y58942D02*
X170961D01*
X171215Y59196D01*
X170961Y59450D01*
X170453D01*
X170199Y59704D01*
X170453Y59958D01*
X171215D01*
X171723Y58942D02*
X172485D01*
X172739Y59196D01*
X172485Y59450D01*
X171977D01*
X171723Y59704D01*
X171977Y59958D01*
X172739D01*
X145568Y54115D02*
X145314Y54369D01*
X144806D01*
X144553Y54115D01*
Y53862D01*
X144806Y53608D01*
X145314D01*
X145568Y53354D01*
Y53100D01*
X145314Y52846D01*
X144806D01*
X144553Y53100D01*
X146076Y52846D02*
Y54369D01*
X146584Y53862D01*
X147092Y54369D01*
Y52846D01*
X147600Y53608D02*
X148615D01*
X149123Y54115D02*
X149377Y54369D01*
X149885D01*
X150139Y54115D01*
Y53100D01*
X149885Y52846D01*
X149377D01*
X149123Y53100D01*
Y54115D01*
X150647D02*
X150900Y54369D01*
X151408D01*
X151662Y54115D01*
Y53100D01*
X151408Y52846D01*
X150900D01*
X150647Y53100D01*
Y54115D01*
X152170Y52846D02*
X152678D01*
X152424D01*
Y54369D01*
X152170Y54115D01*
X144553Y49798D02*
Y51321D01*
X145314D01*
X145568Y51067D01*
Y50560D01*
X145314Y50306D01*
X144553D01*
X146076Y51321D02*
Y49798D01*
X146838D01*
X147092Y50052D01*
Y50306D01*
Y50560D01*
X146838Y50814D01*
X146076D01*
X148615Y51067D02*
X148361Y51321D01*
X147853D01*
X147600Y51067D01*
Y50814D01*
X147853Y50560D01*
X148361D01*
X148615Y50306D01*
Y50052D01*
X148361Y49798D01*
X147853D01*
X147600Y50052D01*
X149123Y49798D02*
Y50814D01*
X149885D01*
X150139Y50560D01*
Y49798D01*
X145568Y48019D02*
X145314Y48273D01*
X144806D01*
X144553Y48019D01*
Y47004D01*
X144806Y46750D01*
X145314D01*
X145568Y47004D01*
X147092Y48273D02*
X146076D01*
Y47512D01*
X146584D01*
X146076D01*
Y46750D01*
X147600Y47512D02*
X148615D01*
X149123Y48019D02*
X149377Y48273D01*
X149885D01*
X150139Y48019D01*
Y47004D01*
X149885Y46750D01*
X149377D01*
X149123Y47004D01*
Y48019D01*
X150647D02*
X150900Y48273D01*
X151408D01*
X151662Y48019D01*
Y47004D01*
X151408Y46750D01*
X150900D01*
X150647Y47004D01*
Y48019D01*
X152932Y46750D02*
Y48273D01*
X152170Y47512D01*
X153186D01*
X145568Y44971D02*
X145314Y45225D01*
X144806D01*
X144553Y44971D01*
Y43956D01*
X144806Y43702D01*
X145314D01*
X145568Y43956D01*
X146330Y43702D02*
X146838D01*
X147092Y43956D01*
Y44464D01*
X146838Y44718D01*
X146330D01*
X146076Y44464D01*
Y43956D01*
X146330Y43702D01*
X147600Y44718D02*
Y43702D01*
Y44210D01*
X147853Y44464D01*
X148107Y44718D01*
X148361D01*
X149885Y43702D02*
X149377D01*
X149123Y43956D01*
Y44464D01*
X149377Y44718D01*
X149885D01*
X150139Y44464D01*
Y44210D01*
X149123D01*
X150647Y44464D02*
X151662D01*
X152170Y44971D02*
X152424Y45225D01*
X152932D01*
X153186Y44971D01*
Y43956D01*
X152932Y43702D01*
X152424D01*
X152170Y43956D01*
Y44971D01*
X154455Y43702D02*
Y45225D01*
X153694Y44464D01*
X154709D01*
X155217Y44971D02*
X155471Y45225D01*
X155979D01*
X156233Y44971D01*
Y44718D01*
X155979Y44464D01*
X155725D01*
X155979D01*
X156233Y44210D01*
Y43956D01*
X155979Y43702D01*
X155471D01*
X155217Y43956D01*
X145568Y41923D02*
X145314Y42177D01*
X144806D01*
X144553Y41923D01*
Y40908D01*
X144806Y40654D01*
X145314D01*
X145568Y40908D01*
X147092Y42177D02*
X146076D01*
Y41416D01*
X146584D01*
X146076D01*
Y40654D01*
X147600Y41416D02*
X148615D01*
X149123Y41923D02*
X149377Y42177D01*
X149885D01*
X150139Y41923D01*
Y40908D01*
X149885Y40654D01*
X149377D01*
X149123Y40908D01*
Y41923D01*
X150647D02*
X150900Y42177D01*
X151408D01*
X151662Y41923D01*
Y40908D01*
X151408Y40654D01*
X150900D01*
X150647Y40908D01*
Y41923D01*
X152932Y40654D02*
Y42177D01*
X152170Y41416D01*
X153186D01*
X144553Y37606D02*
Y39129D01*
X145314D01*
X145568Y38875D01*
Y38368D01*
X145314Y38114D01*
X144553D01*
X146076Y39129D02*
Y37606D01*
X146838D01*
X147092Y37860D01*
Y38114D01*
Y38368D01*
X146838Y38622D01*
X146076D01*
X148615Y38875D02*
X148361Y39129D01*
X147853D01*
X147600Y38875D01*
Y38622D01*
X147853Y38368D01*
X148361D01*
X148615Y38114D01*
Y37860D01*
X148361Y37606D01*
X147853D01*
X147600Y37860D01*
X149123Y37606D02*
Y38622D01*
X149885D01*
X150139Y38368D01*
Y37606D01*
X145568Y35827D02*
X145314Y36081D01*
X144806D01*
X144553Y35827D01*
Y35574D01*
X144806Y35320D01*
X145314D01*
X145568Y35066D01*
Y34812D01*
X145314Y34558D01*
X144806D01*
X144553Y34812D01*
X146076Y34558D02*
Y36081D01*
X146584Y35574D01*
X147092Y36081D01*
Y34558D01*
X147600Y35320D02*
X148615D01*
X149123Y35827D02*
X149377Y36081D01*
X149885D01*
X150139Y35827D01*
Y34812D01*
X149885Y34558D01*
X149377D01*
X149123Y34812D01*
Y35827D01*
X150647D02*
X150900Y36081D01*
X151408D01*
X151662Y35827D01*
Y34812D01*
X151408Y34558D01*
X150900D01*
X150647Y34812D01*
Y35827D01*
X152170Y34558D02*
X152678D01*
X152424D01*
Y36081D01*
X152170Y35827D01*
X144553Y58942D02*
Y60465D01*
X145060Y59958D01*
X145568Y60465D01*
Y58942D01*
X146330Y59958D02*
X146838D01*
X147092Y59704D01*
Y58942D01*
X146330D01*
X146076Y59196D01*
X146330Y59450D01*
X147092D01*
X147853Y60211D02*
Y59958D01*
X147600D01*
X148107D01*
X147853D01*
Y59196D01*
X148107Y58942D01*
X149631D02*
X149123D01*
X148869Y59196D01*
Y59704D01*
X149123Y59958D01*
X149631D01*
X149885Y59704D01*
Y59450D01*
X148869D01*
X150393Y59958D02*
Y58942D01*
Y59450D01*
X150647Y59704D01*
X150900Y59958D01*
X151154D01*
X151916Y58942D02*
X152424D01*
X152170D01*
Y59958D01*
X151916D01*
X153440D02*
X153947D01*
X154201Y59704D01*
Y58942D01*
X153440D01*
X153186Y59196D01*
X153440Y59450D01*
X154201D01*
X154709Y58942D02*
X155217D01*
X154963D01*
Y60465D01*
X154709D01*
X110780Y57417D02*
X111796D01*
X111288D01*
Y55894D01*
X112558D02*
X113066D01*
X113319Y56148D01*
Y56656D01*
X113066Y56910D01*
X112558D01*
X112304Y56656D01*
Y56148D01*
X112558Y55894D01*
X113827Y55386D02*
Y56910D01*
X114589D01*
X114843Y56656D01*
Y56148D01*
X114589Y55894D01*
X113827D01*
X117636Y57417D02*
X117128D01*
X116874Y57163D01*
Y56148D01*
X117128Y55894D01*
X117636D01*
X117890Y56148D01*
Y57163D01*
X117636Y57417D01*
X118398Y56910D02*
X118906Y55894D01*
X119413Y56910D01*
X120683Y55894D02*
X120175D01*
X119921Y56148D01*
Y56656D01*
X120175Y56910D01*
X120683D01*
X120937Y56656D01*
Y56402D01*
X119921D01*
X121445Y56910D02*
Y55894D01*
Y56402D01*
X121699Y56656D01*
X121953Y56910D01*
X122207D01*
X122968Y55894D02*
X123476D01*
X123222D01*
Y57417D01*
X122968D01*
X124492Y56910D02*
X125000D01*
X125254Y56656D01*
Y55894D01*
X124492D01*
X124238Y56148D01*
X124492Y56402D01*
X125254D01*
X125761Y56910D02*
Y56148D01*
X126015Y55894D01*
X126777D01*
Y55640D01*
X126523Y55386D01*
X126269D01*
X126777Y55894D02*
Y56910D01*
X110780Y54369D02*
X111796D01*
X111288D01*
Y52846D01*
X112558D02*
X113066D01*
X113319Y53100D01*
Y53608D01*
X113066Y53862D01*
X112558D01*
X112304Y53608D01*
Y53100D01*
X112558Y52846D01*
X113827Y52338D02*
Y53862D01*
X114589D01*
X114843Y53608D01*
Y53100D01*
X114589Y52846D01*
X113827D01*
X117890Y54115D02*
X117636Y54369D01*
X117128D01*
X116874Y54115D01*
Y53862D01*
X117128Y53608D01*
X117636D01*
X117890Y53354D01*
Y53100D01*
X117636Y52846D01*
X117128D01*
X116874Y53100D01*
X118652Y52846D02*
X119160D01*
X119413Y53100D01*
Y53608D01*
X119160Y53862D01*
X118652D01*
X118398Y53608D01*
Y53100D01*
X118652Y52846D01*
X119921D02*
X120429D01*
X120175D01*
Y54369D01*
X119921D01*
X122207D02*
Y52846D01*
X121445D01*
X121191Y53100D01*
Y53608D01*
X121445Y53862D01*
X122207D01*
X123476Y52846D02*
X122968D01*
X122714Y53100D01*
Y53608D01*
X122968Y53862D01*
X123476D01*
X123730Y53608D01*
Y53354D01*
X122714D01*
X124238Y53862D02*
Y52846D01*
Y53354D01*
X124492Y53608D01*
X124746Y53862D01*
X125000D01*
X110780Y51321D02*
X111796D01*
X111288D01*
Y49798D01*
X112558D02*
X113066D01*
X113319Y50052D01*
Y50560D01*
X113066Y50814D01*
X112558D01*
X112304Y50560D01*
Y50052D01*
X112558Y49798D01*
X113827Y49290D02*
Y50814D01*
X114589D01*
X114843Y50560D01*
Y50052D01*
X114589Y49798D01*
X113827D01*
X117890Y51067D02*
X117636Y51321D01*
X117128D01*
X116874Y51067D01*
Y50814D01*
X117128Y50560D01*
X117636D01*
X117890Y50306D01*
Y50052D01*
X117636Y49798D01*
X117128D01*
X116874Y50052D01*
X118398Y50814D02*
Y50052D01*
X118652Y49798D01*
X119413D01*
Y50814D01*
X119921D02*
Y49798D01*
Y50306D01*
X120175Y50560D01*
X120429Y50814D01*
X120683D01*
X121699Y49798D02*
Y51067D01*
Y50560D01*
X121445D01*
X121953D01*
X121699D01*
Y51067D01*
X121953Y51321D01*
X122968Y50814D02*
X123476D01*
X123730Y50560D01*
Y49798D01*
X122968D01*
X122714Y50052D01*
X122968Y50306D01*
X123730D01*
X125254Y50814D02*
X124492D01*
X124238Y50560D01*
Y50052D01*
X124492Y49798D01*
X125254D01*
X126523D02*
X126015D01*
X125761Y50052D01*
Y50560D01*
X126015Y50814D01*
X126523D01*
X126777Y50560D01*
Y50306D01*
X125761D01*
X129824Y51321D02*
X128808D01*
Y50560D01*
X129316D01*
X128808D01*
Y49798D01*
X130332D02*
X130840D01*
X130586D01*
Y50814D01*
X130332D01*
X131602Y49798D02*
Y50814D01*
X132363D01*
X132617Y50560D01*
Y49798D01*
X133125D02*
X133633D01*
X133379D01*
Y50814D01*
X133125D01*
X134395Y49798D02*
X135156D01*
X135410Y50052D01*
X135156Y50306D01*
X134649D01*
X134395Y50560D01*
X134649Y50814D01*
X135410D01*
X135918Y51321D02*
Y49798D01*
Y50560D01*
X136172Y50814D01*
X136680D01*
X136934Y50560D01*
Y49798D01*
X110780Y48273D02*
X111796D01*
X111288D01*
Y46750D01*
X112558D02*
X113066D01*
X113319Y47004D01*
Y47512D01*
X113066Y47766D01*
X112558D01*
X112304Y47512D01*
Y47004D01*
X112558Y46750D01*
X113827Y46242D02*
Y47766D01*
X114589D01*
X114843Y47512D01*
Y47004D01*
X114589Y46750D01*
X113827D01*
X116874Y48273D02*
Y46750D01*
X117890D01*
X118652Y47766D02*
X119160D01*
X119413Y47512D01*
Y46750D01*
X118652D01*
X118398Y47004D01*
X118652Y47258D01*
X119413D01*
X119921Y47766D02*
Y47004D01*
X120175Y46750D01*
X120937D01*
Y46496D01*
X120683Y46242D01*
X120429D01*
X120937Y46750D02*
Y47766D01*
X122207Y46750D02*
X121699D01*
X121445Y47004D01*
Y47512D01*
X121699Y47766D01*
X122207D01*
X122461Y47512D01*
Y47258D01*
X121445D01*
X122968Y47766D02*
Y46750D01*
Y47258D01*
X123222Y47512D01*
X123476Y47766D01*
X123730D01*
X110780Y45225D02*
Y43702D01*
X111542D01*
X111796Y43956D01*
Y44971D01*
X111542Y45225D01*
X110780D01*
X112304Y43702D02*
X112812D01*
X112558D01*
Y44718D01*
X112304D01*
X114335Y43702D02*
X113827D01*
X113573Y43956D01*
Y44464D01*
X113827Y44718D01*
X114335D01*
X114589Y44464D01*
Y44210D01*
X113573D01*
X115097Y43702D02*
X115605D01*
X115351D01*
Y45225D01*
X115097D01*
X117128Y43702D02*
X116620D01*
X116366Y43956D01*
Y44464D01*
X116620Y44718D01*
X117128D01*
X117382Y44464D01*
Y44210D01*
X116366D01*
X118906Y44718D02*
X118144D01*
X117890Y44464D01*
Y43956D01*
X118144Y43702D01*
X118906D01*
X119667Y44971D02*
Y44718D01*
X119413D01*
X119921D01*
X119667D01*
Y43956D01*
X119921Y43702D01*
X120683Y44718D02*
Y43702D01*
Y44210D01*
X120937Y44464D01*
X121191Y44718D01*
X121445D01*
X122207Y43702D02*
X122714D01*
X122461D01*
Y44718D01*
X122207D01*
X124492D02*
X123730D01*
X123476Y44464D01*
Y43956D01*
X123730Y43702D01*
X124492D01*
X126523D02*
X127031D01*
X126777D01*
Y45225D01*
X126523Y44971D01*
X110780Y42177D02*
Y40654D01*
X111542D01*
X111796Y40908D01*
Y41162D01*
X111542Y41416D01*
X110780D01*
X111542D01*
X111796Y41670D01*
Y41923D01*
X111542Y42177D01*
X110780D01*
X112558Y40654D02*
X113066D01*
X113319Y40908D01*
Y41416D01*
X113066Y41670D01*
X112558D01*
X112304Y41416D01*
Y40908D01*
X112558Y40654D01*
X114081Y41923D02*
Y41670D01*
X113827D01*
X114335D01*
X114081D01*
Y40908D01*
X114335Y40654D01*
X115351Y41923D02*
Y41670D01*
X115097D01*
X115605D01*
X115351D01*
Y40908D01*
X115605Y40654D01*
X116620D02*
X117128D01*
X117382Y40908D01*
Y41416D01*
X117128Y41670D01*
X116620D01*
X116366Y41416D01*
Y40908D01*
X116620Y40654D01*
X117890D02*
Y41670D01*
X118144D01*
X118398Y41416D01*
Y40654D01*
Y41416D01*
X118652Y41670D01*
X118906Y41416D01*
Y40654D01*
X120937Y42177D02*
Y40654D01*
X121953D01*
X122714Y41670D02*
X123222D01*
X123476Y41416D01*
Y40654D01*
X122714D01*
X122461Y40908D01*
X122714Y41162D01*
X123476D01*
X123984Y41670D02*
Y40908D01*
X124238Y40654D01*
X125000D01*
Y40400D01*
X124746Y40146D01*
X124492D01*
X125000Y40654D02*
Y41670D01*
X126269Y40654D02*
X125761D01*
X125508Y40908D01*
Y41416D01*
X125761Y41670D01*
X126269D01*
X126523Y41416D01*
Y41162D01*
X125508D01*
X127031Y41670D02*
Y40654D01*
Y41162D01*
X127285Y41416D01*
X127539Y41670D01*
X127793D01*
X110780Y39129D02*
Y37606D01*
X111542D01*
X111796Y37860D01*
Y38114D01*
X111542Y38368D01*
X110780D01*
X111542D01*
X111796Y38622D01*
Y38875D01*
X111542Y39129D01*
X110780D01*
X112558Y37606D02*
X113066D01*
X113319Y37860D01*
Y38368D01*
X113066Y38622D01*
X112558D01*
X112304Y38368D01*
Y37860D01*
X112558Y37606D01*
X114081Y38875D02*
Y38622D01*
X113827D01*
X114335D01*
X114081D01*
Y37860D01*
X114335Y37606D01*
X115351Y38875D02*
Y38622D01*
X115097D01*
X115605D01*
X115351D01*
Y37860D01*
X115605Y37606D01*
X116620D02*
X117128D01*
X117382Y37860D01*
Y38368D01*
X117128Y38622D01*
X116620D01*
X116366Y38368D01*
Y37860D01*
X116620Y37606D01*
X117890D02*
Y38622D01*
X118144D01*
X118398Y38368D01*
Y37606D01*
Y38368D01*
X118652Y38622D01*
X118906Y38368D01*
Y37606D01*
X121953Y38875D02*
X121699Y39129D01*
X121191D01*
X120937Y38875D01*
Y38622D01*
X121191Y38368D01*
X121699D01*
X121953Y38114D01*
Y37860D01*
X121699Y37606D01*
X121191D01*
X120937Y37860D01*
X122461Y38622D02*
Y37860D01*
X122714Y37606D01*
X123476D01*
Y38622D01*
X123984D02*
Y37606D01*
Y38114D01*
X124238Y38368D01*
X124492Y38622D01*
X124746D01*
X125761Y37606D02*
Y38875D01*
Y38368D01*
X125508D01*
X126015D01*
X125761D01*
Y38875D01*
X126015Y39129D01*
X127031Y38622D02*
X127539D01*
X127793Y38368D01*
Y37606D01*
X127031D01*
X126777Y37860D01*
X127031Y38114D01*
X127793D01*
X129316Y38622D02*
X128555D01*
X128301Y38368D01*
Y37860D01*
X128555Y37606D01*
X129316D01*
X130586D02*
X130078D01*
X129824Y37860D01*
Y38368D01*
X130078Y38622D01*
X130586D01*
X130840Y38368D01*
Y38114D01*
X129824D01*
X133887Y39129D02*
X132871D01*
Y38368D01*
X133379D01*
X132871D01*
Y37606D01*
X134395D02*
X134902D01*
X134649D01*
Y38622D01*
X134395D01*
X135664Y37606D02*
Y38622D01*
X136426D01*
X136680Y38368D01*
Y37606D01*
X137188D02*
X137696D01*
X137442D01*
Y38622D01*
X137188D01*
X138457Y37606D02*
X139219D01*
X139473Y37860D01*
X139219Y38114D01*
X138711D01*
X138457Y38368D01*
X138711Y38622D01*
X139473D01*
X139981Y39129D02*
Y37606D01*
Y38368D01*
X140235Y38622D01*
X140743D01*
X140997Y38368D01*
Y37606D01*
X110780Y36081D02*
Y34558D01*
X111542D01*
X111796Y34812D01*
Y35066D01*
X111542Y35320D01*
X110780D01*
X111542D01*
X111796Y35574D01*
Y35827D01*
X111542Y36081D01*
X110780D01*
X112558Y34558D02*
X113066D01*
X113319Y34812D01*
Y35320D01*
X113066Y35574D01*
X112558D01*
X112304Y35320D01*
Y34812D01*
X112558Y34558D01*
X114081Y35827D02*
Y35574D01*
X113827D01*
X114335D01*
X114081D01*
Y34812D01*
X114335Y34558D01*
X115351Y35827D02*
Y35574D01*
X115097D01*
X115605D01*
X115351D01*
Y34812D01*
X115605Y34558D01*
X116620D02*
X117128D01*
X117382Y34812D01*
Y35320D01*
X117128Y35574D01*
X116620D01*
X116366Y35320D01*
Y34812D01*
X116620Y34558D01*
X117890D02*
Y35574D01*
X118144D01*
X118398Y35320D01*
Y34558D01*
Y35320D01*
X118652Y35574D01*
X118906Y35320D01*
Y34558D01*
X121953Y35827D02*
X121699Y36081D01*
X121191D01*
X120937Y35827D01*
Y35574D01*
X121191Y35320D01*
X121699D01*
X121953Y35066D01*
Y34812D01*
X121699Y34558D01*
X121191D01*
X120937Y34812D01*
X122714Y34558D02*
X123222D01*
X123476Y34812D01*
Y35320D01*
X123222Y35574D01*
X122714D01*
X122461Y35320D01*
Y34812D01*
X122714Y34558D01*
X123984D02*
X124492D01*
X124238D01*
Y36081D01*
X123984D01*
X126269D02*
Y34558D01*
X125508D01*
X125254Y34812D01*
Y35320D01*
X125508Y35574D01*
X126269D01*
X127539Y34558D02*
X127031D01*
X126777Y34812D01*
Y35320D01*
X127031Y35574D01*
X127539D01*
X127793Y35320D01*
Y35066D01*
X126777D01*
X128301Y35574D02*
Y34558D01*
Y35066D01*
X128555Y35320D01*
X128808Y35574D01*
X129062D01*
X110780Y33033D02*
Y31510D01*
X111542D01*
X111796Y31764D01*
Y32018D01*
X111542Y32272D01*
X110780D01*
X111542D01*
X111796Y32526D01*
Y32779D01*
X111542Y33033D01*
X110780D01*
X112558Y31510D02*
X113066D01*
X113319Y31764D01*
Y32272D01*
X113066Y32526D01*
X112558D01*
X112304Y32272D01*
Y31764D01*
X112558Y31510D01*
X114081Y32779D02*
Y32526D01*
X113827D01*
X114335D01*
X114081D01*
Y31764D01*
X114335Y31510D01*
X115351Y32779D02*
Y32526D01*
X115097D01*
X115605D01*
X115351D01*
Y31764D01*
X115605Y31510D01*
X116620D02*
X117128D01*
X117382Y31764D01*
Y32272D01*
X117128Y32526D01*
X116620D01*
X116366Y32272D01*
Y31764D01*
X116620Y31510D01*
X117890D02*
Y32526D01*
X118144D01*
X118398Y32272D01*
Y31510D01*
Y32272D01*
X118652Y32526D01*
X118906Y32272D01*
Y31510D01*
X121699Y33033D02*
X121191D01*
X120937Y32779D01*
Y31764D01*
X121191Y31510D01*
X121699D01*
X121953Y31764D01*
Y32779D01*
X121699Y33033D01*
X122461Y32526D02*
X122968Y31510D01*
X123476Y32526D01*
X124746Y31510D02*
X124238D01*
X123984Y31764D01*
Y32272D01*
X124238Y32526D01*
X124746D01*
X125000Y32272D01*
Y32018D01*
X123984D01*
X125508Y32526D02*
Y31510D01*
Y32018D01*
X125761Y32272D01*
X126015Y32526D01*
X126269D01*
X127031Y31510D02*
X127539D01*
X127285D01*
Y33033D01*
X127031D01*
X128555Y32526D02*
X129062D01*
X129316Y32272D01*
Y31510D01*
X128555D01*
X128301Y31764D01*
X128555Y32018D01*
X129316D01*
X129824Y32526D02*
Y31764D01*
X130078Y31510D01*
X130840D01*
Y31256D01*
X130586Y31002D01*
X130332D01*
X130840Y31510D02*
Y32526D01*
X110780Y58942D02*
Y60465D01*
X111796Y58942D01*
Y60465D01*
X112558Y59958D02*
X113066D01*
X113319Y59704D01*
Y58942D01*
X112558D01*
X112304Y59196D01*
X112558Y59450D01*
X113319D01*
X113827Y58942D02*
Y59958D01*
X114081D01*
X114335Y59704D01*
Y58942D01*
Y59704D01*
X114589Y59958D01*
X114843Y59704D01*
Y58942D01*
X116113D02*
X115605D01*
X115351Y59196D01*
Y59704D01*
X115605Y59958D01*
X116113D01*
X116366Y59704D01*
Y59450D01*
X115351D01*
X100368Y46750D02*
X100876D01*
X100622D01*
Y48273D01*
X100368Y48019D01*
X101384Y40654D02*
X100368D01*
X101384Y41670D01*
Y41923D01*
X101130Y42177D01*
X100622D01*
X100368Y41923D01*
Y60465D02*
Y58942D01*
X101384D01*
X102146Y59958D02*
X102654D01*
X102908Y59704D01*
Y58942D01*
X102146D01*
X101892Y59196D01*
X102146Y59450D01*
X102908D01*
X103416Y59958D02*
Y59196D01*
X103669Y58942D01*
X104431D01*
Y58688D01*
X104177Y58434D01*
X103923D01*
X104431Y58942D02*
Y59958D01*
X105701Y58942D02*
X105193D01*
X104939Y59196D01*
Y59704D01*
X105193Y59958D01*
X105701D01*
X105955Y59704D01*
Y59450D01*
X104939D01*
X106463Y59958D02*
Y58942D01*
Y59450D01*
X106716Y59704D01*
X106970Y59958D01*
X107224D01*
D48*
X97290Y16990D02*
X226684D01*
X97290Y4990D02*
X226684D01*
X97290Y1990D02*
X226684D01*
Y19990D01*
X97290D02*
X226684D01*
X97290Y1990D02*
Y19990D01*
X210695Y1990D02*
Y19990D01*
X198725Y1990D02*
Y19990D01*
X168626Y1990D02*
Y19990D01*
X153777Y1990D02*
Y19990D01*
X143487Y1990D02*
Y19990D01*
X120386Y1990D02*
Y19990D01*
X108481Y1990D02*
Y19990D01*
X188991Y30748D02*
Y61228D01*
X174517Y55132D02*
X188991D01*
X174517Y52084D02*
X188991D01*
X174517Y49036D02*
X188991D01*
X174517Y45988D02*
X188991D01*
X174517Y42940D02*
X188991D01*
X174517Y39892D02*
X188991D01*
X174517Y36844D02*
X188991D01*
X174517Y33796D02*
X188991D01*
X174517Y30748D02*
X188991D01*
X174517D02*
Y61228D01*
X158011Y55132D02*
X174517D01*
X158011Y52084D02*
X174517D01*
X158011Y49036D02*
X174517D01*
X158011Y45988D02*
X174517D01*
X158011Y42940D02*
X174517D01*
X158011Y39892D02*
X174517D01*
X158011Y36844D02*
X174517D01*
X158011Y33796D02*
X174517D01*
X158011Y30748D02*
X174517D01*
X158011D02*
Y61228D01*
X142775Y55132D02*
X158011D01*
X142775Y52084D02*
X158011D01*
X142775Y49036D02*
X158011D01*
X142775Y45988D02*
X158011D01*
X142775Y42940D02*
X158011D01*
X142775Y39892D02*
X158011D01*
X142775Y36844D02*
X158011D01*
X142775Y33796D02*
X158011D01*
X142775Y30748D02*
X158011D01*
X142775D02*
Y61228D01*
X109002Y55132D02*
X142775D01*
X109002Y52084D02*
X142775D01*
X109002Y49036D02*
X142775D01*
X109002Y45988D02*
X142775D01*
X109002Y42940D02*
X142775D01*
X109002Y39892D02*
X142775D01*
X109002Y36844D02*
X142775D01*
X109002Y33796D02*
X142775D01*
X109002Y30748D02*
X142775D01*
X109002D02*
Y61228D01*
X98590Y55132D02*
X109002D01*
X98590Y52084D02*
X109002D01*
X98590Y49036D02*
X109002D01*
X98590Y45988D02*
X109002D01*
X98590Y42940D02*
X109002D01*
X98590Y39892D02*
X109002D01*
X98590Y36844D02*
X109002D01*
X98590Y33796D02*
X109002D01*
X98590Y30748D02*
X109002D01*
X98590D02*
Y61228D01*
X188991D01*
X98590Y58180D02*
X188991D01*
D49*
X9073Y8873D02*
X9200Y8746D01*
X8946Y8873D02*
X9073D01*
X8946D02*
X9073Y9000D01*
X8946Y9127D02*
X9073Y9000D01*
X8946Y9127D02*
X9073D01*
X9200Y9254D01*
X9327Y9127D01*
X9454D01*
X9327Y9000D02*
X9454Y9127D01*
X9327Y9000D02*
X9454Y8873D01*
X9327D02*
X9454D01*
X9200Y8746D02*
X9327Y8873D01*
X58473Y8173D02*
X58600Y8046D01*
X58346Y8173D02*
X58473D01*
X58346D02*
X58473Y8300D01*
X58346Y8427D02*
X58473Y8300D01*
X58346Y8427D02*
X58473D01*
X58600Y8554D01*
X58727Y8427D01*
X58854D01*
X58727Y8300D02*
X58854Y8427D01*
X58727Y8300D02*
X58854Y8173D01*
X58727D02*
X58854D01*
X58600Y8046D02*
X58727Y8173D01*
X83073Y9273D02*
X83200Y9146D01*
X82946Y9273D02*
X83073D01*
X82946D02*
X83073Y9400D01*
X82946Y9527D02*
X83073Y9400D01*
X82946Y9527D02*
X83073D01*
X83200Y9654D01*
X83327Y9527D01*
X83454D01*
X83327Y9400D02*
X83454Y9527D01*
X83327Y9400D02*
X83454Y9273D01*
X83327D02*
X83454D01*
X83200Y9146D02*
X83327Y9273D01*
X71073Y8273D02*
X71200Y8146D01*
X70946Y8273D02*
X71073D01*
X70946D02*
X71073Y8400D01*
X70946Y8527D02*
X71073Y8400D01*
X70946Y8527D02*
X71073D01*
X71200Y8654D01*
X71327Y8527D01*
X71454D01*
X71327Y8400D02*
X71454Y8527D01*
X71327Y8400D02*
X71454Y8273D01*
X71327D02*
X71454D01*
X71200Y8146D02*
X71327Y8273D01*
X46573Y8373D02*
X46700Y8246D01*
X46446Y8373D02*
X46573D01*
X46446D02*
X46573Y8500D01*
X46446Y8627D02*
X46573Y8500D01*
X46446Y8627D02*
X46573D01*
X46700Y8754D01*
X46827Y8627D01*
X46954D01*
X46827Y8500D02*
X46954Y8627D01*
X46827Y8500D02*
X46954Y8373D01*
X46827D02*
X46954D01*
X46700Y8246D02*
X46827Y8373D01*
X21673Y8873D02*
X21800Y8746D01*
X21546Y8873D02*
X21673D01*
X21546D02*
X21673Y9000D01*
X21546Y9127D02*
X21673Y9000D01*
X21546Y9127D02*
X21673D01*
X21800Y9254D01*
X21927Y9127D01*
X22054D01*
X21927Y9000D02*
X22054Y9127D01*
X21927Y9000D02*
X22054Y8873D01*
X21927D02*
X22054D01*
X21800Y8746D02*
X21927Y8873D01*
X45593Y18415D02*
X45720Y18288D01*
X45466Y18415D02*
X45593D01*
X45466D02*
X45593Y18542D01*
X45466Y18669D02*
X45593Y18542D01*
X45466Y18669D02*
X45593D01*
X45720Y18796D01*
X45847Y18669D01*
X45974D01*
X45847Y18542D02*
X45974Y18669D01*
X45847Y18542D02*
X45974Y18415D01*
X45847D02*
X45974D01*
X45720Y18288D02*
X45847Y18415D01*
X39522Y8153D02*
X39649Y8026D01*
X39395Y8153D02*
X39522D01*
X39395D02*
X39522Y8280D01*
X39395Y8407D02*
X39522Y8280D01*
X39395Y8407D02*
X39522D01*
X39649Y8534D01*
X39776Y8407D01*
X39903D01*
X39776Y8280D02*
X39903Y8407D01*
X39776Y8280D02*
X39903Y8153D01*
X39776D02*
X39903D01*
X39649Y8026D02*
X39776Y8153D01*
X40973Y11973D02*
X41100Y11846D01*
X40846Y11973D02*
X40973D01*
X40846D02*
X40973Y12100D01*
X40846Y12227D02*
X40973Y12100D01*
X40846Y12227D02*
X40973D01*
X41100Y12354D01*
X41227Y12227D01*
X41354D01*
X41227Y12100D02*
X41354Y12227D01*
X41227Y12100D02*
X41354Y11973D01*
X41227D02*
X41354D01*
X41100Y11846D02*
X41227Y11973D01*
X42418Y18288D02*
X42545Y18161D01*
X42291Y18288D02*
X42418D01*
X42291D02*
X42418Y18415D01*
X42291Y18542D02*
X42418Y18415D01*
X42291Y18542D02*
X42418D01*
X42545Y18669D01*
X42672Y18542D01*
X42799D01*
X42672Y18415D02*
X42799Y18542D01*
X42672Y18415D02*
X42799Y18288D01*
X42672D02*
X42799D01*
X42545Y18161D02*
X42672Y18288D01*
X46101Y13259D02*
X46228Y13132D01*
X45974Y13259D02*
X46101D01*
X45974D02*
X46101Y13386D01*
X45974Y13513D02*
X46101Y13386D01*
X45974Y13513D02*
X46101D01*
X46228Y13640D01*
X46355Y13513D01*
X46482D01*
X46355Y13386D02*
X46482Y13513D01*
X46355Y13386D02*
X46482Y13259D01*
X46355D02*
X46482D01*
X46228Y13132D02*
X46355Y13259D01*
X13773Y7973D02*
X13900Y7846D01*
X13646Y7973D02*
X13773D01*
X13646D02*
X13773Y8100D01*
X13646Y8227D02*
X13773Y8100D01*
X13646Y8227D02*
X13773D01*
X13900Y8354D01*
X14027Y8227D01*
X14154D01*
X14027Y8100D02*
X14154Y8227D01*
X14027Y8100D02*
X14154Y7973D01*
X14027D02*
X14154D01*
X13900Y7846D02*
X14027Y7973D01*
X7446Y7446D02*
X7700Y7573D01*
X7954Y7446D01*
X7827Y7700D02*
X7954Y7446D01*
X7827Y7700D02*
X7954Y7954D01*
X7700Y7827D02*
X7954Y7954D01*
X7446D02*
X7700Y7827D01*
X7446Y7954D02*
X7573Y7700D01*
X7446Y7446D02*
X7573Y7700D01*
X19846Y7646D02*
X20100Y7773D01*
X20354Y7646D01*
X20227Y7900D02*
X20354Y7646D01*
X20227Y7900D02*
X20354Y8154D01*
X20100Y8027D02*
X20354Y8154D01*
X19846D02*
X20100Y8027D01*
X19846Y8154D02*
X19973Y7900D01*
X19846Y7646D02*
X19973Y7900D01*
X32146Y7946D02*
X32400Y8073D01*
X32654Y7946D01*
X32527Y8200D02*
X32654Y7946D01*
X32527Y8200D02*
X32654Y8454D01*
X32400Y8327D02*
X32654Y8454D01*
X32146D02*
X32400Y8327D01*
X32146Y8454D02*
X32273Y8200D01*
X32146Y7946D02*
X32273Y8200D01*
X44546Y7746D02*
X44800Y7873D01*
X45054Y7746D01*
X44927Y8000D02*
X45054Y7746D01*
X44927Y8000D02*
X45054Y8254D01*
X44800Y8127D02*
X45054Y8254D01*
X44546D02*
X44800Y8127D01*
X44546Y8254D02*
X44673Y8000D01*
X44546Y7746D02*
X44673Y8000D01*
X69846Y7546D02*
X70100Y7673D01*
X70354Y7546D01*
X70227Y7800D02*
X70354Y7546D01*
X70227Y7800D02*
X70354Y8054D01*
X70100Y7927D02*
X70354Y8054D01*
X69846D02*
X70100Y7927D01*
X69846Y8054D02*
X69973Y7800D01*
X69846Y7546D02*
X69973Y7800D01*
X81946Y7846D02*
X82200Y7973D01*
X82454Y7846D01*
X82327Y8100D02*
X82454Y7846D01*
X82327Y8100D02*
X82454Y8354D01*
X82200Y8227D02*
X82454Y8354D01*
X81946D02*
X82200Y8227D01*
X81946Y8354D02*
X82073Y8100D01*
X81946Y7846D02*
X82073Y8100D01*
X57046Y7546D02*
X57300Y7673D01*
X57554Y7546D01*
X57427Y7800D02*
X57554Y7546D01*
X57427Y7800D02*
X57554Y8054D01*
X57300Y7927D02*
X57554Y8054D01*
X57046D02*
X57300Y7927D01*
X57046Y8054D02*
X57173Y7800D01*
X57046Y7546D02*
X57173Y7800D01*
X46076Y15494D02*
X46203Y15367D01*
X45949Y15494D02*
X46076D01*
X45949D02*
X46076Y15621D01*
X45949Y15748D02*
X46076Y15621D01*
X45949Y15748D02*
X46076D01*
X46203Y15875D01*
X46330Y15748D01*
X46457D01*
X46330Y15621D02*
X46457Y15748D01*
X46330Y15621D02*
X46457Y15494D01*
X46330D02*
X46457D01*
X46203Y15367D02*
X46330Y15494D01*
X50073Y7673D02*
X50200Y7546D01*
X49946Y7673D02*
X50073D01*
X49946D02*
X50073Y7800D01*
X49946Y7927D02*
X50073Y7800D01*
X49946Y7927D02*
X50073D01*
X50200Y8054D01*
X50327Y7927D01*
X50454D01*
X50327Y7800D02*
X50454Y7927D01*
X50327Y7800D02*
X50454Y7673D01*
X50327D02*
X50454D01*
X50200Y7546D02*
X50327Y7673D01*
X66273Y2173D02*
X66400Y2046D01*
X66146Y2173D02*
X66273D01*
X66146D02*
X66273Y2300D01*
X66146Y2427D02*
X66273Y2300D01*
X66146Y2427D02*
X66273D01*
X66400Y2554D01*
X66527Y2427D01*
X66654D01*
X66527Y2300D02*
X66654Y2427D01*
X66527Y2300D02*
X66654Y2173D01*
X66527D02*
X66654D01*
X66400Y2046D02*
X66527Y2173D01*
X51173Y2473D02*
X51300Y2346D01*
X51046Y2473D02*
X51173D01*
X51046D02*
X51173Y2600D01*
X51046Y2727D02*
X51173Y2600D01*
X51046Y2727D02*
X51173D01*
X51300Y2854D01*
X51427Y2727D01*
X51554D01*
X51427Y2600D02*
X51554Y2727D01*
X51427Y2600D02*
X51554Y2473D01*
X51427D02*
X51554D01*
X51300Y2346D02*
X51427Y2473D01*
X46341Y20701D02*
X46595Y20828D01*
X46849Y20701D01*
X46722Y20955D02*
X46849Y20701D01*
X46722Y20955D02*
X46849Y21209D01*
X46595Y21082D02*
X46849Y21209D01*
X46341D02*
X46595Y21082D01*
X46341Y21209D02*
X46468Y20955D01*
X46341Y20701D02*
X46468Y20955D01*
X51307Y13639D02*
X51434Y13512D01*
X51180Y13639D02*
X51307D01*
X51180D02*
X51307Y13766D01*
X51180Y13893D02*
X51307Y13766D01*
X51180Y13893D02*
X51307D01*
X51434Y14020D01*
X51561Y13893D01*
X51688D01*
X51561Y13766D02*
X51688Y13893D01*
X51561Y13766D02*
X51688Y13639D01*
X51561D02*
X51688D01*
X51434Y13512D02*
X51561Y13639D01*
X13021Y2421D02*
X13274Y2547D01*
X13528Y2421D01*
X13401Y2674D02*
X13528Y2421D01*
X13401Y2674D02*
X13528Y2928D01*
X13274Y2802D02*
X13528Y2928D01*
X13021D02*
X13274Y2802D01*
X13021Y2928D02*
X13148Y2674D01*
X13021Y2421D02*
X13148Y2674D01*
X12987Y5527D02*
X13241Y5654D01*
X13495Y5527D01*
X13368Y5781D02*
X13495Y5527D01*
X13368Y5781D02*
X13495Y6035D01*
X13241Y5908D02*
X13495Y6035D01*
X12987D02*
X13241Y5908D01*
X12987Y6035D02*
X13114Y5781D01*
X12987Y5527D02*
X13114Y5781D01*
X587Y5527D02*
X841Y5654D01*
X1095Y5527D01*
X968Y5781D02*
X1095Y5527D01*
X968Y5781D02*
X1095Y6035D01*
X841Y5908D02*
X1095Y6035D01*
X587D02*
X841Y5908D01*
X587Y6035D02*
X714Y5781D01*
X587Y5527D02*
X714Y5781D01*
X25206Y5731D02*
X25460Y5858D01*
X25714Y5731D01*
X25587Y5985D02*
X25714Y5731D01*
X25587Y5985D02*
X25714Y6239D01*
X25460Y6112D02*
X25714Y6239D01*
X25206D02*
X25460Y6112D01*
X25206Y6239D02*
X25333Y5985D01*
X25206Y5731D02*
X25333Y5985D01*
X25121Y2421D02*
X25375Y2547D01*
X25628Y2421D01*
X25501Y2674D02*
X25628Y2421D01*
X25501Y2674D02*
X25628Y2928D01*
X25375Y2802D02*
X25628Y2928D01*
X25121D02*
X25375Y2802D01*
X25121Y2928D02*
X25247Y2674D01*
X25121Y2421D02*
X25247Y2674D01*
X37652Y5591D02*
X37906Y5718D01*
X38160Y5591D01*
X38033Y5845D02*
X38160Y5591D01*
X38033Y5845D02*
X38160Y6099D01*
X37906Y5972D02*
X38160Y6099D01*
X37652D02*
X37906Y5972D01*
X37652Y6099D02*
X37779Y5845D01*
X37652Y5591D02*
X37779Y5845D01*
X37620Y2520D02*
X37875Y2648D01*
X38129Y2520D01*
X38001Y2774D02*
X38129Y2520D01*
X38001Y2774D02*
X38129Y3029D01*
X37875Y2901D02*
X38129Y3029D01*
X37620D02*
X37875Y2901D01*
X37620Y3029D02*
X37748Y2774D01*
X37620Y2520D02*
X37748Y2774D01*
X50184Y5614D02*
X50438Y5741D01*
X50692Y5614D01*
X50565Y5868D02*
X50692Y5614D01*
X50565Y5868D02*
X50692Y6122D01*
X50438Y5995D02*
X50692Y6122D01*
X50184D02*
X50438Y5995D01*
X50184Y6122D02*
X50311Y5868D01*
X50184Y5614D02*
X50311Y5868D01*
X49721Y2320D02*
X49974Y2447D01*
X50229Y2320D01*
X50102Y2575D02*
X50229Y2320D01*
X50102Y2575D02*
X50229Y2829D01*
X49974Y2701D02*
X50229Y2829D01*
X49721D02*
X49974Y2701D01*
X49721Y2829D02*
X49847Y2575D01*
X49721Y2320D02*
X49847Y2575D01*
X62544Y5591D02*
X62798Y5718D01*
X63052Y5591D01*
X62925Y5845D02*
X63052Y5591D01*
X62925Y5845D02*
X63052Y6099D01*
X62798Y5972D02*
X63052Y6099D01*
X62544D02*
X62798Y5972D01*
X62544Y6099D02*
X62671Y5845D01*
X62544Y5591D02*
X62671Y5845D01*
X62320Y2421D02*
X62575Y2547D01*
X62828Y2421D01*
X62701Y2674D02*
X62828Y2421D01*
X62701Y2674D02*
X62828Y2928D01*
X62575Y2802D02*
X62828Y2928D01*
X62320D02*
X62575Y2802D01*
X62320Y2928D02*
X62447Y2674D01*
X62320Y2421D02*
X62447Y2674D01*
X74846Y5546D02*
X75100Y5673D01*
X75354Y5546D01*
X75227Y5800D02*
X75354Y5546D01*
X75227Y5800D02*
X75354Y6054D01*
X75100Y5927D02*
X75354Y6054D01*
X74846D02*
X75100Y5927D01*
X74846Y6054D02*
X74973Y5800D01*
X74846Y5546D02*
X74973Y5800D01*
X74620Y2421D02*
X74874Y2547D01*
X75129Y2421D01*
X75002Y2674D02*
X75129Y2421D01*
X75002Y2674D02*
X75129Y2928D01*
X74874Y2802D02*
X75129Y2928D01*
X74620D02*
X74874Y2802D01*
X74620Y2928D02*
X74747Y2674D01*
X74620Y2421D02*
X74747Y2674D01*
X86421Y1821D02*
X86674Y1947D01*
X86928Y1821D01*
X86801Y2075D02*
X86928Y1821D01*
X86801Y2075D02*
X86928Y2329D01*
X86674Y2201D02*
X86928Y2329D01*
X86421D02*
X86674Y2201D01*
X86421Y2329D02*
X86548Y2075D01*
X86421Y1821D02*
X86548Y2075D01*
X83573Y7473D02*
X83700Y7346D01*
X83446Y7473D02*
X83573D01*
X83446D02*
X83573Y7600D01*
X83446Y7727D02*
X83573Y7600D01*
X83446Y7727D02*
X83573D01*
X83700Y7854D01*
X83827Y7727D01*
X83954D01*
X83827Y7600D02*
X83954Y7727D01*
X83827Y7600D02*
X83954Y7473D01*
X83827D02*
X83954D01*
X83700Y7346D02*
X83827Y7473D01*
X87373Y10873D02*
X87500Y10746D01*
X87246Y10873D02*
X87373D01*
X87246D02*
X87373Y11000D01*
X87246Y11127D02*
X87373Y11000D01*
X87246Y11127D02*
X87373D01*
X87500Y11254D01*
X87627Y11127D01*
X87754D01*
X87627Y11000D02*
X87754Y11127D01*
X87627Y11000D02*
X87754Y10873D01*
X87627D02*
X87754D01*
X87500Y10746D02*
X87627Y10873D01*
X87373Y8373D02*
X87500Y8246D01*
X87246Y8373D02*
X87373D01*
X87246D02*
X87373Y8500D01*
X87246Y8627D02*
X87373Y8500D01*
X87246Y8627D02*
X87373D01*
X87500Y8754D01*
X87627Y8627D01*
X87754D01*
X87627Y8500D02*
X87754Y8627D01*
X87627Y8500D02*
X87754Y8373D01*
X87627D02*
X87754D01*
X87500Y8246D02*
X87627Y8373D01*
X87373Y5873D02*
X87500Y5746D01*
X87246Y5873D02*
X87373D01*
X87246D02*
X87373Y6000D01*
X87246Y6127D02*
X87373Y6000D01*
X87246Y6127D02*
X87373D01*
X87500Y6254D01*
X87627Y6127D01*
X87754D01*
X87627Y6000D02*
X87754Y6127D01*
X87627Y6000D02*
X87754Y5873D01*
X87627D02*
X87754D01*
X87500Y5746D02*
X87627Y5873D01*
X87373Y3373D02*
X87500Y3246D01*
X87246Y3373D02*
X87373D01*
X87246D02*
X87373Y3500D01*
X87246Y3627D02*
X87373Y3500D01*
X87246Y3627D02*
X87373D01*
X87500Y3754D01*
X87627Y3627D01*
X87754D01*
X87627Y3500D02*
X87754Y3627D01*
X87627Y3500D02*
X87754Y3373D01*
X87627D02*
X87754D01*
X87500Y3246D02*
X87627Y3373D01*
X87373Y873D02*
X87500Y746D01*
X87246Y873D02*
X87373D01*
X87246D02*
X87373Y1000D01*
X87246Y1127D02*
X87373Y1000D01*
X87246Y1127D02*
X87373D01*
X87500Y1254D01*
X87627Y1127D01*
X87754D01*
X87627Y1000D02*
X87754Y1127D01*
X87627Y1000D02*
X87754Y873D01*
X87627D02*
X87754D01*
X87500Y746D02*
X87627Y873D01*
X84873D02*
X85000Y746D01*
X84746Y873D02*
X84873D01*
X84746D02*
X84873Y1000D01*
X84746Y1127D02*
X84873Y1000D01*
X84746Y1127D02*
X84873D01*
X85000Y1254D01*
X85127Y1127D01*
X85254D01*
X85127Y1000D02*
X85254Y1127D01*
X85127Y1000D02*
X85254Y873D01*
X85127D02*
X85254D01*
X85000Y746D02*
X85127Y873D01*
X81373Y573D02*
X81500Y446D01*
X81246Y573D02*
X81373D01*
X81246D02*
X81373Y700D01*
X81246Y827D02*
X81373Y700D01*
X81246Y827D02*
X81373D01*
X81500Y954D01*
X81627Y827D01*
X81754D01*
X81627Y700D02*
X81754Y827D01*
X81627Y700D02*
X81754Y573D01*
X81627D02*
X81754D01*
X81500Y446D02*
X81627Y573D01*
X75973D02*
X76100Y446D01*
X75846Y573D02*
X75973D01*
X75846D02*
X75973Y700D01*
X75846Y827D02*
X75973Y700D01*
X75846Y827D02*
X75973D01*
X76100Y954D01*
X76227Y827D01*
X76354D01*
X76227Y700D02*
X76354Y827D01*
X76227Y700D02*
X76354Y573D01*
X76227D02*
X76354D01*
X76100Y446D02*
X76227Y573D01*
X70273D02*
X70400Y446D01*
X70146Y573D02*
X70273D01*
X70146D02*
X70273Y700D01*
X70146Y827D02*
X70273Y700D01*
X70146Y827D02*
X70273D01*
X70400Y954D01*
X70527Y827D01*
X70654D01*
X70527Y700D02*
X70654Y827D01*
X70527Y700D02*
X70654Y573D01*
X70527D02*
X70654D01*
X70400Y446D02*
X70527Y573D01*
X65173D02*
X65300Y446D01*
X65046Y573D02*
X65173D01*
X65046D02*
X65173Y700D01*
X65046Y827D02*
X65173Y700D01*
X65046Y827D02*
X65173D01*
X65300Y954D01*
X65427Y827D01*
X65554D01*
X65427Y700D02*
X65554Y827D01*
X65427Y700D02*
X65554Y573D01*
X65427D02*
X65554D01*
X65300Y446D02*
X65427Y573D01*
X59773D02*
X59900Y446D01*
X59646Y573D02*
X59773D01*
X59646D02*
X59773Y700D01*
X59646Y827D02*
X59773Y700D01*
X59646Y827D02*
X59773D01*
X59900Y954D01*
X60027Y827D01*
X60154D01*
X60027Y700D02*
X60154Y827D01*
X60027Y700D02*
X60154Y573D01*
X60027D02*
X60154D01*
X59900Y446D02*
X60027Y573D01*
X54373D02*
X54500Y446D01*
X54246Y573D02*
X54373D01*
X54246D02*
X54373Y700D01*
X54246Y827D02*
X54373Y700D01*
X54246Y827D02*
X54373D01*
X54500Y954D01*
X54627Y827D01*
X54754D01*
X54627Y700D02*
X54754Y827D01*
X54627Y700D02*
X54754Y573D01*
X54627D02*
X54754D01*
X54500Y446D02*
X54627Y573D01*
X48973D02*
X49100Y446D01*
X48846Y573D02*
X48973D01*
X48846D02*
X48973Y700D01*
X48846Y827D02*
X48973Y700D01*
X48846Y827D02*
X48973D01*
X49100Y954D01*
X49227Y827D01*
X49354D01*
X49227Y700D02*
X49354Y827D01*
X49227Y700D02*
X49354Y573D01*
X49227D02*
X49354D01*
X49100Y446D02*
X49227Y573D01*
X43573D02*
X43700Y446D01*
X43446Y573D02*
X43573D01*
X43446D02*
X43573Y700D01*
X43446Y827D02*
X43573Y700D01*
X43446Y827D02*
X43573D01*
X43700Y954D01*
X43827Y827D01*
X43954D01*
X43827Y700D02*
X43954Y827D01*
X43827Y700D02*
X43954Y573D01*
X43827D02*
X43954D01*
X43700Y446D02*
X43827Y573D01*
X38173D02*
X38300Y446D01*
X38046Y573D02*
X38173D01*
X38046D02*
X38173Y700D01*
X38046Y827D02*
X38173Y700D01*
X38046Y827D02*
X38173D01*
X38300Y954D01*
X38427Y827D01*
X38554D01*
X38427Y700D02*
X38554Y827D01*
X38427Y700D02*
X38554Y573D01*
X38427D02*
X38554D01*
X38300Y446D02*
X38427Y573D01*
X32773D02*
X32900Y446D01*
X32646Y573D02*
X32773D01*
X32646D02*
X32773Y700D01*
X32646Y827D02*
X32773Y700D01*
X32646Y827D02*
X32773D01*
X32900Y954D01*
X33027Y827D01*
X33154D01*
X33027Y700D02*
X33154Y827D01*
X33027Y700D02*
X33154Y573D01*
X33027D02*
X33154D01*
X32900Y446D02*
X33027Y573D01*
X27373D02*
X27500Y446D01*
X27246Y573D02*
X27373D01*
X27246D02*
X27373Y700D01*
X27246Y827D02*
X27373Y700D01*
X27246Y827D02*
X27373D01*
X27500Y954D01*
X27627Y827D01*
X27754D01*
X27627Y700D02*
X27754Y827D01*
X27627Y700D02*
X27754Y573D01*
X27627D02*
X27754D01*
X27500Y446D02*
X27627Y573D01*
X21973D02*
X22100Y446D01*
X21846Y573D02*
X21973D01*
X21846D02*
X21973Y700D01*
X21846Y827D02*
X21973Y700D01*
X21846Y827D02*
X21973D01*
X22100Y954D01*
X22227Y827D01*
X22354D01*
X22227Y700D02*
X22354Y827D01*
X22227Y700D02*
X22354Y573D01*
X22227D02*
X22354D01*
X22100Y446D02*
X22227Y573D01*
X16573D02*
X16700Y446D01*
X16446Y573D02*
X16573D01*
X16446D02*
X16573Y700D01*
X16446Y827D02*
X16573Y700D01*
X16446Y827D02*
X16573D01*
X16700Y954D01*
X16827Y827D01*
X16954D01*
X16827Y700D02*
X16954Y827D01*
X16827Y700D02*
X16954Y573D01*
X16827D02*
X16954D01*
X16700Y446D02*
X16827Y573D01*
X11173D02*
X11300Y446D01*
X11046Y573D02*
X11173D01*
X11046D02*
X11173Y700D01*
X11046Y827D02*
X11173Y700D01*
X11046Y827D02*
X11173D01*
X11300Y954D01*
X11427Y827D01*
X11554D01*
X11427Y700D02*
X11554Y827D01*
X11427Y700D02*
X11554Y573D01*
X11427D02*
X11554D01*
X11300Y446D02*
X11427Y573D01*
X5773D02*
X5900Y446D01*
X5646Y573D02*
X5773D01*
X5646D02*
X5773Y700D01*
X5646Y827D02*
X5773Y700D01*
X5646Y827D02*
X5773D01*
X5900Y954D01*
X6027Y827D01*
X6154D01*
X6027Y700D02*
X6154Y827D01*
X6027Y700D02*
X6154Y573D01*
X6027D02*
X6154D01*
X5900Y446D02*
X6027Y573D01*
X873D02*
X1000Y446D01*
X746Y573D02*
X873D01*
X746D02*
X873Y700D01*
X746Y827D02*
X873Y700D01*
X746Y827D02*
X873D01*
X1000Y954D01*
X1127Y827D01*
X1254D01*
X1127Y700D02*
X1254Y827D01*
X1127Y700D02*
X1254Y573D01*
X1127D02*
X1254D01*
X1000Y446D02*
X1127Y573D01*
X973Y2473D02*
X1100Y2346D01*
X846Y2473D02*
X973D01*
X846D02*
X973Y2600D01*
X846Y2727D02*
X973Y2600D01*
X846Y2727D02*
X973D01*
X1100Y2854D01*
X1227Y2727D01*
X1354D01*
X1227Y2600D02*
X1354Y2727D01*
X1227Y2600D02*
X1354Y2473D01*
X1227D02*
X1354D01*
X1100Y2346D02*
X1227Y2473D01*
X873Y10073D02*
X1000Y9946D01*
X746Y10073D02*
X873D01*
X746D02*
X873Y10200D01*
X746Y10327D02*
X873Y10200D01*
X746Y10327D02*
X873D01*
X1000Y10454D01*
X1127Y10327D01*
X1254D01*
X1127Y10200D02*
X1254Y10327D01*
X1127Y10200D02*
X1254Y10073D01*
X1127D02*
X1254D01*
X1000Y9946D02*
X1127Y10073D01*
X873Y7273D02*
X1000Y7146D01*
X746Y7273D02*
X873D01*
X746D02*
X873Y7400D01*
X746Y7527D02*
X873Y7400D01*
X746Y7527D02*
X873D01*
X1000Y7654D01*
X1127Y7527D01*
X1254D01*
X1127Y7400D02*
X1254Y7527D01*
X1127Y7400D02*
X1254Y7273D01*
X1127D02*
X1254D01*
X1000Y7146D02*
X1127Y7273D01*
X1173Y11173D02*
X1300Y11046D01*
X1046Y11173D02*
X1173D01*
X1046D02*
X1173Y11300D01*
X1046Y11427D02*
X1173Y11300D01*
X1046Y11427D02*
X1173D01*
X1300Y11554D01*
X1427Y11427D01*
X1554D01*
X1427Y11300D02*
X1554Y11427D01*
X1427Y11300D02*
X1554Y11173D01*
X1427D02*
X1554D01*
X1300Y11046D02*
X1427Y11173D01*
X3973D02*
X4100Y11046D01*
X3846Y11173D02*
X3973D01*
X3846D02*
X3973Y11300D01*
X3846Y11427D02*
X3973Y11300D01*
X3846Y11427D02*
X3973D01*
X4100Y11554D01*
X4227Y11427D01*
X4354D01*
X4227Y11300D02*
X4354Y11427D01*
X4227Y11300D02*
X4354Y11173D01*
X4227D02*
X4354D01*
X4100Y11046D02*
X4227Y11173D01*
X9373D02*
X9500Y11046D01*
X9246Y11173D02*
X9373D01*
X9246D02*
X9373Y11300D01*
X9246Y11427D02*
X9373Y11300D01*
X9246Y11427D02*
X9373D01*
X9500Y11554D01*
X9627Y11427D01*
X9754D01*
X9627Y11300D02*
X9754Y11427D01*
X9627Y11300D02*
X9754Y11173D01*
X9627D02*
X9754D01*
X9500Y11046D02*
X9627Y11173D01*
X14773D02*
X14900Y11046D01*
X14646Y11173D02*
X14773D01*
X14646D02*
X14773Y11300D01*
X14646Y11427D02*
X14773Y11300D01*
X14646Y11427D02*
X14773D01*
X14900Y11554D01*
X15027Y11427D01*
X15154D01*
X15027Y11300D02*
X15154Y11427D01*
X15027Y11300D02*
X15154Y11173D01*
X15027D02*
X15154D01*
X14900Y11046D02*
X15027Y11173D01*
X20185Y11298D02*
X20312Y11171D01*
X20058Y11298D02*
X20185D01*
X20058D02*
X20185Y11425D01*
X20058Y11552D02*
X20185Y11425D01*
X20058Y11552D02*
X20185D01*
X20312Y11679D01*
X20439Y11552D01*
X20566D01*
X20439Y11425D02*
X20566Y11552D01*
X20439Y11425D02*
X20566Y11298D01*
X20439D02*
X20566D01*
X20312Y11171D02*
X20439Y11298D01*
X22794Y11318D02*
X22921Y11191D01*
X22667Y11318D02*
X22794D01*
X22667D02*
X22794Y11445D01*
X22667Y11572D02*
X22794Y11445D01*
X22667Y11572D02*
X22794D01*
X22921Y11699D01*
X23048Y11572D01*
X23175D01*
X23048Y11445D02*
X23175Y11572D01*
X23048Y11445D02*
X23175Y11318D01*
X23048D02*
X23175D01*
X22921Y11191D02*
X23048Y11318D01*
X23773Y12373D02*
X23900Y12246D01*
X23646Y12373D02*
X23773D01*
X23646D02*
X23773Y12500D01*
X23646Y12627D02*
X23773Y12500D01*
X23646Y12627D02*
X23773D01*
X23900Y12754D01*
X24027Y12627D01*
X24154D01*
X24027Y12500D02*
X24154Y12627D01*
X24027Y12500D02*
X24154Y12373D01*
X24027D02*
X24154D01*
X23900Y12246D02*
X24027Y12373D01*
X24673Y18773D02*
X24800Y18646D01*
X24546Y18773D02*
X24673D01*
X24546D02*
X24673Y18900D01*
X24546Y19027D02*
X24673Y18900D01*
X24546Y19027D02*
X24673D01*
X24800Y19154D01*
X24927Y19027D01*
X25054D01*
X24927Y18900D02*
X25054Y19027D01*
X24927Y18900D02*
X25054Y18773D01*
X24927D02*
X25054D01*
X24800Y18646D02*
X24927Y18773D01*
X26657Y20748D02*
X26784Y20621D01*
X26530Y20748D02*
X26657D01*
X26530D02*
X26657Y20875D01*
X26530Y21002D02*
X26657Y20875D01*
X26530Y21002D02*
X26657D01*
X26784Y21129D01*
X26911Y21002D01*
X27038D01*
X26911Y20875D02*
X27038Y21002D01*
X26911Y20875D02*
X27038Y20748D01*
X26911D02*
X27038D01*
X26784Y20621D02*
X26911Y20748D01*
X28673Y22073D02*
X28800Y21946D01*
X28546Y22073D02*
X28673D01*
X28546D02*
X28673Y22200D01*
X28546Y22327D02*
X28673Y22200D01*
X28546Y22327D02*
X28673D01*
X28800Y22454D01*
X28927Y22327D01*
X29054D01*
X28927Y22200D02*
X29054Y22327D01*
X28927Y22200D02*
X29054Y22073D01*
X28927D02*
X29054D01*
X28800Y21946D02*
X28927Y22073D01*
X31673Y22373D02*
X31800Y22246D01*
X31546Y22373D02*
X31673D01*
X31546D02*
X31673Y22500D01*
X31546Y22627D02*
X31673Y22500D01*
X31546Y22627D02*
X31673D01*
X31800Y22754D01*
X31927Y22627D01*
X32054D01*
X31927Y22500D02*
X32054Y22627D01*
X31927Y22500D02*
X32054Y22373D01*
X31927D02*
X32054D01*
X31800Y22246D02*
X31927Y22373D01*
X39373Y29873D02*
X39500Y29746D01*
X39246Y29873D02*
X39373D01*
X39246D02*
X39373Y30000D01*
X39246Y30127D02*
X39373Y30000D01*
X39246Y30127D02*
X39373D01*
X39500Y30254D01*
X39627Y30127D01*
X39754D01*
X39627Y30000D02*
X39754Y30127D01*
X39627Y30000D02*
X39754Y29873D01*
X39627D02*
X39754D01*
X39500Y29746D02*
X39627Y29873D01*
X41873D02*
X42000Y29746D01*
X41746Y29873D02*
X41873D01*
X41746D02*
X41873Y30000D01*
X41746Y30127D02*
X41873Y30000D01*
X41746Y30127D02*
X41873D01*
X42000Y30254D01*
X42127Y30127D01*
X42254D01*
X42127Y30000D02*
X42254Y30127D01*
X42127Y30000D02*
X42254Y29873D01*
X42127D02*
X42254D01*
X42000Y29746D02*
X42127Y29873D01*
X44373D02*
X44500Y29746D01*
X44246Y29873D02*
X44373D01*
X44246D02*
X44373Y30000D01*
X44246Y30127D02*
X44373Y30000D01*
X44246Y30127D02*
X44373D01*
X44500Y30254D01*
X44627Y30127D01*
X44754D01*
X44627Y30000D02*
X44754Y30127D01*
X44627Y30000D02*
X44754Y29873D01*
X44627D02*
X44754D01*
X44500Y29746D02*
X44627Y29873D01*
X46873D02*
X47000Y29746D01*
X46746Y29873D02*
X46873D01*
X46746D02*
X46873Y30000D01*
X46746Y30127D02*
X46873Y30000D01*
X46746Y30127D02*
X46873D01*
X47000Y30254D01*
X47127Y30127D01*
X47254D01*
X47127Y30000D02*
X47254Y30127D01*
X47127Y30000D02*
X47254Y29873D01*
X47127D02*
X47254D01*
X47000Y29746D02*
X47127Y29873D01*
X49373D02*
X49500Y29746D01*
X49246Y29873D02*
X49373D01*
X49246D02*
X49373Y30000D01*
X49246Y30127D02*
X49373Y30000D01*
X49246Y30127D02*
X49373D01*
X49500Y30254D01*
X49627Y30127D01*
X49754D01*
X49627Y30000D02*
X49754Y30127D01*
X49627Y30000D02*
X49754Y29873D01*
X49627D02*
X49754D01*
X49500Y29746D02*
X49627Y29873D01*
X49773Y26973D02*
X49900Y26846D01*
X49646Y26973D02*
X49773D01*
X49646D02*
X49773Y27100D01*
X49646Y27227D02*
X49773Y27100D01*
X49646Y27227D02*
X49773D01*
X49900Y27354D01*
X50027Y27227D01*
X50154D01*
X50027Y27100D02*
X50154Y27227D01*
X50027Y27100D02*
X50154Y26973D01*
X50027D02*
X50154D01*
X49900Y26846D02*
X50027Y26973D01*
X44373Y20873D02*
X44500Y20746D01*
X44246Y20873D02*
X44373D01*
X44246D02*
X44373Y21000D01*
X44246Y21127D02*
X44373Y21000D01*
X44246Y21127D02*
X44373D01*
X44500Y21254D01*
X44627Y21127D01*
X44754D01*
X44627Y21000D02*
X44754Y21127D01*
X44627Y21000D02*
X44754Y20873D01*
X44627D02*
X44754D01*
X44500Y20746D02*
X44627Y20873D01*
X44373Y18273D02*
X44500Y18146D01*
X44246Y18273D02*
X44373D01*
X44246D02*
X44373Y18400D01*
X44246Y18527D02*
X44373Y18400D01*
X44246Y18527D02*
X44373D01*
X44500Y18654D01*
X44627Y18527D01*
X44754D01*
X44627Y18400D02*
X44754Y18527D01*
X44627Y18400D02*
X44754Y18273D01*
X44627D02*
X44754D01*
X44500Y18146D02*
X44627Y18273D01*
X42073Y20573D02*
X42200Y20446D01*
X41946Y20573D02*
X42073D01*
X41946D02*
X42073Y20700D01*
X41946Y20827D02*
X42073Y20700D01*
X41946Y20827D02*
X42073D01*
X42200Y20954D01*
X42327Y20827D01*
X42454D01*
X42327Y20700D02*
X42454Y20827D01*
X42327Y20700D02*
X42454Y20573D01*
X42327D02*
X42454D01*
X42200Y20446D02*
X42327Y20573D01*
X40973Y22073D02*
X41100Y21946D01*
X40846Y22073D02*
X40973D01*
X40846D02*
X40973Y22200D01*
X40846Y22327D02*
X40973Y22200D01*
X40846Y22327D02*
X40973D01*
X41100Y22454D01*
X41227Y22327D01*
X41354D01*
X41227Y22200D02*
X41354Y22327D01*
X41227Y22200D02*
X41354Y22073D01*
X41227D02*
X41354D01*
X41100Y21946D02*
X41227Y22073D01*
X34173Y22373D02*
X34300Y22246D01*
X34046Y22373D02*
X34173D01*
X34046D02*
X34173Y22500D01*
X34046Y22627D02*
X34173Y22500D01*
X34046Y22627D02*
X34173D01*
X34300Y22754D01*
X34427Y22627D01*
X34554D01*
X34427Y22500D02*
X34554Y22627D01*
X34427Y22500D02*
X34554Y22373D01*
X34427D02*
X34554D01*
X34300Y22246D02*
X34427Y22373D01*
X35702Y15312D02*
X35829Y15185D01*
X35575Y15312D02*
X35702D01*
X35575D02*
X35702Y15439D01*
X35575Y15566D02*
X35702Y15439D01*
X35575Y15566D02*
X35702D01*
X35829Y15693D01*
X35956Y15566D01*
X36083D01*
X35956Y15439D02*
X36083Y15566D01*
X35956Y15439D02*
X36083Y15312D01*
X35956D02*
X36083D01*
X35829Y15185D02*
X35956Y15312D01*
X37173Y11173D02*
X37300Y11046D01*
X37046Y11173D02*
X37173D01*
X37046D02*
X37173Y11300D01*
X37046Y11427D02*
X37173Y11300D01*
X37046Y11427D02*
X37173D01*
X37300Y11554D01*
X37427Y11427D01*
X37554D01*
X37427Y11300D02*
X37554Y11427D01*
X37427Y11300D02*
X37554Y11173D01*
X37427D02*
X37554D01*
X37300Y11046D02*
X37427Y11173D01*
X37040Y8581D02*
X37167Y8454D01*
X36913Y8581D02*
X37040D01*
X36913D02*
X37040Y8708D01*
X36913Y8835D02*
X37040Y8708D01*
X36913Y8835D02*
X37040D01*
X37167Y8962D01*
X37294Y8835D01*
X37421D01*
X37294Y8708D02*
X37421Y8835D01*
X37294Y8708D02*
X37421Y8581D01*
X37294D02*
X37421D01*
X37167Y8454D02*
X37294Y8581D01*
X40873Y13473D02*
X41000Y13346D01*
X40746Y13473D02*
X40873D01*
X40746D02*
X40873Y13600D01*
X40746Y13727D02*
X40873Y13600D01*
X40746Y13727D02*
X40873D01*
X41000Y13854D01*
X41127Y13727D01*
X41254D01*
X41127Y13600D02*
X41254Y13727D01*
X41127Y13600D02*
X41254Y13473D01*
X41127D02*
X41254D01*
X41000Y13346D02*
X41127Y13473D01*
X42273Y11973D02*
X42400Y11846D01*
X42146Y11973D02*
X42273D01*
X42146D02*
X42273Y12100D01*
X42146Y12227D02*
X42273Y12100D01*
X42146Y12227D02*
X42273D01*
X42400Y12354D01*
X42527Y12227D01*
X42654D01*
X42527Y12100D02*
X42654Y12227D01*
X42527Y12100D02*
X42654Y11973D01*
X42527D02*
X42654D01*
X42400Y11846D02*
X42527Y11973D01*
X45273Y10373D02*
X45400Y10246D01*
X45146Y10373D02*
X45273D01*
X45146D02*
X45273Y10500D01*
X45146Y10627D02*
X45273Y10500D01*
X45146Y10627D02*
X45273D01*
X45400Y10754D01*
X45527Y10627D01*
X45654D01*
X45527Y10500D02*
X45654Y10627D01*
X45527Y10500D02*
X45654Y10373D01*
X45527D02*
X45654D01*
X45400Y10246D02*
X45527Y10373D01*
X45673Y14373D02*
X45800Y14246D01*
X45546Y14373D02*
X45673D01*
X45546D02*
X45673Y14500D01*
X45546Y14627D02*
X45673Y14500D01*
X45546Y14627D02*
X45673D01*
X45800Y14754D01*
X45927Y14627D01*
X46054D01*
X45927Y14500D02*
X46054Y14627D01*
X45927Y14500D02*
X46054Y14373D01*
X45927D02*
X46054D01*
X45800Y14246D02*
X45927Y14373D01*
X46473Y16973D02*
X46600Y16846D01*
X46346Y16973D02*
X46473D01*
X46346D02*
X46473Y17100D01*
X46346Y17227D02*
X46473Y17100D01*
X46346Y17227D02*
X46473D01*
X46600Y17354D01*
X46727Y17227D01*
X46854D01*
X46727Y17100D02*
X46854Y17227D01*
X46727Y17100D02*
X46854Y16973D01*
X46727D02*
X46854D01*
X46600Y16846D02*
X46727Y16973D01*
X51073Y18073D02*
X51200Y17946D01*
X50946Y18073D02*
X51073D01*
X50946D02*
X51073Y18200D01*
X50946Y18327D02*
X51073Y18200D01*
X50946Y18327D02*
X51073D01*
X51200Y18454D01*
X51327Y18327D01*
X51454D01*
X51327Y18200D02*
X51454Y18327D01*
X51327Y18200D02*
X51454Y18073D01*
X51327D02*
X51454D01*
X51200Y17946D02*
X51327Y18073D01*
X64873Y11873D02*
X65000Y11746D01*
X64746Y11873D02*
X64873D01*
X64746D02*
X64873Y12000D01*
X64746Y12127D02*
X64873Y12000D01*
X64746Y12127D02*
X64873D01*
X65000Y12254D01*
X65127Y12127D01*
X65254D01*
X65127Y12000D02*
X65254Y12127D01*
X65127Y12000D02*
X65254Y11873D01*
X65127D02*
X65254D01*
X65000Y11746D02*
X65127Y11873D01*
X64873Y15773D02*
X65000Y15646D01*
X64746Y15773D02*
X64873D01*
X64746D02*
X64873Y15900D01*
X64746Y16027D02*
X64873Y15900D01*
X64746Y16027D02*
X64873D01*
X65000Y16154D01*
X65127Y16027D01*
X65254D01*
X65127Y15900D02*
X65254Y16027D01*
X65127Y15900D02*
X65254Y15773D01*
X65127D02*
X65254D01*
X65000Y15646D02*
X65127Y15773D01*
X63373Y19373D02*
X63500Y19246D01*
X63246Y19373D02*
X63373D01*
X63246D02*
X63373Y19500D01*
X63246Y19627D02*
X63373Y19500D01*
X63246Y19627D02*
X63373D01*
X63500Y19754D01*
X63627Y19627D01*
X63754D01*
X63627Y19500D02*
X63754Y19627D01*
X63627Y19500D02*
X63754Y19373D01*
X63627D02*
X63754D01*
X63500Y19246D02*
X63627Y19373D01*
X60373Y21773D02*
X60500Y21646D01*
X60246Y21773D02*
X60373D01*
X60246D02*
X60373Y21900D01*
X60246Y22027D02*
X60373Y21900D01*
X60246Y22027D02*
X60373D01*
X60500Y22154D01*
X60627Y22027D01*
X60754D01*
X60627Y21900D02*
X60754Y22027D01*
X60627Y21900D02*
X60754Y21773D01*
X60627D02*
X60754D01*
X60500Y21646D02*
X60627Y21773D01*
X51873Y22373D02*
X52000Y22246D01*
X51746Y22373D02*
X51873D01*
X51746D02*
X51873Y22500D01*
X51746Y22627D02*
X51873Y22500D01*
X51746Y22627D02*
X51873D01*
X52000Y22754D01*
X52127Y22627D01*
X52254D01*
X52127Y22500D02*
X52254Y22627D01*
X52127Y22500D02*
X52254Y22373D01*
X52127D02*
X52254D01*
X52000Y22246D02*
X52127Y22373D01*
X54873D02*
X55000Y22246D01*
X54746Y22373D02*
X54873D01*
X54746D02*
X54873Y22500D01*
X54746Y22627D02*
X54873Y22500D01*
X54746Y22627D02*
X54873D01*
X55000Y22754D01*
X55127Y22627D01*
X55254D01*
X55127Y22500D02*
X55254Y22627D01*
X55127Y22500D02*
X55254Y22373D01*
X55127D02*
X55254D01*
X55000Y22246D02*
X55127Y22373D01*
X57873D02*
X58000Y22246D01*
X57746Y22373D02*
X57873D01*
X57746D02*
X57873Y22500D01*
X57746Y22627D02*
X57873Y22500D01*
X57746Y22627D02*
X57873D01*
X58000Y22754D01*
X58127Y22627D01*
X58254D01*
X58127Y22500D02*
X58254Y22627D01*
X58127Y22500D02*
X58254Y22373D01*
X58127D02*
X58254D01*
X58000Y22246D02*
X58127Y22373D01*
X38973Y24373D02*
X39100Y24246D01*
X38846Y24373D02*
X38973D01*
X38846D02*
X38973Y24500D01*
X38846Y24627D02*
X38973Y24500D01*
X38846Y24627D02*
X38973D01*
X39100Y24754D01*
X39227Y24627D01*
X39354D01*
X39227Y24500D02*
X39354Y24627D01*
X39227Y24500D02*
X39354Y24373D01*
X39227D02*
X39354D01*
X39100Y24246D02*
X39227Y24373D01*
X38973Y28673D02*
X39100Y28546D01*
X38846Y28673D02*
X38973D01*
X38846D02*
X38973Y28800D01*
X38846Y28927D02*
X38973Y28800D01*
X38846Y28927D02*
X38973D01*
X39100Y29054D01*
X39227Y28927D01*
X39354D01*
X39227Y28800D02*
X39354Y28927D01*
X39227Y28800D02*
X39354Y28673D01*
X39227D02*
X39354D01*
X39100Y28546D02*
X39227Y28673D01*
X38973Y26573D02*
X39100Y26446D01*
X38846Y26573D02*
X38973D01*
X38846D02*
X38973Y26700D01*
X38846Y26827D02*
X38973Y26700D01*
X38846Y26827D02*
X38973D01*
X39100Y26954D01*
X39227Y26827D01*
X39354D01*
X39227Y26700D02*
X39354Y26827D01*
X39227Y26700D02*
X39354Y26573D01*
X39227D02*
X39354D01*
X39100Y26446D02*
X39227Y26573D01*
X3373Y8873D02*
X3500Y8746D01*
X3246Y8873D02*
X3373D01*
X3246D02*
X3373Y9000D01*
X3246Y9127D02*
X3373Y9000D01*
X3246Y9127D02*
X3373D01*
X3500Y9254D01*
X3627Y9127D01*
X3754D01*
X3627Y9000D02*
X3754Y9127D01*
X3627Y9000D02*
X3754Y8873D01*
X3627D02*
X3754D01*
X3500Y8746D02*
X3627Y8873D01*
X6073Y7573D02*
X6200Y7446D01*
X5946Y7573D02*
X6073D01*
X5946D02*
X6073Y7700D01*
X5946Y7827D02*
X6073Y7700D01*
X5946Y7827D02*
X6073D01*
X6200Y7954D01*
X6327Y7827D01*
X6454D01*
X6327Y7700D02*
X6454Y7827D01*
X6327Y7700D02*
X6454Y7573D01*
X6327D02*
X6454D01*
X6200Y7446D02*
X6327Y7573D01*
X12373Y8773D02*
X12500Y8646D01*
X12246Y8773D02*
X12373D01*
X12246D02*
X12373Y8900D01*
X12246Y9027D02*
X12373Y8900D01*
X12246Y9027D02*
X12373D01*
X12500Y9154D01*
X12627Y9027D01*
X12754D01*
X12627Y8900D02*
X12754Y9027D01*
X12627Y8900D02*
X12754Y8773D01*
X12627D02*
X12754D01*
X12500Y8646D02*
X12627Y8773D01*
X14873Y2473D02*
X15000Y2346D01*
X14746Y2473D02*
X14873D01*
X14746D02*
X14873Y2600D01*
X14746Y2727D02*
X14873Y2600D01*
X14746Y2727D02*
X14873D01*
X15000Y2854D01*
X15127Y2727D01*
X15254D01*
X15127Y2600D02*
X15254Y2727D01*
X15127Y2600D02*
X15254Y2473D01*
X15127D02*
X15254D01*
X15000Y2346D02*
X15127Y2473D01*
X18373D02*
X18500Y2346D01*
X18246Y2473D02*
X18373D01*
X18246D02*
X18373Y2600D01*
X18246Y2727D02*
X18373Y2600D01*
X18246Y2727D02*
X18373D01*
X18500Y2854D01*
X18627Y2727D01*
X18754D01*
X18627Y2600D02*
X18754Y2727D01*
X18627Y2600D02*
X18754Y2473D01*
X18627D02*
X18754D01*
X18500Y2346D02*
X18627Y2473D01*
X18373Y7473D02*
X18500Y7346D01*
X18246Y7473D02*
X18373D01*
X18246D02*
X18373Y7600D01*
X18246Y7727D02*
X18373Y7600D01*
X18246Y7727D02*
X18373D01*
X18500Y7854D01*
X18627Y7727D01*
X18754D01*
X18627Y7600D02*
X18754Y7727D01*
X18627Y7600D02*
X18754Y7473D01*
X18627D02*
X18754D01*
X18500Y7346D02*
X18627Y7473D01*
X15273Y7873D02*
X15400Y7746D01*
X15146Y7873D02*
X15273D01*
X15146D02*
X15273Y8000D01*
X15146Y8127D02*
X15273Y8000D01*
X15146Y8127D02*
X15273D01*
X15400Y8254D01*
X15527Y8127D01*
X15654D01*
X15527Y8000D02*
X15654Y8127D01*
X15527Y8000D02*
X15654Y7873D01*
X15527D02*
X15654D01*
X15400Y7746D02*
X15527Y7873D01*
X30773Y7273D02*
X30900Y7146D01*
X30646Y7273D02*
X30773D01*
X30646D02*
X30773Y7400D01*
X30646Y7527D02*
X30773Y7400D01*
X30646Y7527D02*
X30773D01*
X30900Y7654D01*
X31027Y7527D01*
X31154D01*
X31027Y7400D02*
X31154Y7527D01*
X31027Y7400D02*
X31154Y7273D01*
X31027D02*
X31154D01*
X30900Y7146D02*
X31027Y7273D01*
X27873Y7973D02*
X28000Y7846D01*
X27746Y7973D02*
X27873D01*
X27746D02*
X27873Y8100D01*
X27746Y8227D02*
X27873Y8100D01*
X27746Y8227D02*
X27873D01*
X28000Y8354D01*
X28127Y8227D01*
X28254D01*
X28127Y8100D02*
X28254Y8227D01*
X28127Y8100D02*
X28254Y7973D01*
X28127D02*
X28254D01*
X28000Y7846D02*
X28127Y7973D01*
X24973Y8873D02*
X25100Y8746D01*
X24846Y8873D02*
X24973D01*
X24846D02*
X24973Y9000D01*
X24846Y9127D02*
X24973Y9000D01*
X24846Y9127D02*
X24973D01*
X25100Y9254D01*
X25227Y9127D01*
X25354D01*
X25227Y9000D02*
X25354Y9127D01*
X25227Y9000D02*
X25354Y8873D01*
X25227D02*
X25354D01*
X25100Y8746D02*
X25227Y8873D01*
X27873Y2473D02*
X28000Y2346D01*
X27746Y2473D02*
X27873D01*
X27746D02*
X27873Y2600D01*
X27746Y2727D02*
X27873Y2600D01*
X27746Y2727D02*
X27873D01*
X28000Y2854D01*
X28127Y2727D01*
X28254D01*
X28127Y2600D02*
X28254Y2727D01*
X28127Y2600D02*
X28254Y2473D01*
X28127D02*
X28254D01*
X28000Y2346D02*
X28127Y2473D01*
X32573D02*
X32700Y2346D01*
X32446Y2473D02*
X32573D01*
X32446D02*
X32573Y2600D01*
X32446Y2727D02*
X32573Y2600D01*
X32446Y2727D02*
X32573D01*
X32700Y2854D01*
X32827Y2727D01*
X32954D01*
X32827Y2600D02*
X32954Y2727D01*
X32827Y2600D02*
X32954Y2473D01*
X32827D02*
X32954D01*
X32700Y2346D02*
X32827Y2473D01*
X33773Y7773D02*
X33900Y7646D01*
X33646Y7773D02*
X33773D01*
X33646D02*
X33773Y7900D01*
X33646Y8027D02*
X33773Y7900D01*
X33646Y8027D02*
X33773D01*
X33900Y8154D01*
X34027Y8027D01*
X34154D01*
X34027Y7900D02*
X34154Y8027D01*
X34027Y7900D02*
X34154Y7773D01*
X34027D02*
X34154D01*
X33900Y7646D02*
X34027Y7773D01*
X40873Y2373D02*
X41000Y2246D01*
X40746Y2373D02*
X40873D01*
X40746D02*
X40873Y2500D01*
X40746Y2627D02*
X40873Y2500D01*
X40746Y2627D02*
X40873D01*
X41000Y2754D01*
X41127Y2627D01*
X41254D01*
X41127Y2500D02*
X41254Y2627D01*
X41127Y2500D02*
X41254Y2373D01*
X41127D02*
X41254D01*
X41000Y2246D02*
X41127Y2373D01*
X45273D02*
X45400Y2246D01*
X45146Y2373D02*
X45273D01*
X45146D02*
X45273Y2500D01*
X45146Y2627D02*
X45273Y2500D01*
X45146Y2627D02*
X45273D01*
X45400Y2754D01*
X45527Y2627D01*
X45654D01*
X45527Y2500D02*
X45654Y2627D01*
X45527Y2500D02*
X45654Y2373D01*
X45527D02*
X45654D01*
X45400Y2246D02*
X45527Y2373D01*
X43373D02*
X43500Y2246D01*
X43246Y2373D02*
X43373D01*
X43246D02*
X43373Y2500D01*
X43246Y2627D02*
X43373Y2500D01*
X43246Y2627D02*
X43373D01*
X43500Y2754D01*
X43627Y2627D01*
X43754D01*
X43627Y2500D02*
X43754Y2627D01*
X43627Y2500D02*
X43754Y2373D01*
X43627D02*
X43754D01*
X43500Y2246D02*
X43627Y2373D01*
X43173Y7073D02*
X43300Y6946D01*
X43046Y7073D02*
X43173D01*
X43046D02*
X43173Y7200D01*
X43046Y7327D02*
X43173Y7200D01*
X43046Y7327D02*
X43173D01*
X43300Y7454D01*
X43427Y7327D01*
X43554D01*
X43427Y7200D02*
X43554Y7327D01*
X43427Y7200D02*
X43554Y7073D01*
X43427D02*
X43554D01*
X43300Y6946D02*
X43427Y7073D01*
X39773Y7173D02*
X39900Y7046D01*
X39646Y7173D02*
X39773D01*
X39646D02*
X39773Y7300D01*
X39646Y7427D02*
X39773Y7300D01*
X39646Y7427D02*
X39773D01*
X39900Y7554D01*
X40027Y7427D01*
X40154D01*
X40027Y7300D02*
X40154Y7427D01*
X40027Y7300D02*
X40154Y7173D01*
X40027D02*
X40154D01*
X39900Y7046D02*
X40027Y7173D01*
X52673Y7973D02*
X52800Y7846D01*
X52546Y7973D02*
X52673D01*
X52546D02*
X52673Y8100D01*
X52546Y8227D02*
X52673Y8100D01*
X52546Y8227D02*
X52673D01*
X52800Y8354D01*
X52927Y8227D01*
X53054D01*
X52927Y8100D02*
X53054Y8227D01*
X52927Y8100D02*
X53054Y7973D01*
X52927D02*
X53054D01*
X52800Y7846D02*
X52927Y7973D01*
X50173Y4673D02*
X50300Y4546D01*
X50046Y4673D02*
X50173D01*
X50046D02*
X50173Y4800D01*
X50046Y4927D02*
X50173Y4800D01*
X50046Y4927D02*
X50173D01*
X50300Y5054D01*
X50427Y4927D01*
X50554D01*
X50427Y4800D02*
X50554Y4927D01*
X50427Y4800D02*
X50554Y4673D01*
X50427D02*
X50554D01*
X50300Y4546D02*
X50427Y4673D01*
X48973Y8273D02*
X49100Y8146D01*
X48846Y8273D02*
X48973D01*
X48846D02*
X48973Y8400D01*
X48846Y8527D02*
X48973Y8400D01*
X48846Y8527D02*
X48973D01*
X49100Y8654D01*
X49227Y8527D01*
X49354D01*
X49227Y8400D02*
X49354Y8527D01*
X49227Y8400D02*
X49354Y8273D01*
X49227D02*
X49354D01*
X49100Y8146D02*
X49227Y8273D01*
X46273Y7473D02*
X46400Y7346D01*
X46146Y7473D02*
X46273D01*
X46146D02*
X46273Y7600D01*
X46146Y7727D02*
X46273Y7600D01*
X46146Y7727D02*
X46273D01*
X46400Y7854D01*
X46527Y7727D01*
X46654D01*
X46527Y7600D02*
X46654Y7727D01*
X46527Y7600D02*
X46654Y7473D01*
X46527D02*
X46654D01*
X46400Y7346D02*
X46527Y7473D01*
X49973Y10873D02*
X50100Y10746D01*
X49846Y10873D02*
X49973D01*
X49846D02*
X49973Y11000D01*
X49846Y11127D02*
X49973Y11000D01*
X49846Y11127D02*
X49973D01*
X50100Y11254D01*
X50227Y11127D01*
X50354D01*
X50227Y11000D02*
X50354Y11127D01*
X50227Y11000D02*
X50354Y10873D01*
X50227D02*
X50354D01*
X50100Y10746D02*
X50227Y10873D01*
X46973Y12073D02*
X47100Y11946D01*
X46846Y12073D02*
X46973D01*
X46846D02*
X46973Y12200D01*
X46846Y12327D02*
X46973Y12200D01*
X46846Y12327D02*
X46973D01*
X47100Y12454D01*
X47227Y12327D01*
X47354D01*
X47227Y12200D02*
X47354Y12327D01*
X47227Y12200D02*
X47354Y12073D01*
X47227D02*
X47354D01*
X47100Y11946D02*
X47227Y12073D01*
X46873Y18373D02*
X47000Y18246D01*
X46746Y18373D02*
X46873D01*
X46746D02*
X46873Y18500D01*
X46746Y18627D02*
X46873Y18500D01*
X46746Y18627D02*
X46873D01*
X47000Y18754D01*
X47127Y18627D01*
X47254D01*
X47127Y18500D02*
X47254Y18627D01*
X47127Y18500D02*
X47254Y18373D01*
X47127D02*
X47254D01*
X47000Y18246D02*
X47127Y18373D01*
X52473Y10773D02*
X52600Y10646D01*
X52346Y10773D02*
X52473D01*
X52346D02*
X52473Y10900D01*
X52346Y11027D02*
X52473Y10900D01*
X52346Y11027D02*
X52473D01*
X52600Y11154D01*
X52727Y11027D01*
X52854D01*
X52727Y10900D02*
X52854Y11027D01*
X52727Y10900D02*
X52854Y10773D01*
X52727D02*
X52854D01*
X52600Y10646D02*
X52727Y10773D01*
X55346Y7210D02*
X55473Y7083D01*
X55219Y7210D02*
X55346D01*
X55219D02*
X55346Y7337D01*
X55219Y7464D02*
X55346Y7337D01*
X55219Y7464D02*
X55346D01*
X55473Y7591D01*
X55600Y7464D01*
X55727D01*
X55600Y7337D02*
X55727Y7464D01*
X55600Y7337D02*
X55727Y7210D01*
X55600D02*
X55727D01*
X55473Y7083D02*
X55600Y7210D01*
X61573Y7873D02*
X61700Y7746D01*
X61446Y7873D02*
X61573D01*
X61446D02*
X61573Y8000D01*
X61446Y8127D02*
X61573Y8000D01*
X61446Y8127D02*
X61573D01*
X61700Y8254D01*
X61827Y8127D01*
X61954D01*
X61827Y8000D02*
X61954Y8127D01*
X61827Y8000D02*
X61954Y7873D01*
X61827D02*
X61954D01*
X61700Y7746D02*
X61827Y7873D01*
X58673Y6973D02*
X58800Y6846D01*
X58546Y6973D02*
X58673D01*
X58546D02*
X58673Y7100D01*
X58546Y7227D02*
X58673Y7100D01*
X58546Y7227D02*
X58673D01*
X58800Y7354D01*
X58927Y7227D01*
X59054D01*
X58927Y7100D02*
X59054Y7227D01*
X58927Y7100D02*
X59054Y6973D01*
X58927D02*
X59054D01*
X58800Y6846D02*
X58927Y6973D01*
X58573Y2773D02*
X58700Y2646D01*
X58446Y2773D02*
X58573D01*
X58446D02*
X58573Y2900D01*
X58446Y3027D02*
X58573Y2900D01*
X58446Y3027D02*
X58573D01*
X58700Y3154D01*
X58827Y3027D01*
X58954D01*
X58827Y2900D02*
X58954Y3027D01*
X58827Y2900D02*
X58954Y2773D01*
X58827D02*
X58954D01*
X58700Y2646D02*
X58827Y2773D01*
X64073Y2473D02*
X64200Y2346D01*
X63946Y2473D02*
X64073D01*
X63946D02*
X64073Y2600D01*
X63946Y2727D02*
X64073Y2600D01*
X63946Y2727D02*
X64073D01*
X64200Y2854D01*
X64327Y2727D01*
X64454D01*
X64327Y2600D02*
X64454Y2727D01*
X64327Y2600D02*
X64454Y2473D01*
X64327D02*
X64454D01*
X64200Y2346D02*
X64327Y2473D01*
X62573Y4173D02*
X62700Y4046D01*
X62446Y4173D02*
X62573D01*
X62446D02*
X62573Y4300D01*
X62446Y4427D02*
X62573Y4300D01*
X62446Y4427D02*
X62573D01*
X62700Y4554D01*
X62827Y4427D01*
X62954D01*
X62827Y4300D02*
X62954Y4427D01*
X62827Y4300D02*
X62954Y4173D01*
X62827D02*
X62954D01*
X62700Y4046D02*
X62827Y4173D01*
X65073Y8173D02*
X65200Y8046D01*
X64946Y8173D02*
X65073D01*
X64946D02*
X65073Y8300D01*
X64946Y8427D02*
X65073Y8300D01*
X64946Y8427D02*
X65073D01*
X65200Y8554D01*
X65327Y8427D01*
X65454D01*
X65327Y8300D02*
X65454Y8427D01*
X65327Y8300D02*
X65454Y8173D01*
X65327D02*
X65454D01*
X65200Y8046D02*
X65327Y8173D01*
X68073Y7473D02*
X68200Y7346D01*
X67946Y7473D02*
X68073D01*
X67946D02*
X68073Y7600D01*
X67946Y7727D02*
X68073Y7600D01*
X67946Y7727D02*
X68073D01*
X68200Y7854D01*
X68327Y7727D01*
X68454D01*
X68327Y7600D02*
X68454Y7727D01*
X68327Y7600D02*
X68454Y7473D01*
X68327D02*
X68454D01*
X68200Y7346D02*
X68327Y7473D01*
X69873Y2373D02*
X70000Y2246D01*
X69746Y2373D02*
X69873D01*
X69746D02*
X69873Y2500D01*
X69746Y2627D02*
X69873Y2500D01*
X69746Y2627D02*
X69873D01*
X70000Y2754D01*
X70127Y2627D01*
X70254D01*
X70127Y2500D02*
X70254Y2627D01*
X70127Y2500D02*
X70254Y2373D01*
X70127D02*
X70254D01*
X70000Y2246D02*
X70127Y2373D01*
X71173Y3273D02*
X71300Y3146D01*
X71046Y3273D02*
X71173D01*
X71046D02*
X71173Y3400D01*
X71046Y3527D02*
X71173Y3400D01*
X71046Y3527D02*
X71173D01*
X71300Y3654D01*
X71427Y3527D01*
X71554D01*
X71427Y3400D02*
X71554Y3527D01*
X71427Y3400D02*
X71554Y3273D01*
X71427D02*
X71554D01*
X71300Y3146D02*
X71427Y3273D01*
X70973Y7173D02*
X71100Y7046D01*
X70846Y7173D02*
X70973D01*
X70846D02*
X70973Y7300D01*
X70846Y7427D02*
X70973Y7300D01*
X70846Y7427D02*
X70973D01*
X71100Y7554D01*
X71227Y7427D01*
X71354D01*
X71227Y7300D02*
X71354Y7427D01*
X71227Y7300D02*
X71354Y7173D01*
X71227D02*
X71354D01*
X71100Y7046D02*
X71227Y7173D01*
X74073Y8273D02*
X74200Y8146D01*
X73946Y8273D02*
X74073D01*
X73946D02*
X74073Y8400D01*
X73946Y8527D02*
X74073Y8400D01*
X73946Y8527D02*
X74073D01*
X74200Y8654D01*
X74327Y8527D01*
X74454D01*
X74327Y8400D02*
X74454Y8527D01*
X74327Y8400D02*
X74454Y8273D01*
X74327D02*
X74454D01*
X74200Y8146D02*
X74327Y8273D01*
X77373Y8073D02*
X77500Y7946D01*
X77246Y8073D02*
X77373D01*
X77246D02*
X77373Y8200D01*
X77246Y8327D02*
X77373Y8200D01*
X77246Y8327D02*
X77373D01*
X77500Y8454D01*
X77627Y8327D01*
X77754D01*
X77627Y8200D02*
X77754Y8327D01*
X77627Y8200D02*
X77754Y8073D01*
X77627D02*
X77754D01*
X77500Y7946D02*
X77627Y8073D01*
X77073Y2373D02*
X77200Y2246D01*
X76946Y2373D02*
X77073D01*
X76946D02*
X77073Y2500D01*
X76946Y2627D02*
X77073Y2500D01*
X76946Y2627D02*
X77073D01*
X77200Y2754D01*
X77327Y2627D01*
X77454D01*
X77327Y2500D02*
X77454Y2627D01*
X77327Y2500D02*
X77454Y2373D01*
X77327D02*
X77454D01*
X77200Y2246D02*
X77327Y2373D01*
X78973D02*
X79100Y2246D01*
X78846Y2373D02*
X78973D01*
X78846D02*
X78973Y2500D01*
X78846Y2627D02*
X78973Y2500D01*
X78846Y2627D02*
X78973D01*
X79100Y2754D01*
X79227Y2627D01*
X79354D01*
X79227Y2500D02*
X79354Y2627D01*
X79227Y2500D02*
X79354Y2373D01*
X79227D02*
X79354D01*
X79100Y2246D02*
X79227Y2373D01*
X81973D02*
X82100Y2246D01*
X81846Y2373D02*
X81973D01*
X81846D02*
X81973Y2500D01*
X81846Y2627D02*
X81973Y2500D01*
X81846Y2627D02*
X81973D01*
X82100Y2754D01*
X82227Y2627D01*
X82354D01*
X82227Y2500D02*
X82354Y2627D01*
X82227Y2500D02*
X82354Y2373D01*
X82227D02*
X82354D01*
X82100Y2246D02*
X82227Y2373D01*
X80273Y7073D02*
X80400Y6946D01*
X80146Y7073D02*
X80273D01*
X80146D02*
X80273Y7200D01*
X80146Y7327D02*
X80273Y7200D01*
X80146Y7327D02*
X80273D01*
X80400Y7454D01*
X80527Y7327D01*
X80654D01*
X80527Y7200D02*
X80654Y7327D01*
X80527Y7200D02*
X80654Y7073D01*
X80527D02*
X80654D01*
X80400Y6946D02*
X80527Y7073D01*
X85373Y9073D02*
X85500Y8946D01*
X85246Y9073D02*
X85373D01*
X85246D02*
X85373Y9200D01*
X85246Y9327D02*
X85373Y9200D01*
X85246Y9327D02*
X85373D01*
X85500Y9454D01*
X85627Y9327D01*
X85754D01*
X85627Y9200D02*
X85754Y9327D01*
X85627Y9200D02*
X85754Y9073D01*
X85627D02*
X85754D01*
X85500Y8946D02*
X85627Y9073D01*
X81373Y11073D02*
X81500Y10946D01*
X81246Y11073D02*
X81373D01*
X81246D02*
X81373Y11200D01*
X81246Y11327D02*
X81373Y11200D01*
X81246Y11327D02*
X81373D01*
X81500Y11454D01*
X81627Y11327D01*
X81754D01*
X81627Y11200D02*
X81754Y11327D01*
X81627Y11200D02*
X81754Y11073D01*
X81627D02*
X81754D01*
X81500Y10946D02*
X81627Y11073D01*
X83773D02*
X83900Y10946D01*
X83646Y11073D02*
X83773D01*
X83646D02*
X83773Y11200D01*
X83646Y11327D02*
X83773Y11200D01*
X83646Y11327D02*
X83773D01*
X83900Y11454D01*
X84027Y11327D01*
X84154D01*
X84027Y11200D02*
X84154Y11327D01*
X84027Y11200D02*
X84154Y11073D01*
X84027D02*
X84154D01*
X83900Y10946D02*
X84027Y11073D01*
X46873Y22573D02*
X47000Y22446D01*
X46746Y22573D02*
X46873D01*
X46746D02*
X46873Y22700D01*
X46746Y22827D02*
X46873Y22700D01*
X46746Y22827D02*
X46873D01*
X47000Y22954D01*
X47127Y22827D01*
X47254D01*
X47127Y22700D02*
X47254Y22827D01*
X47127Y22700D02*
X47254Y22573D01*
X47127D02*
X47254D01*
X47000Y22446D02*
X47127Y22573D01*
X25073Y7273D02*
X25200Y7146D01*
X24946Y7273D02*
X25073D01*
X24946D02*
X25073Y7400D01*
X24946Y7527D02*
X25073Y7400D01*
X24946Y7527D02*
X25073D01*
X25200Y7654D01*
X25327Y7527D01*
X25454D01*
X25327Y7400D02*
X25454Y7527D01*
X25327Y7400D02*
X25454Y7273D01*
X25327D02*
X25454D01*
X25200Y7146D02*
X25327Y7273D01*
X34573Y7973D02*
X34700Y7846D01*
X34446Y7973D02*
X34573D01*
X34446D02*
X34573Y8100D01*
X34446Y8227D02*
X34573Y8100D01*
X34446Y8227D02*
X34573D01*
X34700Y8354D01*
X34827Y8227D01*
X34954D01*
X34827Y8100D02*
X34954Y8227D01*
X34827Y8100D02*
X34954Y7973D01*
X34827D02*
X34954D01*
X34700Y7846D02*
X34827Y7973D01*
X26773Y10073D02*
X26900Y9946D01*
X26646Y10073D02*
X26773D01*
X26646D02*
X26773Y10200D01*
X26646Y10327D02*
X26773Y10200D01*
X26646Y10327D02*
X26773D01*
X26900Y10454D01*
X27027Y10327D01*
X27154D01*
X27027Y10200D02*
X27154Y10327D01*
X27027Y10200D02*
X27154Y10073D01*
X27027D02*
X27154D01*
X26900Y9946D02*
X27027Y10073D01*
X36373Y11473D02*
X36500Y11346D01*
X36246Y11473D02*
X36373D01*
X36246D02*
X36373Y11600D01*
X36246Y11727D02*
X36373Y11600D01*
X36246Y11727D02*
X36373D01*
X36500Y11854D01*
X36627Y11727D01*
X36754D01*
X36627Y11600D02*
X36754Y11727D01*
X36627Y11600D02*
X36754Y11473D01*
X36627D02*
X36754D01*
X36500Y11346D02*
X36627Y11473D01*
X70739Y1270D02*
X70993Y1397D01*
X71247Y1270D01*
X71120Y1524D02*
X71247Y1270D01*
X71120Y1524D02*
X71247Y1778D01*
X70993Y1651D02*
X71247Y1778D01*
X70739D02*
X70993Y1651D01*
X70739Y1778D02*
X70866Y1524D01*
X70739Y1270D02*
X70866Y1524D01*
X83058Y1270D02*
X83312Y1397D01*
X83566Y1270D01*
X83439Y1524D02*
X83566Y1270D01*
X83439Y1524D02*
X83566Y1778D01*
X83312Y1651D02*
X83566Y1778D01*
X83058D02*
X83312Y1651D01*
X83058Y1778D02*
X83185Y1524D01*
X83058Y1270D02*
X83185Y1524D01*
X58420Y1270D02*
X58674Y1397D01*
X58928Y1270D01*
X58801Y1524D02*
X58928Y1270D01*
X58801Y1524D02*
X58928Y1778D01*
X58674Y1651D02*
X58928Y1778D01*
X58420D02*
X58674Y1651D01*
X58420Y1778D02*
X58547Y1524D01*
X58420Y1270D02*
X58547Y1524D01*
X45974Y1270D02*
X46228Y1397D01*
X46482Y1270D01*
X46355Y1524D02*
X46482Y1270D01*
X46355Y1524D02*
X46482Y1778D01*
X46228Y1651D02*
X46482Y1778D01*
X45974D02*
X46228Y1651D01*
X45974Y1778D02*
X46101Y1524D01*
X45974Y1270D02*
X46101Y1524D01*
X33782Y1397D02*
X34036Y1524D01*
X34290Y1397D01*
X34163Y1651D02*
X34290Y1397D01*
X34163Y1651D02*
X34290Y1905D01*
X34036Y1778D02*
X34290Y1905D01*
X33782D02*
X34036Y1778D01*
X33782Y1905D02*
X33909Y1651D01*
X33782Y1397D02*
X33909Y1651D01*
X21336Y1397D02*
X21590Y1524D01*
X21844Y1397D01*
X21717Y1651D02*
X21844Y1397D01*
X21717Y1651D02*
X21844Y1905D01*
X21590Y1778D02*
X21844Y1905D01*
X21336D02*
X21590Y1778D01*
X21336Y1905D02*
X21463Y1651D01*
X21336Y1397D02*
X21463Y1651D01*
X10346Y1346D02*
X10600Y1473D01*
X10854Y1346D01*
X10727Y1600D02*
X10854Y1346D01*
X10727Y1600D02*
X10854Y1854D01*
X10600Y1727D02*
X10854Y1854D01*
X10346D02*
X10600Y1727D01*
X10346Y1854D02*
X10473Y1600D01*
X10346Y1346D02*
X10473Y1600D01*
X23780Y15172D02*
X23907Y15045D01*
X23653Y15172D02*
X23780D01*
X23653D02*
X23780Y15299D01*
X23653Y15426D02*
X23780Y15299D01*
X23653Y15426D02*
X23780D01*
X23907Y15553D01*
X24034Y15426D01*
X24161D01*
X24034Y15299D02*
X24161Y15426D01*
X24034Y15299D02*
X24161Y15172D01*
X24034D02*
X24161D01*
X23907Y15045D02*
X24034Y15172D01*
X36273Y22373D02*
X36400Y22246D01*
X36146Y22373D02*
X36273D01*
X36146D02*
X36273Y22500D01*
X36146Y22627D02*
X36273Y22500D01*
X36146Y22627D02*
X36273D01*
X36400Y22754D01*
X36527Y22627D01*
X36654D01*
X36527Y22500D02*
X36654Y22627D01*
X36527Y22500D02*
X36654Y22373D01*
X36527D02*
X36654D01*
X36400Y22246D02*
X36527Y22373D01*
X25553Y18694D02*
X25807Y18821D01*
X26061Y18694D01*
X25934Y18948D02*
X26061Y18694D01*
X25934Y18948D02*
X26061Y19202D01*
X25807Y19075D02*
X26061Y19202D01*
X25553D02*
X25807Y19075D01*
X25553Y19202D02*
X25680Y18948D01*
X25553Y18694D02*
X25680Y18948D01*
X36672Y20609D02*
X36926Y20736D01*
X37180Y20609D01*
X37053Y20863D02*
X37180Y20609D01*
X37053Y20863D02*
X37180Y21117D01*
X36926Y20990D02*
X37180Y21117D01*
X36672D02*
X36926Y20990D01*
X36672Y21117D02*
X36799Y20863D01*
X36672Y20609D02*
X36799Y20863D01*
X57531Y14986D02*
X58039D01*
Y15494D01*
X57531D02*
X58039D01*
X57531Y14986D02*
Y15494D01*
X45720Y26416D02*
X45974Y26924D01*
X45466D02*
X45974D01*
X45466D02*
X45720Y26416D01*
X43180D02*
X43434Y26924D01*
X42926D02*
X43434D01*
X42926D02*
X43180Y26416D01*
X40640D02*
X40894Y26924D01*
X40386D02*
X40894D01*
X40386D02*
X40640Y26416D01*
X48260D02*
X48514Y26924D01*
X48006D02*
X48514D01*
X48006D02*
X48260Y26416D01*
X30861Y14986D02*
X31369D01*
Y15494D01*
X30861D02*
X31369D01*
X30861Y14986D02*
Y15494D01*
D50*
X211595Y17890D02*
Y19330D01*
X212315D01*
X212555Y19090D01*
Y18610D01*
X212315Y18370D01*
X211595D01*
X213274Y18850D02*
X213754D01*
X213994Y18610D01*
Y17890D01*
X213274D01*
X213034Y18130D01*
X213274Y18370D01*
X213994D01*
X215434Y19330D02*
Y17890D01*
X214714D01*
X214474Y18130D01*
Y18610D01*
X214714Y18850D01*
X215434D01*
X218313Y19090D02*
X218073Y19330D01*
X217593D01*
X217353Y19090D01*
Y18850D01*
X217593Y18610D01*
X218073D01*
X218313Y18370D01*
Y18130D01*
X218073Y17890D01*
X217593D01*
X217353Y18130D01*
X218793Y19330D02*
Y17890D01*
Y18610D01*
X219032Y18850D01*
X219512D01*
X219752Y18610D01*
Y17890D01*
X220472Y18850D02*
X220952D01*
X221192Y18610D01*
Y17890D01*
X220472D01*
X220232Y18130D01*
X220472Y18370D01*
X221192D01*
X221672Y17411D02*
Y18850D01*
X222391D01*
X222631Y18610D01*
Y18130D01*
X222391Y17890D01*
X221672D01*
X223831D02*
X223351D01*
X223111Y18130D01*
Y18610D01*
X223351Y18850D01*
X223831D01*
X224071Y18610D01*
Y18370D01*
X223111D01*
X199625Y19330D02*
Y18370D01*
X200105Y17890D01*
X200585Y18370D01*
Y19330D01*
X201065Y17890D02*
X201544D01*
X201305D01*
Y18850D01*
X201065D01*
X202504D02*
X202984D01*
X203224Y18610D01*
Y17890D01*
X202504D01*
X202264Y18130D01*
X202504Y18370D01*
X203224D01*
X203704Y17890D02*
X204663Y18850D01*
X205143Y17890D02*
Y19330D01*
X205863D01*
X206103Y19090D01*
Y18610D01*
X205863Y18370D01*
X205143D01*
X206823Y18850D02*
X207303D01*
X207543Y18610D01*
Y17890D01*
X206823D01*
X206583Y18130D01*
X206823Y18370D01*
X207543D01*
X208982Y19330D02*
Y17890D01*
X208262D01*
X208022Y18130D01*
Y18610D01*
X208262Y18850D01*
X208982D01*
X169526Y19330D02*
Y17890D01*
X170246D01*
X170486Y18130D01*
Y19090D01*
X170246Y19330D01*
X169526D01*
X170966Y18850D02*
Y17890D01*
Y18370D01*
X171206Y18610D01*
X171445Y18850D01*
X171685D01*
X172405Y17890D02*
X172885D01*
X172645D01*
Y18850D01*
X172405D01*
X173605Y17890D02*
X174085D01*
X173845D01*
Y19330D01*
X173605D01*
X174804Y17890D02*
X175284D01*
X175044D01*
Y19330D01*
X174804D01*
X177444D02*
Y17890D01*
X178403D01*
X179123Y18850D02*
X179603D01*
X179843Y18610D01*
Y17890D01*
X179123D01*
X178883Y18130D01*
X179123Y18370D01*
X179843D01*
X180323Y18850D02*
Y18130D01*
X180563Y17890D01*
X181282D01*
Y17651D01*
X181042Y17411D01*
X180802D01*
X181282Y17890D02*
Y18850D01*
X182482Y17890D02*
X182002D01*
X181762Y18130D01*
Y18610D01*
X182002Y18850D01*
X182482D01*
X182722Y18610D01*
Y18370D01*
X181762D01*
X183202Y18850D02*
Y17890D01*
Y18370D01*
X183442Y18610D01*
X183682Y18850D01*
X183921D01*
X186081Y17890D02*
Y19330D01*
X186801D01*
X187040Y19090D01*
Y18610D01*
X186801Y18370D01*
X186081D01*
X187760Y18850D02*
X188240D01*
X188480Y18610D01*
Y17890D01*
X187760D01*
X187520Y18130D01*
X187760Y18370D01*
X188480D01*
X188960Y17890D02*
X189440D01*
X189200D01*
Y18850D01*
X188960D01*
X190159D02*
Y17890D01*
Y18370D01*
X190399Y18610D01*
X190639Y18850D01*
X190879D01*
X154677Y19330D02*
Y17890D01*
Y18610D01*
X155637D01*
Y19330D01*
Y17890D01*
X156357D02*
X156837D01*
X157077Y18130D01*
Y18610D01*
X156837Y18850D01*
X156357D01*
X156117Y18610D01*
Y18130D01*
X156357Y17890D01*
X157556D02*
X158036D01*
X157796D01*
Y19330D01*
X157556D01*
X159476Y17890D02*
X158996D01*
X158756Y18130D01*
Y18610D01*
X158996Y18850D01*
X159476D01*
X159716Y18610D01*
Y18370D01*
X158756D01*
X161635Y19330D02*
X162595D01*
X162115D01*
Y17890D01*
X163075Y18850D02*
Y18130D01*
X163314Y17890D01*
X164034D01*
Y17651D01*
X163794Y17411D01*
X163554D01*
X164034Y17890D02*
Y18850D01*
X164514Y17411D02*
Y18850D01*
X165234D01*
X165474Y18610D01*
Y18130D01*
X165234Y17890D01*
X164514D01*
X166673D02*
X166194D01*
X165954Y18130D01*
Y18610D01*
X166194Y18850D01*
X166673D01*
X166913Y18610D01*
Y18370D01*
X165954D01*
X144387Y17890D02*
Y19330D01*
X145107D01*
X145347Y19090D01*
Y18610D01*
X145107Y18370D01*
X144387D01*
X145827Y17890D02*
X146306D01*
X146066D01*
Y19330D01*
X145827D01*
X147266Y18850D02*
X147746D01*
X147986Y18610D01*
Y17890D01*
X147266D01*
X147026Y18130D01*
X147266Y18370D01*
X147986D01*
X148706Y19090D02*
Y18850D01*
X148466D01*
X148945D01*
X148706D01*
Y18130D01*
X148945Y17890D01*
X150385D02*
X149905D01*
X149665Y18130D01*
Y18610D01*
X149905Y18850D01*
X150385D01*
X150625Y18610D01*
Y18370D01*
X149665D01*
X152064Y19330D02*
Y17890D01*
X151345D01*
X151105Y18130D01*
Y18610D01*
X151345Y18850D01*
X152064D01*
X121286Y19330D02*
Y17890D01*
Y18610D01*
X122245D01*
Y19330D01*
Y17890D01*
X122965D02*
X123445D01*
X123685Y18130D01*
Y18610D01*
X123445Y18850D01*
X122965D01*
X122725Y18610D01*
Y18130D01*
X122965Y17890D01*
X124165D02*
X124645D01*
X124405D01*
Y19330D01*
X124165D01*
X126084Y17890D02*
X125604D01*
X125364Y18130D01*
Y18610D01*
X125604Y18850D01*
X126084D01*
X126324Y18610D01*
Y18370D01*
X125364D01*
X129203Y19090D02*
X128963Y19330D01*
X128483D01*
X128243Y19090D01*
Y18850D01*
X128483Y18610D01*
X128963D01*
X129203Y18370D01*
Y18130D01*
X128963Y17890D01*
X128483D01*
X128243Y18130D01*
X129683Y17890D02*
X130163D01*
X129923D01*
Y18850D01*
X129683D01*
X130883D02*
X131842D01*
X130883Y17890D01*
X131842D01*
X133042D02*
X132562D01*
X132322Y18130D01*
Y18610D01*
X132562Y18850D01*
X133042D01*
X133282Y18610D01*
Y18370D01*
X132322D01*
X110340Y19090D02*
X110101Y19330D01*
X109621D01*
X109381Y19090D01*
Y18130D01*
X109621Y17890D01*
X110101D01*
X110340Y18130D01*
X111060Y17890D02*
X111540D01*
X111780Y18130D01*
Y18610D01*
X111540Y18850D01*
X111060D01*
X110820Y18610D01*
Y18130D01*
X111060Y17890D01*
X112260Y18850D02*
Y18130D01*
X112500Y17890D01*
X113220D01*
Y18850D01*
X113699Y17890D02*
Y18850D01*
X114419D01*
X114659Y18610D01*
Y17890D01*
X115379Y19090D02*
Y18850D01*
X115139D01*
X115619D01*
X115379D01*
Y18130D01*
X115619Y17890D01*
X100050Y19090D02*
X99810Y19330D01*
X99330D01*
X99090Y19090D01*
Y18850D01*
X99330Y18610D01*
X99810D01*
X100050Y18370D01*
Y18130D01*
X99810Y17890D01*
X99330D01*
X99090Y18130D01*
X100530Y18850D02*
Y18130D01*
X100770Y17890D01*
X101490D01*
Y17651D01*
X101250Y17411D01*
X101010D01*
X101490Y17890D02*
Y18850D01*
X101970Y17890D02*
Y18850D01*
X102209D01*
X102449Y18610D01*
Y17890D01*
Y18610D01*
X102689Y18850D01*
X102929Y18610D01*
Y17890D01*
X103409Y19330D02*
Y17890D01*
X104129D01*
X104369Y18130D01*
Y18370D01*
Y18610D01*
X104129Y18850D01*
X103409D01*
X105089Y17890D02*
X105568D01*
X105808Y18130D01*
Y18610D01*
X105568Y18850D01*
X105089D01*
X104849Y18610D01*
Y18130D01*
X105089Y17890D01*
X106288D02*
X106768D01*
X106528D01*
Y19330D01*
X106288D01*
M02*
