M48
;Layer_Color=9474304
;FILE_FORMAT=4:3
METRIC,LZ
;TYPE=PLATED
T01F00S00C0.300
T02F00S00C0.500
T03F00S00C1.100
T04F00S00C3.200
%
T01
X00815Y00007
X00821Y00025
X0085Y0001
X00875
Y00035
Y0006
Y00085
Y0011
X00839Y00112
X00815
X00832Y00094
X00837Y00076
X00855Y00092
X00804Y00072
X00775Y00082
X00742Y00084
X00712
X00711Y00073
X00682Y00076
X00652Y00083
X00617Y0008
X00586Y00083
X00588Y00071
X0055473Y0007337
X00528Y00081
X00502Y00078
X00491Y00084
X00467Y00085
X00464Y00076
X00433Y00072
X00435Y00025
X00454
X00437Y00007
X0041Y00025
X00411Y00121
X00424
X0041Y00136
X0046228Y0013386
X00458Y00145
X0046203Y0015621
X00466Y00171
X0047Y00185
X004572Y0018542
X00445Y00184
X0042545Y0018415
X00512Y00182
X0051434Y0013766
X00526Y00109
X00501Y0011
X00471Y00122
X00454Y00105
X00503Y00048
X00513Y00026
X00491Y00007
X00545
X00599
X00587Y00029
X00627Y00043
X00642Y00026
X00664Y00023
X00653Y00007
X00704
X007Y00025
X00713Y00034
X00772Y00025
X00791
X00761Y00007
X0065Y0012
Y00159
X00635Y00195
X0035829Y0015439
X00365Y00116
X00373Y00113
X0037167Y0008708
X0039649Y000828
X00399Y00073
X00347Y00081
X00339Y00079
X00309Y00074
X0028Y00081
X00269Y00102
X00251Y0009
X00252Y00074
X00218Y0009
X0022921Y0011445
X00239Y00125
X0023907Y0015299
X00248Y00189
X0020312Y0011425
X00149Y00113
X00154Y0008
X00139Y00081
X00125Y00089
X00092Y0009
X00095Y00113
X00041
X00013
X0001Y00102
Y00074
X00035Y0009
X00062Y00077
X00059Y00007
X0001
X00011Y00026
X00113Y00007
X00167
X0015Y00026
X00185
Y00076
X00221Y00007
X00275
X0028Y00026
X00327
X00329Y00007
X00383
X00364Y00225
X00343
X00318
X00288Y00222
X0026784Y0020875
X00391Y00245
Y00267
Y00288
X00395Y003
X0042
X00445
X0047
X00495
X00499Y00271
X0052Y00225
X0055
X0058
X00605Y00219
X0047Y00227
X00445Y0021
X00422Y00207
X00411Y00222
T02
X0083312Y0001524
X0086674Y0002075
X00822Y00081
X00751Y00058
X0074874Y0002674
X0070993Y0001524
X00701Y00078
X0062798Y0005845
X0062575Y0002674
X0058674Y0001524
X00573Y00078
X0050438Y0005868
X0049974Y0002575
X0046228Y0001524
X00448Y0008
X0037906Y0005845
X0037875Y0002774
X0034036Y0001651
X00324Y00082
X002546Y0005985
X0025375Y0002674
X002159Y0001651
X00201Y00079
X0013241Y0005781
X0013274Y0002674
X00106Y00016
X00077Y00077
X0000841Y0005781
X0025807Y0018948
X0036926Y0020863
X0046595Y0020955
T03
X004064Y002667
X004318
X004572
X004826
T04
X0057785Y001524
X0031115
M30
